<svg width="35" height="35" viewBox="0 0 40 35" fill="none" xmlns="http://www.w3.org/2000/svg">
<path fill-rule="evenodd" clip-rule="evenodd" d="M16 26.2561C12.2819 26.2561 9.21339 25.2566 7.78411 23.6274C5.4053 20.8688 5.4053 11.6334 7.78411 8.8948C9.21339 7.26561 12.2819 6.26611 16 6.26611C19.7181 6.26611 22.7866 7.26561 24.2159 8.8948C26.5947 11.6534 26.5947 20.8888 24.2159 23.6274C22.7866 25.2566 19.7181 26.2561 16 26.2561ZM16 8.26511C13.0015 8.26511 10.3028 9.04472 9.29335 10.2041C7.58421 12.2031 7.58421 20.3391 9.29335 22.3181C10.3028 23.4775 13.0015 24.2571 16 24.2571C18.9985 24.2571 21.6972 23.4775 22.7066 22.3181C24.4158 20.3191 24.4158 12.1832 22.7066 10.2041C21.6972 9.04472 18.9985 8.26511 16 8.26511ZM16 13.5125C16.69 13.5125 17.2494 12.9531 17.2494 12.2631C17.2494 11.5731 16.69 11.0137 16 11.0137C15.31 11.0137 14.7506 11.5731 14.7506 12.2631C14.7506 12.9531 15.31 13.5125 16 13.5125ZM15.0005 19.7594V16.7609C14.4485 16.7609 14.001 16.3134 14.001 15.7614C14.001 15.2094 14.4485 14.7619 15.0005 14.7619H16C16.552 14.7619 16.9995 15.2094 16.9995 15.7614V19.7594C17.5515 19.7594 17.999 20.2069 17.999 20.7589C17.999 21.3109 17.5515 21.7584 16.9995 21.7584H16H15.0005C14.4485 21.7584 14.001 21.3109 14.001 20.7589C14.001 20.2069 14.4485 19.7594 15.0005 19.7594Z" fill="#474954"/>
</svg>
