<?xml version="1.0" encoding="UTF-8"?>
<svg width="36px" height="36px" viewBox="0 0 36 36" version="1.1" xmlns="http://www.w3.org/2000/svg" xmlns:xlink="http://www.w3.org/1999/xlink">
    <title>add</title>
    <g id="Page-1" stroke="none" stroke-width="1" fill="none" fill-rule="evenodd">
        <g id="app-assets" transform="translate(-190.000000, -612.000000)" fill-rule="nonzero">
            <g id="add" transform="translate(190.000000, 612.000000)">
                <path d="M0,18 C0,32.823 3.177,36 18,36 C32.823,36 36,32.823 36,18 C36,3.177 32.823,0 18,0 C3.177,0 0,3.177 0,18 Z" id="Path" fill="#FE6D73"></path>
                <path d="M18,10 C17.2636203,10 16.6666667,10.5969537 16.6666667,11.3333333 L16.6666667,16.6666667 L11.3333333,16.6666667 C10.5969537,16.6666667 10,17.2636203 10,18 C10,18.7363797 10.5969537,19.3333333 11.3333333,19.3333333 L16.6666667,19.3333333 L16.6666667,24.6666667 C16.6666667,25.4030463 17.2636203,26 18,26 C18.7363797,26 19.3333333,25.4030463 19.3333333,24.6666667 L19.3333333,19.3333333 L24.6666667,19.3333333 C25.4030463,19.3333333 26,18.7363797 26,18 C26,17.2636203 25.4030463,16.6666667 24.6666667,16.6666667 L19.3333333,16.6666667 L19.3333333,11.3333333 C19.3333333,10.5969537 18.7363797,10 18,10 Z" id="Path" fill="#FFFFFF"></path>
            </g>
        </g>
    </g>
</svg>