<?xml version="1.0" encoding="UTF-8"?>
<svg width="20px" height="17px" viewBox="0 0 20 17" version="1.1"
    xmlns="http://www.w3.org/2000/svg">
    <title>arrow</title>
    <g id="Page-1" stroke="none" stroke-width="1" fill="none" fill-rule="evenodd">
        <g id="app-assets" transform="translate(-78.000000, -623.000000)" fill="#474954"
            fill-rule="nonzero">
            <path
                d="M97.6801882,630.787241 L90.4574842,623.564374 C90.2513071,623.358197 89.9765126,623.245027 89.6835069,623.245027 C89.3901761,623.245027 89.1155442,623.35836 88.9093671,623.564374 L88.2536002,624.220304 C88.0475856,624.426156 87.9340906,624.701113 87.9340906,624.994281 C87.9340906,625.287287 88.0475856,625.571512 88.2536002,625.777364 L92.4672235,630.000255 L79.0803434,630.000255 C78.4767712,630.000255 77.9998646,630.472772 77.9998646,631.076507 L77.9998646,632.003816 C77.9998646,632.607551 78.4767712,633.127709 79.0803434,633.127709 L92.515028,633.127709 L88.2537628,637.374178 C88.0477482,637.580355 87.9342532,637.847832 87.9342532,638.141001 C87.9342532,638.433844 88.0477482,638.705223 88.2537628,638.911238 L88.9095297,639.565054 C89.1157068,639.771231 89.3903387,639.883588 89.6836695,639.883588 C89.9766752,639.883588 90.2514697,639.769767 90.4576468,639.56359 L97.6803508,632.340886 C97.8870157,632.134059 98.0006733,631.857964 97.9998646,631.56447 C98.0005107,631.270001 97.8870157,630.993743 97.6801882,630.787241 Z"
                id="arrow"
                transform="translate(87.999865, 631.564307) rotate(-1.000000) translate(-87.999865, -631.564307) ">
            </path>
        </g>
    </g>
</svg>