<svg width="16" height="13" viewBox="0 0 16 13" fill="none" xmlns="http://www.w3.org/2000/svg">
<path d="M0.354687 5.70701L5.77171 0.289864C5.92635 0.135231 6.13244 0.050354 6.3522 0.050354C6.5722 0.050354 6.77817 0.135353 6.9328 0.289864L7.42463 0.781811C7.57914 0.9362 7.66426 1.14242 7.66426 1.36229C7.66426 1.58205 7.57914 1.79522 7.42463 1.94961L4.26441 5.11678H14.3046C14.7572 5.11678 15.1149 5.47116 15.1149 5.92396V6.61945C15.1149 7.07225 14.7572 7.46237 14.3046 7.46237H4.22856L7.42451 10.6472C7.57902 10.8018 7.66414 11.0025 7.66414 11.2223C7.66414 11.442 7.57902 11.6455 7.42451 11.8L6.93268 12.2904C6.77805 12.445 6.57207 12.5293 6.35208 12.5293C6.13232 12.5293 5.92622 12.4439 5.77159 12.2893L0.354565 6.87225C0.199566 6.71713 0.114323 6.51006 0.114932 6.28994C0.114445 6.06908 0.199566 5.86189 0.354687 5.70701Z" fill="#474954"/>
</svg>
