<svg width="50" height="50" viewBox="0 0 50 50" fill="none" xmlns="http://www.w3.org/2000/svg">
    <path
        d="M0 25C0 45.5875 4.4125 50 25 50C45.5875 50 50 45.5875 50 25C50 4.4125 45.5875 0 25 0C4.4125 0 0 4.4125 0 25Z"
        fill="#FE6D73" />
    <path fill-rule="evenodd" clip-rule="evenodd"
        d="M32.0725 18.1568H34.5486C36.9418 18.1568 38.8889 20.1038 38.8889 22.4971V33.0856C38.8889 35.4788 36.9418 37.4259 34.5486 37.4259H15.4514C13.0581 37.4259 11.1111 35.4788 11.1111 33.0856V22.4971C11.1111 20.1039 13.0581 18.1568 15.4514 18.1568H17.9274L18.8617 16.2882C19.6017 14.8082 21.0892 13.8889 22.7438 13.8889H27.2561C28.9107 13.8889 30.3982 14.8082 31.1382 16.2882L32.0725 18.1568ZM34.5486 35.2557C35.7452 35.2557 36.7187 34.2822 36.7187 33.0856V22.4971C36.7187 21.3005 35.7452 20.327 34.5486 20.327H31.4019C30.9909 20.327 30.6152 20.0948 30.4314 19.7271L29.1971 17.2587C28.8272 16.5187 28.0834 16.059 27.2561 16.059H22.7439C21.9166 16.059 21.1728 16.5187 20.8029 17.2587L19.5686 19.7271C19.3847 20.0948 19.0091 20.327 18.5981 20.327H15.4514C14.2547 20.327 13.2812 21.3005 13.2812 22.4971V33.0856C13.2812 34.2822 14.2547 35.2557 15.4514 35.2557H34.5486ZM25 21.3397C22.0483 21.3397 19.6469 23.7411 19.6469 26.6927C19.6469 29.6444 22.0483 32.0458 25 32.0458C27.9516 32.0458 30.353 29.6444 30.353 26.6927C30.353 23.741 27.9516 21.3397 25 21.3397ZM21.8171 26.6927C21.8171 28.4477 23.2449 29.8756 25 29.8756C26.755 29.8756 28.1829 28.4477 28.1829 26.6927C28.1829 24.9376 26.755 23.5098 25 23.5098C23.2449 23.5098 21.8171 24.9376 21.8171 26.6927Z"
        fill="white" />
</svg>
