<?xml version="1.0" encoding="UTF-8"?>
<svg width="18px" height="18px" viewBox="0 0 18 18" version="1.1" xmlns="http://www.w3.org/2000/svg" xmlns:xlink="http://www.w3.org/1999/xlink">
    <title>request-cancel</title>
    <g id="Page-1" stroke="none" stroke-width="1" fill="none" fill-rule="evenodd">
        <g id="app-assets" transform="translate(-767.000000, -1059.000000)" fill="#474954" fill-rule="nonzero">
            <g id="request-cancel" transform="translate(767.000000, 1059.000000)">
                <path d="M15.3668194,2.63318059 C11.8551733,-0.877726864 6.14424633,-0.877726864 2.63260024,2.63318059 C-0.877533414,6.14408805 -0.877533414,11.8564923 2.63260024,15.3673998 C4.38842328,17.1224842 6.69424242,17.9996219 9.00009673,17.9996219 C11.305951,17.9996219 13.6109964,17.122449 15.3668194,15.3673998 C18.8777269,11.8565275 18.8777269,6.14408805 15.3668194,2.63318059 Z M12.713564,11.6531587 C13.0069398,11.9465345 13.0069398,12.4207685 12.713564,12.7141443 C12.5672454,12.8604629 12.3751671,12.9340091 12.1830536,12.9340091 C11.9909753,12.9340091 11.7988618,12.8604629 11.6525432,12.7141443 L9.00006155,10.0608889 L6.34831855,12.7133705 C6.20126133,12.8596891 6.00914784,12.9332353 5.81780815,12.9332353 C5.62572983,12.9332353 5.43361634,12.8596891 5.28729776,12.7133705 C4.99392196,12.4199947 4.99392196,11.9450221 5.28729776,11.6523849 L7.93904076,8.99990327 L5.28655913,6.34742164 C4.99318333,6.05404584 4.99318333,5.5790732 5.28655913,5.28643602 C5.5791963,4.99306022 6.05416895,4.99306022 6.34754475,5.28643602 L9.00002638,7.93891766 L11.652508,5.28643602 C11.9458838,4.99306022 12.4201178,4.99306022 12.7134936,5.28643602 C13.0068694,5.5790732 13.0068694,6.05404584 12.7134936,6.34742164 L10.061012,8.99990327 L12.713564,11.6531587 Z" id="Shape"></path>
            </g>
        </g>
    </g>
</svg>