<?xml version="1.0" encoding="UTF-8"?>
<svg width="27px" height="33px" viewBox="0 0.5 27 33" version="1.1" xmlns="http://www.w3.org/2000/svg" xmlns:xlink="http://www.w3.org/1999/xlink">
    <title>services 2</title>
    <g id="Page-1" stroke="none" stroke-width="1" fill="none" fill-rule="evenodd">
        <g id="app-assets" transform="translate(-745.000000, -836.000000)" fill="#0D3B66" fill-rule="nonzero">
            <g id="Group-5" transform="translate(639.250000, 778.943155)">
                <g id="services-2" transform="translate(106.076087, 58.010870)">
                    <path d="M12.9347826,-7.10542736e-15 C16.535503,-7.10542736e-15 19.4544636,2.86148398 19.4544636,6.39130335 L19.454,7.179 L21.7254858,7.17956266 C23.4720929,7.17795579 24.9096407,8.52612999 24.9853262,10.2367375 L25.8654832,28.6010825 C25.9101618,29.4759516 25.5865423,30.330446 24.9702943,30.9647653 C24.3540462,31.5990846 23.4992016,31.9576124 22.6056427,31.9565192 L3.26392254,31.9565192 C2.37036357,31.9576124 1.51551897,31.5990846 0.899270923,30.9647653 C0.283022878,30.330446 -0.0405966188,29.4759516 0.00408206346,28.6010825 L0.884238991,10.2367375 C0.959924564,8.52612999 2.39747232,7.17795579 4.14407946,7.17956266 L6.415,7.179 L6.41510166,6.39130335 C6.41510166,2.86148398 9.33406225,-7.10542736e-15 12.9347826,-7.10542736e-15 Z M21.7254858,9.27804203 L4.14407946,9.32065072 C3.5439594,9.32065072 3.05746597,9.79756471 3.05746597,10.3858679 L2.17730905,28.7076042 C2.16241615,28.9992272 2.27028932,29.2840587 2.47570533,29.4954985 C2.68112135,29.7069382 2.96606955,29.8264475 3.26392254,29.8260831 L22.6056427,29.8260831 C22.9034957,29.8264475 23.1884439,29.7069382 23.3938599,29.4954985 C23.5992759,29.2840587 23.7071491,28.9992272 23.6922562,28.7076042 L22.8120992,10.3432593 C22.8120992,9.75495602 22.3256058,9.27804203 21.7254858,9.27804203 Z M18.3026533,11.5576069 C18.6214394,11.5540679 18.9257282,11.6879468 19.1349223,11.9237829 C19.3441164,12.1596191 19.4371082,12.4736166 19.3892667,12.7826067 C18.773862,15.7909806 16.0645389,17.9461652 12.9347826,17.9169537 C9.82541927,17.9205996 7.14613548,15.7712179 6.53462915,12.7826067 C6.48678772,12.4736166 6.57977947,12.1596191 6.78897357,11.9237829 C6.99816768,11.6879468 7.30245648,11.5540679 7.62124264,11.5576069 C8.15605179,11.5499843 8.61698549,11.925026 8.70785613,12.4417372 C9.12965285,14.4153554 10.9049765,15.8288844 12.9619479,15.8288844 C15.0189194,15.8288844 16.794243,14.4153554 17.2160398,12.4417372 C17.3069104,11.925026 17.7678441,11.5499843 18.3026533,11.5576069 Z M12.9347826,2.13043445 C10.5343024,2.13043445 8.58832864,4.03809043 8.58832864,6.39130335 L8.588,7.179 L17.281,7.179 L17.2812366,6.39130335 C17.2812366,4.03809043 15.3352628,2.13043445 12.9347826,2.13043445 Z" id="Combined-Shape"></path>
                </g>
            </g>
        </g>
    </g>
</svg>