<?xml version="1.0" encoding="UTF-8"?>
<svg width="18px" height="18px" viewBox="0 0 18 18" version="1.1" xmlns="http://www.w3.org/2000/svg" xmlns:xlink="http://www.w3.org/1999/xlink">
    <title>request-chat</title>
    <g id="Page-1" stroke="none" stroke-width="1" fill="none" fill-rule="evenodd">
        <g id="app-assets" transform="translate(-653.000000, -1059.000000)" fill="#474954" fill-rule="nonzero">
            <g id="request-chat" transform="translate(653.000000, 1059.000000)">
                <path d="M10.0546612,3.59415949 C12.9210034,3.59415949 14.3586672,5.03182329 14.3586672,7.89816548 L14.3586672,11.492325 C14.3586672,11.7259453 14.3496818,11.9505803 14.3227256,12.1662299 C14.1160614,14.5922875 12.687383,15.796331 10.0546612,15.796331 L9.69524523,15.796331 C9.47061026,15.796331 9.25496069,15.9041557 9.12017971,16.0838637 L8.04193186,17.5215275 C7.56570573,18.1594908 6.79296144,18.1594908 6.31673531,17.5215275 L5.23848746,16.0838637 C5.12167727,15.9311119 4.86110071,15.796331 4.66342194,15.796331 L4.30400599,15.796331 C1.4376638,15.796331 0,15.0864845 0,11.492325 L0,7.89816548 C0,5.26544365 1.21302883,3.83676526 3.63010109,3.63010109 C3.84575066,3.60314489 4.07038562,3.59415949 4.30400599,3.59415949 Z M13.6490004,0 C16.5153426,0 17.9530064,1.4376638 17.9530064,4.30400599 L17.9530064,7.89816548 C17.9530064,9.69524523 17.3959116,10.9172595 16.2817222,11.5911644 C16.0121602,11.7529015 15.6976713,11.537252 15.6976713,11.222763 L15.7066567,7.89816548 C15.7066567,4.30400599 13.6490004,2.24634968 10.0548409,2.24634968 L4.58277799,2.25533508 C4.26828903,2.25533508 4.05263946,1.94084613 4.21437664,1.67128416 C4.88828154,0.557094721 6.11029577,0 7.89834519,0 L13.6490004,0 Z M4.04342943,8.98539873 C3.5492325,8.98539873 3.14488955,9.38974167 3.14488955,9.8839386 C3.14488955,10.3781355 3.5402471,10.7824785 4.04342943,10.7824785 C4.53762636,10.7824785 4.9419693,10.3781355 4.9419693,9.8839386 C4.9419693,9.38974167 4.53762636,8.98539873 4.04342943,8.98539873 Z M7.17933358,8.98539873 C6.68513665,8.98539873 6.28079371,9.38974167 6.28079371,9.8839386 C6.28079371,10.3781355 6.67615125,10.7824785 7.17933358,10.7824785 C7.68251591,10.7824785 8.07787346,10.3781355 8.07787346,9.8839386 C8.07787346,9.38974167 7.67353051,8.98539873 7.17933358,8.98539873 Z M10.3242231,8.98539873 C9.83002621,8.98539873 9.42568326,9.38974167 9.42568326,9.8839386 C9.42568326,10.3781355 9.82104081,10.7824785 10.3242231,10.7824785 C10.8184201,10.7824785 11.222763,10.3781355 11.222763,9.8839386 C11.222763,9.38974167 10.8184201,8.98539873 10.3242231,8.98539873 Z" id="Combined-Shape"></path>
            </g>
        </g>
    </g>
</svg>