<?xml version="1.0" encoding="UTF-8"?>
<svg width="26px" height="26px" viewBox="0 0 26 26" version="1.1" xmlns="http://www.w3.org/2000/svg" xmlns:xlink="http://www.w3.org/1999/xlink">
    <title>checkbox-off</title>
    <g id="Page-1" stroke="none" stroke-width="1" fill="none" fill-rule="evenodd" opacity="0.2">
        <g id="app-assets" transform="translate(-322.000000, -320.000000)" fill="#474954" fill-rule="nonzero">
            <g id="checkbox-off" transform="translate(322.000000, 320.000000)">
                <path d="M13.3424289,0.000803476566 C23.7545788,0.0503165684 26,2.4096129 26,13 C26,23.7055 23.7055,26 13,26 C2.2945,26 0,23.7055 0,13 L0.000803476566,12.6575711 C0.0503165684,2.2454212 2.4096129,0 13,0 Z M13,2.16668359 C10.3730859,2.16668359 8.40998438,2.31029297 6.92244922,2.64087891 C5.45949219,2.96603125 4.59255469,3.44251172 4.01750781,4.01750781 C3.44246094,4.59250391 2.96598047,5.45944141 2.64087891,6.92244922 C2.31024219,8.40998438 2.16668359,10.3730859 2.16668359,13 C2.16668359,15.6269648 2.31029297,17.5899648 2.64087891,19.0776016 C2.96603125,20.5405586 3.44251172,21.4075469 4.01750781,21.9824414 C4.59250391,22.5574883 5.45944141,23.0340195 6.92244922,23.3591211 C8.41003516,23.6897578 10.3730859,23.8333164 13,23.8333164 C15.6269648,23.8333164 17.5899648,23.6897578 19.0776016,23.3591211 C20.5405586,23.0340195 21.4075469,22.5574375 21.9824414,21.9824414 C22.5574883,21.4074961 23.0340195,20.5405078 23.3591211,19.0776016 C23.6897578,17.5899648 23.8333164,15.6269648 23.8333164,13 C23.8333164,10.3730859 23.6897578,8.40998438 23.3591211,6.92244922 C23.0340195,5.45949219 22.5574375,4.59255469 21.9824414,4.01750781 C21.4074961,3.44251172 20.5405078,2.96598047 19.0776016,2.64087891 C17.5899648,2.31029297 15.6269648,2.16668359 13,2.16668359 Z" id="Shape"></path>
            </g>
        </g>
    </g>
</svg>