<?xml version="1.0" encoding="UTF-8"?>
<svg width="26px" height="26px" viewBox="0 0 26 26" version="1.1" xmlns="http://www.w3.org/2000/svg" xmlns:xlink="http://www.w3.org/1999/xlink">
    <title>checkbox-on</title>
    <g id="Page-1" stroke="none" stroke-width="1" fill="none" fill-rule="evenodd">
        <g id="app-assets" transform="translate(-276.000000, -320.000000)" fill-rule="nonzero">
            <g id="checkbox-on" transform="translate(276.000000, 320.000000)">
                <path d="M0,13 C0,23.7055 2.2945,26 13,26 C23.7055,26 26,23.7055 26,13 C26,2.2945 23.7055,0 13,0 C2.2945,0 0,2.2945 0,13 Z" id="Path" fill="#FE6D73"></path>
                <path d="M18.9627604,10.861533 C19.4648547,10.3594387 19.4648547,9.54533596 18.9627604,9.04324164 C18.4606661,8.54114732 17.6465633,8.54114732 17.144469,9.04324164 L11.6249873,14.5627233 L9.31984944,12.2575252 C8.81775512,11.7554309 8.00365236,11.7554309 7.50155804,12.2575252 C6.99946372,12.7596195 6.99946372,13.5737223 7.50155804,14.0758166 L10.7159019,17.2901002 C11.2179962,17.7921945 12.032099,17.7921945 12.5341933,17.2901002 L18.9627604,10.861533 Z" id="Path" fill="#FFFFFF"></path>
            </g>
        </g>
    </g>
</svg>