<?xml version="1.0" encoding="UTF-8"?>
<svg width="14px" height="14px" viewBox="0 0 14 14" version="1.1" xmlns="http://www.w3.org/2000/svg" xmlns:xlink="http://www.w3.org/1999/xlink">
    <title>close</title>
    <g id="Page-1" stroke="none" stroke-width="1" fill="none" fill-rule="evenodd">
        <g id="app-assets" transform="translate(-137.000000, -624.000000)" fill="#474954" fill-rule="nonzero">
            <path d="M146.258738,631.014823 L150.719204,626.552132 C151.093599,626.177737 151.093599,625.568279 150.719204,625.189319 L149.810681,624.280796 C149.436286,623.906401 148.8268,623.906401 148.447839,624.280796 L143.987402,628.743459 L139.552132,624.308217 C139.177737,623.933822 138.568279,623.933822 138.189319,624.308217 L137.280796,625.21674 C136.906401,625.591135 136.906401,626.200593 137.280796,626.579439 L141.716152,631.014823 L137.285362,635.443274 C136.910967,635.817669 136.910967,636.427155 137.285362,636.806115 L138.193885,637.714638 C138.568279,638.089033 139.177737,638.089033 139.556726,637.714638 L143.987402,633.286159 L148.427323,637.725995 C148.801747,638.10039 149.411205,638.10039 149.790051,637.725995 L150.698574,636.817472 C151.072969,636.443077 151.072969,635.833619 150.698574,635.454745 L146.258738,631.014823 Z" id="close"></path>
        </g>
    </g>
</svg>