<?xml version="1.0" encoding="UTF-8"?>
<svg width="20px" height="20px" viewBox="0 0 20 20" version="1.1" xmlns="http://www.w3.org/2000/svg" xmlns:xlink="http://www.w3.org/1999/xlink">
    <title>profile-contacts</title>
    <g id="Page-1" stroke="none" stroke-width="1" fill="none" fill-rule="evenodd">
        <g id="app-assets" transform="translate(-937.000000, -1220.000000)" fill="#474954">
            <g id="profile-contacts" transform="translate(937.000000, 1220.000000)">
                <path d="M10,0 C12.43,0 14.72,0.95 16.44,2.67 C18.16,4.39 19.11,6.68 19.11,9.11 L19.11,9.62 C19.11,9.6978699 19.1009796,9.77373526 19.0839321,9.84660277 L19.06,9.82 C19.66,10.42 20,11.25 20,12.1 L20,14.77 C20,15.62 19.66,16.45 19.05,17.05 C18.5,17.6 17.7567361,17.9315278 16.9819618,17.982963 L16.774,17.99 L16.5661285,17.9831539 L16.4437503,17.9724009 C15.2442718,19.0586056 13.7298984,19.7680488 12.13,19.99 L11.99,19.99 L12,20.01 C11.51,20.01 11.08,19.65 11.01,19.15 C10.93,18.6 11.31,18.1 11.86,18.02 C12.7901934,17.891204 13.6845476,17.5371333 14.4588034,17.0054126 L14.5,17.05 C13.9,16.45 13.56,15.62 13.56,14.77 L13.56,12.1 C13.56,11.25 13.9,10.42 14.5,9.82 C15.183776,9.13622396 16.1645408,8.83885261 17.1066352,8.92788595 L17.11,9.11 C17.11,7.21 16.37,5.43 15.03,4.08 C13.69,2.74 11.9,2 10,2 C8.1,2 6.31,2.74 4.97,4.08 C3.67419649,5.37580351 2.93946674,7.09241234 2.89240999,8.92237119 C3.83680832,8.82862315 4.81812901,9.12812901 5.51,9.82 C6.11,10.42 6.45,11.25 6.45,12.1 L6.45,14.77 C6.45,15.62 6.11,16.45 5.51,17.05 C4.9,17.66 4.09,17.99 3.23,17.99 L3.22,17.99 C2.36,17.99 1.55,17.66 0.94,17.05 C0.34,16.45 0,15.62 0,14.77 L0,12.1 C0,11.2789773 0.317213326,10.4766142 0.888557784,9.88215723 L0.89,9.11 C0.89,6.68 1.84,4.39 3.56,2.67 C5.28,0.95 7.57,0 10,0 Z M16.78,10.88 C16.45,10.88 16.15,11.01 15.91,11.24 C15.67,11.47 15.55,11.78 15.55,12.1 L15.55,14.77 C15.55,15.09 15.68,15.41 15.91,15.63 C16.37,16.09 17.18,16.09 17.64,15.63 C17.87,15.4 18,15.09 18,14.77 L18,12.1 C18,11.78 17.87,11.46 17.64,11.24 C17.41,11.01 17.1,10.88 16.78,10.88 Z M3.23,10.88 L3.22,10.88 C2.89,10.88 2.59,11.01 2.36,11.24 C2.13,11.47 2,11.78 2,12.1 L2,14.77 C2,15.09 2.13,15.41 2.36,15.63 C2.83,16.09 3.63,16.09 4.09,15.63 C4.32,15.4 4.45,15.09 4.45,14.77 L4.45,12.1 C4.45,11.78 4.32,11.46 4.09,11.24 C3.86,11.02 3.55,10.88 3.23,10.88 Z" id="Combined-Shape"></path>
            </g>
        </g>
    </g>
</svg>