<?xml version="1.0" encoding="UTF-8"?>
<svg width="11px" height="12px" viewBox="0 0 11 12" version="1.1" xmlns="http://www.w3.org/2000/svg" xmlns:xlink="http://www.w3.org/1999/xlink">
    <title>request-date</title>
    <g id="Page-1" stroke="none" stroke-width="1" fill="none" fill-rule="evenodd">
        <g id="app-assets" transform="translate(-78.000000, -1065.000000)" fill="#474954" fill-rule="nonzero">
            <g id="Group-6" transform="translate(78.000000, 1065.443155)">
                <path d="M1.44141213,10.8709538 L9.0269212,10.8709538 C9.82211003,10.8709538 10.4683333,10.2247305 10.4683333,9.42954165 L10.4683333,2.24665302 C10.4683333,1.45146419 9.82211003,0.805240894 9.0269212,0.805240894 L8.45519748,0.805240894 L8.45519748,0.402620447 C8.45519748,0.181172477 8.27399138,0 8.05254341,0 C7.83109544,0 7.64992297,0.181172477 7.64992297,0.402620447 L7.64992297,0.805240894 L2.81841037,0.805240894 L2.81841037,0.402620447 C2.81841037,0.181172477 2.63720427,0 2.4157563,0 C2.19430833,0 2.01313585,0.181172477 2.01313585,0.402620447 L2.01313585,0.805240894 L1.44141213,0.805240894 C0.646223299,0.805240894 0,1.45146419 0,2.24665302 L0,9.42954165 C0,10.2247305 0.646223299,10.8709538 1.44141213,10.8709538 Z M0.805274513,2.24665302 C0.805274513,1.89637727 1.09113637,1.61051541 1.44141213,1.61051541 L2.01313585,1.61051541 L2.01313585,2.01313585 C2.01313585,2.23458382 2.19430833,2.4157563 2.4157563,2.4157563 C2.63720427,2.4157563 2.81837675,2.23458382 2.81837675,2.01313585 L2.81837675,1.61051541 L7.64992297,1.61051541 L7.64992297,2.01313585 C7.64992297,2.23458382 7.83109544,2.4157563 8.05254341,2.4157563 C8.27399138,2.4157563 8.45516386,2.23458382 8.45516386,2.01313585 L8.45516386,1.61051541 L9.02688759,1.61051541 C9.37716334,1.61051541 9.6630252,1.89637727 9.6630252,2.24665302 L9.6630252,3.42234104 L0.805274513,3.42234104 L0.805274513,2.24665302 Z M0.805274513,4.22758193 L9.66309244,4.22758193 L9.66309244,9.42954165 C9.66309244,9.77981741 9.37723058,10.0656793 9.02695482,10.0656793 L1.44141213,10.0656793 C1.09113637,10.0656793 0.805274513,9.77981741 0.805274513,9.42954165 L0.805274513,4.22758193 Z" id="request-date"></path>
            </g>
        </g>
    </g>
</svg>