<svg width="50" height="51" viewBox="0 0 50 51" fill="none" xmlns="http://www.w3.org/2000/svg">
<path d="M0 25.908C0 46.4955 4.4125 50.908 25 50.908C45.5875 50.908 50 46.4955 50 25.908C50 5.32046 45.5875 0.907959 25 0.907959C4.4125 0.907959 0 5.32046 0 25.908Z" fill="white"/>
<path fill-rule="evenodd" clip-rule="evenodd" d="M35.7499 17.2413H33.5833H30.3333V13.9913C30.3333 13.3933 29.8491 12.908 29.2499 12.908H20.5833C19.9843 12.908 19.5 13.3933 19.5 13.9913V17.2413H16.25H14.0833C13.4843 17.2413 13 17.7266 13 18.3246C13 18.9226 13.4842 19.408 14.0833 19.408H15.1666V35.658C15.1666 37.4498 16.6248 38.908 18.4166 38.908H31.4166C33.2085 38.908 34.6666 37.4498 34.6666 35.658V19.408H35.7499C36.349 19.408 36.8333 18.9226 36.8333 18.3246C36.8333 17.7266 36.3491 17.2413 35.7499 17.2413ZM21.6666 15.0746H28.1666V17.2413H21.6666V15.0746ZM31.4166 36.7413C32.0146 36.7413 32.4999 36.2549 32.4999 35.658H32.5V19.408H29.25H20.5833H17.3333V35.658C17.3333 36.2548 17.8186 36.7413 18.4166 36.7413H31.4166ZM21.6666 21.5746C21.0676 21.5746 20.5833 22.06 20.5833 22.658V32.408C20.5833 33.006 21.0676 33.4913 21.6666 33.4913C22.2657 33.4913 22.7499 33.006 22.7499 32.408V22.658C22.7499 22.06 22.2657 21.5746 21.6666 21.5746ZM27.0833 22.658C27.0833 22.06 27.5676 21.5746 28.1666 21.5746C28.7657 21.5746 29.25 22.06 29.25 22.658V32.408C29.25 33.006 28.7657 33.4913 28.1666 33.4913C27.5676 33.4913 27.0833 33.006 27.0833 32.408V22.658Z" fill="#FE6D73"/>
</svg>
