<?xml version="1.0" encoding="UTF-8"?>
<svg width="26px" height="31px" viewBox="0 0.5 26 31" version="1.1" xmlns="http://www.w3.org/2000/svg" xmlns:xlink="http://www.w3.org/1999/xlink">
    <title>services 5</title>
    <g id="Page-1" stroke="none" stroke-width="1" fill="none" fill-rule="evenodd">
        <g id="app-assets" transform="translate(-1031.000000, -838.000000)" fill="#0D3B66">
            <g id="Group-5" transform="translate(639.250000, 778.943155)">
                <g id="services-5" transform="translate(392.500000, 59.875000)">
                    <g id="note" transform="translate(0.000000, 0.000000)">
                        <path d="M24.5,10.0296 C24.5,9.38 24.2424,8.757 23.7818,8.2978 C22.3566,6.8726 17.6274,2.1434 16.2022,0.7182 C15.743,0.2576 15.12,0 14.4704,0 C12.6924,0 7.2324,0 3.85,0 C2.8294,0 1.8494,0.406 1.127,1.127 C0.406,1.8494 0,2.8294 0,3.85 L0,26.25 C0,27.2706 0.406,28.2506 1.127,28.973 C1.8494,29.694 2.8294,30.1 3.85,30.1 L20.65,30.1 C22.7766,30.1 24.5,28.3766 24.5,26.25 L24.5,10.0296 Z M22.4,10.0296 L22.4,26.25 C22.4,27.216 21.616,28 20.65,28 L3.85,28 C3.3852,28 2.9414,27.8152 2.6124,27.4876 C2.2848,27.1586 2.1,26.7148 2.1,26.25 L2.1,3.85 C2.1,3.3852 2.2848,2.9414 2.6124,2.6124 C2.9414,2.2848 3.3852,2.1 3.85,2.1 L14.4704,2.1 C14.5628,2.1 14.6524,2.1364 14.7182,2.2022 L22.2978,9.7818 C22.3636,9.8476 22.4,9.9372 22.4,10.0296 Z" id="Shape"></path>
                        <path d="M14,1.75 L14,6.65 C14,8.7766 15.7234,10.5 17.85,10.5 L22.75,10.5 C23.3296,10.5 23.8,10.0296 23.8,9.45 C23.8,8.8704 23.3296,8.4 22.75,8.4 L17.85,8.4 C16.884,8.4 16.1,7.616 16.1,6.65 L16.1,1.75 C16.1,1.1704 15.6296,0.7 15.05,0.7 C14.4704,0.7 14,1.1704 14,1.75 Z" id="Path"></path>
                        <path d="M6.65,13.3 L10.85,13.3 C11.4296,13.3 11.9,12.8296 11.9,12.25 C11.9,11.6704 11.4296,11.2 10.85,11.2 L6.65,11.2 C6.0704,11.2 5.6,11.6704 5.6,12.25 C5.6,12.8296 6.0704,13.3 6.65,13.3 Z" id="Path"></path>
                        <path d="M6.65,18.9 L16.45,18.9 C17.0296,18.9 17.5,18.4296 17.5,17.85 C17.5,17.2704 17.0296,16.8 16.45,16.8 L6.65,16.8 C6.0704,16.8 5.6,17.2704 5.6,17.85 C5.6,18.4296 6.0704,18.9 6.65,18.9 Z" id="Path"></path>
                        <path d="M6.65,23.1 L16.45,23.1 C17.0296,23.1 17.5,22.6296 17.5,22.05 C17.5,21.4704 17.0296,21 16.45,21 L6.65,21 C6.0704,21 5.6,21.4704 5.6,22.05 C5.6,22.6296 6.0704,23.1 6.65,23.1 Z" id="Path"></path>
                    </g>
                </g>
            </g>
        </g>
    </g>
</svg>