<?xml version="1.0" encoding="UTF-8"?>
<svg width="22px" height="21px" viewBox="0 0 22 21" version="1.1" xmlns="http://www.w3.org/2000/svg" xmlns:xlink="http://www.w3.org/1999/xlink">
    <title>profile-history</title>
    <g id="Page-1" stroke="none" stroke-width="1" fill="none" fill-rule="evenodd">
        <g id="app-assets" transform="translate(-864.000000, -1220.000000)" fill="#474954">
            <g id="profile-history" transform="translate(864.000000, 1220.000000)">
                <path d="M12.0181005,0 C17.553179,0.0317765858 22.0181677,4.53772851 21.9993954,10.0728664 C22.0473921,14.4495863 19.233483,18.3451454 15.0634143,19.6749978 C10.8933456,21.0048502 6.34368991,19.4575628 3.84900578,15.8611018 C3.64950157,15.5932086 3.61168906,15.2379384 3.75033732,14.9340546 C3.88898557,14.6301709 4.1820974,14.4258862 4.51518736,14.4009915 C4.84827731,14.3760967 5.16849914,14.5345414 5.3507786,14.8144394 C6.86788928,17.0003509 9.35731442,18.3071196 12.0181005,18.3143026 C16.2681452,18.3097141 19.8026766,15.0429959 20.1414413,10.8064714 C20.4802061,6.56994693 17.5097009,2.78306727 13.3143901,2.10316361 C9.11907931,1.42325995 5.10460556,4.07813462 4.08800743,8.20480758 L5.46249584,7.27810386 C5.73369027,7.08232835 6.09005147,7.04998928 6.39205795,7.19374795 C6.69406443,7.33750663 6.89366433,7.6344898 6.91271088,7.96842348 C6.93175743,8.30235715 6.76722016,8.62010958 6.48351821,8.79727527 L3.46165828,10.83291 C3.25694951,10.9655218 3.0086243,11.0131503 2.76937764,10.9656887 C2.53507425,10.910637 2.32875354,10.7723305 2.18881425,10.5765098 L0.174240959,7.52351552 C-0.0233911784,7.25080605 -0.0553745754,6.89162076 0.090963823,6.58828268 C0.237302221,6.28494461 0.538340757,6.086418 0.874796361,6.07136674 C1.21125197,6.05631548 1.52881463,6.22716913 1.7016538,6.51622887 L2.37195727,7.52992553 C3.49893979,3.11715201 7.46374339,0.0221662463 12.0181005,0 Z M11.926529,4.5327899 C12.4322645,4.5327899 12.8422441,4.94276953 12.8422441,5.44850503 L12.8422441,9.69650753 L15.3265792,12.2037356 C15.6825451,12.5628372 15.6800855,13.1424889 15.3210849,13.4985568 C14.9591244,13.8478291 14.3847485,13.8449856 14.0262638,13.4921467 L11.2791184,10.720277 C11.1106461,10.5464204 11.0147094,10.3149281 11.0108138,10.0728664 L11.0108138,5.44850503 C11.0108138,4.94276953 11.4207935,4.5327899 11.926529,4.5327899 Z" id="Combined-Shape"></path>
            </g>
        </g>
    </g>
</svg>