<?xml version="1.0" encoding="UTF-8"?>
<svg width="21px" height="21px" viewBox="0 0.5 20 21" version="1.1"
    xmlns="http://www.w3.org/2000/svg" xmlns:xlink="http://www.w3.org/1999/xlink">
    <title>icon</title>
    <g id="Page-1" stroke="none" stroke-width="1" fill="none" fill-rule="evenodd">
        <g id="app-assets" transform="translate(-82.000000, -834.000000)" fill="#474954">
            <g id="Group-4" transform="translate(77.500000, 771.000000)">
                <g id="icon" transform="translate(4.500000, 63.943155)">
                    <path
                        d="M18.4450402,4.34316354 L11.2243074,0.268096515 C10.437891,-0.0893655049 9.57998213,-0.0893655049 8.79356568,0.268096515 L1.64432529,4.34316354 C0.643431635,4.84361037 0,5.84450402 0,6.98838248 L0,17.1403038 C0,18.7131367 1.28686327,20 2.85969616,20 L17.1581769,20 C18.7310098,20 20.0178731,18.7131367 20.0178731,17.1403038 L20.0178731,6.98838248 C20.0178731,5.84450402 19.3744415,4.84361037 18.4450402,4.34316354 Z M7.86416443,18.5701519 L7.86416443,12.8507596 C7.86416443,11.6353887 8.79356568,10.7059875 10.0089366,10.7059875 C11.2243074,10.7059875 12.1537087,11.6353887 12.1537087,12.8507596 L12.1537087,18.5701519 L7.86416443,18.5701519 Z M18.588025,17.1403038 C18.588025,17.9267203 17.9445934,18.5701519 17.1581769,18.5701519 L13.5835567,18.5701519 L13.5835567,12.8507596 C13.5835567,10.8489723 12.0107239,9.27613941 10.0089366,9.27613941 C8.00714924,9.27613941 6.43431635,10.8489723 6.43431635,12.8507596 L6.43431635,18.5701519 L2.85969616,18.5701519 C2.07327971,18.5701519 1.42984808,17.9267203 1.42984808,17.1403038 L1.42984808,6.98838248 C1.42984808,6.41644325 1.7873101,5.91599643 2.28775693,5.63002681 L9.36550492,1.55495979 C9.57998213,1.48346738 9.79445934,1.41197498 10.0089366,1.41197498 C10.2234138,1.41197498 10.3663986,1.48346738 10.5093834,1.55495979 L17.7301162,5.70151921 C18.230563,5.91599643 18.588025,6.48793566 18.588025,7.05987489 L18.588025,17.1403038 Z"
                        id="Shape"></path>
                </g>
            </g>
        </g>
    </g>
</svg>