<?xml version="1.0" encoding="UTF-8"?>
<svg width="15px" height="15px" viewBox="0 0 15 15" version="1.1" xmlns="http://www.w3.org/2000/svg" xmlns:xlink="http://www.w3.org/1999/xlink">
    <title>info</title>
    <g id="Page-1" stroke="none" stroke-width="1" fill="none" fill-rule="evenodd" opacity="0.8">
        <g id="app-assets" transform="translate(-208.000000, -1064.000000)" fill="#474954" fill-rule="nonzero">
            <path d="M215.5,1064 C219.645625,1064 223,1067.35481 223,1071.5 C223,1075.64563 219.645244,1079 215.5,1079 C211.354375,1079 208,1075.64519 208,1071.5 C208,1067.35437 211.354756,1064 215.5,1064 Z M215.5,1065.04651 C211.941543,1065.04651 209.046514,1067.94151 209.046514,1071.5 C209.046514,1075.05849 211.941543,1077.95349 215.5,1077.95349 C219.058457,1077.95349 221.953486,1075.05849 221.953486,1071.5 C221.953486,1067.94151 219.058457,1065.04651 215.5,1065.04651 Z M215.500176,1070.25187 C215.924688,1070.25187 216.270186,1070.43945 216.270186,1070.71584 L216.270186,1074.47721 C216.270186,1074.71416 215.924688,1074.95105 215.500176,1074.95105 C215.055918,1074.95105 214.74001,1074.71416 214.74001,1074.47721 L214.74001,1070.7159 C214.74001,1070.43948 215.055918,1070.25187 215.500176,1070.25187 Z M215.500176,1067.93187 C215.944404,1067.93187 216.299863,1068.25766 216.299863,1068.6328 C216.299863,1069.00798 215.944434,1069.34363 215.500176,1069.34363 C215.046074,1069.34363 214.690674,1069.00798 214.690674,1068.6328 C214.690674,1068.25766 215.046045,1067.93187 215.500176,1067.93187 Z" id="info"></path>
        </g>
    </g>
</svg>