<?xml version="1.0" encoding="UTF-8"?>
<svg width="32px" height="33px" viewBox="0 0 32 33" version="1.1" xmlns="http://www.w3.org/2000/svg" xmlns:xlink="http://www.w3.org/1999/xlink">
    <title>services 1</title>
    <g id="Page-1" stroke="none" stroke-width="1" fill="none" fill-rule="evenodd">
        <g id="app-assets" transform="translate(-647.000000, -836.000000)" fill="#0D3B66" fill-rule="nonzero">
            <g id="Group-5" transform="translate(639.250000, 778.943155)">
                <g id="services-1" transform="translate(7.875000, 57.250000)">
                    <path d="M7.69649543,-7.10542736e-15 C7.88863527,-7.10542736e-15 8.07610121,0.0592493252 8.23334146,0.169672238 L11.646517,2.56657277 L20.1328981,2.56661944 C21.5774302,2.56661944 22.9715376,3.09512538 24.0528225,4.05160613 L24.0854927,4.08072129 L30.8607084,10.1642478 C32.0173431,11.2026821 32.0655969,12.9991237 30.9665219,14.0982937 C29.8859512,15.1788645 28.0931481,15.2337482 26.94848,14.2212845 L22.3454512,10.149478 L22.3467448,10.1667883 C22.3497099,10.2124707 22.3515803,10.2584515 22.3523303,10.3047047 L22.3527057,10.3510478 C22.3527057,11.8987336 21.0979973,13.153442 19.5503115,13.153442 L10.3742765,13.153442 C8.78171615,13.153442 7.23457193,12.6225846 5.97744343,11.6448418 L0.360635867,7.27628304 C0.133090676,7.09930626 0,6.82718648 0,6.53891994 L0,0.9341314 C0,0.418224874 0.418224874,-7.10542736e-15 0.9341314,-7.10542736e-15 L7.69649543,-7.10542736e-15 Z M21.1634319,7.54865357 C21.8475585,7.54865357 22.507949,7.79883043 23.0202014,8.25204871 L28.1862882,12.8219144 C28.5913001,13.1801491 29.2631103,13.1595828 29.6454321,12.7772609 L29.6573139,12.7651407 C29.9866596,12.4224961 29.9678307,11.8733674 29.6125526,11.5543964 L22.8373264,5.47086041 C22.0944047,4.80384 21.1312424,4.43488224 20.1328981,4.43488224 L11.3513157,4.43488224 C11.1591758,4.43488224 10.9717099,4.37563291 10.8144696,4.26521 L7.40116995,1.86821612 L1.86821612,1.86821612 L1.86821612,6.08198956 L7.12443144,10.1701132 C8.0434165,10.8848619 9.17206966,11.2765156 10.3354834,11.2850371 L10.3742765,11.2851792 L19.5503115,11.2851792 C20.0661843,11.2851792 20.4844429,10.8669205 20.4844429,10.3510478 C20.4844429,9.83513908 20.0662106,9.41691637 19.5503115,9.41691637 L13.1213701,9.41691637 C11.8758616,9.41691637 11.8758616,7.54865357 13.1213701,7.54865357 L19.5503115,7.54865357 L21.1634319,7.54865357 Z M22.1078014,16.004766 C22.6237079,16.004766 23.0419328,16.4229908 23.0419328,16.9388974 L23.0419328,17.7173402 C23.0419328,20.5894234 21.3513219,23.0666048 18.9109566,24.2080281 C19.7764367,25.0166962 20.317383,26.1691139 20.317383,27.4478757 C20.317383,29.8984306 18.3308136,31.885 15.8802588,31.885 C13.4297038,31.885 11.4431346,29.8984306 11.4431346,27.4478757 C11.4431346,26.1689847 11.9841901,25.0164633 12.8498858,24.2067271 C10.409389,23.0668884 8.71858465,20.5895878 8.71858465,17.7173402 L8.71858465,16.9388974 C8.71858465,16.4229908 9.13680952,16.004766 9.65271605,16.004766 L22.1078014,16.004766 Z M15.8802588,24.8790143 C14.4615168,24.8790143 13.3113974,26.0291337 13.3113974,27.4478757 C13.3113974,28.8666176 14.4615169,30.0167372 15.8802588,30.0167372 C17.2990006,30.0167372 18.4491202,28.8666175 18.4491202,27.4478757 C18.4491202,26.0291338 17.2990007,24.8790143 15.8802588,24.8790143 Z M21.1713038,17.8729821 L10.5891828,17.8729821 L10.5896768,17.8920715 C10.6809245,20.7056853 12.9678396,22.9642425 15.7927215,23.0100425 L15.8802587,23.0107517 C18.7452916,23.0107517 21.0786522,20.7346916 21.1708406,17.8920715 L21.1713038,17.8729821 Z" id="Combined-Shape" transform="translate(15.880246, 15.942500) scale(1, -1) translate(-15.880246, -15.942500) "></path>
                </g>
            </g>
        </g>
    </g>
</svg>