<?xml version="1.0" encoding="UTF-8"?>
<svg width="18px" height="20px" viewBox="0 0 18 20" version="1.1" xmlns="http://www.w3.org/2000/svg" xmlns:xlink="http://www.w3.org/1999/xlink">
    <title>profile-logout</title>
    <g id="Page-1" stroke="none" stroke-width="1" fill="none" fill-rule="evenodd">
        <g id="app-assets" transform="translate(-1010.000000, -1220.000000)" fill="#474954">
            <g id="profile-logout" transform="translate(1010.000000, 1220.000000)">
                <path d="M12.9005078,19.0625 C12.9005078,19.580267 12.4807748,20 11.9630078,20 L3.125,20 C1.39991331,19.9980625 0.0019374549,18.6000867 0,16.875 L0,3.125 C0.0019374549,1.39991331 1.39991331,0.0019374549 3.125,0 L11.9630078,0 C12.4807748,0 12.9005078,0.419733047 12.9005078,0.9375 C12.9005078,1.45526695 12.4807748,1.875 11.9630078,1.875 L3.125,1.875 C2.43495641,1.8757535 1.8757535,2.43495641 1.875,3.125 L1.875,16.875 C1.87573201,17.5650525 2.4349475,18.124268 3.125,18.125 L11.9630078,18.125 C12.4807748,18.125 12.9005078,18.544733 12.9005078,19.0625 L12.9005078,19.0625 Z M17.1408594,9.33710937 L12.6857422,4.88195312 C12.4498094,4.64070801 12.1024318,4.54486707 11.7761746,4.63100484 C11.4499173,4.71714261 11.195122,4.97196802 11.1090226,5.2982354 C11.0229233,5.62450277 11.1188052,5.97186907 11.3600781,6.20777344 L14.2146484,9.0625 L6.83433594,9.0625 C6.31656898,9.0625 5.89683594,9.48223305 5.89683594,10 C5.89683594,10.517767 6.31656898,10.9375 6.83433594,10.9375 L14.2146094,10.9375 L11.3599219,13.7921875 C11.1220123,14.0288067 11.028703,14.3745333 11.1152543,14.6987223 C11.2018056,15.0229113 11.4550184,15.2761241 11.7792074,15.3626754 C12.1033964,15.4492267 12.449123,15.3559174 12.6857422,15.1180078 L17.1408594,10.6629297 C17.5069726,10.2968137 17.5069726,9.70322534 17.1408594,9.33710937 Z" id="Shape"></path>
            </g>
        </g>
    </g>
</svg>