<?xml version="1.0" encoding="UTF-8"?>
<svg width="321px" height="184px" viewBox="0 0 321 184" version="1.1" xmlns="http://www.w3.org/2000/svg" xmlns:xlink="http://www.w3.org/1999/xlink">
    <title>logo copy 3</title>
    <g id="Page-1" stroke="none" stroke-width="1" fill="none" fill-rule="evenodd">
        <g id="branding" transform="translate(-181.000000, -932.000000)" fill="#FE6D73">
            <g id="logo-copy-3" transform="translate(181.000000, 932.000000)">
                <path d="M60.4721201,122.021192 L60.4721201,166.011288 C60.4721201,170.668958 58.6493059,175.073362 55.3849883,178.346319 C53.8148859,179.982797 51.8679589,181.178685 49.7954237,182.061365 C47.7228886,182.878105 45.4619411,183.318696 43.1396849,183.318696 C38.5549859,183.318696 34.2215033,181.620774 31.0827938,178.535143 L29.6382996,177.024548 L36.6723584,171.926289 L37.6129245,172.871909 C39.1830269,174.192182 41.1927579,174.947479 43.1396849,174.947479 C47.9113009,174.947479 51.930763,170.859281 51.930763,166.011288 L51.930763,130.516792 L40.8787375,130.516792 L40.8787375,122.021192 L60.4721201,122.021192 Z M24.8046272,122.084133 L42.0742583,166.892469 L33.0319638,166.892469 L28.4487601,154.809204 L13.6284888,154.809204 L8.97949039,166.892469 L2.84217094e-14,166.892469 L17.206827,122.084133 L24.8046272,122.084133 Z M21.0363815,135.615052 L16.8928065,146.502428 L25.1814518,146.502428 L21.0363815,135.615052 Z M92.0558513,150.089793 C92.0558513,155.123612 88.0363892,159.277749 83.0120615,159.277749 C78.0520332,159.277749 73.969767,155.123612 73.969767,150.089793 L73.969767,122.083833 L65.6183176,122.083833 L65.6183176,150.089793 C65.6183176,159.71834 73.4045301,167.521584 83.0120615,167.521584 C87.6595646,167.521584 92.0558513,165.696281 95.3844684,162.424823 C98.648786,159.151867 100.470105,154.747462 100.470105,150.089793 L100.470105,122.083833 L92.0558513,122.083833 L92.0558513,150.089793 Z M120.812202,158.649534 L114.156463,158.649534 L114.156463,130.327368 L120.812202,130.327368 C128.849631,130.327368 135.381257,136.684457 135.381257,144.487702 C135.381257,152.292445 128.849631,158.649534 120.812202,158.649534 M120.812202,122.085032 L105.803518,122.085032 L105.803518,166.89187 L120.812202,166.89187 C133.43433,166.89187 143.734202,156.824231 143.734202,144.487702 C143.734202,132.152671 133.43433,122.085032 120.812202,122.085032 M160.872841,146.502428 L165.016416,135.615052 L169.162982,146.502428 L160.872841,146.502428 Z M161.186862,122.084133 L143.980035,166.892469 L152.959525,166.892469 L157.607028,154.809204 L172.4273,154.809204 L177.011999,166.892469 L186.054293,166.892469 L168.786157,122.084133 L161.186862,122.084133 Z M209.265192,145.934307 L191.995561,122.082485 L189.484892,122.082485 L189.484892,166.892319 L191.995561,166.892319 L191.995561,126.364004 L209.265192,150.215825 L226.597627,126.364004 L226.597627,166.892319 L229.109791,166.892319 L229.109791,122.082485 L226.597627,122.082485 L209.265192,145.934307 Z M243.423592,149.962111 L253.031123,124.914401 L262.64015,149.962111 L243.423592,149.962111 Z M251.461021,122.082035 L234.255689,166.89187 L236.95477,166.89187 L242.48153,152.353887 L263.582211,152.353887 L269.17028,166.89187 L271.870857,166.89187 L254.662534,122.082035 L251.461021,122.082035 Z M278.460651,166.892319 L280.972815,166.892319 L280.972815,122.082485 L278.460651,122.082485 L278.460651,166.892319 Z M318.460131,149.270654 C317.51807,147.885942 316.137875,146.690054 314.440669,145.74743 C311.426072,144.110952 307.971847,143.417097 306.08922,143.040947 C305.712395,142.976507 305.33557,142.915064 305.084354,142.850624 C304.70753,142.726239 304.205097,142.661799 303.641355,142.535916 C298.175904,141.465911 292.338113,139.76799 292.338113,133.473843 C292.273814,130.137944 294.346349,127.118252 297.736275,125.483272 C303.263035,122.901173 310.297094,124.537652 316.577504,129.761794 L318.146111,127.810608 C314.440669,124.727975 310.611115,122.964115 306.591652,122.271759 C303.074623,121.642344 299.621893,121.895608 296.668605,123.278822 C294.59607,124.287384 292.901855,125.670598 291.708577,127.43296 C290.452495,129.256764 289.824454,131.333832 289.824454,133.473843 C289.824454,137.313273 291.520165,140.334463 294.97439,142.348591 C297.674966,143.922128 300.940779,144.551542 303.137427,144.992133 C303.702664,145.118016 304.142293,145.180957 304.520613,145.30684 C304.834633,145.368283 305.145663,145.432723 305.649591,145.557107 C307.47091,145.873313 310.546815,146.502728 313.184587,147.948883 C316.199184,149.649802 317.645173,151.977138 317.645173,155.059771 C317.645173,159.152466 315.571143,162.488364 311.865701,164.186285 C307.221189,166.263354 299.369181,165.822764 291.017732,158.585993 L289.384825,160.472738 C293.341483,163.934519 297.736275,166.200413 302.008449,167.207476 C303.451448,167.522184 304.958746,167.711008 306.338941,167.711008 C308.725496,167.711008 310.925135,167.207476 312.933371,166.326296 C315.131514,165.320731 316.952833,163.871578 318.208915,161.920392 C319.527801,159.969207 320.155842,157.57743 320.155842,155.059771 C320.155842,152.858318 319.58911,150.970074 318.460131,149.270654 M149.573637,35.7462622 L149.573637,21.5694442 C149.573637,14.0059769 155.529559,7.85869279 162.84175,7.85869279 C170.152446,7.85869279 176.109863,14.0059769 176.109863,21.5694442 L176.109863,27.9520095 L176.109863,35.7462622 L183.833271,35.7462622 L183.833271,35.693811 L183.833271,35.693811 L183.951403,35.693811 L190.201906,35.693811 C195.863246,35.693811 200.727573,39.0506897 202.806089,43.8207543 C203.49843,45.4107759 203.882731,47.1581511 203.882731,48.9894484 C203.882731,49.9065956 203.78703,50.8012637 203.604599,51.6659597 C203.148521,53.8269503 202.151132,55.7991166 200.755984,57.4415893 C198.245316,60.3983401 194.447163,62.2865843 190.201906,62.2865843 L183.951403,62.2865843 L176.225003,62.2865843 L176.109863,62.1681944 L149.573637,62.1681944 L149.573637,35.7462622 Z M183.833271,70.0283858 L190.201906,70.0283858 C202.053936,70.0283858 211.724271,60.573677 211.724271,48.9894484 C211.724271,37.4067183 202.053936,27.9520095 190.201906,27.9520095 L183.833271,27.9520095 L183.833271,21.5694442 C183.833271,9.69148861 174.399199,-1.13686838e-13 162.84175,-1.13686838e-13 C151.284301,-1.13686838e-13 141.848733,9.69148861 141.848733,21.5694442 L141.848733,35.7462622 L141.848733,70.0283858 L176.109863,70.0283858 L183.833271,70.0283858 Z M135.480547,69.7607347 L137.642802,69.7607347 L137.642802,62.0189332 L135.480547,62.0189332 C127.933588,62.0189332 121.801217,56.0499833 121.801217,48.7232958 C121.801217,41.3951098 127.933588,35.4261599 135.480547,35.4261599 L137.642802,35.4261599 L137.642802,27.6843584 L135.480547,27.6843584 C123.628517,27.6843584 113.958182,37.1390671 113.958182,48.7232958 C113.958182,60.3060259 123.628517,69.7607347 135.480547,69.7607347 M162.841451,97.7128941 C174.3989,97.7128941 183.832972,88.0214055 183.832972,76.1434499 L183.832972,74.2432168 L176.109564,74.2432168 L176.109564,76.1434499 C176.109564,83.7069172 170.152146,89.8527027 162.841451,89.8527027 C155.530755,89.8527027 149.573338,83.7069172 149.573338,76.1434499 L149.573338,74.2432168 L141.849929,74.2432168 L141.849929,76.1434499 C141.849929,88.0214055 151.284002,97.7128941 162.841451,97.7128941" id="Combined-Shape"></path>
            </g>
        </g>
    </g>
</svg>