<svg width="140" height="35" viewBox="0 0 140 35" fill="none" xmlns="http://www.w3.org/2000/svg">
<path fill-rule="evenodd" clip-rule="evenodd" d="M58.7567 13.1781V20.0819H56.3454V13.8456C56.3454 12.1561 55.3389 11.1341 53.7032 11.1341C51.7953 11.1968 50.642 12.6568 50.642 14.5964V20.0819H48.2307V13.8456C48.2307 12.1561 47.2453 11.1341 45.6099 11.1341C43.6807 11.1968 42.5064 12.6568 42.5064 14.5964V20.0819H40.1161V8.98573H42.5064V11.1341C43.2823 9.56978 44.7082 8.90234 46.5534 8.90234C48.5453 8.90234 49.9081 9.88265 50.4325 11.5721C51.1454 9.71587 52.634 8.90234 54.668 8.90234C57.2261 8.90234 58.7567 10.5294 58.7567 13.1781Z" fill="#0099FF"/>
<path fill-rule="evenodd" clip-rule="evenodd" d="M63.347 14.5547C63.347 16.7031 64.7518 18.163 66.7644 18.163C68.7567 18.163 70.1615 16.7031 70.1615 14.5547C70.1615 12.4273 68.7567 10.9674 66.7644 10.9674C64.7518 10.9674 63.347 12.4273 63.347 14.5547ZM72.5728 14.5337C72.5728 17.8712 70.2036 20.1653 66.7644 20.1653C63.3049 20.1653 60.9357 17.8712 60.9357 14.5337C60.9357 11.1758 63.3049 8.90234 66.7644 8.90234C70.2036 8.90234 72.5728 11.1758 72.5728 14.5337Z" fill="#0099FF"/>
<path fill-rule="evenodd" clip-rule="evenodd" d="M84.3976 14.4919C84.3976 12.4269 82.9928 10.9046 81.0012 10.9046C79.0089 10.9046 77.6041 12.4062 77.6041 14.4919C77.6041 16.6403 79.0089 18.1212 81.0012 18.1212C82.9928 18.1212 84.3976 16.6193 84.3976 14.4919ZM86.8303 14.5753C86.8303 17.8918 84.7332 20.1652 81.5463 20.1652C79.7638 20.1652 78.4217 19.4561 77.6041 18.1629V20.0819H75.1927V4.60547H77.6041V10.9046C78.4217 9.61139 79.7638 8.90226 81.5042 8.90226C84.6702 8.90226 86.8303 11.1964 86.8303 14.5753Z" fill="#0099FF"/>
<mask id="mask0_0_808" style="mask-type:luminance" maskUnits="userSpaceOnUse" x="0" y="0" width="140" height="35">
<path fill-rule="evenodd" clip-rule="evenodd" d="M0 34.064H140V0.899414H0V34.064Z" fill="white"/>
</mask>
<g mask="url(#mask0_0_808)">
<path fill-rule="evenodd" clip-rule="evenodd" d="M89.3451 20.082H91.7354V8.98581H89.3451V20.082ZM91.9449 5.81541C91.9449 6.64962 91.3367 7.25468 90.5401 7.25468C89.7431 7.25468 89.1353 6.64962 89.1353 5.81541C89.1353 4.96019 89.7431 4.35547 90.5401 4.35547C91.3367 4.35547 91.9449 4.96019 91.9449 5.81541Z" fill="#0099FF"/>
<path fill-rule="evenodd" clip-rule="evenodd" d="M105.972 13.1781V20.0819H103.561V13.8456C103.561 12.1771 102.554 11.1548 100.877 11.1548C99.0312 11.1758 97.8783 12.448 97.7105 14.1794V20.0819H95.2992V8.98573H97.7105V11.1131C98.5071 9.56978 99.9333 8.90234 101.82 8.90234C104.42 8.90234 105.972 10.5294 105.972 13.1781Z" fill="#0099FF"/>
<path fill-rule="evenodd" clip-rule="evenodd" d="M115.511 19.3732C114.63 19.8945 113.708 20.1867 112.764 20.1867C111.087 20.1867 109.64 19.2271 109.64 16.9539V11.1969H108.067V9.40337H109.64V6.3584H112.03V9.40337H115.322V11.1969H112.03V16.5156C112.03 17.6631 112.47 18.0173 113.225 18.0173C113.728 18.0173 114.253 17.8505 114.903 17.5376L115.511 19.3732Z" fill="#0099FF"/>
<path fill-rule="evenodd" clip-rule="evenodd" d="M125.323 13.6995C125.239 11.9056 124.044 10.8209 122.22 10.8209C120.459 10.8209 119.222 11.9263 118.949 13.6995H125.323ZM127.42 15.4512H118.991C119.369 17.1617 120.689 18.2254 122.451 18.2254C123.667 18.2254 124.778 17.7664 125.596 16.9322L126.875 18.2881C125.784 19.4769 124.191 20.1653 122.262 20.1653C118.823 20.1653 116.559 17.8918 116.559 14.5543C116.559 11.1965 118.886 8.92302 122.199 8.90234C126.12 8.90234 127.714 11.4467 127.42 15.4512Z" fill="#0099FF"/>
<path fill-rule="evenodd" clip-rule="evenodd" d="M137.61 14.2423C137.61 12.24 136.288 10.8424 134.401 10.8424C132.493 10.8424 131.172 12.261 131.152 14.2423C131.172 16.2446 132.472 17.6628 134.401 17.6628C136.288 17.6628 137.61 16.2446 137.61 14.2423ZM140 18.9977C140 22.1888 137.715 24.1914 134.213 24.1914C132.472 24.1914 130.942 23.649 129.579 22.7311L130.606 21C131.655 21.7718 132.745 22.2098 134.108 22.2098C136.225 22.2098 137.61 20.9793 137.61 19.0604V17.6628C136.855 18.8726 135.597 19.54 133.919 19.54C130.9 19.54 128.887 17.371 128.887 14.1796C128.887 11.0512 130.879 8.92349 133.835 8.90281C135.555 8.88179 136.834 9.57024 137.61 10.78V8.9862H140V18.9977Z" fill="#0099FF"/>
</g>
<path fill-rule="evenodd" clip-rule="evenodd" d="M45.1891 28.5222L44.2102 25.6653L43.2316 28.5222H42.3757L40.9547 24.665H41.8103L42.8109 27.6955L43.7826 24.665H44.6454L45.624 27.6955L46.6101 24.665H47.4585L46.0519 28.5222H45.1891Z" fill="#5E5E5E"/>
<path fill-rule="evenodd" clip-rule="evenodd" d="M50.5617 26.3041C50.5328 25.6804 50.1197 25.3035 49.4888 25.3035C48.8799 25.3035 48.4519 25.6877 48.3579 26.3041H50.5617ZM51.2867 26.9133H48.3723C48.5026 27.5077 48.9595 27.8774 49.5687 27.8774C49.9891 27.8774 50.3733 27.7182 50.6562 27.4281L51.0982 27.8991C50.7213 28.3126 50.1703 28.5517 49.5032 28.5517C48.3141 28.5517 47.5312 27.7613 47.5312 26.6015C47.5312 25.4341 48.3362 24.644 49.4815 24.6367C50.8374 24.6367 51.3884 25.5212 51.2867 26.9133Z" fill="#5E5E5E"/>
<path fill-rule="evenodd" clip-rule="evenodd" d="M60.4734 26.1229V28.5228H59.6399V26.3547C59.6399 25.7676 59.2915 25.4123 58.726 25.4123C58.0662 25.4341 57.6675 25.9416 57.6675 26.6159V28.5228H56.8337V26.3547C56.8337 25.7676 56.4929 25.4123 55.9274 25.4123C55.2604 25.4341 54.8545 25.9416 54.8545 26.6159V28.5228H54.0278V24.6657H54.8545V25.4123C55.1225 24.8686 55.6156 24.6367 56.2538 24.6367C56.9426 24.6367 57.4139 24.9772 57.5948 25.5646C57.8415 24.9193 58.3563 24.6367 59.0596 24.6367C59.9441 24.6367 60.4734 25.2022 60.4734 26.1229Z" fill="#5E5E5E"/>
<path fill-rule="evenodd" clip-rule="evenodd" d="M63.8958 27.1669V26.8116H62.8518C62.3081 26.8116 62.0541 26.9567 62.0541 27.3264C62.0541 27.6745 62.337 27.8991 62.8011 27.8991C63.3955 27.8991 63.8524 27.5876 63.8958 27.1669ZM63.9031 28.0514C63.6274 28.3922 63.1853 28.559 62.6268 28.559C61.7933 28.559 61.2712 28.0442 61.2712 27.3626C61.2712 26.6593 61.8005 26.21 62.7284 26.2028H63.8958V26.0867C63.8958 25.6008 63.584 25.3107 62.9751 25.3107C62.6051 25.3107 62.2209 25.4413 61.8367 25.7025L61.4959 25.1222C62.0324 24.8035 62.4242 24.6367 63.1564 24.6367C64.1494 24.6367 64.7076 25.1439 64.7149 25.9923L64.7221 28.5228H63.9031V28.0514Z" fill="#5E5E5E"/>
<path fill-rule="evenodd" clip-rule="evenodd" d="M66.7091 27.4421V28.5224H65.8752V23.1426H66.7091V26.3908L68.413 24.6652H69.3702L67.9416 26.1586L69.4791 28.5224H68.4929L67.3617 26.7533L66.7091 27.4421Z" fill="#5E5E5E"/>
<path fill-rule="evenodd" clip-rule="evenodd" d="M72.6403 26.3041C72.6114 25.6804 72.1979 25.3035 71.5673 25.3035C70.9581 25.3035 70.5305 25.6877 70.4361 26.3041H72.6403ZM73.3653 26.9133H70.4509C70.5808 27.5077 71.0381 27.8774 71.6469 27.8774C72.0677 27.8774 72.4519 27.7182 72.7344 27.4281L73.1768 27.8991C72.7999 28.3126 72.2486 28.5517 71.5818 28.5517C70.3927 28.5517 69.6095 27.7613 69.6095 26.6015C69.6095 25.4341 70.4144 24.644 71.5598 24.6367C72.916 24.6367 73.4666 25.5212 73.3653 26.9133Z" fill="#5E5E5E"/>
<path fill-rule="evenodd" clip-rule="evenodd" d="M76.1566 28.5224H77.0122V23.4473H76.1566V28.5224Z" fill="#5E5E5E"/>
<path fill-rule="evenodd" clip-rule="evenodd" d="M80.2027 24.2157V28.5224H79.3475V24.2157H77.7449V23.4473H81.8125V24.2157H80.2027Z" fill="#5E5E5E"/>
<path fill-rule="evenodd" clip-rule="evenodd" d="M84.4008 28.5224H85.2346V23.1426H84.4008V28.5224Z" fill="#5E5E5E"/>
<path fill-rule="evenodd" clip-rule="evenodd" d="M86.9747 26.6015C86.9747 27.3481 87.4606 27.8557 88.1566 27.8557C88.8454 27.8557 89.3312 27.3481 89.3312 26.6015C89.3312 25.862 88.8454 25.3545 88.1566 25.3545C87.4606 25.3545 86.9747 25.862 86.9747 26.6015ZM90.1651 26.5942C90.1651 27.7544 89.3457 28.5517 88.1566 28.5517C86.9603 28.5517 86.1409 27.7544 86.1409 26.5942C86.1409 25.4268 86.9603 24.6367 88.1566 24.6367C89.3457 24.6367 90.1651 25.4268 90.1651 26.5942Z" fill="#5E5E5E"/>
<path fill-rule="evenodd" clip-rule="evenodd" d="M91.5066 26.6015C91.5066 27.3481 91.9924 27.8557 92.6885 27.8557C93.3773 27.8557 93.8631 27.3481 93.8631 26.6015C93.8631 25.862 93.3773 25.3545 92.6885 25.3545C91.9924 25.3545 91.5066 25.862 91.5066 26.6015ZM94.697 26.5942C94.697 27.7544 93.8776 28.5517 92.6885 28.5517C91.4921 28.5517 90.6727 27.7544 90.6727 26.5942C90.6727 25.4268 91.4921 24.6367 92.6885 24.6367C93.8776 24.6367 94.697 25.4268 94.697 26.5942Z" fill="#5E5E5E"/>
<path fill-rule="evenodd" clip-rule="evenodd" d="M96.4369 27.4421V28.5224H95.603V23.1426H96.4369V26.3908L98.1408 24.6652H99.098L97.6694 26.1586L99.2065 28.5224H98.2207L97.0895 26.7533L96.4369 27.4421Z" fill="#5E5E5E"/>
<path fill-rule="evenodd" clip-rule="evenodd" d="M104.253 25.0203L103.948 25.6368C103.608 25.4262 103.18 25.2957 102.839 25.2957C102.513 25.2957 102.274 25.4045 102.274 25.6802C102.274 26.3907 104.326 26.0062 104.318 27.4058C104.318 28.1959 103.615 28.5512 102.839 28.5512C102.274 28.5512 101.672 28.3627 101.288 28.0147L101.585 27.4203C101.919 27.7176 102.455 27.8989 102.875 27.8989C103.231 27.8989 103.506 27.7755 103.506 27.4854C103.506 26.695 101.476 27.1374 101.483 25.7453C101.483 24.9625 102.165 24.6289 102.904 24.6289C103.39 24.6289 103.905 24.774 104.253 25.0203Z" fill="#5E5E5E"/>
<path fill-rule="evenodd" clip-rule="evenodd" d="M105.631 26.6015C105.631 27.3481 106.116 27.8557 106.812 27.8557C107.501 27.8557 107.987 27.3481 107.987 26.6015C107.987 25.862 107.501 25.3545 106.812 25.3545C106.116 25.3545 105.631 25.862 105.631 26.6015ZM108.821 26.5942C108.821 27.7544 108.002 28.5517 106.812 28.5517C105.616 28.5517 104.797 27.7544 104.797 26.5942C104.797 25.4268 105.616 24.6367 106.812 24.6367C108.002 24.6367 108.821 25.4268 108.821 26.5942Z" fill="#5E5E5E"/>
<path fill-rule="evenodd" clip-rule="evenodd" d="M114.23 26.3041C114.201 25.6804 113.787 25.3035 113.157 25.3035C112.548 25.3035 112.12 25.6877 112.025 26.3041H114.23ZM114.955 26.9133H112.04C112.17 27.5077 112.627 27.8774 113.236 27.8774C113.657 27.8774 114.041 27.7182 114.324 27.4281L114.766 27.8991C114.389 28.3126 113.838 28.5517 113.171 28.5517C111.982 28.5517 111.199 27.7613 111.199 26.6015C111.199 25.4341 112.004 24.644 113.149 24.6367C114.505 24.6367 115.056 25.5212 114.955 26.9133Z" fill="#5E5E5E"/>
<path fill-rule="evenodd" clip-rule="evenodd" d="M118.13 27.1669V26.8116H117.087C116.543 26.8116 116.289 26.9567 116.289 27.3264C116.289 27.6745 116.572 27.8991 117.036 27.8991C117.63 27.8991 118.087 27.5876 118.13 27.1669ZM118.138 28.0514C117.862 28.3922 117.42 28.559 116.862 28.559C116.028 28.559 115.506 28.0442 115.506 27.3626C115.506 26.6593 116.035 26.21 116.963 26.2028H118.13V26.0867C118.13 25.6008 117.819 25.3107 117.21 25.3107C116.84 25.3107 116.456 25.4413 116.071 25.7025L115.73 25.1222C116.267 24.8035 116.659 24.6367 117.391 24.6367C118.384 24.6367 118.942 25.1439 118.95 25.9923L118.957 28.5228H118.138V28.0514Z" fill="#5E5E5E"/>
<path fill-rule="evenodd" clip-rule="evenodd" d="M122.575 25.0203L122.271 25.6368C121.93 25.4262 121.502 25.2957 121.161 25.2957C120.835 25.2957 120.596 25.4045 120.596 25.6802C120.596 26.3907 122.648 26.0062 122.64 27.4058C122.64 28.1959 121.937 28.5512 121.161 28.5512C120.596 28.5512 119.994 28.3627 119.61 28.0147L119.907 27.4203C120.241 27.7176 120.777 27.8989 121.198 27.8989C121.553 27.8989 121.828 27.7755 121.828 27.4854C121.828 26.695 119.798 27.1374 119.805 25.7453C119.805 24.9625 120.487 24.6289 121.226 24.6289C121.712 24.6289 122.227 24.774 122.575 25.0203Z" fill="#5E5E5E"/>
<path fill-rule="evenodd" clip-rule="evenodd" d="M124.961 29.0514C124.722 29.6606 124.287 29.9649 123.706 29.9649C123.359 29.9649 123.083 29.8632 122.815 29.6386L123.17 28.9935C123.351 29.1238 123.496 29.182 123.67 29.182C123.924 29.182 124.127 29.0442 124.258 28.7541L124.388 28.4639L122.793 24.665H123.656L124.809 27.587L125.882 24.665H126.715L124.961 29.0514Z" fill="#5E5E5E"/>
<path fill-rule="evenodd" clip-rule="evenodd" d="M0 9.19047H8.29105V0.899414H0V9.19047Z" fill="#33A0FF"/>
<path fill-rule="evenodd" clip-rule="evenodd" d="M8.29102 17.4815H16.5821V9.19043H8.29102V17.4815Z" fill="#33A0FF"/>
<path fill-rule="evenodd" clip-rule="evenodd" d="M16.5824 25.7725H24.8735V17.4814H16.5824V25.7725Z" fill="#33A0FF"/>
<path fill-rule="evenodd" clip-rule="evenodd" d="M24.8732 34.0635H33.1642V25.7725H24.8732V34.0635Z" fill="#33A0FF"/>
<path fill-rule="evenodd" clip-rule="evenodd" d="M8.29102 9.19047H16.5821V0.899414H8.29102V9.19047Z" fill="#66B8FF"/>
<path fill-rule="evenodd" clip-rule="evenodd" d="M16.5824 17.4815H24.8735V9.19043H16.5824V17.4815Z" fill="#66B8FF"/>
<path fill-rule="evenodd" clip-rule="evenodd" d="M16.5824 9.19047H24.8735V0.899414H16.5824V9.19047Z" fill="#99CFFF"/>
<path fill-rule="evenodd" clip-rule="evenodd" d="M24.8732 9.19047H33.1642V0.899414H24.8732V9.19047Z" fill="#CCE7FF"/>
<path fill-rule="evenodd" clip-rule="evenodd" d="M24.8735 17.4815H33.1646V9.19043H24.8735V17.4815Z" fill="#99CFFF"/>
<path fill-rule="evenodd" clip-rule="evenodd" d="M24.8735 25.7725H33.1646V17.4814H24.8735V25.7725Z" fill="#66B8FF"/>
<path fill-rule="evenodd" clip-rule="evenodd" d="M0 9.19043V34.0636H24.8732V25.7725H16.5825V17.4815H8.29105V9.19043H0Z" fill="#0099FF"/>
</svg>
