<svg width="321" height="184" viewBox="0 0 321 184" fill="none" xmlns="http://www.w3.org/2000/svg">
<g id="logo">
<path id="Combined Shape" fill-rule="evenodd" clip-rule="evenodd" d="M149.573 21.5693V35.7461V62.1678H176.109L176.224 62.2862H183.95H190.201C194.446 62.2862 198.244 60.398 200.755 57.4413C202.15 55.7988 203.147 53.8266 203.603 51.6657C203.786 50.801 203.882 49.9063 203.882 48.9892C203.882 47.1579 203.497 45.4105 202.805 43.8205C200.726 39.0505 195.862 35.6936 190.201 35.6936H183.95H183.832V35.7461H176.109V27.9519V21.5693C176.109 14.0059 170.151 7.85865 162.841 7.85865C155.529 7.85865 149.573 14.0059 149.573 21.5693ZM190.201 70.028H183.832H176.109H141.848V35.7461V21.5693C141.848 9.69143 151.283 0 162.841 0C174.398 0 183.832 9.69143 183.832 21.5693V27.9519H190.201C202.053 27.9519 211.723 37.4065 211.723 48.9892C211.723 60.5733 202.053 70.028 190.201 70.028ZM318.458 149.27C317.516 147.885 316.136 146.689 314.439 145.747C311.424 144.11 307.97 143.416 306.087 143.04L305.964 143.019C305.63 142.962 305.306 142.907 305.083 142.85C304.846 142.772 304.56 142.717 304.241 142.656C304.051 142.62 303.85 142.582 303.64 142.535C298.174 141.465 292.336 139.767 292.336 133.473C292.272 130.137 294.345 127.118 297.735 125.483C303.261 122.9 310.295 124.537 316.576 129.761L318.144 127.81C314.439 124.727 310.609 122.963 306.59 122.271C303.073 121.642 299.62 121.895 296.667 123.278C294.594 124.287 292.9 125.67 291.707 127.432C290.451 129.256 289.823 131.333 289.823 133.473C289.823 137.312 291.518 140.334 294.973 142.348C297.61 143.885 300.787 144.521 302.98 144.96L303.136 144.991C303.325 145.033 303.5 145.068 303.663 145.101C303.988 145.166 304.267 145.222 304.519 145.306C304.833 145.367 305.144 145.432 305.648 145.556C307.469 145.872 310.545 146.502 313.183 147.948C316.197 149.649 317.643 151.976 317.643 155.059C317.643 159.152 315.569 162.487 311.864 164.185C307.219 166.262 299.367 165.822 291.016 158.585L289.383 160.472C293.34 163.934 297.735 166.199 302.007 167.207C303.45 167.521 304.957 167.71 306.337 167.71C308.724 167.71 310.923 167.207 312.932 166.325C315.13 165.32 316.951 163.871 318.207 161.919C319.526 159.968 320.154 157.577 320.154 155.059C320.154 152.857 319.587 150.969 318.458 149.27ZM51.9305 130.516H40.8785V122.021H60.4718V166.01C60.4718 170.668 58.649 175.072 55.3847 178.345C53.8146 179.982 51.8677 181.178 49.7951 182.06C47.7226 182.877 45.4617 183.318 43.1394 183.318C38.5548 183.318 34.2213 181.62 31.0826 178.534L29.6381 177.024L36.6721 171.925L37.6127 172.871C39.1828 174.191 41.1925 174.946 43.1394 174.946C47.911 174.946 51.9305 170.858 51.9305 166.01V130.516ZM0 166.892L17.2067 122.083H24.8045L42.074 166.892H33.0318L28.4486 154.808H13.6284L8.97944 166.892H0ZM25.1813 146.502L21.0363 135.614L16.8927 146.502H25.1813ZM92.0553 150.089C92.0553 155.123 88.0359 159.277 83.0116 159.277C78.0516 159.277 73.9693 155.123 73.9693 150.089V122.083H65.6179V150.089C65.6179 159.717 73.4041 167.521 83.0116 167.521C87.6591 167.521 92.0553 165.695 95.3839 162.424C98.6482 159.151 100.47 154.747 100.47 150.089V122.083H92.0553V150.089ZM114.156 158.649H120.812C128.849 158.649 135.38 152.292 135.38 144.487C135.38 136.684 128.849 130.327 120.812 130.327H114.156V158.649ZM105.803 122.084H120.812C133.434 122.084 143.733 132.152 143.733 144.487C143.733 156.823 133.434 166.891 120.812 166.891H105.803V122.084ZM160.872 146.502L165.015 135.614L169.162 146.502H160.872ZM161.186 122.083L143.979 166.892H152.959L157.606 154.808H172.426L177.011 166.892H186.053L168.785 122.083H161.186ZM191.994 122.082L209.264 145.933L226.596 122.082H229.108V166.891H226.596V126.363L209.264 150.215L191.994 126.363V166.891H189.484V122.082H191.994ZM243.422 149.961L253.03 124.914L262.639 149.961H243.422ZM251.46 122.081L234.254 166.891H236.953L242.48 152.353H263.581L269.169 166.891H271.869L254.661 122.081H251.46ZM280.971 166.891H278.459V122.082H280.971V166.891ZM135.48 69.7603H137.642V62.0186H135.48C127.933 62.0186 121.801 56.0497 121.801 48.723C121.801 41.3949 127.933 35.426 135.48 35.426H137.642V27.6842H135.48C123.628 27.6842 113.958 37.1389 113.958 48.723C113.958 60.3057 123.628 69.7603 135.48 69.7603ZM183.832 76.143C183.832 88.0209 174.398 97.7123 162.841 97.7123C151.283 97.7123 141.849 88.0209 141.849 76.143V74.2428H149.572V76.143C149.572 83.7064 155.53 89.8522 162.841 89.8522C170.151 89.8522 176.109 83.7064 176.109 76.143V74.2428H183.832V76.143Z" fill="white"/>
</g>
</svg>
