<svg width="120" height="45" viewBox="0 0 120 45" fill="none" xmlns="http://www.w3.org/2000/svg">
<path fill-rule="evenodd" clip-rule="evenodd" d="M13.6575 0.415039C12.196 0.415039 11.0107 1.59591 11.0107 3.05204C11.0107 4.50816 12.196 5.68952 13.6575 5.68952C15.1191 5.68952 16.3043 4.50816 16.3043 3.05204C16.3043 1.59591 15.1191 0.415039 13.6575 0.415039Z" fill="#F9D900"/>
<path fill-rule="evenodd" clip-rule="evenodd" d="M67.674 3.05204C67.674 1.59591 66.4882 0.415039 65.0272 0.415039C63.5656 0.415039 62.3804 1.59591 62.3804 3.05204C62.3804 4.50816 63.5656 5.68903 65.0272 5.68903C66.4882 5.68903 67.674 4.50816 67.674 3.05204Z" fill="#8A62A6"/>
<path fill-rule="evenodd" clip-rule="evenodd" d="M44.6705 15.082C43.209 15.082 42.0237 16.2629 42.0237 17.719C42.0237 19.1752 43.209 20.3565 44.6705 20.3565C46.132 20.3565 47.3173 19.1752 47.3173 17.719C47.3173 16.2629 46.132 15.082 44.6705 15.082Z" fill="#62B776"/>
<path fill-rule="evenodd" clip-rule="evenodd" d="M63.5852 30.8516V35.4869H66.257V34.9114H64.2239V30.8516H63.5852Z" fill="#001D52"/>
<mask id="mask0_0_876" style="mask-type:luminance" maskUnits="userSpaceOnUse" x="0" y="0" width="120" height="45">
<path fill-rule="evenodd" clip-rule="evenodd" d="M0 44.9878H120V0.412109H0V44.9878Z" fill="white"/>
</mask>
<g mask="url(#mask0_0_876)">
<path fill-rule="evenodd" clip-rule="evenodd" d="M67.5398 35.4868H68.1589V31.9824H67.5398V35.4868Z" fill="#001D52"/>
<path fill-rule="evenodd" clip-rule="evenodd" d="M67.8469 30.5879C67.7352 30.5879 67.6431 30.6241 67.5706 30.6991C67.4982 30.774 67.4619 30.8656 67.4619 30.9827C67.4619 31.0992 67.4982 31.1938 67.5706 31.2687C67.6431 31.3436 67.7352 31.3799 67.8469 31.3799C67.9581 31.3799 68.0501 31.3436 68.1226 31.2687C68.1951 31.1938 68.2314 31.0963 68.2314 30.9827C68.2314 30.8685 68.1951 30.774 68.1226 30.6991C68.0501 30.6241 67.9581 30.5879 67.8469 30.5879Z" fill="#001D52"/>
<path fill-rule="evenodd" clip-rule="evenodd" d="M70.8418 35.0089C70.6381 35.0089 70.4289 34.9673 70.2144 34.8894C69.9999 34.8115 69.8182 34.7057 69.6732 34.5725L69.4391 35.0226C69.609 35.1784 69.8157 35.2979 70.0611 35.3811C70.3065 35.4644 70.5602 35.5065 70.8222 35.5065C71.1959 35.5065 71.5055 35.4203 71.7567 35.2479C72.0075 35.0755 72.1334 34.8228 72.1334 34.4922C72.1334 34.2669 72.08 34.0861 71.9713 33.95C71.8625 33.8138 71.7318 33.7085 71.5755 33.639C71.4193 33.5694 71.2185 33.4974 70.9755 33.4279C70.7194 33.3524 70.5269 33.2775 70.401 33.2055C70.2756 33.133 70.2115 33.0248 70.2115 32.8832C70.2115 32.7412 70.2673 32.6383 70.3819 32.5688C70.496 32.4997 70.644 32.4664 70.8306 32.4664C70.9897 32.4664 71.1572 32.4938 71.3326 32.5467V32.5414C71.5084 32.5943 71.6701 32.6633 71.815 32.7525L72.0413 32.2828C71.8905 32.1799 71.7122 32.0996 71.5055 32.0408C71.2993 31.9825 71.0901 31.9521 70.8781 31.9521C70.5186 31.9521 70.2198 32.0325 69.9803 32.1966C69.7403 32.3606 69.6203 32.608 69.6203 32.9332C69.6203 33.1443 69.6732 33.3167 69.7765 33.4499C69.8799 33.5807 70.0082 33.6806 70.1556 33.7501C70.3036 33.8197 70.496 33.8863 70.7302 33.9529C70.9951 34.0332 71.1935 34.1111 71.3243 34.1919C71.4526 34.2723 71.5197 34.3947 71.5197 34.5505C71.5197 34.7057 71.4585 34.8198 71.3326 34.8948C71.2101 34.9726 71.0456 35.0089 70.8418 35.0089Z" fill="#001D52"/>
<path fill-rule="evenodd" clip-rule="evenodd" d="M76.3417 34.3666C76.2413 34.5581 76.1017 34.7055 75.9234 34.8113V34.8084C75.7451 34.9142 75.5414 34.9666 75.3156 34.9666C75.0893 34.9666 74.886 34.9142 74.7073 34.8084C74.529 34.7026 74.387 34.5581 74.2866 34.3696C74.1832 34.1834 74.1328 33.9581 74.1328 33.7245C74.1328 33.4914 74.1832 33.2773 74.2866 33.0883C74.387 32.8968 74.529 32.7494 74.7073 32.6436C74.886 32.5383 75.0893 32.4854 75.3156 32.4854C75.5414 32.4854 75.7422 32.5383 75.9205 32.6436C76.0963 32.7494 76.2359 32.8992 76.3387 33.0883C76.4421 33.2773 76.4925 33.4855 76.4925 33.7245C76.4925 33.9635 76.4421 34.1776 76.3417 34.3666ZM76.3138 32.1881C76.0547 32.0377 75.7618 31.9628 75.4356 31.9628C75.1427 31.9628 74.8831 32.024 74.6603 32.1489C74.4369 32.2743 74.2611 32.4491 74.1328 32.6798V30.5732H73.5137V35.4863H74.1328V34.7918C74.2611 35.0224 74.4399 35.1973 74.6656 35.3227C74.8914 35.4476 75.151 35.5088 75.4493 35.5088C75.7755 35.5088 76.0684 35.4339 76.3221 35.2864C76.5763 35.139 76.7742 34.9309 76.9138 34.6639C77.0529 34.397 77.1229 34.0972 77.1229 33.747C77.1229 33.3968 77.0504 33.0883 76.9108 32.8189C76.7712 32.549 76.5704 32.3379 76.3138 32.1881Z" fill="#001D52"/>
<path fill-rule="evenodd" clip-rule="evenodd" d="M81.0103 34.3868C80.9099 34.5759 80.7708 34.7228 80.592 34.8257C80.4137 34.9285 80.2129 34.9814 79.9842 34.9814C79.7555 34.9814 79.5493 34.9285 79.3705 34.8257C79.1922 34.7228 79.0526 34.5759 78.9522 34.3868C78.8518 34.1948 78.8014 33.9754 78.8014 33.7364C78.8014 33.4974 78.8518 33.2863 78.9522 33.0972C79.0526 32.9111 79.1922 32.7642 79.3705 32.6584C79.5493 32.5526 79.7584 32.5002 79.9842 32.5002C80.21 32.5002 80.4137 32.5526 80.592 32.6584C80.7708 32.7642 80.9099 32.9087 81.0103 33.0972C81.1107 33.2863 81.1611 33.492 81.1611 33.7364C81.1611 33.9813 81.1107 34.1978 81.0103 34.3868ZM80.9182 32.1887C80.6449 32.0388 80.3383 31.9639 79.9842 31.9639C79.6301 31.9639 79.3176 32.0388 79.0443 32.1887C78.771 32.3386 78.5589 32.5472 78.4056 32.8141C78.2523 33.0806 78.1769 33.3838 78.1769 33.731C78.1769 34.0783 78.2523 34.3868 78.4056 34.6538C78.5589 34.9202 78.771 35.1289 79.0443 35.2787C79.3176 35.4291 79.6325 35.504 79.9842 35.504C80.3354 35.504 80.6449 35.4291 80.9182 35.2787C81.1915 35.1289 81.4036 34.9202 81.5569 34.6508C81.7107 34.3814 81.7856 34.0758 81.7856 33.731C81.7856 33.3862 81.7107 33.0806 81.5569 32.8141C81.4036 32.5472 81.1915 32.3386 80.9182 32.1887Z" fill="#001D52"/>
<path fill-rule="evenodd" clip-rule="evenodd" d="M84.9012 32.5467C85.194 32.5467 85.4252 32.627 85.5898 32.7941C85.7544 32.9606 85.8381 33.1913 85.8381 33.4861V35.4869H86.4572V33.322C86.4572 32.8969 86.3401 32.5663 86.106 32.3244C85.8714 32.0824 85.5482 31.9629 85.1353 31.9629C84.4799 31.9717 84.0337 32.2269 83.7996 32.7245V31.9825H83.1801V35.4869H83.7996V33.611C83.8246 33.2995 83.9363 33.0443 84.1342 32.847C84.3291 32.6525 84.5857 32.5521 84.9012 32.5467Z" fill="#001D52"/>
<path fill-rule="evenodd" clip-rule="evenodd" d="M92.8856 34.1111L91.1846 30.8516H90.4259V35.4864H91.0171V31.7851L92.6848 34.9976H93.0781L94.7321 31.7851L94.7375 35.4864H95.3375V30.8516H94.5729L92.8856 34.1111Z" fill="#001D52"/>
<path fill-rule="evenodd" clip-rule="evenodd" d="M99.2082 34.8252C99.0299 34.928 98.8291 34.9809 98.6004 34.9809C98.3717 34.9809 98.1655 34.928 97.9867 34.8252C97.8084 34.7223 97.6688 34.5749 97.5684 34.3863C97.468 34.1943 97.4176 33.9749 97.4176 33.7359C97.4176 33.4969 97.468 33.2858 97.5684 33.0967C97.6688 32.9106 97.8084 32.7632 97.9867 32.6574C98.1655 32.5521 98.3746 32.4992 98.6004 32.4992C98.8262 32.4992 99.0299 32.5521 99.2082 32.6574C99.387 32.7632 99.5261 32.9077 99.6265 33.0967C99.7269 33.2858 99.7773 33.4915 99.7773 33.7359C99.7773 33.9803 99.7269 34.1973 99.6265 34.3863C99.5261 34.5749 99.387 34.7223 99.2082 34.8252ZM100.173 34.6503C100.327 34.3805 100.402 34.0748 100.402 33.73C100.402 33.3857 100.327 33.0801 100.173 32.8132C100.02 32.5467 99.8077 32.3381 99.5344 32.1882C99.2611 32.0378 98.9545 31.9629 98.6004 31.9629C98.2463 31.9629 97.9338 32.0378 97.6605 32.1882C97.3872 32.3381 97.1751 32.5467 97.0218 32.8132C96.8685 33.0801 96.7931 33.3828 96.7931 33.73C96.7931 34.0778 96.8685 34.3863 97.0218 34.6528C97.1751 34.9197 97.3872 35.1279 97.6605 35.2782C97.9338 35.4281 98.2487 35.503 98.6004 35.503C98.9516 35.503 99.2611 35.4281 99.5344 35.2782C99.8077 35.1279 100.02 34.9197 100.173 34.6503Z" fill="#001D52"/>
<path fill-rule="evenodd" clip-rule="evenodd" d="M104.658 34.3666C104.558 34.5581 104.418 34.7055 104.24 34.8113V34.8084C104.061 34.9142 103.857 34.9666 103.631 34.9666C103.406 34.9666 103.202 34.9142 103.024 34.8084C102.845 34.7026 102.703 34.5581 102.602 34.3696C102.499 34.1834 102.449 33.9581 102.449 33.7245C102.449 33.4914 102.499 33.2773 102.602 33.0883C102.703 32.8968 102.845 32.7494 103.024 32.6436C103.202 32.5383 103.406 32.4854 103.631 32.4854C103.857 32.4854 104.058 32.5383 104.237 32.6436C104.413 32.7494 104.552 32.8992 104.655 33.0883C104.758 33.2773 104.808 33.4855 104.808 33.7245C104.808 33.9635 104.758 34.1776 104.658 34.3666ZM104.63 32.1881C104.37 32.0377 104.078 31.9628 103.751 31.9628C103.458 31.9628 103.199 32.024 102.976 32.1489C102.753 32.2743 102.577 32.4491 102.449 32.6798V30.5732H101.83V35.4863H102.449V34.7918C102.577 35.0224 102.756 35.1973 102.981 35.3227C103.208 35.4476 103.467 35.5088 103.766 35.5088C104.092 35.5088 104.385 35.4339 104.638 35.2864C104.892 35.139 105.09 34.9309 105.23 34.6639C105.369 34.397 105.439 34.0972 105.439 33.747C105.439 33.3968 105.369 33.0883 105.227 32.8189C105.088 32.549 104.887 32.3379 104.63 32.1881Z" fill="#001D52"/>
<path fill-rule="evenodd" clip-rule="evenodd" d="M107.143 30.5879C107.031 30.5879 106.939 30.6241 106.867 30.6991C106.794 30.774 106.758 30.8656 106.758 30.9827C106.758 31.0992 106.794 31.1938 106.867 31.2687C106.939 31.3436 107.031 31.3799 107.143 31.3799C107.254 31.3799 107.346 31.3436 107.419 31.2687C107.491 31.1938 107.528 31.0963 107.528 30.9827C107.528 30.8685 107.491 30.774 107.419 30.6991C107.346 30.6241 107.254 30.5879 107.143 30.5879Z" fill="#001D52"/>
<path fill-rule="evenodd" clip-rule="evenodd" d="M106.836 35.4868H107.455V31.9824H106.836V35.4868Z" fill="#001D52"/>
<path fill-rule="evenodd" clip-rule="evenodd" d="M109.223 35.4872H109.842V30.5742H109.223V35.4872Z" fill="#001D52"/>
<path fill-rule="evenodd" clip-rule="evenodd" d="M111.613 35.4868H112.232V31.9824H111.613V35.4868Z" fill="#001D52"/>
<path fill-rule="evenodd" clip-rule="evenodd" d="M111.92 30.5879C111.809 30.5879 111.717 30.6241 111.644 30.6991C111.572 30.774 111.536 30.8656 111.536 30.9827C111.536 31.0992 111.572 31.1938 111.644 31.2687C111.717 31.3436 111.809 31.3799 111.92 31.3799C112.032 31.3799 112.124 31.3436 112.196 31.2687C112.269 31.1938 112.305 31.0963 112.305 30.9827C112.305 30.8685 112.269 30.774 112.196 30.6991C112.124 30.6241 112.032 30.5879 111.92 30.5879Z" fill="#001D52"/>
<path fill-rule="evenodd" clip-rule="evenodd" d="M115.144 34.9481C115.002 34.9481 114.896 34.9065 114.826 34.8232C114.757 34.74 114.721 34.6009 114.721 34.4064V32.5776H115.797V32.1079H114.721V31.1689H114.096V32.1079H113.597V32.5776H114.096V34.5176C114.096 34.8507 114.182 35.1009 114.355 35.2679C114.528 35.4315 114.751 35.5148 115.033 35.5148C115.313 35.5148 115.585 35.4296 115.855 35.2586L115.688 34.7816C115.493 34.8923 115.312 34.9481 115.144 34.9481Z" fill="#001D52"/>
<path fill-rule="evenodd" clip-rule="evenodd" d="M115.855 35.2591L115.858 35.2561C115.857 35.2571 115.856 35.2576 115.855 35.2581L115.855 35.2591Z" fill="#001D52"/>
<path fill-rule="evenodd" clip-rule="evenodd" d="M118.287 34.7948L117.172 31.9854H116.522L117.978 35.4476L117.844 35.7591C117.71 36.0589 117.509 36.2092 117.244 36.2092C117.085 36.2092 116.929 36.1534 116.773 36.0422L116.508 36.5261C116.625 36.6207 116.742 36.6873 116.868 36.7314C116.993 36.7759 117.13 36.7985 117.281 36.7985C117.529 36.7985 117.744 36.7289 117.928 36.5927V36.5952C118.109 36.459 118.257 36.2563 118.369 35.9869L119.977 31.9854H119.345L118.287 34.7948Z" fill="#001D52"/>
<path fill-rule="evenodd" clip-rule="evenodd" d="M64.7201 39.813C64.9993 39.6548 65.3059 39.574 65.6379 39.574C65.8916 39.574 66.137 39.621 66.3795 39.7155C66.6224 39.8101 66.8345 39.9438 67.0211 40.1157L67.3865 39.6519C67.1607 39.4545 66.8928 39.2963 66.5862 39.1822C66.2766 39.068 65.9612 39.0098 65.6379 39.0098C65.1805 39.0098 64.7647 39.1126 64.3885 39.3213C64.0119 39.527 63.716 39.8101 63.4986 40.1715C63.2811 40.5325 63.1724 40.9302 63.1724 41.3607C63.1724 41.7917 63.2811 42.1919 63.4961 42.5558C63.7106 42.9197 64.0065 43.2087 64.3772 43.4173C64.748 43.6255 65.1579 43.7313 65.6071 43.7313C65.9166 43.7313 66.2291 43.6754 66.544 43.5643C66.8595 43.4531 67.1357 43.3062 67.3698 43.12V41.4166H66.8036L66.7982 41.419V42.7973C66.6278 42.9114 66.4382 43.0005 66.2374 43.0642C66.0366 43.1284 65.8387 43.1617 65.6433 43.1617C65.3117 43.1617 65.0046 43.0808 64.726 42.9197C64.4468 42.7586 64.2264 42.5391 64.0618 42.2639C63.8977 41.9886 63.8164 41.6859 63.8164 41.3607C63.8164 41.0355 63.8977 40.7358 64.0594 40.4605C64.221 40.1882 64.4414 39.9712 64.7201 39.813Z" fill="#001D52"/>
<path fill-rule="evenodd" clip-rule="evenodd" d="M71.5393 42.5817C71.4389 42.7707 71.2993 42.9176 71.1211 43.0205C70.9423 43.1234 70.7415 43.1763 70.5127 43.1763C70.284 43.1763 70.0778 43.1234 69.8995 43.0205C69.7208 42.9176 69.5812 42.7707 69.4808 42.5817C69.3804 42.3897 69.3304 42.1702 69.3304 41.9312C69.3304 41.6922 69.3804 41.4811 69.4808 41.2921C69.5812 41.1059 69.7208 40.9585 69.8995 40.8532C70.0778 40.7474 70.287 40.6945 70.5127 40.6945C70.7385 40.6945 70.9423 40.7474 71.1211 40.8532C71.2993 40.9585 71.4389 41.1035 71.5393 41.2921C71.6397 41.4811 71.6897 41.6868 71.6897 41.9312C71.6897 42.1761 71.6397 42.3926 71.5393 42.5817ZM71.4473 40.3835C71.174 40.2336 70.8669 40.1582 70.5127 40.1582C70.1586 40.1582 69.8462 40.2336 69.5729 40.3835C69.2996 40.5334 69.0875 40.742 68.9342 41.009C68.7809 41.2754 68.7054 41.5786 68.7054 41.9258C68.7054 42.2731 68.7809 42.5817 68.9342 42.8486C69.0875 43.115 69.2996 43.3237 69.5729 43.4736C69.8462 43.6239 70.1616 43.6989 70.5127 43.6989C70.8644 43.6989 71.174 43.6239 71.4473 43.4736C71.7206 43.3237 71.9326 43.115 72.0859 42.8456C72.2392 42.5763 72.3147 42.2702 72.3147 41.9258C72.3147 41.581 72.2392 41.2754 72.0859 41.009C71.9326 40.742 71.7206 40.5334 71.4473 40.3835Z" fill="#001D52"/>
<path fill-rule="evenodd" clip-rule="evenodd" d="M73.9853 41.6922C74.024 41.3782 74.1469 41.1309 74.3531 40.9448C74.5598 40.7587 74.8106 40.6666 75.1284 40.6666C75.4463 40.6666 75.7059 40.7587 75.8984 40.9418C76.0904 41.1245 76.1986 41.3768 76.2158 41.6922H73.9853ZM76.3612 40.6416C76.0825 40.3223 75.6697 40.1611 75.126 40.1611C74.7827 40.1611 74.4814 40.239 74.2135 40.3889C73.9461 40.5388 73.7394 40.7503 73.592 41.0168C73.4441 41.2837 73.3687 41.5893 73.3687 41.9342C73.3687 42.2785 73.4441 42.5841 73.592 42.854C73.7394 43.1233 73.949 43.3315 74.2165 43.4789C74.4844 43.6264 74.791 43.7013 75.1368 43.7013C75.4355 43.7013 75.7059 43.6513 75.9483 43.5485C76.1913 43.4456 76.4004 43.3041 76.5733 43.118L76.2329 42.7678C76.0992 42.9039 75.943 43.0092 75.7642 43.0847C75.583 43.1596 75.3905 43.1983 75.1813 43.1983C74.8664 43.1983 74.6014 43.1067 74.3869 42.9206C74.1719 42.7369 74.0406 42.4871 73.9907 42.1732H76.7682C76.7741 42.1286 76.7741 42.062 76.7741 41.9728C76.7741 41.4032 76.6345 40.9585 76.3558 40.6392L76.3612 40.6416Z" fill="#001D52"/>
<path fill-rule="evenodd" clip-rule="evenodd" d="M79.8309 41.8343C79.6747 41.7647 79.4738 41.6927 79.2309 41.6232C78.9748 41.5482 78.7823 41.4728 78.6564 41.4008C78.531 41.3283 78.4668 41.2201 78.4668 41.0785C78.4668 40.9365 78.5227 40.8336 78.6373 40.7646C78.7514 40.695 78.8993 40.6617 79.0859 40.6617C79.2451 40.6617 79.4126 40.6892 79.588 40.7421V40.7367C79.7638 40.7896 79.9254 40.8586 80.0704 40.9478L80.2967 40.4781C80.1458 40.3752 79.9675 40.2949 79.7609 40.2366C79.5547 40.1778 79.3455 40.1475 79.1334 40.1475C78.7739 40.1475 78.4752 40.2283 78.2357 40.3919C77.9957 40.5559 77.8757 40.8033 77.8757 41.1285C77.8757 41.3396 77.9286 41.512 78.0319 41.6452C78.1353 41.776 78.2636 41.8759 78.411 41.9455C78.5589 42.015 78.7514 42.0816 78.9855 42.1482C79.2505 42.229 79.4489 42.3064 79.5796 42.3872C79.708 42.4681 79.7751 42.59 79.7751 42.7458C79.7751 42.9015 79.7138 43.0151 79.588 43.0901C79.4655 43.168 79.3009 43.2042 79.0972 43.2042C78.8934 43.2042 78.6843 43.1626 78.4698 43.0847C78.2548 43.0068 78.0736 42.9015 77.9286 42.7678L77.6945 43.2184C77.8644 43.3737 78.0711 43.4932 78.3165 43.5764C78.5619 43.6602 78.8156 43.7018 79.0776 43.7018C79.4513 43.7018 79.7609 43.6156 80.0121 43.4432C80.2629 43.2708 80.3888 43.0181 80.3888 42.6875C80.3888 42.4622 80.3354 42.2814 80.2266 42.1453C80.1179 42.0091 79.9871 41.9038 79.8309 41.8343Z" fill="#001D52"/>
<path fill-rule="evenodd" clip-rule="evenodd" d="M87.4837 42.2584C87.3299 42.5224 87.1237 42.7305 86.8588 42.8809V42.8834C86.5938 43.0337 86.3009 43.1087 85.9776 43.1087H84.7086V39.6238H85.9527C86.2789 39.6238 86.5742 39.6988 86.8451 39.8521C87.1154 40.0049 87.3275 40.2101 87.4808 40.477C87.6341 40.744 87.7125 41.0467 87.7125 41.3719C87.7125 41.6971 87.637 41.9944 87.4837 42.2584ZM87.1908 39.3461H87.1933C86.8284 39.1458 86.418 39.0459 85.9664 39.0459H84.0729V43.6812H85.9468C86.4013 43.6812 86.8142 43.5813 87.1825 43.381C87.5503 43.1811 87.8403 42.9029 88.0499 42.5503C88.2591 42.1942 88.3649 41.8024 88.3649 41.3636C88.3649 40.9247 88.2615 40.5299 88.0524 40.1768C87.8432 39.8242 87.5562 39.546 87.1908 39.3461Z" fill="#001D52"/>
<path fill-rule="evenodd" clip-rule="evenodd" d="M89.7456 43.6816H90.3647V40.1777H89.7456V43.6816Z" fill="#001D52"/>
<path fill-rule="evenodd" clip-rule="evenodd" d="M90.0522 38.7822C89.9405 38.7822 89.8485 38.8185 89.776 38.8934C89.7035 38.9683 89.6672 39.0599 89.6672 39.177C89.6672 39.2936 89.7035 39.3881 89.776 39.463C89.8485 39.538 89.9405 39.5742 90.0522 39.5742C90.1639 39.5742 90.256 39.538 90.3284 39.463C90.4009 39.3881 90.4372 39.2906 90.4372 39.177C90.4372 39.0629 90.4009 38.9683 90.3284 38.8934C90.256 38.8185 90.1639 38.7822 90.0522 38.7822Z" fill="#001D52"/>
<path fill-rule="evenodd" clip-rule="evenodd" d="M94.4445 42.4538C94.35 42.6316 94.2163 42.7732 94.0488 42.8736H94.0458C93.8788 42.9764 93.6863 43.0264 93.4684 43.0264C93.1368 43.0264 92.8664 42.9176 92.6568 42.6958C92.4506 42.4759 92.3448 42.1928 92.3389 41.8479C92.3389 41.6173 92.3894 41.4116 92.4869 41.2338C92.5843 41.056 92.7185 40.9144 92.8885 40.814C93.0614 40.7116 93.2568 40.6612 93.4713 40.6612C93.6863 40.6612 93.8813 40.7116 94.0488 40.814C94.2187 40.9144 94.35 41.056 94.4445 41.2338C94.5395 41.4145 94.5871 41.6226 94.5871 41.8479C94.5871 42.0732 94.5395 42.276 94.4445 42.4538ZM94.5871 40.8223C94.4617 40.6112 94.2942 40.4477 94.085 40.3335C93.8759 40.2194 93.6305 40.1611 93.3513 40.1611C93.0364 40.1611 92.7602 40.2307 92.5177 40.3722C92.2777 40.5143 92.0911 40.7087 91.9569 40.9614C91.8232 41.2117 91.7561 41.4978 91.7561 41.8284C91.7561 42.1595 91.8232 42.4538 91.9569 42.7095C92.0882 42.9651 92.2748 43.165 92.5177 43.3095C92.7602 43.454 93.0364 43.5264 93.3513 43.5264C93.6246 43.5264 93.87 43.4682 94.0821 43.3516C94.2942 43.2321 94.4617 43.068 94.5871 42.8569V43.3457C94.5871 43.6846 94.4783 43.957 94.2609 44.1602C94.0429 44.363 93.753 44.4658 93.3905 44.4658C93.1701 44.4658 92.9668 44.4296 92.7798 44.363C92.5927 44.2964 92.4144 44.1906 92.2415 44.049L91.9682 44.4991C92.4173 44.8244 92.8997 44.988 93.4184 44.988C93.7755 44.988 94.0904 44.9213 94.3613 44.7852C94.6316 44.649 94.8408 44.4546 94.9887 44.2043C95.1366 43.9516 95.2115 43.6597 95.2115 43.3237V40.1807H94.5871V40.8223Z" fill="#001D52"/>
<path fill-rule="evenodd" clip-rule="evenodd" d="M97.1781 38.7822C97.0664 38.7822 96.9743 38.8185 96.9018 38.8934C96.8293 38.9683 96.7931 39.0599 96.7931 39.177C96.7931 39.2936 96.8293 39.3881 96.9018 39.463C96.9743 39.538 97.0664 39.5742 97.1781 39.5742C97.2897 39.5742 97.3813 39.538 97.4543 39.463C97.5268 39.3881 97.563 39.2906 97.563 39.177C97.563 39.0629 97.5268 38.9683 97.4543 38.8934C97.3813 38.8185 97.2897 38.7822 97.1781 38.7822Z" fill="#001D52"/>
<path fill-rule="evenodd" clip-rule="evenodd" d="M96.871 43.6816H97.4905V40.1777H96.871V43.6816Z" fill="#001D52"/>
<path fill-rule="evenodd" clip-rule="evenodd" d="M100.399 43.1425C100.257 43.1425 100.151 43.1008 100.081 43.0176C100.011 42.9338 99.9751 42.7952 99.9751 42.6008V40.7719H101.052V40.3022H99.9751V39.3633H99.3507V40.3022H98.8511V40.7719H99.3507V42.7114C99.3507 43.045 99.4369 43.2953 99.6097 43.4618C99.7826 43.6259 100.006 43.7091 100.288 43.7091C100.568 43.7091 100.841 43.6234 101.11 43.4525L100.943 42.9754C100.748 43.0866 100.566 43.1425 100.399 43.1425Z" fill="#001D52"/>
<path fill-rule="evenodd" clip-rule="evenodd" d="M101.11 43.4534L101.113 43.4505C101.112 43.4514 101.111 43.4514 101.11 43.4524L101.11 43.4534Z" fill="#001D52"/>
<path fill-rule="evenodd" clip-rule="evenodd" d="M104.538 42.4372C104.499 42.6678 104.376 42.851 104.176 42.9901C103.975 43.1292 103.729 43.1988 103.442 43.1988C103.21 43.1988 103.027 43.1459 102.89 43.0401C102.753 42.9348 102.683 42.7903 102.683 42.6096C102.683 42.4288 102.75 42.2956 102.887 42.2119C103.024 42.1286 103.23 42.087 103.509 42.087H104.538V42.4372ZM104.78 40.4834C104.541 40.2699 104.201 40.1611 103.763 40.1611C103.467 40.1611 103.21 40.1944 102.996 40.2699C102.781 40.3448 102.549 40.4614 102.296 40.6254L102.555 41.0476C102.92 40.7949 103.283 40.67 103.637 40.67C103.93 40.67 104.153 40.7391 104.306 40.8728C104.46 41.006 104.535 41.198 104.535 41.4449V41.6119H103.419C103.004 41.6148 102.681 41.7089 102.446 41.8925C102.215 42.0757 102.097 42.323 102.097 42.6375C102.097 42.8403 102.148 43.0234 102.248 43.1875C102.346 43.3516 102.488 43.4794 102.672 43.571C102.856 43.6626 103.071 43.7101 103.314 43.7101C103.871 43.7101 104.281 43.5377 104.543 43.1929V43.6822V43.6846H105.154L105.146 41.3812C105.14 40.9977 105.02 40.6974 104.78 40.4834Z" fill="#001D52"/>
<path fill-rule="evenodd" clip-rule="evenodd" d="M106.822 43.6786H107.441V38.7656H106.822V43.6786Z" fill="#001D52"/>
<path fill-rule="evenodd" clip-rule="evenodd" d="M35.1378 12.1753C35.0374 12.7532 34.8841 13.3062 34.675 13.8317C34.4659 14.3597 34.198 14.8456 33.8718 15.2986C33.5456 15.7487 33.1547 16.1381 32.6977 16.4687C32.2427 16.7964 31.7187 17.055 31.1299 17.244C30.5388 17.4331 29.8781 17.5271 29.139 17.5271C28.3999 17.5271 27.7612 17.4331 27.1808 17.244C26.6009 17.055 26.0852 16.7964 25.639 16.4687C25.1898 16.1405 24.8049 15.7487 24.4787 15.2986C24.1549 14.8485 23.8875 14.3597 23.6808 13.8317C23.4717 13.3037 23.3184 12.7532 23.2209 12.1753C23.1205 11.5973 23.073 11.0135 23.073 10.4272C23.073 9.84094 23.123 9.25173 23.2209 8.6684C23.3213 8.08457 23.4746 7.52916 23.6808 7.00117C23.89 6.47319 24.1549 5.98389 24.4787 5.53084C24.8019 5.07779 25.1898 4.68352 25.639 4.34703C26.0876 4.01104 26.6009 3.7495 27.1808 3.56093C27.7612 3.37187 28.4136 3.27735 29.139 3.27735C29.8639 3.27735 30.5388 3.37187 31.1299 3.56093C31.7216 3.7495 32.2427 4.01104 32.6977 4.34703C33.1523 4.68352 33.5426 5.07779 33.8718 5.53084C34.198 5.98389 34.4659 6.47563 34.675 7.00117C34.8841 7.52916 35.0374 8.08457 35.1378 8.6684C35.2383 9.25173 35.2858 9.838 35.2858 10.4272C35.2858 11.0164 35.2353 11.5973 35.1378 12.1753ZM37.6171 5.49215C37.2684 4.75013 36.8281 4.06933 36.3011 3.44681C35.7711 2.8243 35.1545 2.28798 34.4492 1.84081C33.7434 1.39315 32.9485 1.04295 32.0645 0.790223C31.1804 0.537494 30.2043 0.412109 29.1414 0.412109C28.0791 0.412109 27.1167 0.537494 26.2385 0.790223C25.3598 1.04295 24.5708 1.39315 23.8733 1.84081C23.1734 2.28798 22.5626 2.82136 22.041 3.44681C21.5194 4.06933 21.0815 4.75013 20.7328 5.49215C20.3846 6.23417 20.1221 7.02321 19.9492 7.85976C19.7763 8.69631 19.6901 9.55197 19.6901 10.4272C19.6901 11.3029 19.7763 12.1557 19.9492 12.9868C20.1221 13.8175 20.3846 14.5982 20.7328 15.3348C21.0815 16.0685 21.5194 16.744 22.041 17.3606C22.5626 17.9777 23.1734 18.5082 23.8733 18.9499C24.5732 19.3947 25.3598 19.7395 26.2385 19.9839C27.1167 20.2283 28.0845 20.3537 29.1414 20.3537C30.1989 20.3537 31.1804 20.2312 32.0645 19.9839C32.9485 19.7395 33.7434 19.3947 34.4492 18.9499C35.1545 18.5057 35.7711 17.9748 36.3011 17.3606C36.8305 16.744 37.2684 16.0685 37.6171 15.3348C37.9659 14.6011 38.2279 13.8175 38.4067 12.9868C38.582 12.1557 38.6716 11.3029 38.6716 10.4272C38.6716 9.55197 38.582 8.69631 38.4067 7.85976C38.2308 7.02321 37.9688 6.23417 37.6171 5.49215Z" fill="#001D52"/>
<path fill-rule="evenodd" clip-rule="evenodd" d="M97.1169 12.1753C97.0164 12.7532 96.8627 13.3062 96.6535 13.8317C96.4444 14.3597 96.177 14.8456 95.8503 15.2986C95.5241 15.7487 95.1337 16.1381 94.6763 16.4687C94.2217 16.7964 93.6972 17.055 93.109 17.244C92.5178 17.4331 91.8566 17.5271 91.1175 17.5271C90.3784 17.5271 89.7397 17.4331 89.1598 17.244C88.5794 17.055 88.0637 16.7964 87.6175 16.4687C87.1684 16.1405 86.7834 15.7487 86.4572 15.2986C86.1339 14.8485 85.866 14.3597 85.6598 13.8317C85.4507 13.3037 85.2969 12.7532 85.1994 12.1753C85.099 11.5973 85.0515 11.0135 85.0515 10.4272C85.0515 9.84094 85.102 9.25173 85.1994 8.6684C85.2998 8.08457 85.4531 7.52916 85.6598 7.00117C85.869 6.47319 86.1339 5.98389 86.4572 5.53084C86.7809 5.07779 87.1684 4.68352 87.6175 4.34703C88.0666 4.01104 88.5794 3.7495 89.1598 3.56093C89.7397 3.37187 90.3926 3.27735 91.1175 3.27735C91.8429 3.27735 92.5178 3.37187 93.109 3.56093C93.7001 3.7495 94.2217 4.01104 94.6763 4.34703C95.1308 4.68352 95.5211 5.07779 95.8503 5.53084C96.177 5.98389 96.4444 6.47563 96.6535 7.00117C96.8627 7.52916 97.0164 8.08457 97.1169 8.6684C97.2173 9.25173 97.2643 9.838 97.2643 10.4272C97.2643 11.0164 97.2143 11.5973 97.1169 12.1753ZM98.2796 17.3606C98.8095 16.744 99.2474 16.0685 99.5961 15.3348C99.9444 14.6011 100.207 13.8175 100.385 12.9868C100.561 12.1557 100.65 11.3029 100.65 10.4272C100.65 9.55197 100.561 8.69631 100.385 7.85976C100.209 7.02321 99.9473 6.23417 99.5961 5.49215C99.2474 4.75013 98.8066 4.06933 98.2796 3.44681C97.7497 2.8243 97.1335 2.28798 96.4277 1.84081C95.7219 1.39315 94.9275 1.04295 94.043 0.790223C93.1589 0.537494 92.1828 0.412109 91.1204 0.412109C90.0576 0.412109 89.0957 0.537494 88.217 0.790223C87.3388 1.04295 86.5493 1.39315 85.8523 1.84081C85.1519 2.28798 84.5412 2.82136 84.0195 3.44681C83.4984 4.06933 83.0605 4.75013 82.7118 5.49215C82.3631 6.23417 82.1011 7.02321 81.9282 7.85976C81.7553 8.69631 81.6686 9.55197 81.6686 10.4272C81.6686 11.3029 81.7553 12.1557 81.9282 12.9868C82.1011 13.8175 82.3631 14.5982 82.7118 15.3348C83.0605 16.0685 83.4984 16.744 84.0195 17.3606C84.5412 17.9777 85.1519 18.5082 85.8523 18.9499C86.5522 19.3947 87.3388 19.7395 88.217 19.9839C89.0957 20.2283 90.0635 20.3537 91.1204 20.3537C92.1774 20.3537 93.1589 20.2312 94.043 19.9839C94.9275 19.7395 95.7219 19.3947 96.4277 18.9499C97.1335 18.5057 97.7497 17.9748 98.2796 17.3606Z" fill="#001D52"/>
<path fill-rule="evenodd" clip-rule="evenodd" d="M0 0.845703L6.6542 20.0007H10.3942L3.70375 0.845703H0Z" fill="#001D52"/>
<path fill-rule="evenodd" clip-rule="evenodd" d="M66.8148 12.4727H72.055C73.1007 12.4864 74.0132 12.3615 74.7968 12.1029C75.5776 11.8448 76.2299 11.4667 76.7545 10.9666C77.2761 10.469 77.6694 9.86067 77.9285 9.14068C78.1881 8.42119 78.3189 7.60668 78.3189 6.69274C78.3189 5.77832 78.1881 4.93099 77.9285 4.20562H77.9261C77.6665 3.48025 77.2761 2.869 76.7516 2.37138C76.2299 1.87425 75.5776 1.49614 74.7939 1.23508C74.0102 0.976475 73.0983 0.845703 72.0521 0.845703H71.0314V3.74963H71.1793C72.4816 3.74963 73.4382 3.99991 74.0494 4.50292C74.6626 5.00593 74.9668 5.73375 74.9668 6.69274C74.9668 7.65125 74.6602 8.36536 74.0494 8.87424C73.4357 9.38264 72.4792 9.62704 71.1793 9.60794H63.429V20.0036H66.8148V12.4727Z" fill="#001D52"/>
<path fill-rule="evenodd" clip-rule="evenodd" d="M54.9003 0.845703L50.5104 7.37599L46.121 0.845703H42.0239L48.4523 10.4386L50.5104 13.5091L54.8612 20.0007H58.9974L52.569 10.4386L58.9974 0.845703H54.9003Z" fill="#001D52"/>
<path fill-rule="evenodd" clip-rule="evenodd" d="M119.609 9.14068C119.869 8.42119 120 7.60668 120 6.69274C120 5.77832 119.869 4.9305 119.609 4.20562H119.607C119.347 3.48025 118.957 2.869 118.433 2.37138C117.911 1.87376 117.258 1.49614 116.475 1.23459C115.691 0.976475 114.779 0.845703 113.733 0.845703H112.713V3.74963H112.86C114.163 3.74963 115.119 3.99991 115.73 4.50292C116.344 5.00593 116.647 5.73375 116.647 6.69274C116.647 7.65125 116.341 8.36536 115.73 8.87375C115.116 9.38264 114.16 9.62704 112.86 9.60745H105.11V20.0031H108.495V12.4727H113.736C114.782 12.4864 115.694 12.3615 116.478 12.1029C117.258 11.8448 117.911 11.4667 118.435 10.9666C118.957 10.469 119.35 9.86018 119.609 9.14068Z" fill="#001D52"/>
<path fill-rule="evenodd" clip-rule="evenodd" d="M109.354 3.05204C109.354 1.59591 108.169 0.415039 106.708 0.415039C105.246 0.415039 104.061 1.59591 104.061 3.05204C104.061 4.50816 105.246 5.68903 106.708 5.68903C108.169 5.68903 109.354 4.50816 109.354 3.05204Z" fill="#E62D3D"/>
</g>
</svg>
