<svg width="40" height="55" viewBox="0 0 40 55" fill="none" xmlns="http://www.w3.org/2000/svg">
<mask id="mask0_0_762" style="mask-type:luminance" maskUnits="userSpaceOnUse" x="0" y="10" width="17" height="15">
<path fill-rule="evenodd" clip-rule="evenodd" d="M0 10.5879H16.8662V24.0761H0V10.5879Z" fill="white"/>
</mask>
<g mask="url(#mask0_0_762)">
<path fill-rule="evenodd" clip-rule="evenodd" d="M12.6703 14.3219C12.9093 15.0003 13.04 15.7774 13.04 16.6036C13.04 16.67 13.0349 16.7366 13.0327 16.8024C13.0327 17.7116 12.4871 18.5173 11.7082 18.8678C10.7061 19.3054 9.40461 19.6746 7.96773 19.9019C6.89502 20.072 5.87232 20.141 4.97038 20.121L3.38217 23.8577C3.31729 23.9863 3.19706 24.0761 3.04788 24.0761C2.95432 24.0761 2.86881 24.0407 2.80406 23.9825L0.12117 21.7708C0.0469131 21.7039 0 21.6068 0 21.4991C0 21.3786 0.0482535 21.2716 0.148245 21.2053L10.8718 11.2571C11.3243 10.8416 11.9279 10.5879 12.5907 10.5879C13.2818 10.5879 13.9134 10.8605 14.3817 11.3079L16.7718 13.7386C16.8322 13.8035 16.8662 13.8904 16.8662 13.986C16.8662 14.1877 16.7028 14.3513 16.5008 14.3513L12.6703 14.3219Z" fill="#231F20"/>
</g>
<path fill-rule="evenodd" clip-rule="evenodd" d="M30.6701 34.5823C30.8269 34.4066 30.9228 34.1747 30.9228 33.9203C30.9228 33.3721 30.4783 32.9277 29.9296 32.9277C29.6694 32.9277 29.4396 33.0258 29.2709 33.19C28.5597 33.8594 27.761 34.2472 26.6852 34.2641C25.6752 34.2806 24.758 33.8861 24.1004 33.2201C23.9105 33.0394 23.6716 32.9277 23.3966 32.9277C23.0928 32.9277 22.8552 33.0457 22.6732 33.2605C22.0553 33.9026 21.2014 34.3032 20.2456 34.3032C19.2855 34.3032 18.4407 33.937 17.8301 33.2896C17.648 33.0687 17.3721 32.9277 17.0633 32.9277C16.7782 32.9277 16.5131 33.0476 16.3402 33.24C15.674 33.9094 14.7694 34.3016 13.7567 34.3016C12.7502 34.3016 11.8165 33.881 11.1595 33.2193C10.9694 33.0391 10.7311 32.9277 10.4565 32.9277C9.9081 32.9277 9.4635 33.3721 9.4635 33.9203C9.4635 34.1628 9.57422 34.4363 9.71844 34.6086C10.6244 35.6502 11.9772 36.3076 13.4735 36.3076C14.5406 36.3076 15.5649 36.0023 16.3769 35.4328C16.5384 35.2975 16.7613 35.2168 16.9951 35.2168C17.2473 35.2168 17.4779 35.3109 17.6528 35.4659C18.3631 35.9849 19.2476 36.309 20.1951 36.309C21.1807 36.309 22.0809 35.9771 22.8138 35.4188C22.9844 35.2816 23.1859 35.1986 23.4218 35.1986C23.6585 35.1986 23.8492 35.273 24.03 35.4113C24.8399 35.9764 25.8244 36.3076 26.8869 36.3076C28.3751 36.3076 29.7463 35.6147 30.6701 34.5823Z" fill="#231F20"/>
<path fill-rule="evenodd" clip-rule="evenodd" d="M28.0677 6.79199C28.0677 6.47486 27.8106 6.21777 27.4934 6.21777H27.4903L12.8929 6.21938C12.5758 6.21938 12.3136 6.46306 12.3136 6.78033V8.02755C12.3136 8.34481 12.5813 8.62415 12.8987 8.62415L19.2919 8.61986L18.1156 25.0057C15.9817 24.4114 14.2216 22.9522 13.2631 20.9978H7.46267C7.14541 20.9978 6.90789 21.2694 6.90789 21.5864L6.89087 23.0947C6.89087 23.4118 7.17061 23.6766 7.48774 23.6766L9.02207 23.6847C10.4233 28.5183 14.8815 32.0548 20.1667 32.0548C25.4565 32.0548 29.9377 28.4971 31.3354 23.6575L32.7966 23.6519C33.1134 23.6519 33.3753 23.3949 33.3753 23.0777L33.3656 21.5766C33.3656 21.2596 33.1255 20.9978 32.8081 20.9978L27.1246 20.9947C26.1589 23.0203 24.4202 24.4249 22.2261 25.0381L21.0951 8.61986L27.469 8.62308C27.7866 8.62308 28.0598 8.39146 28.0598 8.07433L28.0677 6.79199Z" fill="#231F20"/>
<path fill-rule="evenodd" clip-rule="evenodd" d="M23.7385 5.1359C23.9566 5.1359 24.133 4.95924 24.133 4.74116C24.133 4.62133 24.0823 4.5141 23.9979 4.44158L21.8774 2.83327L24.011 1.1708C24.0798 1.09976 24.1281 0.991994 24.1281 0.885032C24.1281 0.667087 23.9465 0.496055 23.7284 0.496055L18.4263 0.488281C18.1092 0.488281 17.862 0.759439 17.862 1.07671L17.8419 4.58219C17.8419 4.89932 18.1018 5.14997 18.4187 5.14997L23.7385 5.1359Z" fill="#231F20"/>
<path fill-rule="evenodd" clip-rule="evenodd" d="M27.3297 14.2848C27.091 14.9632 26.9599 15.7406 26.9599 16.5665C26.9599 16.6331 26.9653 16.6995 26.967 16.7653C26.967 17.6745 27.5128 18.4802 28.2922 18.8307C29.2938 19.2683 30.5955 19.6372 32.0323 19.8649C33.1049 20.035 34.1274 20.1039 35.0299 20.0838L36.618 23.8206C36.6826 23.9493 36.8029 24.0388 36.952 24.0388C37.046 24.0388 37.1316 24.0035 37.1961 23.9457L39.8787 21.7337C39.9531 21.6669 40 21.5697 40 21.4618C40 21.3415 39.9516 21.2346 39.8519 21.168L29.1285 11.2202C28.6757 10.8046 28.0721 10.5508 27.4096 10.5508C26.7178 10.5508 26.0864 10.8234 25.6179 11.2708L23.228 13.7015C23.168 13.7663 23.1337 13.8533 23.1337 13.949C23.1337 14.1505 23.2971 14.3142 23.4989 14.3142L27.3297 14.2848Z" fill="#231F20"/>
<mask id="mask1_0_762" style="mask-type:luminance" maskUnits="userSpaceOnUse" x="0" y="51" width="40" height="4">
<path fill-rule="evenodd" clip-rule="evenodd" d="M0 51.917H40V54.4005H0V51.917Z" fill="white"/>
</mask>
<g mask="url(#mask1_0_762)">
<path fill-rule="evenodd" clip-rule="evenodd" d="M1.36343 54.0517C1.36209 54.0372 1.35981 54.0262 1.35686 54.0178C1.35391 54.0096 1.35003 54.0037 1.3452 54.0009C1.34038 53.9983 1.33421 53.9967 1.32751 53.9967C1.31276 53.9967 1.29306 54.0058 1.26759 54.0245C1.24213 54.0426 1.20996 54.0631 1.17028 54.0859C1.13101 54.1088 1.08316 54.1291 1.027 54.1475C0.971236 54.1664 0.905558 54.1757 0.830496 54.1757C0.742032 54.1757 0.662413 54.16 0.592312 54.1281C0.522076 54.0967 0.462832 54.0502 0.414712 53.9887C0.366325 53.9269 0.32933 53.8505 0.303595 53.7587C0.277726 53.6671 0.264858 53.5619 0.264858 53.4427C0.264858 53.3224 0.278128 53.2154 0.305069 53.1216C0.331877 53.0284 0.369541 52.9493 0.418331 52.8839C0.466853 52.8191 0.525695 52.77 0.594456 52.7368C0.663218 52.7031 0.739351 52.6865 0.823258 52.6865C0.900196 52.6865 0.966277 52.6958 1.02123 52.7146C1.07646 52.7335 1.12337 52.7545 1.16144 52.7768C1.20031 52.7998 1.23167 52.8207 1.25607 52.8396C1.28033 52.8586 1.29949 52.8684 1.31276 52.8684C1.32081 52.8684 1.32737 52.866 1.3326 52.8617C1.3381 52.8574 1.34292 52.8503 1.34654 52.8409C1.35043 52.8321 1.35351 52.8204 1.35539 52.8066C1.35753 52.7931 1.35847 52.7767 1.35847 52.7574C1.35847 52.7403 1.35767 52.7252 1.35619 52.7126C1.35458 52.6999 1.35284 52.6892 1.35029 52.6798C1.34775 52.6706 1.3448 52.6624 1.34105 52.6555C1.33689 52.649 1.32831 52.6388 1.31544 52.6258C1.30244 52.6129 1.27885 52.596 1.24481 52.5758C1.21089 52.5554 1.17216 52.5377 1.12846 52.522C1.0849 52.5066 1.03772 52.4936 0.986248 52.4834C0.934644 52.4732 0.881833 52.4683 0.827682 52.4683C0.704501 52.4683 0.592312 52.4903 0.491113 52.5353C0.389781 52.5794 0.302523 52.6444 0.229874 52.7293C0.157092 52.8141 0.100662 52.9176 0.0604509 53.0397C0.0202397 53.1619 0 53.3009 0 53.4571C0 53.6096 0.0190333 53.7437 0.0562958 53.8607C0.0932901 53.9774 0.146637 54.0757 0.216068 54.155C0.285232 54.2345 0.369139 54.2948 0.467523 54.3354C0.566309 54.376 0.676487 54.3964 0.798596 54.3964C0.869367 54.3964 0.93451 54.3899 0.994022 54.377C1.0538 54.3637 1.10661 54.3478 1.15259 54.3293C1.1987 54.3098 1.23703 54.2904 1.26813 54.2706C1.29936 54.2509 1.31947 54.2358 1.32912 54.2261C1.3389 54.2165 1.34547 54.2084 1.34962 54.2018C1.35351 54.1948 1.35659 54.1872 1.35914 54.1783C1.36142 54.1698 1.36316 54.1598 1.36423 54.1475C1.36517 54.1363 1.36571 54.1223 1.36571 54.1073C1.36571 54.0848 1.3649 54.0664 1.36343 54.0517ZM3.45803 52.5368C3.45442 52.5261 3.44879 52.5171 3.44208 52.5098C3.43538 52.5026 3.4256 52.4967 3.41313 52.4932C3.40026 52.4891 3.38405 52.4864 3.36367 52.4849C3.3433 52.4834 3.3177 52.4829 3.28633 52.4829C3.25725 52.4829 3.23339 52.4834 3.21435 52.4849C3.19559 52.4864 3.17977 52.4891 3.16784 52.4932C3.15578 52.4967 3.14666 52.5019 3.1401 52.5092C3.13407 52.5157 3.12884 52.5246 3.12522 52.5353L2.49404 54.2828C2.48613 54.3045 2.48197 54.3215 2.48144 54.3349C2.48103 54.3478 2.48452 54.3578 2.49176 54.3642C2.499 54.3714 2.5116 54.3759 2.52956 54.3785C2.54752 54.3807 2.57057 54.3821 2.59859 54.3821C2.62553 54.3821 2.64778 54.381 2.66493 54.379C2.68169 54.3773 2.69482 54.3739 2.70407 54.3693C2.71346 54.3652 2.72029 54.3598 2.72512 54.3537C2.73008 54.3474 2.73396 54.34 2.73678 54.3313L2.89079 53.8786H3.6733L3.83455 54.3368C3.8387 54.3458 3.84259 54.3531 3.84688 54.3585C3.85157 54.3642 3.85827 54.3691 3.86752 54.3726C3.87663 54.3759 3.89031 54.3785 3.90813 54.3797C3.92596 54.3813 3.95022 54.3821 3.97998 54.3821C4.0104 54.3821 4.03426 54.381 4.05222 54.379C4.06992 54.3773 4.08292 54.3727 4.09042 54.3656C4.0982 54.3594 4.10195 54.3494 4.10155 54.3362C4.10115 54.323 4.09686 54.3057 4.08908 54.2845L3.45803 52.5368ZM3.60762 53.6796H2.95338L3.27762 52.7415H3.27909L3.60762 53.6796ZM3.25885 51.9182C3.24478 51.9195 3.23231 51.9215 3.22186 51.9249C3.21114 51.9285 3.20162 51.9328 3.19344 51.938C3.18513 51.9434 3.17709 51.9504 3.16918 51.9592L2.84347 52.2896C2.83489 52.2993 2.82967 52.3073 2.82752 52.3141C2.82578 52.3207 2.82739 52.3265 2.83261 52.3308C2.83824 52.3352 2.84722 52.3383 2.86036 52.3411C2.8735 52.3434 2.89199 52.3447 2.91625 52.3447C2.94253 52.3447 2.96437 52.3442 2.9818 52.3432C2.99936 52.3422 3.01397 52.3404 3.02536 52.3371C3.03702 52.3345 3.04667 52.3301 3.05458 52.3249C3.06209 52.3196 3.06986 52.3131 3.07777 52.3053L3.30912 52.0605L3.53296 52.3127C3.53792 52.3175 3.54315 52.3219 3.54945 52.3265C3.55615 52.3308 3.56446 52.3341 3.57505 52.3367C3.58564 52.3388 3.59985 52.3411 3.61727 52.3423C3.6347 52.3439 3.65815 52.3447 3.68724 52.3447C3.70828 52.3447 3.72584 52.3436 3.73951 52.3419C3.75292 52.34 3.7627 52.3367 3.7686 52.3322C3.7745 52.3277 3.77624 52.3219 3.7745 52.3151C3.77249 52.3076 3.76712 52.2993 3.75855 52.2896L3.44731 51.9592C3.4386 51.9504 3.43056 51.9434 3.42332 51.938C3.41581 51.9328 3.40723 51.9285 3.39691 51.9249C3.38686 51.9215 3.37493 51.9195 3.36153 51.9182C3.34772 51.9174 3.33083 51.917 3.31046 51.917C3.28995 51.917 3.27279 51.9174 3.25885 51.9182ZM7.43225 52.6049C7.43225 52.5842 7.4293 52.5675 7.42353 52.5533C7.41764 52.5391 7.40986 52.5275 7.40035 52.5184C7.3911 52.5094 7.37984 52.5026 7.36657 52.498C7.35316 52.4936 7.33922 52.4916 7.32421 52.4916H7.1635C7.1387 52.4916 7.11712 52.4944 7.09836 52.4994C7.07959 52.505 7.06257 52.5136 7.04756 52.5258C7.03201 52.5379 7.01807 52.5539 7.0052 52.5743C6.99247 52.5948 6.98054 52.6195 6.97009 52.6483L6.40981 54.0069H6.4027L5.86441 52.6441C5.8557 52.618 5.84538 52.5951 5.83358 52.5758C5.82165 52.5561 5.80691 52.5403 5.78935 52.5281C5.77152 52.5152 5.75088 52.5064 5.72729 52.5002C5.7037 52.4946 5.67582 52.4916 5.64472 52.4916H5.49098C5.46444 52.4916 5.44031 52.5002 5.4186 52.5177C5.39702 52.5353 5.38616 52.5641 5.38616 52.6049V54.3354C5.38616 54.3435 5.38791 54.3498 5.39153 54.3559C5.39501 54.3614 5.40144 54.366 5.41069 54.3693C5.42021 54.3728 5.43294 54.3759 5.44889 54.3785C5.46511 54.3807 5.48508 54.3821 5.50894 54.3821C5.53401 54.3821 5.55425 54.3807 5.57033 54.3785C5.58628 54.3759 5.59942 54.3728 5.60947 54.3693C5.61912 54.366 5.62622 54.3614 5.63025 54.3559C5.63427 54.3498 5.63628 54.3435 5.63628 54.3354V52.6964H5.63775L6.27188 54.3429C6.27376 54.3484 6.27725 54.3539 6.28261 54.3585C6.28797 54.3632 6.29561 54.3676 6.30526 54.3711C6.31491 54.3743 6.32711 54.3773 6.34185 54.379C6.35619 54.381 6.37348 54.3821 6.39386 54.3821C6.41316 54.3821 6.43005 54.3813 6.44426 54.3797C6.4582 54.3785 6.47013 54.3759 6.48018 54.3726C6.49063 54.3691 6.49841 54.3648 6.50363 54.3602C6.50913 54.3555 6.51329 54.3495 6.5161 54.3429L7.17918 52.6964H7.182V54.3354C7.182 54.3435 7.18414 54.3498 7.1883 54.3559C7.19205 54.3614 7.19902 54.366 7.20854 54.3693C7.21805 54.3728 7.23092 54.3759 7.24727 54.3785C7.26363 54.3807 7.28346 54.3821 7.30639 54.3821C7.33158 54.3821 7.35169 54.3807 7.36724 54.3785C7.38252 54.3759 7.39525 54.3728 7.4053 54.3693C7.41509 54.366 7.42233 54.3614 7.42648 54.3559C7.43037 54.3498 7.43225 54.3435 7.43225 54.3354V52.6049ZM9.69346 52.5368C9.68944 52.5261 9.68421 52.5171 9.67724 52.5098C9.67054 52.5026 9.66089 52.4967 9.64816 52.4932C9.63556 52.4891 9.61907 52.4864 9.59896 52.4849C9.57859 52.4834 9.55272 52.4829 9.52176 52.4829C9.49267 52.4829 9.46868 52.4834 9.44978 52.4849C9.43088 52.4864 9.41533 52.4891 9.40327 52.4932C9.39094 52.4967 9.38182 52.5019 9.37552 52.5092C9.36936 52.5157 9.36426 52.5246 9.36064 52.5353L8.72919 54.2828C8.72155 54.3045 8.71726 54.3215 8.71673 54.3349C8.71646 54.3478 8.71994 54.3578 8.72705 54.3642C8.73429 54.3714 8.74689 54.3759 8.76485 54.3785C8.78281 54.3807 8.80586 54.3821 8.83388 54.3821C8.86095 54.3821 8.88293 54.381 8.90009 54.379C8.91685 54.3773 8.92998 54.3739 8.9395 54.3693C8.94861 54.3652 8.95558 54.3598 8.96041 54.3537C8.9651 54.3474 8.96912 54.34 8.97207 54.3313L9.12621 53.8786H9.90846L10.0701 54.3368C10.0741 54.3458 10.078 54.3531 10.0823 54.3585C10.0866 54.3642 10.0934 54.3691 10.1028 54.3726C10.1121 54.3759 10.1255 54.3785 10.1434 54.3797C10.1615 54.3813 10.1854 54.3821 10.2154 54.3821C10.2456 54.3821 10.2696 54.381 10.2874 54.379C10.3055 54.3773 10.3182 54.3727 10.3261 54.3656C10.3336 54.3594 10.3372 54.3494 10.337 54.3362C10.3362 54.323 10.3321 54.3057 10.3245 54.2845L9.69346 52.5368ZM9.84291 53.6796H9.18867L9.51318 52.7415H9.51452L9.84291 53.6796ZM12.8706 54.3029C12.8668 54.2885 12.8578 54.264 12.8447 54.2291L12.6758 53.8148C12.6561 53.7674 12.6371 53.7249 12.6175 53.6868C12.5981 53.649 12.5775 53.6156 12.5556 53.5867C12.5338 53.5575 12.5105 53.5321 12.4851 53.5116C12.46 53.4907 12.432 53.4736 12.4009 53.4602C12.4564 53.4406 12.5062 53.417 12.5507 53.3887C12.5951 53.361 12.6336 53.3275 12.6655 53.2889C12.6974 53.2512 12.7219 53.2066 12.7391 53.157C12.7557 53.1072 12.7645 53.0504 12.7645 52.9871C12.7645 52.9225 12.755 52.8629 12.7361 52.8093C12.7175 52.7553 12.6885 52.7074 12.651 52.6657C12.6133 52.6236 12.5664 52.5899 12.5107 52.5624C12.4549 52.5357 12.3908 52.5157 12.318 52.503C12.2927 52.5002 12.2646 52.4978 12.2328 52.4951C12.2014 52.493 12.162 52.4916 12.1143 52.4916H11.7143C11.6922 52.4916 11.671 52.4988 11.6512 52.514C11.6315 52.5291 11.6215 52.5554 11.6215 52.5933V54.3354C11.6215 54.3435 11.6235 54.3498 11.6272 54.3559C11.6314 54.3614 11.6378 54.366 11.6473 54.3693C11.6572 54.3728 11.6701 54.3759 11.6861 54.3785C11.702 54.3807 11.7221 54.3821 11.7465 54.3821C11.7706 54.3821 11.791 54.3807 11.807 54.3785C11.8228 54.3759 11.8354 54.3728 11.8446 54.3693C11.8539 54.366 11.8604 54.3614 11.8649 54.3559C11.8693 54.3498 11.8714 54.3435 11.8714 54.3354V53.5339H12.0386C12.0963 53.5339 12.145 53.5425 12.1858 53.5595C12.2262 53.5766 12.2618 53.6004 12.2918 53.6308C12.3219 53.6612 12.3479 53.6977 12.3695 53.7399C12.3916 53.782 12.4124 53.8285 12.4331 53.8786L12.6058 54.3222C12.6098 54.3344 12.6144 54.3437 12.6198 54.3515C12.625 54.3594 12.6329 54.3652 12.6424 54.3693C12.6519 54.3739 12.6647 54.3773 12.6809 54.379C12.697 54.381 12.7176 54.3821 12.7427 54.3821C12.7718 54.3821 12.795 54.381 12.8125 54.379C12.8301 54.3773 12.8435 54.3742 12.8534 54.3703C12.863 54.3664 12.8693 54.3614 12.8719 54.3559C12.8748 54.3498 12.8766 54.3435 12.8766 54.3354C12.8766 54.3279 12.8744 54.3167 12.8706 54.3029ZM12.4772 53.14C12.4623 53.1787 12.4387 53.2126 12.4068 53.2411C12.3747 53.2697 12.3348 53.2922 12.2865 53.3082C12.2387 53.3241 12.1819 53.332 12.1158 53.332H11.8714V52.698H12.0823C12.1319 52.698 12.1719 52.6995 12.2022 52.7025C12.2328 52.7051 12.2603 52.71 12.2847 52.7169C12.3619 52.739 12.4174 52.7755 12.4502 52.8264C12.483 52.8772 12.4998 52.9401 12.4998 53.0137C12.4998 53.059 12.4922 53.1012 12.4772 53.14ZM14.9996 52.5368C14.9956 52.5261 14.9902 52.5171 14.9835 52.5098C14.9765 52.5026 14.9668 52.4967 14.9543 52.4932C14.9414 52.4891 14.9253 52.4864 14.9048 52.4849C14.8843 52.4834 14.8589 52.4829 14.8276 52.4829C14.7987 52.4829 14.7747 52.4834 14.7559 52.4849C14.737 52.4864 14.7213 52.4891 14.7091 52.4932C14.6972 52.4967 14.688 52.5019 14.6817 52.5092C14.6751 52.5157 14.6703 52.5246 14.6663 52.5353L14.0352 54.2828C14.0272 54.3045 14.0234 54.3215 14.023 54.3349C14.0225 54.3478 14.0256 54.3578 14.0329 54.3642C14.0403 54.3714 14.0528 54.3759 14.0709 54.3785C14.0888 54.3807 14.1119 54.3821 14.1398 54.3821C14.1672 54.3821 14.1892 54.381 14.2062 54.379C14.2231 54.3773 14.2363 54.3739 14.2452 54.3693C14.2545 54.3652 14.2616 54.3598 14.2666 54.3537C14.2711 54.3474 14.2751 54.34 14.2781 54.3313L14.4322 53.8786H15.2146L15.3761 54.3368C15.3799 54.3458 15.3842 54.3531 15.3883 54.3585C15.3927 54.3642 15.3992 54.3691 15.4088 54.3726C15.4181 54.3759 15.4315 54.3785 15.4494 54.3797C15.4671 54.3813 15.4913 54.3821 15.5214 54.3821C15.5514 54.3821 15.5753 54.381 15.5934 54.379C15.6114 54.3773 15.6242 54.3727 15.6319 54.3656C15.6399 54.3594 15.6434 54.3494 15.6427 54.3362C15.6424 54.323 15.6382 54.3057 15.6307 54.2845L14.9996 52.5368ZM15.1493 53.6796H14.4947L14.8191 52.7415H14.8207L15.1493 53.6796ZM20.6971 52.6049C20.6971 52.5842 20.6941 52.5675 20.688 52.5533C20.6823 52.5391 20.6746 52.5275 20.6652 52.5184C20.6561 52.5094 20.6447 52.5026 20.6313 52.498C20.6179 52.4936 20.604 52.4916 20.5891 52.4916H20.4279C20.4035 52.4916 20.382 52.4944 20.363 52.4994C20.3445 52.505 20.3276 52.5136 20.3124 52.5258C20.297 52.5379 20.2831 52.5539 20.2701 52.5743C20.2572 52.5948 20.2452 52.6195 20.2347 52.6483L19.6748 54.0069H19.6677L19.1294 52.6441C19.1206 52.618 19.1101 52.5951 19.0985 52.5758C19.0867 52.5561 19.0718 52.5403 19.0541 52.5281C19.0364 52.5152 19.0155 52.5064 18.992 52.5002C18.9683 52.4946 18.9407 52.4916 18.9095 52.4916H18.7557C18.7292 52.4916 18.7049 52.5002 18.6836 52.5177C18.6619 52.5353 18.6509 52.5641 18.6509 52.6049V54.3354C18.6509 54.3435 18.6528 54.3498 18.6561 54.3559C18.6596 54.3614 18.6662 54.366 18.6756 54.3693C18.6851 54.3728 18.6978 54.3759 18.7138 54.3785C18.73 54.3807 18.75 54.3821 18.7736 54.3821C18.7988 54.3821 18.8193 54.3807 18.8352 54.3785C18.8512 54.3759 18.864 54.3728 18.8741 54.3693C18.8843 54.366 18.891 54.3614 18.8951 54.3559C18.8989 54.3498 18.9012 54.3435 18.9012 54.3354V52.6964H18.9025L19.5366 54.3429C19.5384 54.3484 19.5423 54.3539 19.5472 54.3585C19.5529 54.3632 19.5602 54.3676 19.5701 54.3711C19.5798 54.3743 19.5917 54.3773 19.6062 54.379C19.6208 54.381 19.6385 54.3821 19.6587 54.3821C19.678 54.3821 19.6949 54.3813 19.709 54.3797C19.7228 54.3785 19.7353 54.3759 19.7453 54.3726C19.7555 54.3691 19.7633 54.3648 19.7687 54.3602C19.7738 54.3555 19.778 54.3495 19.7809 54.3429L20.4443 52.6964H20.447V54.3354C20.447 54.3435 20.4489 54.3498 20.4529 54.3559C20.4571 54.3614 20.4639 54.366 20.4732 54.3693C20.4827 54.3728 20.4955 54.3759 20.5123 54.3785C20.5287 54.3807 20.5482 54.3821 20.5711 54.3821C20.5962 54.3821 20.6163 54.3807 20.632 54.3785C20.6474 54.3759 20.6601 54.3728 20.6701 54.3693C20.6801 54.366 20.6871 54.3614 20.6908 54.3559C20.695 54.3498 20.6971 54.3435 20.6971 54.3354V52.6049ZM23.595 52.5293C23.595 52.5216 23.5927 52.5149 23.5885 52.5092C23.584 52.503 23.5775 52.4983 23.5682 52.4951C23.5587 52.4917 23.5468 52.4887 23.5306 52.4864C23.5142 52.4841 23.4945 52.4829 23.4716 52.4829C23.4473 52.4829 23.4269 52.4841 23.4111 52.4864C23.395 52.4887 23.3822 52.4917 23.3728 52.4951C23.3627 52.4983 23.3562 52.503 23.3523 52.5092C23.3481 52.5149 23.3463 52.5216 23.3463 52.5293V53.6796C23.3463 53.7642 23.3359 53.8375 23.315 53.9006C23.2941 53.9632 23.2644 54.0167 23.2245 54.0592C23.1858 54.1018 23.1376 54.1338 23.0809 54.155C23.0243 54.1767 22.9597 54.1872 22.8868 54.1872C22.8161 54.1872 22.7523 54.1766 22.6956 54.1546C22.6392 54.1326 22.5901 54.1002 22.5502 54.0569C22.5103 54.014 22.4794 53.9595 22.4581 53.8947C22.4368 53.8302 22.4256 53.7537 22.4256 53.6662V52.5293C22.4256 52.5216 22.4239 52.5149 22.4201 52.5092C22.4162 52.503 22.4095 52.4983 22.4006 52.4951C22.3915 52.4917 22.3784 52.4887 22.3623 52.4864C22.3455 52.4841 22.3256 52.4829 22.3021 52.4829C22.2769 52.4829 22.2568 52.4841 22.241 52.4864C22.2258 52.4887 22.2131 52.4917 22.2037 52.4951C22.1939 52.4983 22.1872 52.503 22.1835 52.5092C22.1795 52.5149 22.1773 52.5216 22.1773 52.5293V53.6967C22.1773 53.8126 22.1939 53.9143 22.227 54.0023C22.2596 54.0907 22.3065 54.1641 22.3676 54.2224C22.4286 54.2813 22.502 54.3259 22.5871 54.3559C22.6726 54.3858 22.7671 54.4006 22.871 54.4006C22.9841 54.4006 23.0856 54.3849 23.1746 54.3531C23.264 54.321 23.3394 54.2736 23.4013 54.2117C23.4639 54.1498 23.5115 54.0739 23.5448 53.9843C23.5781 53.8946 23.595 53.7926 23.595 53.6781V52.5293ZM26.4959 52.5338C26.4959 52.5269 26.4939 52.5208 26.4901 52.5149C26.4861 52.5092 26.4792 52.5038 26.4696 52.4994C26.4606 52.4951 26.4476 52.492 26.4317 52.4899C26.4153 52.488 26.3956 52.4871 26.3732 52.4871C26.3476 52.4871 26.327 52.488 26.3112 52.4899C26.2949 52.492 26.2826 52.4951 26.273 52.4994C26.2628 52.5038 26.2562 52.5092 26.2521 52.5149C26.2483 52.5208 26.2456 52.5269 26.2456 52.5338V53.5545C26.2456 53.6312 26.246 53.7103 26.2467 53.7937C26.2474 53.8765 26.2486 53.9562 26.2502 54.0328H26.249C26.2266 53.9873 26.2035 53.9422 26.1809 53.897C26.1577 53.852 26.1346 53.8061 26.1113 53.7597C26.0877 53.7128 26.0635 53.6656 26.0377 53.6179C26.0128 53.5698 25.9867 53.5205 25.9596 53.4704L25.5181 52.6441C25.502 52.6139 25.4866 52.5891 25.4721 52.5694C25.4577 52.5492 25.4429 52.5342 25.4275 52.5227C25.4116 52.5117 25.3941 52.5037 25.3748 52.4986C25.3552 52.494 25.3308 52.4916 25.3017 52.4916H25.1789C25.1527 52.4916 25.1284 52.4997 25.1067 52.5164C25.0846 52.5328 25.0739 52.5604 25.0739 52.5987V54.3354C25.0739 54.3424 25.0759 54.3486 25.0799 54.3551C25.0843 54.3613 25.0908 54.366 25.1 54.3693C25.109 54.3728 25.1216 54.3759 25.1373 54.3785C25.1533 54.3807 25.1739 54.3821 25.1983 54.3821C25.2225 54.3821 25.2426 54.3807 25.259 54.3785C25.2748 54.3759 25.2871 54.3728 25.297 54.3693C25.3067 54.366 25.3137 54.3613 25.3174 54.3551C25.3217 54.3486 25.3238 54.3424 25.3238 54.3354V53.1999C25.3238 53.1278 25.3236 53.0555 25.3222 52.9829C25.3213 52.9105 25.3198 52.8392 25.3179 52.7696H25.3205C25.3473 52.8262 25.3756 52.8851 25.4065 52.9463C25.437 53.0069 25.4666 53.0646 25.4966 53.1194L26.071 54.1901C26.0909 54.2277 26.1096 54.2589 26.1267 54.2828C26.1444 54.3073 26.1617 54.3266 26.1797 54.3404C26.1974 54.3546 26.2153 54.3641 26.2353 54.3693C26.2546 54.3748 26.2777 54.3777 26.3034 54.3777H26.3864C26.3994 54.3777 26.4122 54.3755 26.4251 54.3716C26.4381 54.368 26.4498 54.3614 26.4606 54.3531C26.4711 54.3443 26.4795 54.333 26.4864 54.3193C26.4928 54.3057 26.4959 54.2892 26.4959 54.27V52.5338ZM28.2295 52.5293C28.2295 52.5216 28.2276 52.5149 28.2235 52.5092C28.2197 52.503 28.213 52.4983 28.2028 52.4951C28.1936 52.4917 28.1806 52.4887 28.1642 52.4864C28.1486 52.4841 28.1286 52.4829 28.1042 52.4829C28.0819 52.4829 28.0625 52.4841 28.0467 52.4864C28.0311 52.4887 28.0179 52.4917 28.0075 52.4951C27.9976 52.4983 27.99 52.503 27.9857 52.5092C27.9813 52.5149 27.979 52.5216 27.979 52.5293V54.3354C27.979 54.3435 27.9813 54.3498 27.9849 54.3559C27.9889 54.3614 27.9957 54.366 28.0057 54.3693C28.0156 54.3728 28.0279 54.3759 28.0444 54.3785C28.0612 54.3807 28.081 54.3821 28.1042 54.3821C28.1286 54.3821 28.1486 54.3807 28.1642 54.3785C28.1806 54.3759 28.1936 54.3728 28.2028 54.3693C28.213 54.366 28.2197 54.3614 28.2235 54.3559C28.2276 54.3498 28.2295 54.3435 28.2295 54.3354V52.5293ZM30.9664 54.0517C30.9651 54.0372 30.9628 54.0262 30.96 54.0178C30.9569 54.0096 30.953 54.0037 30.9485 54.0009C30.9436 53.9983 30.9375 53.9967 30.9305 53.9967C30.9159 53.9967 30.8963 54.0058 30.8711 54.0245C30.8453 54.0426 30.8129 54.0631 30.7735 54.0859C30.7344 54.1088 30.6866 54.1291 30.6303 54.1475C30.5744 54.1664 30.509 54.1757 30.4335 54.1757C30.345 54.1757 30.2657 54.16 30.1954 54.1281C30.1253 54.0967 30.066 54.0502 30.0178 53.9887C29.97 53.9269 29.9322 53.8505 29.9067 53.7587C29.881 53.6671 29.868 53.5619 29.868 53.4427C29.868 53.3224 29.8814 53.2154 29.9082 53.1216C29.9347 53.0284 29.9728 52.9493 30.0213 52.8839C30.0701 52.8191 30.1292 52.77 30.1977 52.7368C30.2665 52.7031 30.3425 52.6865 30.4265 52.6865C30.5032 52.6865 30.5693 52.6958 30.6245 52.7146C30.6793 52.7335 30.7264 52.7545 30.7647 52.7768C30.8029 52.7998 30.8349 52.8207 30.8591 52.8396C30.8836 52.8586 30.9028 52.8684 30.9159 52.8684C30.9238 52.8684 30.9305 52.866 30.936 52.8617C30.941 52.8574 30.9459 52.8503 30.9498 52.8409C30.954 52.8321 30.9566 52.8204 30.9585 52.8066C30.9603 52.7931 30.9615 52.7767 30.9615 52.7574C30.9615 52.7403 30.9607 52.7252 30.959 52.7126C30.9576 52.6999 30.9557 52.6892 30.9537 52.6798C30.951 52.6706 30.9477 52.6624 30.9439 52.6555C30.9401 52.649 30.9317 52.6388 30.9188 52.6258C30.9053 52.6129 30.8818 52.596 30.8481 52.5758C30.8139 52.5554 30.7757 52.5377 30.732 52.522C30.688 52.5066 30.6404 52.4936 30.5895 52.4834C30.5376 52.4732 30.4848 52.4683 30.4308 52.4683C30.3078 52.4683 30.1954 52.4903 30.094 52.5353C29.9934 52.5794 29.9059 52.6444 29.8337 52.7293C29.7602 52.8141 29.7039 52.9176 29.6637 53.0397C29.6234 53.1619 29.6034 53.3009 29.6034 53.4571C29.6034 53.6096 29.6222 53.7437 29.6593 53.8607C29.6964 53.9774 29.7502 54.0757 29.8192 54.155C29.8885 54.2345 29.9728 54.2948 30.0705 54.3354C30.1697 54.376 30.2791 54.3964 30.4019 54.3964C30.4728 54.3964 30.5376 54.3899 30.5969 54.377C30.6569 54.3637 30.7097 54.3478 30.756 54.3293C30.8017 54.3098 30.8403 54.2904 30.8714 54.2706C30.9028 54.2509 30.9226 54.2358 30.9324 54.2261C30.9419 54.2165 30.9489 54.2084 30.9527 54.2018C30.9566 54.1948 30.9595 54.1872 30.9621 54.1783C30.9643 54.1698 30.9664 54.1598 30.9671 54.1475C30.9682 54.1363 30.9687 54.1223 30.9687 54.1073C30.9687 54.0848 30.9679 54.0664 30.9664 54.0517ZM32.5333 52.5293C32.5333 52.5216 32.5312 52.5149 32.5274 52.5092C32.5237 52.503 32.517 52.4983 32.5069 52.4951C32.4971 52.4917 32.4847 52.4887 32.4687 52.4864C32.4528 52.4841 32.4325 52.4829 32.408 52.4829C32.3861 52.4829 32.3667 52.4841 32.351 52.4864C32.3348 52.4887 32.3218 52.4917 32.3116 52.4951C32.3013 52.4983 32.2942 52.503 32.2899 52.5092C32.2855 52.5149 32.2829 52.5216 32.2829 52.5293V54.3354C32.2829 54.3435 32.2849 54.3498 32.2891 54.3559C32.2931 54.3614 32.2998 54.366 32.3095 54.3693C32.319 54.3728 32.3321 54.3759 32.3486 54.3785C32.3652 54.3807 32.3851 54.3821 32.408 54.3821C32.4325 54.3821 32.4528 54.3807 32.4687 54.3785C32.4847 54.3759 32.4971 54.3728 32.5069 54.3693C32.517 54.366 32.5237 54.3614 32.5274 54.3559C32.5312 54.3498 32.5333 54.3435 32.5333 54.3354V52.5293ZM35.1426 52.8483C35.1225 52.7896 35.0941 52.7382 35.0575 52.6936C35.0209 52.649 34.9759 52.6116 34.9232 52.5809C34.8701 52.5506 34.8183 52.5297 34.7676 52.5184C34.7164 52.5073 34.6727 52.5001 34.635 52.4966C34.5978 52.4934 34.5588 52.4916 34.518 52.4916H34.1152C34.0899 52.4916 34.067 52.4997 34.0471 52.5164C34.0265 52.5328 34.0163 52.5604 34.0163 52.5987V54.3354C34.0163 54.3435 34.0181 54.3498 34.0221 54.3559C34.0261 54.3614 34.0329 54.366 34.0427 54.3693C34.0522 54.3728 34.0654 54.3759 34.0815 54.3785C34.0969 54.3807 34.1172 54.3821 34.1416 54.3821C34.1659 54.3821 34.186 54.3807 34.2018 54.3785C34.2182 54.3759 34.2306 54.3728 34.2395 54.3693C34.2486 54.366 34.2557 54.3614 34.2599 54.3559C34.264 54.3498 34.2666 54.3435 34.2666 54.3354V53.6575H34.4801C34.5967 53.6575 34.6966 53.6434 34.7807 53.6146C34.8641 53.5854 34.9354 53.5439 34.9928 53.4902C35.0505 53.4374 35.0948 53.3726 35.1263 53.2972C35.1567 53.2213 35.1724 53.1363 35.1724 53.0429C35.1724 52.9717 35.1622 52.9074 35.1426 52.8483ZM34.8834 53.2193C34.8658 53.2673 34.8397 53.3086 34.8058 53.3433C34.7721 53.3775 34.7303 53.4043 34.6805 53.4236C34.6305 53.4433 34.5673 53.4525 34.492 53.4525H34.2666V52.698H34.498C34.5407 52.698 34.584 52.7014 34.629 52.7078C34.6744 52.7151 34.718 52.731 34.7604 52.7562C34.8023 52.7814 34.8377 52.8197 34.8662 52.8709C34.8951 52.9225 34.9093 52.9862 34.9093 53.063C34.9093 53.119 34.9006 53.1714 34.8834 53.2193ZM37.0964 52.5368C37.0922 52.5261 37.0872 52.5171 37.0803 52.5098C37.0736 52.5026 37.0634 52.4967 37.0511 52.4932C37.0385 52.4891 37.0217 52.4864 37.0017 52.4849C36.9814 52.4834 36.9556 52.4829 36.9247 52.4829C36.8956 52.4829 36.8717 52.4834 36.8527 52.4849C36.8336 52.4864 36.8182 52.4891 36.8059 52.4932C36.794 52.4967 36.785 52.5019 36.7784 52.5092C36.7724 52.5157 36.7672 52.5246 36.7631 52.5353L36.132 54.2828C36.1243 54.3045 36.1204 54.3215 36.1199 54.3349C36.1196 54.3478 36.1228 54.3578 36.1301 54.3642C36.1371 54.3714 36.1498 54.3759 36.1673 54.3785C36.1856 54.3807 36.2085 54.3821 36.237 54.3821C36.2639 54.3821 36.2858 54.381 36.3029 54.379C36.3197 54.3773 36.3331 54.3739 36.3424 54.3693C36.3514 54.3652 36.3585 54.3598 36.363 54.3537C36.3681 54.3474 36.3724 54.34 36.3751 54.3313L36.5288 53.8786H37.3115L37.473 54.3368C37.4766 54.3458 37.481 54.3531 37.4855 54.3585C37.4898 54.3642 37.4963 54.3691 37.5056 54.3726C37.515 54.3759 37.5286 54.3785 37.5458 54.3797C37.5642 54.3813 37.5881 54.3821 37.6183 54.3821C37.6482 54.3821 37.6723 54.381 37.6901 54.379C37.7084 54.3773 37.7207 54.3727 37.7286 54.3656C37.7367 54.3594 37.7401 54.3494 37.7397 54.3362C37.7388 54.323 37.7352 54.3057 37.7277 54.2845L37.0964 52.5368ZM37.2461 53.6796H36.5917L36.9159 52.7415H36.9176L37.2461 53.6796ZM39.9973 54.2143C39.9952 54.201 39.992 54.1903 39.9878 54.1818C39.9835 54.1738 39.9779 54.1675 39.9717 54.1633C39.9657 54.1588 39.9581 54.1565 39.9489 54.1565H39.2747V52.5293C39.2747 52.5216 39.2729 52.5149 39.2688 52.5092C39.2651 52.503 39.2582 52.4983 39.2489 52.4951C39.2387 52.4917 39.2257 52.4887 39.2101 52.4864C39.1938 52.4841 39.1735 52.4829 39.1494 52.4829C39.1264 52.4829 39.1063 52.4841 39.0902 52.4864C39.0737 52.4887 39.06 52.4917 39.0505 52.4951C39.0408 52.4983 39.0341 52.503 39.03 52.5092C39.0261 52.5149 39.0245 52.5216 39.0245 52.5293V54.2714C39.0245 54.3094 39.0344 54.3358 39.0541 54.351C39.0743 54.3655 39.0951 54.3732 39.1172 54.3732H39.9489C39.9581 54.3732 39.9657 54.3711 39.9717 54.3665C39.9779 54.3621 39.9835 54.3557 39.9878 54.3464C39.992 54.3374 39.9952 54.326 39.9973 54.313C39.9991 54.2996 40 54.2834 40 54.264C40 54.2447 39.9991 54.2281 39.9973 54.2143Z" fill="#231F20"/>
</g>
<path fill-rule="evenodd" clip-rule="evenodd" d="M5.57809 48.8766V47.3796H1.67841V40.2804H0.00012207V48.8766H5.57809ZM6.94233 48.8766H8.62061V40.2804H6.94233V48.8766ZM16.1782 46.341C16.1782 45.5806 15.9731 44.9528 15.5146 44.5183C15.152 44.1801 14.6573 43.9627 13.8722 43.8541L12.8581 43.7093C12.5081 43.6611 12.2302 43.5283 12.0612 43.3712C11.8803 43.2021 11.8078 42.9728 11.8078 42.7555C11.8078 42.1636 12.2424 41.6686 13.1359 41.6686C13.7033 41.6686 14.3553 41.7411 14.8987 42.2607L15.9609 41.2101C15.2244 40.4977 14.3675 40.208 13.1839 40.208C11.3247 40.208 10.1899 41.2825 10.1899 42.8158C10.1899 43.5403 10.3953 44.0955 10.8057 44.5061C11.192 44.8803 11.7354 45.1098 12.4718 45.2182L13.5102 45.3634C13.9085 45.4237 14.1017 45.508 14.2708 45.6652C14.4519 45.8341 14.5364 46.0876 14.5364 46.3896C14.5364 47.0778 14.0053 47.4518 13.015 47.4518C12.2183 47.4518 11.4818 47.2707 10.9383 46.7273L9.85201 47.8144C10.697 48.6714 11.687 48.949 12.9909 48.949C14.79 48.949 16.1782 48.0075 16.1782 46.341ZM23.9895 46.4017C23.9895 45.2547 23.3255 44.7111 22.8067 44.4697C23.2413 44.2647 23.8691 43.6493 23.8691 42.6953C23.8691 41.222 22.8909 40.2804 21.2126 40.2804H17.7598V48.8766H21.3575C22.8909 48.8766 23.9895 48.0075 23.9895 46.4017ZM22.3113 46.3169C22.3113 46.8966 21.9493 47.3796 21.1884 47.3796H19.4381V45.2667H21.1884C21.9493 45.2667 22.3113 45.7376 22.3113 46.3169ZM22.1908 42.7676C22.1908 43.3591 21.7922 43.7576 21.0797 43.7576H19.4381V41.7775H21.0797C21.7922 41.7775 22.1908 42.1757 22.1908 42.7676ZM31.7647 44.5786C31.7647 43.0936 31.7771 42.0189 30.9073 41.1498C30.3036 40.5461 29.5676 40.208 28.5897 40.208C27.6117 40.208 26.8631 40.5461 26.2594 41.1498C25.3899 42.0189 25.4143 43.0936 25.4143 44.5786C25.4143 46.0633 25.3899 47.138 26.2594 48.0075C26.8631 48.611 27.6117 48.949 28.5897 48.949C29.5676 48.949 30.3036 48.611 30.9073 48.0075C31.7771 47.138 31.7647 46.0633 31.7647 44.5786ZM30.0867 44.5786C30.0867 46.2325 29.9898 46.6308 29.6641 46.9933C29.4226 47.2707 29.0485 47.4518 28.5897 47.4518C28.1306 47.4518 27.7444 47.2707 27.5029 46.9933C27.1769 46.6308 27.0922 46.2325 27.0922 44.5786C27.0922 42.9243 27.1769 42.5262 27.5029 42.1636C27.7444 41.8862 28.1306 41.7051 28.5897 41.7051C29.0485 41.7051 29.4226 41.8862 29.6641 42.1636C29.9898 42.5262 30.0867 42.9243 30.0867 44.5786ZM39.9992 48.8766L36.8598 40.2804H35.5437L32.4168 48.8766H34.1674L34.6865 47.3553H37.7411L38.2483 48.8766H39.9992ZM37.2945 45.9425H35.1575L36.2439 42.8158L37.2945 45.9425Z" fill="#231F20"/>
</svg>
