<?xml version="1.0" encoding="UTF-8"?>
<svg width="33px" height="31px" viewBox="0 0 33 31" version="1.1" xmlns="http://www.w3.org/2000/svg" xmlns:xlink="http://www.w3.org/1999/xlink">
    <title>services 4</title>
    <g id="Page-1" stroke="none" stroke-width="1" fill="none" fill-rule="evenodd">
        <g id="app-assets" transform="translate(-932.000000, -838.000000)" fill="#0D3B66" fill-rule="nonzero">
            <g id="Group-5" transform="translate(639.250000, 778.943155)">
                <g id="services-4" transform="translate(293.500000, 59.875000)">
                    <path d="M15.75,0 C19.3259912,0 22.2352941,2.90930294 22.2352941,6.48529412 C22.2352941,6.66459706 22.2273265,6.84272647 22.2134294,7.01974412 L31.5,3.61465588 L31.5,25.9550118 L22.1019441,29.6470588 L9.39805588,29.6470588 L0,25.95495 L0,3.61465588 L9.28657059,7.01974412 C9.27267353,6.84272647 9.26470588,6.66465882 9.26470588,6.48529412 C9.26470588,2.90930294 12.1740088,0 15.75,0 Z M20.3824147,24.7640647 C18.5816029,25.7181441 16.5573882,26.2202912 14.5208824,26.2202912 C14.1197206,26.2202912 13.7183735,26.2008353 13.3178912,26.1615529 C12.4638088,26.0776765 11.7237441,25.8744706 11.1176471,25.5647206 L11.1176471,27.7941176 L20.3824147,27.7941176 Z M9.26470588,10.2341647 C8.11841471,10.5488559 7.06606765,11.1928147 6.27294706,12.0845118 C5.94577941,12.4523206 5.65591765,12.8655882 5.34907059,13.3031912 C5.04562059,13.7359147 4.73179412,14.1833382 4.36497353,14.6070441 C3.60977647,15.4794088 2.74099412,16.0578353 1.85294118,16.2925412 L1.85294118,24.6921088 L9.26470588,27.6038824 Z M29.6470588,19.8006529 C28.0760118,19.5183265 26.4659294,20.3746324 25.6059176,20.9442265 C24.9143382,21.4022118 24.2727882,21.9291265 23.5935618,22.4868618 C23.1534265,22.8482471 22.7040265,23.2163029 22.2352941,23.5688559 L22.2352941,27.6038824 L29.6470588,24.6920471 Z M20.3823529,11.6835971 C19.0578706,13.6002176 17.3865176,15.0279706 16.6555324,15.6062118 C16.4500412,17.13495 15.0070324,18.6791912 14.4014912,19.1943706 C14.0310265,19.5096176 13.6435765,19.7853971 13.2689118,20.0520971 C12.7600324,20.4144088 12.2793794,20.7565853 11.8873588,21.1615765 C11.3679176,21.6981882 10.95465,22.5246618 11.2022029,23.1614559 C11.5512353,24.0590824 13.04835,24.2731588 13.4988618,24.3174441 C15.8278853,24.54585 18.2011324,23.9862 20.1823588,22.7412088 L20.3823529,22.6112559 Z M29.6470588,6.26769706 L22.2352941,8.98534412 L22.2352941,21.2044412 L22.4176235,21.0549088 C23.10315,20.4919853 23.8119618,19.9099147 24.5828471,19.3994294 C26.3096647,18.2557324 28.0718118,17.7508676 29.6470588,17.9299235 L29.6470588,6.26769706 Z M11.1175853,11.6835971 L11.1175853,19.3540941 C11.4697059,19.0592294 11.8357853,18.7978412 12.1942676,18.5426294 C12.5526882,18.2874794 12.8911588,18.0465353 13.2007235,17.7831088 C13.9183059,17.1725647 14.5936412,16.1922971 14.7783794,15.55365 C14.0165735,14.9445265 12.40365,13.5445059 11.1175853,11.6835971 Z M1.85300294,6.26769706 L1.85300294,14.3165647 C2.33075294,14.0652441 2.72518235,13.6703206 2.96415,13.3942324 C3.26914412,13.0419265 3.54257647,12.6520676 3.83206765,12.2392324 C4.15559118,11.7779118 4.49017059,11.3007794 4.88849118,10.8529853 C5.79612353,9.83250882 6.96483529,9.06180882 8.24805882,8.61253235 L1.85300294,6.26769706 Z M15.75,1.85294118 C13.1957206,1.85294118 11.1176471,3.93101471 11.1176471,6.48529412 C11.1176471,9.78637059 14.4207618,12.8531118 15.7491971,13.9526471 C17.0766441,12.8510118 20.3823529,9.77661176 20.3823529,6.48529412 C20.3823529,3.93101471 18.3042794,1.85294118 15.75,1.85294118 Z M15.75,3.70588235 C17.2825676,3.70588235 18.5294118,4.95272647 18.5294118,6.48529412 C18.5294118,8.01786176 17.2825676,9.26470588 15.75,9.26470588 C14.2174324,9.26470588 12.9705882,8.01786176 12.9705882,6.48529412 C12.9705882,4.95272647 14.2174324,3.70588235 15.75,3.70588235 Z M15.75,5.55882353 C15.2391441,5.55882353 14.8235294,5.97443824 14.8235294,6.48529412 C14.8235294,6.99615 15.2391441,7.41176471 15.75,7.41176471 C16.2608559,7.41176471 16.6764706,6.99615 16.6764706,6.48529412 C16.6764706,5.97443824 16.2608559,5.55882353 15.75,5.55882353 Z" id="Combined-Shape-Copy-2"></path>
                </g>
            </g>
        </g>
    </g>
</svg>