<?xml version="1.0" encoding="UTF-8"?>
<svg width="20px" height="21px" viewBox="0 0.5 20 21" version="1.1" xmlns="http://www.w3.org/2000/svg" xmlns:xlink="http://www.w3.org/1999/xlink">
    <title>icon</title>
    <g id="Page-1" stroke="none" stroke-width="1" fill="none" fill-rule="evenodd">
        <g id="app-assets" transform="translate(-308.000000, -834.000000)" fill="#474954">
            <g id="Group-4" transform="translate(77.500000, 771.000000)">
                <g id="icon" transform="translate(230.500000, 63.943155)">
                    <path d="M15.8984375,0 C16.2220313,0 16.484375,0.26234375 16.484375,0.5859375 L16.484375,3.59375 L19.4140625,3.59375 C19.7376563,3.59375 20,3.85609375 20,4.1796875 L20,17.65625 C20,18.9485938 18.9485938,20 17.65625,20 L2.9296875,20 C1.31425781,20 0,18.6857422 0,17.0703125 L0,0.5859375 C0,0.26234375 0.26234375,0 0.5859375,0 Z M15.3125,1.171875 L1.171875,1.171875 L1.171875,17.0703125 C1.171875,18.0395703 1.96042969,18.828125 2.9296875,18.828125 L15.6278125,18.828125 C15.4276953,18.4830859 15.3125,18.0830078 15.3125,17.65625 L15.3125,1.171875 Z M18.828125,4.765625 L16.484375,4.765625 L16.484375,17.65625 C16.484375,18.3024219 17.0100781,18.828125 17.65625,18.828125 C18.3024219,18.828125 18.828125,18.3024219 18.828125,17.65625 L18.828125,4.765625 Z M13.5546875,16.484375 C13.8782813,16.484375 14.140625,16.7467187 14.140625,17.0703125 C14.140625,17.3939063 13.8782813,17.65625 13.5546875,17.65625 L2.9296875,17.65625 C2.60609375,17.65625 2.34375,17.3939063 2.34375,17.0703125 C2.34375,16.7467187 2.60609375,16.484375 2.9296875,16.484375 Z M7.6171875,9.453125 C7.94078125,9.453125 8.203125,9.71546875 8.203125,10.0390625 L8.203125,14.7265625 C8.203125,15.0501563 7.94078125,15.3125 7.6171875,15.3125 L2.9296875,15.3125 C2.60609375,15.3125 2.34375,15.0501563 2.34375,14.7265625 L2.34375,10.0390625 C2.34375,9.71546875 2.60609375,9.453125 2.9296875,9.453125 Z M13.5546875,14.140625 C13.8782813,14.140625 14.140625,14.4029687 14.140625,14.7265625 C14.140625,15.0501562 13.8782813,15.3125 13.5546875,15.3125 L10.0390625,15.3125 C9.71546875,15.3125 9.453125,15.0501562 9.453125,14.7265625 C9.453125,14.4029687 9.71546875,14.140625 10.0390625,14.140625 Z M7.03125,10.625 L3.515625,10.625 L3.515625,14.140625 L7.03125,14.140625 L7.03125,10.625 Z M13.5546875,11.796875 C13.8782813,11.796875 14.140625,12.0592187 14.140625,12.3828125 C14.140625,12.7064062 13.8782813,12.96875 13.5546875,12.96875 L10.0390625,12.96875 C9.71546875,12.96875 9.453125,12.7064062 9.453125,12.3828125 C9.453125,12.0592187 9.71546875,11.796875 10.0390625,11.796875 Z M13.5546875,9.453125 C13.8782813,9.453125 14.140625,9.71546875 14.140625,10.0390625 C14.140625,10.3626562 13.8782813,10.625 13.5546875,10.625 L10.0390625,10.625 C9.71546875,10.625 9.453125,10.3626562 9.453125,10.0390625 C9.453125,9.71546875 9.71546875,9.453125 10.0390625,9.453125 Z M13.5546875,2.421875 C13.8782813,2.421875 14.140625,2.68421875 14.140625,3.0078125 L14.140625,7.6953125 C14.140625,8.01890625 13.8782813,8.28125 13.5546875,8.28125 L2.9296875,8.28125 C2.60609375,8.28125 2.34375,8.01890625 2.34375,7.6953125 L2.34375,3.0078125 C2.34375,2.68421875 2.60609375,2.421875 2.9296875,2.421875 Z M12.96875,3.59375 L3.515625,3.59375 L3.515625,7.109375 L12.96875,7.109375 L12.96875,3.59375 Z" id="Combined-Shape"></path>
                </g>
            </g>
        </g>
    </g>
</svg>