<?xml version="1.0" encoding="UTF-8"?>
<svg width="22px" height="33px" viewBox="0 0.5 22 33" version="1.1" xmlns="http://www.w3.org/2000/svg" xmlns:xlink="http://www.w3.org/1999/xlink">
    <title>services 3</title>
    <g id="Page-1" stroke="none" stroke-width="1" fill="none" fill-rule="evenodd">
        <g id="app-assets" transform="translate(-842.000000, -837.000000)" fill="#0D3B66" fill-rule="nonzero">
            <g id="Group-5" transform="translate(639.250000, 778.943155)">
                <g id="services-3" transform="translate(203.250000, 59.000000)">
                    <path d="M17.11875,-7.10542736e-15 C18.3793399,-7.10542736e-15 19.40125,1.02191006 19.40125,2.2825 L19.40125,5.70625 C19.3963575,6.51679099 18.9619704,7.26393689 18.26,7.6692 L18.26,8.6164375 C19.6674487,9.42901487 20.5367648,10.9285851 20.5425,12.55375 L20.5425,27.39 C20.5425,29.9111799 18.4986799,31.955 15.9775,31.955 L4.565,31.955 C2.04382012,31.955 0,29.9111799 0,27.39 L0,12.55375 C0.00573524068,10.9285851 0.875051339,9.42901487 2.2825,8.6164375 L2.2825,7.6692 C1.5805296,7.26393689 1.14614245,6.51679099 1.14125,5.70625 L1.14125,2.2825 C1.14125,1.02191006 2.16316006,-7.10542736e-15 3.42375,-7.10542736e-15 Z M18.26,27.39 L2.2825,27.39 C2.2825,28.6505899 3.30441006,29.6725 4.565,29.6725 L15.9775,29.6725 C17.2380899,29.6725 18.26,28.6505899 18.26,27.39 Z M18.26,13.695 L2.2825,13.695 L2.2825,25.1075 L18.26,25.1075 L18.26,13.695 Z M10.27125,15.9775 C10.901545,15.9775 11.4125,16.488455 11.4125,17.11875 L11.4125,18.26 L12.55375,18.26 C13.184045,18.26 13.695,18.770955 13.695,19.40125 C13.695,20.031545 13.184045,20.5425 12.55375,20.5425 L11.4125,20.5425 L11.4125,21.68375 C11.4125,22.314045 10.901545,22.825 10.27125,22.825 C9.64095503,22.825 9.13,22.314045 9.13,21.68375 L9.13,20.5425 L7.98875,20.5425 C7.35845503,20.5425 6.8475,20.031545 6.8475,19.40125 C6.8475,18.770955 7.35845503,18.26 7.98875,18.26 L9.13,18.26 L9.13,17.11875 C9.13,16.488455 9.64095503,15.9775 10.27125,15.9775 Z M15.9775,7.98875 L4.565,7.98875 L4.565,9.335425 C4.58869913,9.85309611 4.26063917,10.3217532 3.766125,10.476675 C3.283908,10.6682927 2.88137327,11.018498 2.624875,11.4695625 L17.8833875,11.4695625 C17.6268892,11.018498 17.2243545,10.6682927 16.7421375,10.476675 C16.2612069,10.3094296 15.9492496,9.84382169 15.9775,9.335425 L15.9775,7.98875 Z M17.11875,2.2825 L3.42375,2.2825 L3.42375,5.70625 L17.11875,5.70625 L17.11875,2.2825 Z" id="Combined-Shape-Copy"></path>
                </g>
            </g>
        </g>
    </g>
</svg>