<?xml version="1.0" encoding="UTF-8"?>
<svg width="18px" height="18px" viewBox="0 0 18 18" version="1.1" xmlns="http://www.w3.org/2000/svg" xmlns:xlink="http://www.w3.org/1999/xlink">
    <title>profile-edit</title>
    <g id="Page-1" stroke="none" stroke-width="1" fill="none" fill-rule="evenodd">
        <g id="app-assets" transform="translate(-722.000000, -1221.000000)" fill="#474954">
            <g id="profile-edit" transform="translate(722.000000, 1221.000000)">
                <path d="M8.99996104,1.79994898 C7.0117914,1.79994898 5.40006308,3.4116773 5.40006308,5.39984695 C5.40006308,7.3879806 7.0117914,8.99974492 8.99996104,8.99974492 C10.9880947,8.99974492 12.599859,7.3879806 12.599859,5.39984695 C12.599859,3.4116773 10.9880947,1.79994898 8.99996104,1.79994898 Z M3.60011409,5.39984695 C3.60011409,2.41759248 6.01770657,0 8.99996104,0 C11.9822065,0 14.399808,2.41759248 14.399808,5.39984695 C14.399808,8.38209243 11.9822065,10.7996939 8.99996104,10.7996939 C6.01770657,10.7996939 3.60011409,8.38209243 3.60011409,5.39984695 Z M3.74516298,15.0882524 C2.71686113,15.5299598 2.11864808,16.2129505 1.75954026,17.3668978 C1.61185445,17.8415443 1.10740074,18.1064968 0.632799196,17.958811 C0.158206648,17.8111252 -0.106799841,17.3066895 0.0408859731,16.8321329 C0.543305733,15.2175787 1.48404007,14.1005303 3.03476812,13.4344592 C4.50396748,12.8033971 6.4719867,12.5996429 8.99996104,12.5996429 C11.5279894,12.5996429 13.4959636,12.8033971 14.965172,13.4344592 C16.515918,14.1005303 17.4566614,15.2175787 17.9591171,16.8321329 C18.1068029,17.3066895 17.8417604,17.8111252 17.3672039,17.958811 C16.8925573,18.1064968 16.3881216,17.8415443 16.2404358,17.3668978 C15.881346,16.2129505 15.283133,15.5299598 14.2548221,15.0882524 C13.1449736,14.6115359 11.4938804,14.3995919 8.99996104,14.3995919 C6.50609573,14.3995919 4.85500253,14.6115359 3.74516298,15.0882524 Z" id="Combined-Shape"></path>
            </g>
        </g>
    </g>
</svg>