<?xml version="1.0" encoding="UTF-8"?>
<svg width="50px" height="50px" viewBox="0 0 50 50" version="1.1" xmlns="http://www.w3.org/2000/svg" xmlns:xlink="http://www.w3.org/1999/xlink">
    <title>emergency contacts copy</title>
    <g id="Page-1" stroke="none" stroke-width="1" fill="none" fill-rule="evenodd">
        <g id="app-assets" transform="translate(-641.000000, -622.000000)" fill="#FE6D73">
            <g id="Group-2" transform="translate(641.000000, 570.000000)">
                <path d="M13.125175,52.96955 C16.37195,52.248 20.31075,52 25,52 C29.68925,52 33.628,52.248 36.87475,52.96955 C40.15,53.697425 42.872,54.94 44.966,57.03395 C47.06,59.1279 48.3025,61.85005 49.0305,65.125175 C49.752,68.37195 50,72.31075 50,77 C50,81.68925 49.752,85.628 49.0305,88.87475 C48.3025,92.15 47.06,94.872 44.966,96.966 C42.872,99.06 40.15,100.3025 36.87475,101.0305 C33.628,101.752 29.68925,102 25,102 C20.31075,102 16.37195,101.752 13.125175,101.0305 C9.85005,100.3025 7.1279,99.06 5.03395,96.966 C2.94,94.872 1.697425,92.15 0.96955,88.87475 C0.248,85.628 0,81.68925 0,77 C0,72.31075 0.248,68.37195 0.96955,65.125175 C1.697425,61.85005 2.94,59.1279 5.03395,57.03395 C7.1279,54.94 9.85005,53.697425 13.125175,52.96955 L13.125175,52.96955 Z M25,62 C19.47715,62 15,66.47715 15,72 C15,77.52275 19.47715,82 25,82 C30.52275,82 35,77.52275 35,72 C35,66.47715 30.52275,62 25,62 Z M40.94375,90.2355 C41.82575,91.67375 41.51375,93.575 40.09225,94.48375 C38.79975,95.31025 37.2895,95.81625 35.78975,96.1495 C33.0805,96.7515 29.57475,97 24.9995,97 C20.4245,97 16.9186,96.7515 14.209525,96.1495 C12.7379,95.8225 11.255125,95.32975 9.978275,94.53 C8.531175,93.62375 8.213075,91.6965 9.11685,90.24775 C10.157575,88.5795 11.591925,87.26875 13.52205,86.336 C16.45055,84.921 20.28925,84.5 24.999,84.5 C29.69275,84.5 33.52725,84.887 36.45175,86.26175 C38.43175,87.1925 39.893,88.52225 40.94375,90.2355 L40.94375,90.2355 Z" id="emergency-contacts-copy"></path>
            </g>
        </g>
    </g>
</svg>