<?xml version="1.0" encoding="UTF-8"?>
<svg width="20px" height="20px" viewBox="0 0 20 20" version="1.1" xmlns="http://www.w3.org/2000/svg" xmlns:xlink="http://www.w3.org/1999/xlink">
    <title>rate-request</title>
    <g id="Page-1" stroke="none" stroke-width="1" fill="none" fill-rule="evenodd">
        <g id="app-assets" transform="translate(-333.000000, -1061.000000)" fill="#FFFFFF" fill-rule="nonzero">
            <path d="M342.988233,1061.66667 C343.984692,1061.66726 344.886798,1062.25621 345.28113,1063.15267 L346.776744,1066.33679 L350.163667,1066.85815 C351.060691,1066.98831 351.812774,1067.59325 352.131881,1068.42119 L352.178627,1068.55373 C352.487814,1069.45566 352.262193,1070.45483 351.595447,1071.13638 L349.057534,1073.73639 L349.614735,1077.38437 C349.763677,1078.29308 349.407314,1079.2068 348.692421,1079.77524 L348.576585,1079.86207 C347.784768,1080.42115 346.743246,1080.47907 345.892527,1080.01025 L342.952843,1078.37817 L340.018115,1080.00794 C339.213612,1080.46163 338.229685,1080.43778 337.451177,1079.95588 L337.323393,1079.87133 C336.52698,1079.30901 336.125791,1078.33818 336.29168,1077.38497 L336.890324,1073.70874 L334.387098,1071.13461 C333.762885,1070.49193 333.524489,1069.57209 333.750098,1068.71162 L333.794744,1068.56046 C334.094155,1067.65692 334.876559,1066.99878 335.809856,1066.85979 L339.205682,1066.3119 L340.699604,1063.13441 C341.088602,1062.27979 341.920445,1061.71806 342.848367,1061.67 L342.988233,1061.66667 Z M342.984975,1063.04937 C342.543064,1063.04756 342.141155,1063.30503 341.954539,1063.7149 L340.316275,1067.19892 C340.208724,1067.40335 340.020816,1067.55367 339.797771,1067.61373 L339.728062,1067.62869 L336.021766,1068.22615 C335.596238,1068.28954 335.242602,1068.58701 335.107725,1068.99403 C334.972052,1069.40633 335.076553,1069.85987 335.378712,1070.17096 L338.109109,1072.97913 L338.195071,1073.06754 L338.245167,1073.18021 C338.313303,1073.33347 338.332771,1073.50223 338.30357,1073.66434 L338.28825,1073.72533 L337.655158,1077.6147 C337.585434,1078.01544 337.734579,1078.42015 338.041061,1078.67995 L338.120924,1078.7418 C338.480892,1078.99596 338.955076,1079.02 339.343031,1078.80123 L342.582326,1077.00384 C342.814822,1076.88288 343.091693,1076.88288 343.340578,1077.01265 L346.56169,1078.80024 C346.946981,1079.01257 347.419683,1078.98628 347.779055,1078.73254 C348.138426,1078.4788 348.321382,1078.04215 348.24904,1077.60052 L347.662373,1073.7599 L347.642872,1073.67558 C347.616572,1073.52482 347.634106,1073.3682 347.695473,1073.22527 L347.737553,1073.14132 L347.780893,1073.06625 L347.841425,1073.00421 L350.606384,1070.17013 C350.908404,1069.8614 351.010382,1069.40978 350.866307,1068.98909 C350.73625,1068.58361 350.386515,1068.28768 349.95926,1068.22566 L346.252487,1067.65538 L346.165166,1067.6361 C345.930047,1067.56796 345.738194,1067.39742 345.654153,1067.19702 L344.022656,1063.72525 C343.841976,1063.31474 343.435927,1063.04965 342.984975,1063.04937 Z" id="rate-request"></path>
        </g>
    </g>
</svg>