<?xml version="1.0" encoding="UTF-8"?>
<svg width="12px" height="12px" viewBox="0 0 12 12" version="1.1" xmlns="http://www.w3.org/2000/svg" xmlns:xlink="http://www.w3.org/1999/xlink">
    <title>rate-on</title>
    <g id="Page-1" stroke="none" stroke-width="1" fill="none" fill-rule="evenodd">
        <g id="app-assets" transform="translate(-258.000000, -1065.000000)" fill="#FFCE36">
            <g id="rate-on" transform="translate(258.000000, 1065.000000)">
                <path d="M11.6124635,5.75902532 C11.9481816,5.41549208 12.0617856,4.91185921 11.9061043,4.45724808 C11.7599476,4.0010991 11.3669191,3.66818674 10.8933432,3.59939489 L8.32248809,3.20346264 C8.29820487,3.1964176 8.27839017,3.17878601 8.26855407,3.15547085 L7.14193226,0.755881488 C6.9400733,0.296771141 6.48643242,0.00030024867 5.98534711,0 C5.49020666,-0.00203870998 5.03988177,0.28675416 4.83475463,0.737884568 L3.70813282,3.13747393 C3.69570252,3.1611251 3.6739848,3.17851756 3.64820613,3.18546572 L1.08334372,3.59939489 C0.609302144,3.67009115 0.215348148,4.0018246 0.0645899639,4.45724808 C-0.0852832101,4.91318248 0.0301559061,5.4147153 0.364223423,5.75902532 L2.25790688,7.70869168 C2.26893186,7.73351581 2.26893186,7.76185419 2.25790688,7.78667833 L1.81444936,10.5102123 C1.73030302,10.9943474 1.93230871,11.483691 2.33331626,11.7671284 C2.73432381,12.0505657 3.26256931,12.0773732 3.69015482,11.8359854 L5.92542042,10.5941979 C5.94795727,10.5824604 5.9747956,10.5824604 5.99733245,10.5941979 L8.23259805,11.8359854 C8.66059727,12.0720994 9.18569691,12.0428669 9.58490402,11.7607021 C9.98411112,11.4785373 10.1873468,10.9929728 10.1083035,10.5102123 L9.69480933,7.79867628 C9.68196349,7.77640321 9.68196349,7.74896166 9.69480933,7.7266886 L11.6124635,5.75902532 Z" id="1"></path>
            </g>
        </g>
    </g>
</svg>