<?xml version="1.0" encoding="UTF-8"?>
<svg width="20px" height="21px" viewBox="0 0.5 20 21" version="1.1" xmlns="http://www.w3.org/2000/svg" xmlns:xlink="http://www.w3.org/1999/xlink">
    <title>icon</title>
    <g id="Page-1" stroke="none" stroke-width="1" fill="none" fill-rule="evenodd">
        <g id="app-assets" transform="translate(-159.000000, -834.000000)" fill="#474954">
            <g id="Group-4" transform="translate(77.500000, 771.000000)">
                <g id="icon" transform="translate(81.500000, 63.943155)">
                    <path d="M10.7086772,0.230389042 L15.3961772,4.91784998 C15.5515961,5.073308 15.6231752,5.2635659 15.6264484,5.45116035 L15.625,5.47027715 L15.625,6.78289434 C15.625,7.2143668 15.2752225,7.56414434 14.84375,7.56414434 C14.4122775,7.56414434 14.0625,7.2143668 14.0625,6.78289434 L14.062,6.251 L11.71875,6.25156621 C10.4243479,6.25156621 9.375,5.20221836 9.375,3.90781621 L9.375,1.564 L2.34375,1.56406621 C1.91229277,1.56406621 1.5625,1.91385899 1.5625,2.34531621 L1.5625,17.6578162 C1.5625,18.0892734 1.91229277,18.4390662 2.34375,18.4390662 L5.84875,18.4390662 C6.28022246,18.4390662 6.63,18.7888438 6.63,19.2203162 C6.63,19.6517887 6.28022246,20.0015662 5.84875,20.0015662 L2.34375,20.0015662 C1.04934785,20.0015662 0,18.9522184 0,17.6578162 L0,2.34531621 C0,1.05091407 1.04934785,0.00156621449 2.34375,0.00156621449 L10.1522249,6.01664726e-05 C10.3472568,-0.00236732767 10.5468521,0.0685639213 10.7086772,0.230389042 Z M17.5614457,8.48429041 L19.7711723,10.6939779 C20.076274,10.9990742 20.0762762,11.4937381 19.7711772,11.7988371 L13.0187553,18.551259 C12.4734192,19.0965951 11.7788718,19.4683086 11.0226403,19.6195256 L9.18833606,19.9863942 C8.64167668,20.0957284 8.15970496,19.6137567 8.26903916,19.0670973 L8.63590973,17.2327836 C8.78712964,16.4765864 9.15884666,15.7820449 9.70417439,15.2367172 L16.4565963,8.48429529 C16.7616915,8.1792001 17.2563478,8.17919791 17.5614457,8.48429041 Z M17.0090234,10.1415662 L10.8090287,16.3415715 C10.4818273,16.668773 10.2587998,17.0854928 10.1680702,17.5391991 L10.0310156,18.2243787 L10.7162343,18.0873632 C11.1699779,17.996632 11.5866963,17.7736094 11.913901,17.4464047 L18.1138281,11.24641 L17.0090234,10.1415662 Z M7.26449219,13.7515662 C7.69596465,13.7515662 8.04574219,14.1013438 8.04574219,14.5328162 C8.04574219,14.9642887 7.69596465,15.3140662 7.26449219,15.3140662 L3.90625,15.3140662 C3.47477754,15.3140662 3.125,14.9642887 3.125,14.5328162 C3.125,14.1013438 3.47477754,13.7515662 3.90625,13.7515662 L7.26449219,13.7515662 Z M10.2188281,10.6265662 C10.6503006,10.6265662 11.0000781,10.9763438 11.0000781,11.4078162 C11.0000781,11.8392887 10.6503006,12.1890662 10.2188281,12.1890662 L3.90625,12.1890662 C3.47477754,12.1890662 3.125,11.8392887 3.125,11.4078162 C3.125,10.9763438 3.47477754,10.6265662 3.90625,10.6265662 L10.2188281,10.6265662 Z M11.71875,7.50156621 C12.1502225,7.50156621 12.5,7.85134375 12.5,8.28281621 C12.5,8.71428868 12.1502225,9.06406621 11.71875,9.06406621 L3.90625,9.06406621 C3.47477754,9.06406621 3.125,8.71428868 3.125,8.28281621 C3.125,7.85134375 3.47477754,7.50156621 3.90625,7.50156621 L11.71875,7.50156621 Z M10.9375,2.66890996 L10.9375,3.90781621 C10.9375,4.3347791 11.2800434,4.68177 11.7052938,4.68895265 L11.71875,4.68906621 L12.9576172,4.68906621 L10.9375,2.66890996 Z" id="Combined-Shape"></path>
                </g>
            </g>
        </g>
    </g>
</svg>