<?xml version="1.0" encoding="UTF-8"?>
<svg width="18px" height="18px" viewBox="0 0 18 18" version="1.1" xmlns="http://www.w3.org/2000/svg" xmlns:xlink="http://www.w3.org/1999/xlink">
    <title>request-call</title>
    <g id="Page-1" stroke="none" stroke-width="1" fill="none" fill-rule="evenodd">
        <g id="app-assets" transform="translate(-710.000000, -1059.000000)" fill="#474954" fill-rule="nonzero">
            <g id="request-call" transform="translate(710.000000, 1059.000000)">
                <path d="M17.9995711,14.2870686 C17.9995711,14.7350037 17.8262988,15.156841 17.5095921,15.4736711 L16.0087898,16.9750487 C14.5455107,18.4389032 12.2311591,18.0794126 10.467736,17.4639181 C9.11673861,16.9923924 7.80244239,16.2769868 6.63137523,15.458218 C5.83915615,14.9043304 5.08421361,14.2827944 4.40049518,13.5990759 C3.71640685,12.9149876 3.09458309,12.1595519 2.54049004,11.3668396 C1.72225547,10.1961423 1.00742529,8.88242149 0.536187275,7.53199949 C-0.0792661772,5.76832977 -0.439003343,3.45504677 1.02464566,1.99135667 L2.52602329,0.489979035 C2.84260679,0.173395533 3.26481402,0 3.71242027,0 C4.1605197,0 4.58243924,0.173025645 4.89939263,0.489979035 L7.0167169,2.6074677 C7.67100865,3.26184165 7.67125525,4.3263809 7.0167169,4.98067265 L6.02673074,5.97028892 C5.97934391,6.01767575 5.95308182,6.08211856 5.95353391,6.14910949 C5.96471276,7.71986177 6.58213895,9.19616918 7.69279098,10.3069445 C8.8036074,11.4179664 10.279997,12.035146 11.8508315,12.0461605 L11.8525576,12.0461605 C11.9187266,12.0461605 11.9824296,12.0197751 12.0292411,11.9729636 L13.0188573,10.9829775 C13.6731902,10.328398 14.7378527,10.3286035 15.3922267,10.9829775 L17.5095921,13.1003017 C17.8264221,13.4171318 17.9995711,13.8391747 17.9995711,14.2870686 L17.9995711,14.2870686 Z" id="Path"></path>
            </g>
        </g>
    </g>
</svg>