<?xml version="1.0" encoding="UTF-8"?>
<svg width="16px" height="16px" viewBox="0 0 16 16" version="1.1"
    xmlns="http://www.w3.org/2000/svg">
    <title>search</title>
    <g id="Page-1" stroke="none" stroke-width="1" fill="none" fill-rule="evenodd">
        <g id="app-assets" transform="translate(-78.000000, -1223.000000)" fill="#474954"
            fill-rule="nonzero">
            <path
                d="M85.1790153,1223 C81.2227444,1223 78,1226.22275 78,1230.17904 C78,1234.13529 81.2227444,1237.36428 85.1790153,1237.36428 C86.8688587,1237.36428 88.4229926,1236.77211 89.6512912,1235.78885 L92.6416384,1238.77763 C92.9555202,1239.07851 93.4523004,1239.07343 93.7599643,1238.7662 C94.0676282,1238.45896 94.073398,1237.96219 93.772953,1237.64789 L90.7826055,1234.65754 C91.7666753,1233.42735 92.3595888,1231.87083 92.3595888,1230.17904 C92.3595888,1226.22275 89.1352862,1223 85.1790153,1223 L85.1790153,1223 Z M85.1790153,1224.59569 C88.2729154,1224.59569 90.7623476,1227.08514 90.7623476,1230.17904 C90.7623476,1233.27293 88.2729154,1235.76859 85.1790153,1235.76859 C82.0851153,1235.76859 79.595683,1233.27293 79.595683,1230.17904 C79.595683,1227.08514 82.0851153,1224.59569 85.1790153,1224.59569 Z"
                id="search"></path>
        </g>
    </g>
</svg>