<?xml version="1.0" encoding="UTF-8"?>
<svg width="50px" height="50px" viewBox="0 0 50 50" version="1.1" xmlns="http://www.w3.org/2000/svg" xmlns:xlink="http://www.w3.org/1999/xlink">
    <title>send-message</title>
    <g id="Page-1" stroke="none" stroke-width="1" fill="none" fill-rule="evenodd">
        <g id="app-assets" transform="translate(-817.000000, -1040.000000)">
            <g id="send-message" transform="translate(817.000000, 1040.000000)">
                <path d="M0,25 C0,45.5875 4.4125,50 25,50 C45.5875,50 50,45.5875 50,25 C50,4.4125 45.5875,0 25,0 C4.4125,0 0,4.4125 0,25 Z" id="Path" fill="#FE6D73" fill-rule="nonzero"></path>
                <path d="M20.1106723,30.8912825 L25.4145396,32.7098735 L22.3785623,35.4078068 C21.9774025,35.7651065 21.4050812,35.8528267 20.9151314,35.6324563 C20.4262513,35.4131556 20.1106723,34.9264151 20.1106723,34.3893958 L20.1106723,30.8912825 Z M33.0034131,14.1559658 C33.4580608,13.9174094 34.0089869,13.954851 34.4272629,14.2522442 C34.8455388,14.550707 35.0616302,15.0588428 34.9846075,15.5659087 L32.4503474,32.2926673 C32.3893711,32.6927574 32.1550938,33.0447082 31.8095615,33.2543811 C31.4640292,33.4629842 31.042544,33.5089838 30.6606399,33.3774034 C29.4400444,32.9591275 24.5758482,31.2913725 21.4649878,30.2248223 L30.9879863,18.4574685 L19.2206324,29.4556653 C16.3033985,28.4554402 14.4430868,27.8167938 12.9208191,27.295821 C12.4051951,27.1193107 12.0457559,26.6528956 12.0040353,26.1105275 C11.9623147,25.5681595 12.2468707,25.0525354 12.7293322,24.8000722 C14.568815,23.8345199 18.3610789,21.8436569 22.240007,19.8071972 L23.2104646,19.2976994 C27.2525615,17.1755582 31.2199563,15.0925297 33.0034131,14.1559658 Z" id="Combined-Shape" fill="#FFFFFF"></path>
            </g>
        </g>
    </g>
</svg>