<?xml version="1.0" encoding="UTF-8"?>
<svg width="20px" height="21px" viewBox="0 0 20 21" version="1.1" xmlns="http://www.w3.org/2000/svg" xmlns:xlink="http://www.w3.org/1999/xlink">
    <title>profile-settings</title>
    <g id="Page-1" stroke="none" stroke-width="1" fill="none" fill-rule="evenodd">
        <g id="app-assets" transform="translate(-793.000000, -1220.000000)" fill="#474954">
            <g id="profile-settings" transform="translate(793.000000, 1220.000000)">
                <path d="M19.4110861,11.9573965 L18.5526538,11.2507415 C17.9646479,10.7666744 17.9656958,9.866973 18.5526941,9.38387314 L19.4110861,8.67721819 C20.0219432,8.17428976 20.178194,7.31190795 19.7825897,6.62657275 L18.087569,3.69073459 C17.6918841,3.00543969 16.8667413,2.70962314 16.1259103,2.98714259 L15.0847086,3.37722547 C14.3715247,3.64434701 13.5928904,3.19381115 13.467914,2.44379127 L13.2851445,1.34701314 C13.1550497,0.566524958 12.4863189,0 11.6950298,0 L8.30502863,0 C7.51369921,0 6.84492813,0.566524958 6.71487363,1.34705344 L6.53206384,2.44379127 C6.40684558,3.19514112 5.62716344,3.64390368 4.91530954,3.37726577 L3.87410784,2.98714259 C3.13323651,2.70962314 2.30817434,3.00547999 1.91244918,3.69073459 L0.217468729,6.62653245 C-0.178175827,7.31178705 -0.0219653453,8.17420916 0.588972397,8.67717789 L1.44736431,9.38383284 C2.03545083,9.86794024 2.03428207,10.7675611 1.44736431,11.2507012 L0.588932095,11.9573562 C-0.0219653453,12.4603249 -0.178216129,13.322747 0.217428427,14.0080016 L1.91244918,16.9438398 C2.30813403,17.6290944 3.133035,17.9249512 3.87410784,17.6474318 L4.91526924,17.2573489 C5.62857401,16.9901065 6.40704709,17.4409647 6.53202354,18.1907831 L6.71483333,19.2874806 C6.84492813,20.0680897 7.51369921,20.6346147 8.30498832,20.6346147 L11.6949895,20.6346147 C12.4862786,20.6346147 13.1550497,20.0680897 13.2851042,19.2875612 L13.4678737,18.1908637 C13.5930517,17.4397154 14.3726935,16.9906304 15.0846683,17.2574295 L16.1259103,17.6474721 C16.8669428,17.9250318 17.6918841,17.629175 18.087569,16.9438801 L19.78263,14.0080016 C20.178194,13.322747 20.0219432,12.4603249 19.4110861,11.9573965 Z M16.691468,16.1378405 L15.6502663,15.7477576 C13.9858348,15.1242456 12.1693842,16.1761676 11.8777993,17.9257976 L11.6950298,19.0225354 L8.30502863,19.0225354 L8.12221884,17.9257976 C7.83006977,16.1727823 6.01095922,15.1254547 4.34975183,15.7477576 L3.30855013,16.1378405 L1.61356968,13.2020023 L2.47196159,12.4953473 C3.84420377,11.3656828 3.84134233,9.26659437 2.47196159,8.13926734 L1.61356968,7.43261239 L3.30859043,4.49677422 L4.34975183,4.88685711 C6.01422368,5.51032876 7.830634,4.45844704 8.12221884,2.7088171 L8.30498832,1.61207927 L11.6949895,1.61207927 L11.877759,2.7088171 C12.1699484,4.46203392 13.9891395,5.5090391 15.650226,4.88685711 L16.6914277,4.49677422 L18.3868112,7.43220937 C18.3868112,7.43220937 18.3868112,7.43233028 18.3863679,7.43257209 L17.5280163,8.13922704 C16.1558144,9.26881098 16.1585549,11.3679397 17.527976,12.495307 L18.3864082,13.201962 L16.691468,16.1378405 Z M10.0000091,6.3408317 C7.80737975,6.3408317 6.02353344,8.12467802 6.02353344,10.3173073 C6.02353344,12.5099367 7.80737975,14.293783 10.0000091,14.293783 C12.1926384,14.293783 13.9764847,12.5099367 13.9764847,10.3173073 C13.9764847,8.12467802 12.1926384,6.3408317 10.0000091,6.3408317 Z M10.0000091,12.6817037 C8.69628026,12.6817037 7.63561271,11.6210362 7.63561271,10.3173073 C7.63561271,9.01357853 8.69628026,7.95291098 10.0000091,7.95291098 C11.3037379,7.95291098 12.3644054,9.01357853 12.3644054,10.3173073 C12.3644054,11.6210362 11.3037379,12.6817037 10.0000091,12.6817037 Z" id="Shape"></path>
            </g>
        </g>
    </g>
</svg>