<svg width="50" height="50" viewBox="0 0 50 50" fill="none" xmlns="http://www.w3.org/2000/svg">
<path fill-rule="evenodd" clip-rule="evenodd" d="M13.1252 0.96955C16.372 0.248 20.3107 0 25 0C29.6893 0 33.628 0.248 36.8747 0.96955C40.15 1.69743 42.872 2.94 44.966 5.03395C47.06 7.1279 48.3025 9.85005 49.0305 13.1252C49.752 16.372 50 20.3107 50 25C50 29.6893 49.752 33.628 49.0305 36.8747C48.3025 40.15 47.06 42.872 44.966 44.966C42.872 47.06 40.15 48.3025 36.8747 49.0305C33.628 49.752 29.6893 50 25 50C20.3107 50 16.372 49.752 13.1252 49.0305C9.85005 48.3025 7.1279 47.06 5.03395 44.966C2.94 42.872 1.69743 40.15 0.96955 36.8747C0.248 33.628 0 29.6893 0 25C0 20.3107 0.248 16.372 0.96955 13.1252C1.69743 9.85005 2.94 7.1279 5.03395 5.03395C7.1279 2.94 9.85005 1.69743 13.1252 0.96955ZM25 10C19.4771 10 15 14.4771 15 20C15 25.5228 19.4771 30 25 30C30.5228 30 35 25.5228 35 20C35 14.4771 30.5228 10 25 10ZM40.9437 38.2355C41.8257 39.6737 41.5137 41.575 40.0922 42.4837C38.7997 43.3102 37.2895 43.8162 35.7897 44.1495C33.0805 44.7515 29.5748 45 24.9995 45C20.4245 45 16.9186 44.7515 14.2095 44.1495C12.7379 43.8225 11.2551 43.3298 9.97827 42.53C8.53117 41.6237 8.21307 39.6965 9.11685 38.2477C10.1576 36.5795 11.5919 35.2687 13.522 34.336C16.4506 32.921 20.2892 32.5 24.999 32.5C29.6928 32.5 33.5272 32.887 36.4518 34.2617C38.4318 35.1925 39.893 36.5223 40.9437 38.2355Z" fill="#FE6D73"/>
</svg>
