<?xml version="1.0" encoding="UTF-8"?>
<svg width="12px" height="12px" viewBox="0 0 12 12" version="1.1" xmlns="http://www.w3.org/2000/svg" xmlns:xlink="http://www.w3.org/1999/xlink">
    <title>request-time</title>
    <g id="Page-1" stroke="none" stroke-width="1" fill="none" fill-rule="evenodd">
        <g id="app-assets" transform="translate(-109.000000, -1065.000000)" fill="#474954" fill-rule="nonzero">
            <g id="Group-6" transform="translate(78.000000, 1065.443155)">
                <path d="M37.115,0 C40.2670044,0.00371850807 42.8212815,2.55799562 42.825,5.71 C42.825,8.86354592 40.2685459,11.42 37.115,11.42 C33.9614541,11.42 31.405,8.86354592 31.405,5.71 C31.405,2.55645408 33.9614541,0 37.115,0 Z M37.115,1.03818182 C34.5348261,1.03818182 32.4431818,3.12982606 32.4431818,5.71 C32.4431818,8.29017394 34.5348261,10.3818182 37.115,10.3818182 C39.6938696,10.378672 41.783672,8.28886962 41.7868182,5.71 C41.7868182,3.12982606 39.6951739,1.03818182 37.115,1.03818182 Z M37.115,2.07636364 C37.401686,2.07636364 37.6340909,2.30876855 37.6340909,2.59545455 L37.6340909,5.49509636 L39.03927,6.90027545 C39.235991,7.10395577 39.2331776,7.42771583 39.0329467,7.62794673 C38.8327158,7.82817764 38.5089558,7.83099103 38.3052755,7.63427 L36.7480027,6.07699727 C36.6506476,5.9796715 36.5959385,5.84766022 36.5959091,5.71 L36.5959091,2.59545455 C36.5959091,2.30876855 36.828314,2.07636364 37.115,2.07636364 Z" id="request-time"></path>
            </g>
        </g>
    </g>
</svg>