<?xml version="1.0" encoding="UTF-8"?>
<svg width="36px" height="36px" viewBox="0 0 36 36" version="1.1" xmlns="http://www.w3.org/2000/svg" xmlns:xlink="http://www.w3.org/1999/xlink">
    <title>upload-picture</title>
    <g id="Page-1" stroke="none" stroke-width="1" fill="none" fill-rule="evenodd">
        <g id="app-assets" transform="translate(-639.000000, -1212.000000)" fill-rule="nonzero">
            <g id="upload-picture" transform="translate(639.000000, 1212.000000)">
                <path d="M0,18 C0,32.823 3.177,36 18,36 C32.823,36 36,32.823 36,18 C36,3.177 32.823,0 18,0 C3.177,0 0,3.177 0,18 Z" id="Path" fill="#FE6D73"></path>
                <path d="M24.875,13.0728906 L23.0922266,13.0728906 L22.4194922,11.7274609 C21.8867188,10.6619141 20.8157031,10 19.624375,10 L16.3755859,10 C15.1842578,10 14.1132422,10.6619141 13.5804688,11.7274609 L12.9077344,13.0728906 L11.125,13.0728906 C9.401875,13.0728906 8,14.4747656 8,16.1978906 L8,23.8216016 C8,25.5447266 9.401875,26.9466016 11.125,26.9466016 L24.875,26.9466016 C26.598125,26.9466016 28,25.5447266 28,23.8216016 L28,16.1978906 C28,14.4747266 26.598125,13.0728906 24.875,13.0728906 Z M26.4375,23.8216016 C26.4375,24.6831641 25.7365625,25.3841016 24.875,25.3841016 L11.125,25.3841016 C10.2634375,25.3841016 9.5625,24.6831641 9.5625,23.8216016 L9.5625,16.1978906 C9.5625,15.3363281 10.2634375,14.6353906 11.125,14.6353906 L13.390625,14.6353906 C13.6865625,14.6353906 13.9570312,14.4682031 14.0894141,14.2035156 L14.9780859,12.4262109 C15.2444531,11.8934375 15.7799609,11.5624609 16.375625,11.5624609 L19.6244141,11.5624609 C20.2200781,11.5624609 20.7555859,11.8934375 21.0219531,12.4262109 L21.910625,14.2035156 C22.0429687,14.4682031 22.3134375,14.6353906 22.609375,14.6353906 L24.875,14.6353906 C25.7365625,14.6353906 26.4375,15.3363281 26.4375,16.1978906 L26.4375,23.8216016 Z M18,15.3645703 C15.8748047,15.3645703 14.1458203,17.0935547 14.1458203,19.21875 C14.1458203,21.3439453 15.8748047,23.0729297 18,23.0729297 C20.1251953,23.0729297 21.8541797,21.3439453 21.8541797,19.21875 C21.8541797,17.0935156 20.1251953,15.3645703 18,15.3645703 Z M18,21.5103906 C16.7363672,21.5103906 15.7083203,20.4823438 15.7083203,19.2187109 C15.7083203,17.9550781 16.7363672,16.9270313 18,16.9270313 C19.2636328,16.9270313 20.2916797,17.9550781 20.2916797,19.2187109 C20.2916797,20.4823438 19.2636328,21.5103906 18,21.5103906 Z" id="Shape" fill="#FFFFFF"></path>
            </g>
        </g>
    </g>
</svg>