<?xml version="1.0" encoding="UTF-8"?>
<svg width="21px" height="23px" viewBox="0 0.5 21 23" version="1.1" xmlns="http://www.w3.org/2000/svg" xmlns:xlink="http://www.w3.org/1999/xlink">
    <title>icon</title>
    <g id="Page-1" stroke="none" stroke-width="1" fill="none" fill-rule="evenodd">
        <g id="app-assets" transform="translate(-232.000000, -833.000000)" fill="#474954">
            <g id="Group-4" transform="translate(77.500000, 771.000000)">
                <g id="icon" transform="translate(154.500000, 62.943155)">
                    <path d="M18.5797963,11.0724293 C19.24748,11.0956382 19.85675,11.4592152 20.194203,12.0358136 C20.531656,12.612412 20.5502625,13.3216736 20.2435054,13.915172 C20.1629159,14.0510627 20.0709203,14.1798566 19.9685122,14.3001625 L19.9203884,14.3551612 L14.2417778,19.9375241 C14.1100851,20.0717716 13.9278309,20.144174 13.7399151,20.1368943 L6.10541497,19.8790881 L4.18733705,21.797166 C4.05816022,21.9271139 3.88245361,22.0001187 3.69922404,21.9999869 C3.42337828,22.0016863 3.17321997,21.8383543 3.06383397,21.5851183 C2.95444796,21.3318822 3.0070188,21.0377856 3.19736135,20.838127 L5.33887129,18.6966171 C5.47565567,18.5633197 5.66008605,18.4902902 5.85104622,18.4938096 L13.4855463,18.7550532 L18.9269753,13.3995596 C18.957912,13.3617481 19.0094732,13.2998746 19.0369726,13.2586256 C19.0667497,13.1877829 19.0830693,13.1120132 19.0850964,13.0351936 C19.0947554,12.7212976 18.8489546,12.4585979 18.5351099,12.4473955 C18.4155686,12.4447382 18.299264,12.486363 18.2085554,12.5642676 L14.3208383,16.03262 C13.9475306,16.6539719 13.275439,17.0337363 12.5505693,17.0329079 L12.4715087,17.0329079 L9.12346589,16.9194732 C8.74377946,16.9071334 8.4459862,16.5893333 8.45832601,16.2096469 C8.47066582,15.8299605 8.78846586,15.5321672 9.16815229,15.544507 L12.5265074,15.6613791 C12.7961345,15.6676843 13.0457101,15.5195406 13.1693041,15.279826 L13.1693041,15.2488892 C13.2098497,15.1663836 13.2321264,15.0761046 13.234615,14.9842082 C13.2392293,14.7973024 13.1693777,14.6162241 13.0404378,14.4808373 C12.911498,14.3454504 12.7340404,14.2668541 12.5471319,14.262351 L5.95073127,14.0354815 L1.17272355,18.8169267 C1.04382633,18.9447713 0.869593349,19.0164416 0.688047948,19.0162968 C0.410260012,19.016517 0.159636058,18.8495402 0.0528479107,18.5930983 C-0.0539402361,18.3366563 0.00409428548,18.0411472 0.19993493,17.844138 L5.21168691,12.8495731 C5.34643957,12.7156859 5.53058393,12.6435213 5.72042442,12.650203 L12.5952557,12.8839473 C13.3802194,12.909461 14.0825652,13.37858 14.4067737,14.0939176 L17.3251396,11.508981 L17.369826,11.4711695 C17.7148723,11.2022753 18.1424881,11.0613565 18.5797963,11.0724293 Z M10.5740553,1.08673686 C12.0237032,-0.362245621 14.3733411,-0.362245621 15.8229889,1.08673686 C16.5209364,1.78317777 16.9131661,2.72865904 16.9131661,3.71464111 C16.9131661,4.70062317 16.5209364,5.64610445 15.8229889,6.34254535 L10.7149893,11.4471076 C10.5866533,11.5762127 10.4123513,11.6491476 10.2303137,11.6499153 C10.0470841,11.6500603 9.87137754,11.5770554 9.7422007,11.4471076 L4.6376385,6.33910794 C3.93852382,5.64588079 3.54715304,4.70089374 3.55138071,3.71635982 C3.55051138,2.21502118 4.45396951,0.860930387 5.84059864,0.285362681 C7.22722777,-0.290205025 8.82402755,0.0260684536 9.88657216,1.08673686 L10.2303137,1.43047843 Z M14.0964884,1.5564115 C13.2224282,1.19353725 12.2158097,1.39352749 11.5468439,2.0629629 L10.7149893,2.89481748 C10.5860393,3.02391103 10.4110594,3.09644711 10.228595,3.09644711 C10.0461306,3.09644711 9.87115072,3.02391103 9.7422007,2.89481748 L8.91378354,2.0629629 C8.00003905,1.15126326 6.5207342,1.15126326 5.60698971,2.0629629 C4.69529006,2.97326997 4.69529006,4.45257483 5.60698971,5.36631932 L10.2303137,9.98964333 L14.8502003,5.36975673 C15.2931405,4.93542537 15.5411753,4.34014195 15.5377198,3.71979723 C15.539543,2.77340647 14.9705485,1.91928576 14.0964884,1.5564115 Z" id="Combined-Shape"></path>
                </g>
            </g>
        </g>
    </g>
</svg>