<svg width="30" height="30" viewBox="0 0 30 30" fill="none" xmlns="http://www.w3.org/2000/svg">
<path fill-rule="evenodd" clip-rule="evenodd" d="M19.1242 5C19.2524 6.171 18.7823 7.34789 18.0839 8.1933C17.3855 9.03925 16.2391 9.69628 15.117 9.60946C14.9641 8.46164 15.5309 7.26404 16.178 6.5158C16.9001 5.67085 18.1174 5.04046 19.1242 5ZM23.2807 19.6703C23.1597 19.6213 20.6283 18.5961 20.6007 15.6254C20.5785 13.1474 22.5818 11.9296 22.7537 11.8251C22.7573 11.8229 22.7602 11.8211 22.7621 11.8199C21.5867 10.0995 19.7563 9.8632 19.1042 9.83606C18.1514 9.73951 17.227 10.1041 16.4722 10.4019C15.9929 10.5909 15.582 10.753 15.2755 10.753C14.9336 10.753 14.5111 10.5854 14.037 10.3974C13.4163 10.1512 12.7072 9.86994 11.9747 9.88391C10.2765 9.90859 8.71185 10.8709 7.83633 12.3906C6.07394 15.4508 7.38647 19.9842 9.10397 22.4673C9.94449 23.6812 10.9462 25.0485 12.2618 24.9987C12.8505 24.9755 13.269 24.7973 13.7017 24.613C14.2007 24.4005 14.7187 24.1799 15.5385 24.1799C16.3216 24.1799 16.8169 24.3941 17.293 24.6001C17.7478 24.7968 18.1851 24.9861 18.8393 24.974C20.2022 24.9489 21.0673 23.735 21.9009 22.5166C22.8342 21.1527 23.2366 19.8308 23.2817 19.6829C23.2832 19.6779 23.2843 19.6743 23.285 19.672C23.2844 19.6718 23.283 19.6712 23.2807 19.6703Z" fill="black"/>
</svg>
