<svg width="10" height="14" viewBox="0 0 10 14" fill="none" xmlns="http://www.w3.org/2000/svg">
<path opacity="0.5" fill-rule="evenodd" clip-rule="evenodd" d="M8.95361 10.3838L9.24558 10.8713C9.55145 11.3764 9.87897 12.0356 9.68373 12.6373C9.56856 12.9921 9.29755 13.262 8.87828 13.4397C8.78085 13.4826 7.58043 14 6.36435 14H6.36417C5.99263 14 5.65102 13.9514 5.34876 13.8553C3.58662 13.296 2.11948 11.6376 0.988084 8.92612C-0.151842 6.2181 -0.306353 4.00903 0.529285 2.36168C1.22847 0.97771 3.15838 0.189935 3.29862 0.134243C3.51236 0.0451474 3.71909 0 3.91288 0C4.9591 0 5.27492 1.21249 5.39409 1.67003L5.39428 1.67077L5.53352 2.22523C5.69769 2.87011 6.19841 4.83709 4.85245 5.39995L4.33581 5.61748C4.30437 5.63042 4.27204 5.64274 4.23624 5.65631C3.9788 5.75374 3.73917 5.86216 3.63612 6.11574C3.54273 6.34558 3.51678 6.80236 3.92361 7.67368C4.33815 8.56141 4.77346 9.05033 5.14916 9.05033C5.30146 9.05033 5.44953 8.9784 5.58011 8.91488C5.62804 8.89158 5.67331 8.86961 5.71991 8.85029L6.23011 8.6315C6.40275 8.55976 6.57715 8.52434 6.75325 8.52434C7.70381 8.52434 8.42851 9.51803 8.95361 10.3838ZM8.5063 12.5686C8.6629 12.5027 8.75597 12.4274 8.78274 12.345C8.82221 12.2233 8.79379 11.9537 8.43419 11.36L8.14241 10.8728C7.44013 9.7151 6.99913 9.47155 6.75319 9.47155C6.70179 9.47155 6.65115 9.48223 6.59843 9.5042L6.08747 9.72331C6.05986 9.73473 6.03395 9.74737 6.00589 9.76106C6.002 9.76296 5.99807 9.76487 5.99408 9.76681L5.99381 9.76695C5.81622 9.85321 5.51912 9.99754 5.14904 9.99754C4.35122 9.99754 3.66959 9.3685 3.06518 8.07451C2.61642 7.11309 2.51602 6.35575 2.75856 5.75917C3.02579 5.10186 3.61662 4.87816 3.90071 4.7706L3.90088 4.77054C3.90587 4.76864 3.91077 4.76679 3.91557 4.76497C3.93619 4.75715 3.95507 4.75 3.97167 4.74313L4.48584 4.52655C4.86868 4.36642 4.91421 3.63181 4.61516 2.45735L4.47656 1.90522C4.3115 1.27082 4.12157 0.947149 3.91288 0.947149C3.84506 0.947149 3.75767 0.968744 3.66018 1.00966L3.65008 1.01377C3.63328 1.02033 1.92115 1.70702 1.37427 2.78948C0.669968 4.17787 0.83414 6.11915 1.86154 8.56008C2.88137 11.004 4.1508 12.4814 5.63537 12.9526C5.84475 13.0192 6.08993 13.0529 6.3641 13.0529C7.40047 13.053 8.48704 12.5771 8.4979 12.5723L8.5063 12.5686Z" fill="#474954"/>
</svg>
