<svg width="6" height="25" viewBox="0 0 6 25" fill="none" xmlns="http://www.w3.org/2000/svg">
<path opacity="0.5" fill-rule="evenodd" clip-rule="evenodd" d="M2.89896 0C1.3 0 0 1.30104 0 2.89896C0 4.49688 1.3 5.79792 2.89896 5.79792C4.49792 5.79792 5.79792 4.49688 5.79792 2.89896C5.79792 1.30104 4.49792 0 2.89896 0ZM2.89896 9.60104C1.3 9.60104 0 10.9021 0 12.5C0 14.0979 1.30104 15.399 2.89896 15.399C4.49688 15.399 5.79792 14.0979 5.79792 12.5C5.79792 10.9021 4.49792 9.60104 2.89896 9.60104ZM0 22.101C0 20.5031 1.3 19.2021 2.89896 19.2021C4.49792 19.2021 5.79792 20.5031 5.79792 22.101C5.79792 23.699 4.49792 25 2.89896 25C1.3 25 0 23.699 0 22.101Z" fill="#474954"/>
</svg>
