<svg width="30" height="30" viewBox="0 0 30 30" fill="none" xmlns="http://www.w3.org/2000/svg">
<mask id="mask0_3_6590" style="mask-type:luminance" maskUnits="userSpaceOnUse" x="5" y="5" width="20" height="20">
<path fill-rule="evenodd" clip-rule="evenodd" d="M5 5H24.9996V24.8785H5V5Z" fill="white"/>
</mask>
<g mask="url(#mask0_3_6590)">
<path fill-rule="evenodd" clip-rule="evenodd" d="M24.9996 14.9996C24.9996 9.47655 20.5223 4.99922 14.9992 4.99922C9.47615 4.99922 4.99883 9.47655 4.99883 14.9996C4.99883 19.9911 8.65582 24.1283 13.4367 24.8785V17.8904H10.8975V14.9996H13.4367V12.7964C13.4367 10.2901 14.9296 8.90562 17.214 8.90562C18.3081 8.90562 19.4525 9.10094 19.4525 9.10094V11.562H18.1915C16.9492 11.562 16.5618 12.3328 16.5618 13.1237V14.9996H19.3353L18.8919 17.8904H16.5618V24.8785C21.3426 24.1283 24.9996 19.9911 24.9996 14.9996Z" fill="#1877F2"/>
</g>
<path fill-rule="evenodd" clip-rule="evenodd" d="M18.8919 17.8904L19.3353 14.9996H16.5618V13.1237C16.5618 12.3328 16.9492 11.562 18.1915 11.562H19.4525V9.10094C19.4525 9.10094 18.3081 8.90562 17.2139 8.90562C14.9296 8.90562 13.4367 10.2901 13.4367 12.7964V14.9996H10.8975V17.8904H13.4367V24.8785C13.9458 24.9584 14.4676 25 14.9992 25C15.5308 25 16.0526 24.9584 16.5618 24.8785V17.8904H18.8919Z" fill="white"/>
</svg>
