<svg width="30" height="30" viewBox="0 0 30 30" fill="none" xmlns="http://www.w3.org/2000/svg">
<path d="M24.602 15.2398C24.602 14.5645 24.5367 13.8673 24.4277 13.2137H14.9944V17.0699H20.3973C20.1795 18.3117 19.4605 19.401 18.393 20.0981L21.6173 22.6035C23.5127 20.8389 24.602 18.2681 24.602 15.2398Z" fill="#4280EF"/>
<path d="M14.9944 25C17.6958 25 19.9616 24.1068 21.6173 22.5817L18.393 20.0981C17.4998 20.7081 16.3451 21.0567 14.9944 21.0567C12.38 21.0567 10.1796 19.292 9.37356 16.9391L6.06207 19.4881C7.76139 22.865 11.2036 25 14.9944 25Z" fill="#34A353"/>
<path d="M9.37356 16.9174C8.95962 15.6756 8.95962 14.3248 9.37356 13.083L6.06207 10.5123C4.64598 13.3445 4.64598 16.6777 6.06207 19.4881L9.37356 16.9174Z" fill="#F6B704"/>
<path d="M14.9944 8.96545C16.4105 8.94366 17.8048 9.48831 18.8287 10.4687L21.6827 7.59292C19.8744 5.89361 17.478 4.97859 14.9944 5.00038C11.2036 5.00038 7.76139 7.13542 6.06207 10.5123L9.37356 13.083C10.1796 10.7083 12.38 8.96545 14.9944 8.96545Z" fill="#E54335"/>
</svg>
