<svg width="25" height="26" viewBox="0 0 25 26" fill="none" xmlns="http://www.w3.org/2000/svg">
<path fill-rule="evenodd" clip-rule="evenodd" d="M3.34485 15.0212H5.13791C5.6091 18.5785 8.40817 21.3776 11.9655 21.8488V23.6418C11.9661 23.8321 12.1202 23.9861 12.3103 23.9867H13.6897C13.8798 23.9861 14.0339 23.8321 14.0345 23.6418V21.8488C17.5918 21.3776 20.3909 18.5785 20.8621 15.0212H22.6552C22.8454 15.0206 22.9994 14.8665 23 14.6764V13.297C22.9994 13.1069 22.8454 12.9528 22.6552 12.9521H20.8621C20.3909 9.39487 17.5918 6.59579 14.0345 6.1246V4.33154C14.0339 4.14127 13.8798 3.9873 13.6897 3.98669H12.3103C12.1202 3.9873 11.9661 4.14127 11.9655 4.33154V6.1246C8.40817 6.59579 5.6091 9.39487 5.13791 12.9521H3.34485C3.15457 12.9528 3.00061 13.1069 3 13.297V14.6764C3.00061 14.8665 3.15457 15.0206 3.34485 15.0212ZM13 8.12457C16.2375 8.12457 18.8621 10.7492 18.8621 13.9867C18.8621 17.2242 16.2375 19.8488 13 19.8488C9.76254 19.8488 7.13788 17.2242 7.13788 13.9867C7.14246 10.7511 9.76437 8.12915 13 8.12457ZM13 16.7453C14.5236 16.7453 15.7586 15.5103 15.7586 13.9867C15.7586 12.4631 14.5236 11.2281 13 11.2281C11.4764 11.2281 10.2414 12.4631 10.2414 13.9867C10.2414 15.5103 11.4764 16.7453 13 16.7453Z" fill="#474954"/>
</svg>
