<svg width="375" height="266" viewBox="0 0 375 266" fill="none" xmlns="http://www.w3.org/2000/svg">
<path d="M30.3779 134.109L55.4913 243.905H318.988L341.486 153.121C341.731 151.152 341.595 149.154 341.078 147.238L316.945 59.9676C316.169 57.1692 314.597 54.6557 312.423 52.7316C310.247 50.8075 307.562 49.5554 304.688 49.1269L120.941 22.1614C118.333 21.7749 115.669 22.0854 113.22 23.0614C110.771 24.0373 108.623 25.6438 106.995 27.718L33.2107 121.498C31.827 123.255 30.8543 125.3 30.3643 127.482C29.874 129.665 29.8787 131.929 30.3779 134.109V134.109Z" fill="#F4F4F4"/>
<path d="M164.388 198.562C164.037 190.306 164.527 147.671 164.527 147.671C160.017 146.404 86.2864 147.142 83.9712 147.249C81.6559 147.355 80.9913 147.987 80.9913 147.987C80.9913 147.987 78.1804 148.888 76.8566 168.777L76.113 193.812C76.113 193.812 77.9053 192.995 83.9712 192.97C90.037 192.946 165.14 195.966 164.388 198.562Z" fill="#868A91"/>
<path d="M164.685 198.562C165.037 190.306 164.549 147.671 164.549 147.671C169.057 146.404 242.787 147.142 245.105 147.249C247.423 147.355 248.082 147.987 248.082 147.987C248.082 147.987 250.893 148.888 252.217 168.777L252.963 193.812C252.963 193.812 251.171 192.995 245.105 192.97C239.039 192.946 163.933 195.966 164.685 198.562Z" fill="#868A91"/>
<path opacity="0.2" d="M76.8158 170.137C76.8158 170.137 99.6547 189.168 163.34 188.141C163.34 188.141 239.233 189.664 250.501 173.247V193.812L164.781 199.78L76.113 193.812L76.8158 170.137Z" fill="black"/>
<path d="M246.712 179.556V212.786H80.7514V179.556C80.7514 178.741 80.4278 177.959 79.8517 177.383C79.2754 176.807 78.4939 176.483 77.6789 176.483H62.8071C61.9924 176.483 61.2109 176.807 60.6346 177.383C60.0585 177.959 59.7346 178.741 59.7346 179.556V233.46C59.7343 233.863 59.8136 234.263 59.9678 234.636C60.1222 235.009 60.3483 235.348 60.6337 235.634C60.9189 235.919 61.2578 236.146 61.6306 236.301C62.0038 236.455 62.4034 236.535 62.8071 236.535H264.656C265.06 236.535 265.46 236.455 265.833 236.301C266.206 236.146 266.544 235.919 266.83 235.634C267.116 235.348 267.342 235.009 267.495 234.636C267.65 234.263 267.729 233.863 267.729 233.46V179.556C267.729 178.741 267.405 177.959 266.83 177.383C266.253 176.807 265.471 176.483 264.656 176.483H249.785C248.97 176.483 248.188 176.807 247.611 177.383C247.036 177.959 246.712 178.741 246.712 179.556V179.556Z" fill="#868A91"/>
<path opacity="0.2" d="M246.227 218.519L203.807 219.936C177.553 220.813 151.292 220.813 125.024 219.936L82.0973 218.514C81.5008 218.507 80.9261 218.288 80.4766 217.895C80.0275 217.503 79.7328 216.963 79.6459 216.373L79.4634 215.237H248.853L248.671 216.373C248.586 216.963 248.292 217.503 247.845 217.896C247.396 218.29 246.824 218.511 246.227 218.519V218.519Z" fill="black"/>
<path d="M79.6457 216.523C79.6457 216.523 125.552 219.124 164.78 215.64C164.78 215.64 165.685 195.397 163.478 193.94C161.735 192.793 161.626 192.992 152.434 192.85C142.742 192.711 91.5977 192.771 88.9938 192.85C86.3898 192.929 82.0971 193.564 79.6457 194.988C77.1943 196.413 77.3468 199.104 77.3468 199.104C77.3468 199.104 77.9597 206.859 77.9597 209.076C77.9597 211.293 77.1725 216.395 79.6457 216.523Z" fill="#B2B6BB"/>
<path d="M249.869 216.523C249.869 216.523 203.962 219.119 164.734 215.64C164.734 215.64 163.83 195.397 166.039 193.94C167.779 192.793 167.888 192.992 177.081 192.85C186.772 192.711 237.917 192.771 240.521 192.85C243.125 192.929 247.418 193.564 249.869 194.988C252.32 196.413 252.168 199.104 252.168 199.104C252.168 199.104 251.555 206.859 251.555 209.076C251.555 211.293 252.345 216.395 249.869 216.523Z" fill="#B2B6BB"/>
<path d="M70.1072 236.534H76.3719V243.526C76.3719 243.771 76.2744 244.006 76.1014 244.18C75.9282 244.353 75.6934 244.45 75.4485 244.45H71.0305C70.7854 244.45 70.5506 244.353 70.3774 244.18C70.2044 244.006 70.1072 243.771 70.1072 243.526V236.534V236.534Z" fill="#868A91"/>
<path opacity="0.2" d="M76.3855 236.534H70.1072V238.444H76.3855V236.534Z" fill="black"/>
<path d="M88.3945 236.534H94.6592V243.526C94.6592 243.771 94.562 244.006 94.3888 244.18C94.2155 244.353 93.9807 244.45 93.7359 244.45H89.3206C89.0758 244.45 88.841 244.353 88.6677 244.18C88.4945 244.006 88.3973 243.771 88.3973 243.526V236.534H88.3945Z" fill="#868A91"/>
<path opacity="0.2" d="M94.6729 236.534H88.3945V239.811H94.6729V236.534Z" fill="black"/>
<path d="M256.158 244.45H251.729C251.484 244.45 251.25 244.353 251.076 244.179C250.904 244.006 250.806 243.771 250.806 243.526V236.534H257.071V243.526C257.071 243.769 256.975 244.003 256.804 244.175C256.632 244.348 256.401 244.447 256.158 244.45V244.45Z" fill="#868A91"/>
<path opacity="0.2" d="M250.803 238.444H257.082V236.534H250.803V238.444Z" fill="black"/>
<path d="M237.871 244.45H233.442C233.197 244.45 232.962 244.353 232.789 244.179C232.616 244.006 232.519 243.771 232.519 243.526V236.534H238.783V243.526C238.783 243.769 238.688 244.003 238.516 244.175C238.345 244.348 238.113 244.447 237.871 244.45Z" fill="#868A91"/>
<path opacity="0.2" d="M232.516 239.808H238.794V236.532H232.516V239.808Z" fill="black"/>
<path d="M70.7933 159.312C70.7933 159.312 96.3969 161.788 99.0907 164.005C101.785 166.223 112.386 182.429 114.287 193.003H84.0527C84.0935 193.095 64.7192 157.302 70.7933 159.312Z" fill="#FE6D73"/>
<path opacity="0.2" d="M82.4922 160.639C82.4922 160.639 89.2853 162.213 95.757 177.608C95.757 177.608 100.706 186.504 98.4236 193.003H105.233L91.2791 161.919L82.4922 160.639Z" fill="black"/>
<path d="M255.605 159.424C255.605 159.424 230.002 161.903 227.308 164.117C224.614 166.332 214.013 182.544 212.112 193.115H242.346C242.346 193.115 261.742 157.264 255.605 159.424Z" fill="#FE6D73"/>
<path opacity="0.2" d="M226.461 164.975C214.781 179.234 212.112 193.114 212.112 193.114H224.096C224.096 193.114 220.163 187.01 225.581 176.227C230.999 165.443 235.931 161.905 235.931 161.905C235.931 161.905 227.537 162.703 226.461 164.975Z" fill="black"/>
<path d="M344.591 243.36H39.9493C39.8409 243.36 39.7369 243.403 39.6603 243.48C39.5838 243.557 39.5408 243.661 39.5408 243.769C39.5408 243.877 39.5838 243.981 39.6603 244.058C39.7369 244.134 39.8409 244.177 39.9493 244.177H344.591C344.7 244.177 344.804 244.134 344.88 244.058C344.956 243.981 345 243.877 345 243.769C345 243.661 344.956 243.557 344.88 243.48C344.804 243.403 344.7 243.36 344.591 243.36V243.36Z" fill="#B2B6BB"/>
<path d="M133.473 173.103L135.459 166.686L133.792 165.852L129.066 151.675C128.794 151.675 121.627 154.083 121.627 154.083L128.211 170.717C128.443 171.35 128.912 171.867 129.518 172.161L133.473 173.103Z" fill="#FC9D9D"/>
<path d="M112.775 138.974C113.214 139.211 113.726 139.277 114.21 139.159C116.471 138.791 118.182 138.486 118.367 136.195C118.609 132.589 117.847 124.617 114.976 120.062C113.02 121.073 112.715 121.531 112.715 121.531C112.715 121.531 109.811 120.645 109.752 120.613C109.752 120.583 108.804 136.378 112.775 138.974Z" fill="black"/>
<path d="M105.658 136.653L104.037 117.437C103.059 117.284 101.501 118.567 101.041 119.087C97.3748 123.271 96.4896 131.916 97.0071 137.691C97.1923 139.922 98.6278 140.227 100.82 140.654C103.013 141.082 105.587 141.297 106.54 140.197C107.001 139.617 105.658 136.653 105.658 136.653Z" fill="black"/>
<path d="M182.864 242.543H194.031C194.217 242.208 194.734 241.2 194.094 240.985L186.486 237.717C185.141 237.259 184.226 236.951 183.43 235.943C183.269 235.727 183.135 235.491 183.033 235.241L177.106 221.799L170.362 225.313L176.008 236.066C176.553 236.861 176.678 237.899 176.711 238.847L176.741 240.375C176.763 240.927 176.992 241.45 177.383 241.841C177.773 242.232 178.297 242.461 178.849 242.483H178.879L182.85 242.543H182.864Z" fill="#FC9D9D"/>
<path opacity="0.15" d="M194.26 242.066C194.167 242.279 194.075 242.461 194.015 242.584H182.847L178.843 242.524H178.813C178.26 242.506 177.734 242.279 177.342 241.887C176.951 241.495 176.723 240.969 176.705 240.416L176.675 238.888C176.645 237.94 176.493 236.872 175.972 236.107L173.742 232.258L173.864 231.19L175.172 230.831L179.38 238.828C179.38 238.828 181.428 241.606 187.538 241.851L193.647 242.066H194.26Z" fill="black"/>
<path d="M180.137 228.461L173.352 231.706L166.35 217.637C162.081 210.013 158.012 202.504 156.149 194.332H121.609C119.221 194.33 116.93 193.391 115.227 191.717C113.525 190.044 112.547 187.769 112.503 185.382L112.413 179.698H158.717C160.156 179.699 161.561 180.127 162.757 180.926C163.953 181.725 164.885 182.861 165.437 184.189L180.137 228.461Z" fill="#3F4249"/>
<path opacity="0.2" d="M169.403 218.478C161.825 204.41 159.919 194.877 157.949 184.491C157.704 183.728 156.514 179.664 151.957 179.664H134.225C129.521 179.542 126.893 186.784 122.984 184.186L113.391 179.664H112.443L112.525 185.343C112.562 187.733 113.538 190.011 115.241 191.686C116.944 193.361 119.238 194.299 121.627 194.297H155.901C158.557 205.5 162.915 210.13 169.452 223.749L173.377 231.648L175.057 230.945C175.027 231.011 170.838 220.922 169.403 218.478Z" fill="black"/>
<path opacity="0.15" d="M131.754 170.504C131.266 170.353 130.82 170.09 130.452 169.735C130.084 169.38 129.804 168.944 129.635 168.462L124.602 153.993L124.329 153.622C123.495 153.904 122.682 154.244 121.894 154.638L128.2 170.709C128.432 171.341 128.901 171.859 129.507 172.152L133.462 173.095L133.835 171.139L131.754 170.504Z" fill="black"/>
<path d="M159.597 242.543H170.764C170.947 242.208 171.467 241.2 170.824 240.985L163.22 237.716C161.874 237.259 160.959 236.951 160.163 235.943C160.002 235.727 159.868 235.491 159.766 235.241L157.739 221.81L150.437 225.323L151.649 230.967C152.098 233.053 152.684 235.11 153.237 237.174C153.372 237.725 153.444 238.29 153.449 238.858L153.482 240.386C153.503 240.938 153.732 241.461 154.122 241.852C154.513 242.242 155.036 242.472 155.587 242.494H155.62L159.591 242.554L159.597 242.543Z" fill="#FC9D9D"/>
<path opacity="0.15" d="M170.993 242.067C170.901 242.279 170.808 242.461 170.748 242.584H159.581L155.577 242.524H155.547C154.993 242.506 154.467 242.279 154.076 241.887C153.684 241.496 153.456 240.969 153.439 240.416L153.409 238.888C153.399 238.234 153.299 237.584 153.112 236.957C152.753 235.919 152.449 234.863 152.199 233.794L151.864 232.258L151.987 231.19L154.822 231.967L156.105 238.828C156.105 238.828 158.153 241.606 164.277 241.851L170.386 242.067H170.993Z" fill="black"/>
<path d="M121.84 141.393L110.111 151.405L95.7271 143.256L102.264 140.284C102.327 140.254 102.387 140.254 102.447 140.224C102.819 140.048 103.125 139.757 103.318 139.393C103.511 139.029 103.581 138.613 103.517 138.206L102.719 130.996L110.144 127.482L111.855 134.815L112.127 136.008L112.525 138.767C112.611 139.099 112.804 139.392 113.073 139.604C113.343 139.815 113.675 139.932 114.017 139.935C114.597 139.976 115.172 140.066 115.189 140.17L121.84 141.393Z" fill="#FC9D9D"/>
<path d="M152.324 234.23L159.679 232.931L153.899 184.216C153.347 182.888 152.414 181.753 151.219 180.954C150.023 180.156 148.617 179.729 147.179 179.727H100.875L100.965 185.409C101.008 187.796 101.987 190.071 103.69 191.745C105.393 193.419 107.685 194.357 110.073 194.359H142.377C142.377 194.359 142.944 200.684 147.629 215.896C148.217 217.805 148.739 219.735 149.195 221.687L152.324 234.23Z" fill="#3F4249"/>
<path opacity="0.2" d="M150.434 214.404C147.308 201.757 147.343 203.961 146.744 191.853C145.755 188.737 143.535 188.067 141.942 188.067L125.389 188.157C120.685 188.035 112.527 188.525 108.649 185.896L101.867 179.694H100.919L101.011 185.379C101.048 187.769 102.024 190.048 103.729 191.724C105.433 193.4 107.729 194.337 110.12 194.332H142.16C144.393 206.317 146.866 214.049 150.481 226.835L152.387 234.189L155.204 233.77C155.177 233.797 153.662 226.089 152.153 220.862C151.535 218.732 150.971 216.569 150.434 214.404Z" fill="black"/>
<path d="M123.112 160.999L123.357 166.193C123.48 168.881 123.532 171.477 125.06 173.708L129.123 179.665H127.595C121.897 179.667 116.308 181.231 111.435 184.186L103.86 188.77C101.409 190.266 98.391 188.068 99.0338 185.257L99.3386 183.941C100.489 179.027 100.634 173.931 99.7665 168.96L98.4942 157.793L90.7126 158.907L89.7076 153.187C88.4873 149.248 90.2278 144.939 94.1991 143.654L101.147 140.946L102.951 142.289C107.777 145.925 114.118 145.726 116.874 140.35L116.902 140.295C116.984 140.132 120.677 140.87 123.112 141.327C123.891 141.475 125.13 141.919 125.582 142.556C125.729 142.77 125.847 143.002 125.931 143.248L129.622 151.664L123.507 153.89L122.044 149.804L121.241 148.371L123.747 152.648C123.965 152.98 124.122 153.349 124.21 153.737C124.907 155.976 124.656 158.959 123.237 160.819L123.112 160.999Z" fill="#FE6D73"/>
<path d="M112.228 178.352L112.35 178.229C112.205 178.077 112.123 177.874 112.123 177.664C112.123 177.453 112.205 177.251 112.35 177.099L112.228 176.976C112.076 177.122 111.873 177.203 111.663 177.203C111.452 177.203 111.249 177.122 111.097 176.976L110.975 177.099C111.12 177.251 111.202 177.453 111.202 177.664C111.202 177.874 111.12 178.077 110.975 178.229L111.097 178.352C111.168 178.272 111.255 178.208 111.353 178.164C111.45 178.121 111.556 178.098 111.663 178.098C111.769 178.098 111.875 178.121 111.972 178.164C112.07 178.208 112.157 178.272 112.228 178.352V178.352Z" fill="#FE6D73"/>
<path d="M111.778 173.111C112.014 173.111 112.206 172.92 112.206 172.683C112.206 172.447 112.014 172.256 111.778 172.256C111.542 172.256 111.35 172.447 111.35 172.683C111.35 172.92 111.542 173.111 111.778 173.111Z" fill="#F4F4F4"/>
<path d="M113.75 149.341C113.987 149.341 114.178 149.149 114.178 148.913C114.178 148.677 113.987 148.486 113.75 148.486C113.514 148.486 113.323 148.677 113.323 148.913C113.323 149.149 113.514 149.341 113.75 149.341Z" fill="#F4F4F4"/>
<path d="M125.424 150.73C125.661 150.73 125.852 150.538 125.852 150.302C125.852 150.066 125.661 149.875 125.424 149.875C125.188 149.875 124.997 150.066 124.997 150.302C124.997 150.538 125.188 150.73 125.424 150.73Z" fill="#F4F4F4"/>
<path d="M122.921 142.389C123.157 142.389 123.349 142.198 123.349 141.962C123.349 141.726 123.157 141.534 122.921 141.534C122.685 141.534 122.494 141.726 122.494 141.962C122.494 142.198 122.685 142.389 122.921 142.389Z" fill="#F4F4F4"/>
<path d="M121.584 156.635C121.82 156.635 122.011 156.443 122.011 156.207C122.011 155.971 121.82 155.78 121.584 155.78C121.347 155.78 121.156 155.971 121.156 156.207C121.156 156.443 121.347 156.635 121.584 156.635Z" fill="#F4F4F4"/>
<path d="M109.052 155.834C109.288 155.834 109.48 155.643 109.48 155.407C109.48 155.17 109.288 154.979 109.052 154.979C108.816 154.979 108.624 155.17 108.624 155.407C108.624 155.643 108.816 155.834 109.052 155.834Z" fill="#F4F4F4"/>
<path d="M99.8781 162.505C100.114 162.505 100.306 162.313 100.306 162.077C100.306 161.841 100.114 161.649 99.8781 161.649C99.6419 161.649 99.4504 161.841 99.4504 162.077C99.4504 162.313 99.6419 162.505 99.8781 162.505Z" fill="#F4F4F4"/>
<path d="M117.972 180.092C118.208 180.092 118.4 179.901 118.4 179.664C118.4 179.428 118.208 179.237 117.972 179.237C117.736 179.237 117.545 179.428 117.545 179.664C117.545 179.901 117.736 180.092 117.972 180.092Z" fill="#F4F4F4"/>
<path d="M119.132 168.116C119.369 168.116 119.56 167.924 119.56 167.688C119.56 167.452 119.369 167.26 119.132 167.26C118.896 167.26 118.705 167.452 118.705 167.688C118.705 167.924 118.896 168.116 119.132 168.116Z" fill="#F4F4F4"/>
<path d="M114.684 162.001C114.921 162.001 115.112 161.809 115.112 161.573C115.112 161.337 114.921 161.146 114.684 161.146C114.448 161.146 114.257 161.337 114.257 161.573C114.257 161.809 114.448 162.001 114.684 162.001Z" fill="#F4F4F4"/>
<path d="M108.164 166.16C108.4 166.16 108.592 165.969 108.592 165.733C108.592 165.496 108.4 165.305 108.164 165.305C107.928 165.305 107.736 165.496 107.736 165.733C107.736 165.969 107.928 166.16 108.164 166.16Z" fill="#F4F4F4"/>
<path d="M95.6999 147.015C95.936 147.015 96.1275 146.823 96.1275 146.587C96.1275 146.351 95.936 146.159 95.6999 146.159C95.4637 146.159 95.2722 146.351 95.2722 146.587C95.2722 146.823 95.4637 147.015 95.6999 147.015Z" fill="#F4F4F4"/>
<path d="M103.828 145.754C104.064 145.754 104.255 145.562 104.255 145.326C104.255 145.09 104.064 144.898 103.828 144.898C103.591 144.898 103.4 145.09 103.4 145.326C103.4 145.562 103.591 145.754 103.828 145.754Z" fill="#F4F4F4"/>
<path d="M95.163 154.063C95.3994 154.063 95.5906 153.872 95.5906 153.636C95.5906 153.4 95.3994 153.208 95.163 153.208C94.9268 153.208 94.7354 153.4 94.7354 153.636C94.7354 153.872 94.9268 154.063 95.163 154.063Z" fill="#F4F4F4"/>
<path d="M101.474 186.539C101.71 186.539 101.902 186.348 101.902 186.112C101.902 185.876 101.71 185.684 101.474 185.684C101.238 185.684 101.046 185.876 101.046 186.112C101.046 186.348 101.238 186.539 101.474 186.539Z" fill="#F4F4F4"/>
<path d="M121.214 164.572C121.154 164.569 121.096 164.553 121.044 164.524C120.992 164.496 120.946 164.457 120.911 164.409L120.366 163.504C120.324 163.425 120.314 163.332 120.337 163.245C120.361 163.158 120.417 163.084 120.493 163.036C120.57 162.989 120.662 162.973 120.75 162.991C120.839 163.009 120.917 163.06 120.968 163.134L121.513 164.038C121.558 164.119 121.571 164.214 121.55 164.304C121.529 164.394 121.475 164.473 121.399 164.526C121.339 164.549 121.277 164.564 121.214 164.572V164.572Z" fill="#231F20"/>
<path d="M110.373 181.803C110.314 181.8 110.257 181.784 110.205 181.757C110.153 181.729 110.108 181.69 110.073 181.642L109.529 180.738C109.486 180.658 109.476 180.565 109.499 180.479C109.523 180.392 109.579 180.317 109.656 180.27C109.732 180.223 109.824 180.206 109.912 180.224C110.001 180.243 110.079 180.294 110.131 180.367L110.675 181.272C110.72 181.352 110.733 181.447 110.712 181.537C110.69 181.627 110.635 181.705 110.558 181.757C110.499 181.781 110.437 181.797 110.373 181.803V181.803Z" fill="#231F20"/>
<path d="M115.101 168.644C115.089 168.703 115.064 168.758 115.027 168.805C114.99 168.852 114.943 168.89 114.889 168.917L113.9 169.303C113.813 169.332 113.717 169.328 113.633 169.291C113.548 169.253 113.481 169.186 113.443 169.102C113.412 169.014 113.416 168.919 113.453 168.834C113.49 168.749 113.557 168.682 113.642 168.644L114.63 168.258C114.718 168.228 114.814 168.232 114.898 168.27C114.983 168.307 115.051 168.374 115.088 168.459C115.101 168.52 115.105 168.582 115.101 168.644V168.644Z" fill="#231F20"/>
<path d="M103.705 168.088C103.693 168.147 103.667 168.202 103.631 168.249C103.594 168.296 103.547 168.334 103.493 168.361L102.504 168.728C102.417 168.762 102.32 168.76 102.234 168.723C102.149 168.685 102.081 168.615 102.048 168.528C102.014 168.441 102.016 168.344 102.053 168.259C102.091 168.173 102.161 168.106 102.248 168.072L103.234 167.685C103.322 167.655 103.418 167.66 103.503 167.697C103.588 167.734 103.656 167.802 103.694 167.887C103.706 167.953 103.71 168.021 103.705 168.088V168.088Z" fill="#231F20"/>
<path d="M122.603 172.542C122.59 172.6 122.564 172.655 122.527 172.702C122.49 172.749 122.444 172.787 122.39 172.814L121.401 173.198C121.358 173.218 121.31 173.229 121.262 173.23C121.214 173.231 121.166 173.222 121.121 173.204C121.077 173.185 121.037 173.158 121.003 173.124C120.969 173.089 120.943 173.049 120.925 173.004C120.908 172.959 120.9 172.911 120.902 172.863C120.903 172.815 120.915 172.768 120.935 172.724C120.956 172.681 120.985 172.642 121.021 172.61C121.057 172.578 121.1 172.554 121.145 172.539L122.131 172.155C122.219 172.125 122.316 172.129 122.401 172.166C122.486 172.203 122.554 172.271 122.592 172.357C122.602 172.418 122.606 172.48 122.603 172.542V172.542Z" fill="#231F20"/>
<path d="M103.705 180.596C103.693 180.655 103.667 180.71 103.631 180.757C103.594 180.804 103.547 180.842 103.493 180.868L102.504 181.258C102.417 181.292 102.32 181.29 102.234 181.252C102.149 181.215 102.081 181.145 102.048 181.058C102.014 180.971 102.016 180.874 102.053 180.788C102.091 180.703 102.161 180.635 102.248 180.601L103.234 180.215C103.322 180.185 103.418 180.189 103.503 180.226C103.588 180.264 103.656 180.331 103.694 180.416C103.704 180.476 103.708 180.536 103.705 180.596Z" fill="#231F20"/>
<path d="M107.595 161.513C107.535 161.511 107.478 161.495 107.425 161.467C107.373 161.439 107.328 161.4 107.292 161.353L106.747 160.448C106.72 160.409 106.7 160.364 106.69 160.316C106.68 160.269 106.68 160.22 106.69 160.173C106.7 160.125 106.719 160.081 106.747 160.041C106.775 160.002 106.81 159.968 106.851 159.943C106.893 159.917 106.938 159.901 106.986 159.894C107.034 159.887 107.083 159.89 107.13 159.902C107.176 159.915 107.22 159.937 107.258 159.967C107.295 159.997 107.327 160.035 107.349 160.078L107.894 160.982C107.939 161.063 107.952 161.157 107.931 161.247C107.909 161.336 107.856 161.415 107.78 161.467C107.721 161.491 107.658 161.507 107.595 161.513Z" fill="#231F20"/>
<path d="M126.495 147.894C126.436 147.891 126.378 147.876 126.326 147.848C126.273 147.82 126.228 147.781 126.193 147.733L125.648 146.829C125.62 146.79 125.601 146.745 125.591 146.697C125.581 146.65 125.581 146.601 125.59 146.554C125.6 146.506 125.62 146.462 125.647 146.422C125.675 146.382 125.711 146.349 125.752 146.324C125.793 146.298 125.839 146.281 125.887 146.275C125.934 146.268 125.983 146.271 126.03 146.283C126.077 146.296 126.12 146.318 126.158 146.348C126.196 146.378 126.227 146.416 126.25 146.459L126.795 147.36C126.839 147.441 126.852 147.536 126.831 147.626C126.81 147.716 126.756 147.795 126.68 147.848C126.621 147.872 126.559 147.888 126.495 147.894V147.894Z" fill="#231F20"/>
<path d="M91.1947 152.342C91.1356 152.339 91.0781 152.323 91.0261 152.294C90.9744 152.266 90.9294 152.227 90.8951 152.179L90.3503 151.277C90.3258 151.238 90.3092 151.194 90.3018 151.148C90.2942 151.102 90.2959 151.055 90.3065 151.01C90.3171 150.964 90.3364 150.922 90.3637 150.884C90.3909 150.846 90.4252 150.814 90.4647 150.79C90.5042 150.765 90.5481 150.749 90.5941 150.741C90.6399 150.734 90.6867 150.735 90.7322 150.746C90.7774 150.757 90.8202 150.776 90.8578 150.803C90.8956 150.83 90.9278 150.864 90.9523 150.904L91.497 151.808C91.542 151.889 91.5551 151.985 91.5335 152.075C91.5118 152.165 91.457 152.244 91.3799 152.296C91.3203 152.319 91.2582 152.335 91.1947 152.342Z" fill="#231F20"/>
<path d="M116.351 155.338C116.315 155.292 116.289 155.238 116.275 155.18C116.261 155.122 116.26 155.062 116.272 155.003L116.583 153.99C116.593 153.942 116.613 153.897 116.642 153.857C116.671 153.817 116.707 153.784 116.749 153.759C116.791 153.734 116.838 153.718 116.887 153.713C116.936 153.707 116.985 153.711 117.032 153.725C117.079 153.739 117.122 153.763 117.159 153.795C117.196 153.827 117.227 153.866 117.248 153.91C117.269 153.954 117.281 154.002 117.283 154.051C117.285 154.1 117.277 154.149 117.258 154.194L116.951 155.21C116.92 155.298 116.858 155.371 116.776 155.414C116.694 155.457 116.599 155.468 116.509 155.445C116.452 155.417 116.399 155.381 116.351 155.338V155.338Z" fill="#231F20"/>
<path d="M118.852 144.214C118.815 144.168 118.789 144.115 118.776 144.057C118.763 143.999 118.763 143.94 118.776 143.882L119.083 142.866C119.094 142.819 119.115 142.774 119.144 142.735C119.173 142.696 119.21 142.664 119.252 142.639C119.294 142.615 119.34 142.6 119.388 142.595C119.437 142.589 119.486 142.594 119.532 142.608C119.579 142.622 119.621 142.646 119.658 142.677C119.695 142.709 119.725 142.748 119.747 142.791C119.768 142.835 119.78 142.882 119.782 142.931C119.784 142.979 119.776 143.028 119.759 143.073L119.451 144.086C119.42 144.174 119.358 144.246 119.276 144.29C119.195 144.334 119.1 144.346 119.01 144.323C118.953 144.293 118.9 144.257 118.852 144.214Z" fill="#231F20"/>
<path d="M103.844 151.446C103.807 151.4 103.781 151.346 103.768 151.289C103.754 151.232 103.753 151.172 103.765 151.114L104.081 150.098C104.113 150.014 104.176 149.946 104.256 149.906C104.337 149.867 104.429 149.86 104.515 149.886C104.601 149.912 104.674 149.97 104.718 150.048C104.763 150.126 104.777 150.217 104.756 150.305L104.449 151.318C104.418 151.405 104.355 151.478 104.274 151.522C104.192 151.565 104.097 151.577 104.007 151.555C103.948 151.527 103.893 151.49 103.844 151.446V151.446Z" fill="#231F20"/>
<path opacity="0.2" d="M121.241 148.371C121.419 148.33 121.605 148.345 121.774 148.415C121.943 148.485 122.086 148.605 122.183 148.76L125.149 153.437L124.06 153.622L123.826 153.056C123.151 151.4 122.285 149.827 121.246 148.371H121.241Z" fill="black"/>
<path opacity="0.2" d="M98.154 153.056C98.2136 153.044 98.2752 153.043 98.3351 153.055C98.395 153.067 98.452 153.09 98.5026 153.124C98.5533 153.158 98.5969 153.202 98.6304 153.253C98.6642 153.304 98.6873 153.361 98.6987 153.421L100.837 161.731C101.109 162.924 101.905 164.482 102.975 165.122C105.448 166.62 107.456 165.395 107.456 165.395C107.543 165.356 107.639 165.342 107.733 165.355C107.828 165.368 107.917 165.407 107.99 165.467C108.064 165.528 108.12 165.607 108.151 165.697C108.182 165.788 108.187 165.885 108.167 165.977L107.349 169.461C104.876 176.303 105.579 183.941 108.665 185.897L103.918 188.77C101.466 190.265 98.4509 188.067 99.091 185.256L99.396 183.941C100.556 179.024 101.512 173.92 100.657 168.96L97.7863 153.625C97.7683 153.564 97.7639 153.499 97.7735 153.435C97.7827 153.371 97.8056 153.311 97.8405 153.257C97.8753 153.203 97.9214 153.157 97.9753 153.122C98.0295 153.088 98.0902 153.065 98.154 153.056V153.056Z" fill="black"/>
<path d="M125 178.352L125.119 178.229C124.974 178.077 124.892 177.874 124.892 177.664C124.892 177.453 124.974 177.251 125.119 177.099L125 176.976C124.848 177.122 124.645 177.203 124.434 177.203C124.224 177.203 124.021 177.122 123.869 176.976L123.747 177.099C123.892 177.251 123.974 177.453 123.974 177.664C123.974 177.874 123.892 178.077 123.747 178.229L123.869 178.352C123.94 178.272 124.027 178.208 124.125 178.164C124.222 178.121 124.328 178.098 124.434 178.098C124.541 178.098 124.647 178.121 124.744 178.164C124.842 178.208 124.928 178.272 125 178.352Z" fill="#FE6D73"/>
<path opacity="0.2" d="M124.618 158.345L123.327 160.331C122.532 161.677 121.096 161.946 119.538 161.914L123.175 162.679L123.082 160.998C123.082 160.998 124.346 158.866 124.618 158.345Z" fill="black"/>
<path d="M135.404 177.281L132.136 174.38C131.808 174.061 131.373 173.875 130.916 173.86L125.629 174.318L120.151 173.936L120.173 173.912L101.264 171.142L98.4371 157.523L90.7097 158.885L94.3351 175.064C94.5326 175.748 94.9033 176.368 95.4118 176.866C95.9201 177.364 96.5484 177.722 97.2359 177.905L114.072 178.041V178.063L121.448 178.27L122.18 178.542C122.785 178.788 123.435 178.904 124.088 178.883C124.74 178.862 125.381 178.704 125.969 178.42H125.999L127.007 177.932C127.131 177.874 127.265 177.842 127.402 177.836C127.538 177.831 127.675 177.854 127.802 177.902L130.398 178.97C130.463 178.998 130.535 179.008 130.606 178.997C130.676 178.986 130.742 178.956 130.796 178.91C130.845 178.869 130.885 178.818 130.913 178.76C130.94 178.702 130.955 178.638 130.955 178.574C130.955 178.509 130.94 178.446 130.913 178.388C130.885 178.329 130.845 178.278 130.796 178.237L128.867 176.823L131.738 178.902C131.804 178.949 131.881 178.979 131.961 178.989C132.041 179 132.123 178.99 132.198 178.962C132.27 178.933 132.334 178.887 132.384 178.828C132.433 178.769 132.467 178.698 132.482 178.622C132.498 178.546 132.493 178.468 132.471 178.394C132.448 178.32 132.407 178.253 132.351 178.199L130.303 176.181L132.98 178.806C133.048 178.872 133.134 178.916 133.226 178.932C133.319 178.949 133.414 178.937 133.5 178.899C133.576 178.87 133.643 178.824 133.697 178.765C133.75 178.705 133.79 178.634 133.811 178.556C133.832 178.479 133.834 178.397 133.817 178.319C133.801 178.24 133.766 178.166 133.716 178.104L131.697 175.72L134.783 177.981C134.835 178.023 134.894 178.054 134.958 178.072C135.022 178.09 135.088 178.095 135.154 178.086C135.22 178.078 135.283 178.056 135.34 178.023C135.397 177.989 135.447 177.945 135.486 177.891C135.552 177.798 135.58 177.683 135.565 177.57C135.55 177.457 135.493 177.354 135.404 177.281V177.281Z" fill="#FC9D9D"/>
<g opacity="0.5">
<path opacity="0.5" d="M124.073 153.601L123.782 152.822L129.273 150.839L129.565 151.62L124.073 153.601Z" fill="black"/>
</g>
<path opacity="0.15" d="M130.752 178.412C130.719 178.412 130.719 178.412 130.69 178.382L128.919 177.069C128.886 177.039 128.856 176.976 128.886 176.946C128.916 176.916 128.979 176.884 129.009 176.916L130.782 178.229C130.812 178.259 130.842 178.322 130.812 178.352L130.752 178.412Z" fill="black"/>
<path opacity="0.15" d="M132.248 178.352C132.218 178.352 132.188 178.352 132.188 178.322L130.262 176.415C130.248 176.398 130.241 176.377 130.243 176.356C130.244 176.334 130.253 176.314 130.268 176.299C130.283 176.283 130.304 176.274 130.325 176.273C130.347 176.272 130.368 176.279 130.384 176.292L132.31 178.199C132.325 178.216 132.333 178.238 132.333 178.26C132.333 178.283 132.325 178.304 132.31 178.322C132.31 178.352 132.277 178.352 132.248 178.352Z" fill="black"/>
<path opacity="0.15" d="M128.306 177.649C128.886 177.954 129.894 178.442 130.232 178.657C130.719 178.929 130.872 178.564 130.872 178.564C130.888 178.643 130.882 178.724 130.855 178.799C130.828 178.874 130.781 178.941 130.719 178.992C130.662 179.031 130.597 179.057 130.529 179.068C130.461 179.079 130.391 179.074 130.325 179.054L127.726 177.989C127.467 177.894 127.181 177.905 126.931 178.019L127.451 177.717C127.575 177.632 127.719 177.581 127.869 177.569C128.019 177.557 128.17 177.585 128.306 177.649V177.649Z" fill="black"/>
<path opacity="0.15" d="M122.84 177.989C122.499 177.769 122.11 177.633 121.707 177.592L116.635 177.014L100.717 175.244C98.1513 174.816 96.1956 173.411 95.5228 171.057L92.9461 158.441L90.7507 158.898L94.3325 175.029C94.5294 175.733 94.9061 176.373 95.4258 176.888C95.9455 177.402 96.59 177.772 97.296 177.962L115.722 178.09H117.945L121.431 178.33C123.692 179.46 125.433 178.695 125.433 178.695C124.518 178.716 123.617 178.471 122.84 177.989V177.989Z" fill="black"/>
<path opacity="0.15" d="M112.944 136.825L112.476 134.894C112.04 135.463 110.354 136.212 108.774 135.95C107.622 135.852 107.023 135.384 106.396 135.158C106.636 135.91 108.303 136.31 109.616 136.43C110.115 136.717 110.668 136.9 111.24 136.968C111.812 137.036 112.392 136.987 112.944 136.825V136.825Z" fill="black"/>
<path opacity="0.2" d="M90.7534 158.89L89.7348 153.146C88.6452 148.899 90.255 144.898 94.2263 143.612C91.5379 144.743 90.6227 147.584 91.3254 150.365L92.9597 158.43" fill="black"/>
<path d="M103.005 131.886C103.005 131.886 103.92 136.988 106.609 140.442C106.609 140.442 103.005 141.297 100.224 140.654C97.6583 140.074 103.005 131.886 103.005 131.886Z" fill="black"/>
<path d="M120.813 178.627H139.572C139.644 178.627 139.713 178.655 139.765 178.707C139.815 178.758 139.844 178.827 139.844 178.899V179.387C139.844 179.459 139.815 179.528 139.765 179.579C139.713 179.631 139.644 179.659 139.572 179.659H120.813C120.741 179.659 120.672 179.631 120.621 179.579C120.569 179.528 120.541 179.459 120.541 179.387V178.899C120.538 178.863 120.544 178.826 120.557 178.792C120.569 178.758 120.589 178.727 120.615 178.701C120.641 178.676 120.672 178.655 120.706 178.643C120.74 178.63 120.777 178.624 120.813 178.627V178.627Z" fill="#21252B"/>
<path opacity="0.6" d="M120.813 178.627H139.572C139.644 178.627 139.713 178.655 139.765 178.707C139.815 178.758 139.844 178.827 139.844 178.899V179.387C139.844 179.459 139.815 179.528 139.765 179.579C139.713 179.631 139.644 179.659 139.572 179.659H120.813C120.741 179.659 120.672 179.631 120.621 179.579C120.569 179.528 120.541 179.459 120.541 179.387V178.899C120.538 178.863 120.544 178.826 120.557 178.792C120.569 178.758 120.589 178.727 120.615 178.701C120.641 178.676 120.672 178.655 120.706 178.643C120.74 178.63 120.777 178.624 120.813 178.627V178.627Z" fill="black"/>
<path d="M133.462 178.627H166.183C166.255 178.627 166.325 178.655 166.376 178.707C166.427 178.757 166.456 178.827 166.456 178.899V179.387C166.456 179.459 166.427 179.528 166.376 179.579C166.325 179.63 166.255 179.659 166.183 179.659H133.462C133.39 179.659 133.321 179.63 133.27 179.579C133.219 179.528 133.19 179.459 133.19 179.387V178.899C133.19 178.827 133.219 178.757 133.27 178.707C133.321 178.655 133.39 178.627 133.462 178.627Z" fill="#21252B"/>
<g opacity="0.6">
<path opacity="0.6" d="M165.753 179.415H132.452C132.392 179.415 132.362 179.305 132.362 179.075C132.36 179.03 132.361 178.985 132.365 178.941C132.369 178.898 132.375 178.859 132.384 178.827C132.393 178.795 132.403 178.771 132.415 178.757C132.427 178.742 132.439 178.739 132.452 178.745H165.753C165.815 178.745 165.845 178.855 165.845 179.075C165.845 179.165 165.835 179.25 165.818 179.313C165.8 179.376 165.777 179.413 165.753 179.415V179.415Z" fill="black"/>
</g>
<path d="M133.4 178.627H138.319C138.504 178.621 138.681 178.556 138.825 178.439C138.969 178.323 139.07 178.163 139.114 177.984L143.238 156.262C143.26 156.146 143.256 156.026 143.226 155.912C143.196 155.797 143.141 155.691 143.064 155.601C142.988 155.51 142.893 155.438 142.785 155.389C142.678 155.34 142.561 155.315 142.443 155.316H137.524C137.34 155.322 137.163 155.387 137.019 155.503C136.876 155.619 136.775 155.778 136.731 155.957L132.604 177.679C132.583 177.795 132.587 177.915 132.617 178.029C132.647 178.144 132.702 178.25 132.778 178.341C132.854 178.431 132.949 178.504 133.057 178.553C133.164 178.603 133.282 178.628 133.4 178.627V178.627Z" fill="#21252B"/>
<path opacity="0.6" d="M133.4 178.627H138.319C138.504 178.621 138.681 178.556 138.825 178.439C138.969 178.323 139.07 178.163 139.114 177.984L143.238 156.262C143.26 156.146 143.256 156.026 143.226 155.912C143.196 155.797 143.141 155.691 143.064 155.601C142.988 155.51 142.893 155.438 142.785 155.389C142.678 155.34 142.561 155.315 142.443 155.316H137.524C137.34 155.322 137.163 155.387 137.019 155.503C136.876 155.619 136.775 155.778 136.731 155.957L132.604 177.679C132.583 177.795 132.587 177.915 132.617 178.029C132.647 178.144 132.702 178.25 132.778 178.341C132.854 178.431 132.949 178.504 133.057 178.553C133.164 178.603 133.282 178.628 133.4 178.627V178.627Z" fill="black"/>
<path d="M134.102 178.627H165.753C165.938 178.621 166.115 178.556 166.259 178.44C166.403 178.323 166.504 178.163 166.548 177.984L170.672 156.262C170.694 156.145 170.691 156.026 170.661 155.911C170.631 155.797 170.576 155.69 170.5 155.6C170.423 155.509 170.328 155.437 170.22 155.388C170.112 155.339 169.995 155.314 169.877 155.317H138.226C138.042 155.322 137.865 155.388 137.722 155.503C137.579 155.619 137.478 155.778 137.434 155.957L133.348 177.679C133.32 177.792 133.319 177.911 133.344 178.025C133.369 178.14 133.42 178.246 133.493 178.338C133.565 178.43 133.658 178.503 133.764 178.553C133.87 178.603 133.986 178.629 134.102 178.627V178.627Z" fill="#21252B"/>
<path opacity="0.6" d="M152.158 166.375C151.976 166.803 152.188 167.192 152.616 167.192H152.679C152.434 167.482 152.13 167.716 151.787 167.879C151.445 168.043 151.072 168.132 150.693 168.14C149.745 168.107 149.331 167.345 149.745 166.427C149.965 165.955 150.309 165.552 150.741 165.262C151.173 164.971 151.677 164.804 152.197 164.779C152.44 164.773 152.678 164.848 152.875 164.991C153.072 165.134 153.217 165.338 153.286 165.571C153.046 165.6 152.816 165.688 152.619 165.829C152.422 165.969 152.264 166.157 152.158 166.375V166.375Z" fill="black"/>
<path d="M109.801 135.959L109.4 135.975C106.429 136.103 103.896 133.39 103.866 130.182L103.749 122.065C103.749 120.989 104.538 120.087 105.511 120.052L112.544 119.72C113.832 119.649 114.881 120.736 114.908 122.125L115.011 129.686C115.055 132.865 112.903 135.915 109.801 135.959Z" fill="#FC9D9D"/>
<path d="M116.136 123.241H116.471C113.906 114.719 104.71 114.778 101.014 119.117C98.7831 121.743 97.8352 126.022 97.8352 126.022C98.5679 127.61 100.586 128.863 101.226 129.964C101.499 130.451 102.082 128.16 102.479 127.855C102.542 127.823 103.024 128.313 103.364 128.648C103.409 128.699 103.467 128.736 103.531 128.755C103.596 128.773 103.665 128.773 103.73 128.754C103.794 128.735 103.852 128.697 103.896 128.646C103.94 128.595 103.968 128.532 103.977 128.466V128.466C104.12 127.397 104.078 126.312 103.855 125.257L103.64 124.312C105.688 123.639 111.86 121.226 113.233 120.771C113.571 120.651 113.876 121.168 113.965 121.506L115.393 126.75L115.831 123.949L116.136 123.241Z" fill="black"/>
<path opacity="0.15" d="M102.733 131.579L103.678 131.364L103.218 133.172L102.733 131.579Z" fill="black"/>
<path d="M113.935 121.468C108.774 120.248 109.629 127.978 104.282 126.937C99.2705 125.96 103.792 119.91 103.792 119.91L108.224 119.117L114.18 119.85L113.935 121.468Z" fill="black"/>
<path d="M103.509 131.878C103.509 131.878 100.706 132.091 100.137 129.321C99.5673 126.551 102.98 126.052 103.484 128.839L103.857 131.876L103.509 131.878Z" fill="#FC9D9D"/>
<path opacity="0.15" d="M100.998 127.842C101.114 127.745 101.25 127.676 101.397 127.638C101.543 127.6 101.696 127.594 101.845 127.621C101.991 127.656 102.127 127.723 102.244 127.817C102.36 127.911 102.455 128.03 102.52 128.166C102.711 128.498 102.819 128.872 102.836 129.255L102.855 129.544C102.855 129.767 102.496 129.816 102.468 129.571V129.253C102.449 128.944 102.367 128.642 102.226 128.367C102.181 128.28 102.118 128.202 102.043 128.138C101.967 128.075 101.879 128.028 101.785 128C101.578 127.982 101.372 128.04 101.205 128.163C101.167 128.187 101.122 128.197 101.077 128.191C101.033 128.185 100.992 128.164 100.962 128.13C100.935 128.085 100.923 128.032 100.929 127.98C100.936 127.927 100.96 127.879 100.998 127.842Z" fill="black"/>
<path d="M102.787 131.448C103.091 131.448 103.337 131.202 103.337 130.898C103.337 130.594 103.091 130.348 102.787 130.348C102.483 130.348 102.237 130.594 102.237 130.898C102.237 131.202 102.483 131.448 102.787 131.448Z" fill="#FE6D73"/>
<path opacity="0.15" d="M102.953 131.353C102.794 131.353 102.641 131.29 102.529 131.177C102.416 131.065 102.352 130.913 102.351 130.754C102.35 130.64 102.379 130.528 102.436 130.429C102.364 130.479 102.304 130.544 102.262 130.621C102.22 130.698 102.196 130.783 102.193 130.871C102.19 130.943 102.202 131.015 102.228 131.083C102.255 131.15 102.295 131.211 102.346 131.263C102.397 131.314 102.459 131.354 102.526 131.38C102.593 131.406 102.666 131.418 102.738 131.415C102.852 131.422 102.965 131.384 103.051 131.309C103.04 131.377 103.01 131.369 102.953 131.353Z" fill="black"/>
<path opacity="0.15" d="M101.264 171.142H99.8833C99.8506 171.143 99.8187 171.133 99.7926 171.113C99.7664 171.094 99.7476 171.066 99.7395 171.034C99.7313 171.002 99.734 170.969 99.7474 170.939C99.7604 170.909 99.7836 170.885 99.8125 170.87L101.063 170.186L101.264 171.142Z" fill="black"/>
<g opacity="0.5">
<path opacity="0.5" d="M98.3534 156.654L90.5522 158.025L90.6966 158.846L98.4978 157.475L98.3534 156.654Z" fill="black"/>
</g>
<g opacity="0.5">
<path opacity="0.5" d="M110.25 145.465H110.073C104.214 145.465 100.477 141.33 100.319 141.153L101.221 140.881C103.571 143.252 106.762 144.601 110.1 144.634H110.182C110.392 144.634 114.611 144.73 116.945 140.382L117.972 140.189C115.499 145.272 110.92 145.465 110.25 145.465Z" fill="black"/>
</g>
<path d="M167.562 242.426C168.199 241.723 168.631 240.859 168.812 239.928C168.819 239.885 168.812 239.841 168.789 239.804C168.767 239.767 168.733 239.738 168.692 239.724L163.767 237.962C163.707 237.94 163.642 237.93 163.578 237.934C163.514 237.938 163.451 237.954 163.393 237.983C163.336 238.012 163.284 238.052 163.243 238.101C163.201 238.151 163.17 238.208 163.152 238.269C162.879 239.152 162.226 241.045 160.926 242.391L153.444 242.366C153.377 242.361 153.311 242.37 153.248 242.392C153.185 242.414 153.127 242.449 153.078 242.494C153.029 242.539 152.99 242.595 152.963 242.656C152.937 242.717 152.923 242.783 152.923 242.849C152.923 242.916 152.937 242.982 152.963 243.043C152.99 243.104 153.029 243.159 153.078 243.205C153.127 243.25 153.185 243.285 153.248 243.307C153.311 243.329 153.377 243.338 153.444 243.333L171.95 243.36C172.077 243.359 172.2 243.307 172.29 243.216C172.38 243.126 172.431 243.003 172.432 242.875V242.426H167.562Z" fill="#21252B"/>
<path d="M190.953 242.426C191.591 241.723 192.023 240.859 192.204 239.928C192.211 239.885 192.203 239.841 192.181 239.804C192.159 239.767 192.125 239.738 192.084 239.724L187.156 237.962C187.096 237.94 187.031 237.93 186.967 237.934C186.903 237.938 186.84 237.954 186.782 237.983C186.725 238.012 186.674 238.052 186.632 238.101C186.591 238.151 186.559 238.208 186.541 238.269C186.269 239.152 185.615 241.045 184.316 242.391L176.833 242.366C176.767 242.361 176.7 242.37 176.637 242.392C176.574 242.414 176.516 242.449 176.467 242.494C176.418 242.539 176.379 242.595 176.353 242.656C176.326 242.717 176.312 242.783 176.312 242.849C176.312 242.916 176.326 242.982 176.353 243.043C176.379 243.104 176.418 243.159 176.467 243.205C176.516 243.25 176.574 243.285 176.637 243.307C176.7 243.329 176.767 243.338 176.833 243.333L195.339 243.36C195.466 243.359 195.589 243.307 195.679 243.216C195.769 243.126 195.82 243.003 195.821 242.875V242.426H190.953Z" fill="#21252B"/>
<path opacity="0.2" d="M109.335 131.976H109.357C109.492 131.936 109.631 131.908 109.771 131.892L109.91 131.873C110.999 131.753 111.446 132.369 111.585 132.641V132.666C111.594 132.709 111.593 132.755 111.581 132.799C111.568 132.842 111.545 132.881 111.514 132.913L111.492 132.933H111.465H111.4C111.365 132.933 111.332 132.926 111.3 132.912C111.269 132.899 111.24 132.879 111.217 132.854L111.201 132.832C111.076 132.581 110.656 132.039 109.515 132.361C109.489 132.372 109.461 132.379 109.433 132.38C109.404 132.381 109.376 132.376 109.349 132.366C109.323 132.356 109.298 132.34 109.278 132.321C109.257 132.301 109.24 132.278 109.229 132.252C109.208 132.201 109.207 132.144 109.226 132.092C109.246 132.041 109.285 132 109.335 131.976Z" fill="black"/>
<path d="M109.559 128.689C109.442 128.689 109.328 128.654 109.232 128.59C109.135 128.525 109.06 128.433 109.015 128.326C108.97 128.218 108.959 128.1 108.982 127.986C109.004 127.872 109.06 127.767 109.143 127.684C109.225 127.602 109.33 127.546 109.444 127.523C109.558 127.501 109.676 127.513 109.784 127.557C109.891 127.602 109.983 127.677 110.048 127.774C110.112 127.87 110.147 127.984 110.147 128.101C110.149 128.178 110.135 128.256 110.106 128.328C110.077 128.4 110.034 128.466 109.979 128.521C109.924 128.576 109.858 128.619 109.786 128.648C109.714 128.677 109.636 128.691 109.559 128.689V128.689Z" fill="black"/>
<path d="M109.801 128.302C109.773 128.302 109.747 128.294 109.724 128.279C109.701 128.264 109.683 128.242 109.672 128.217C109.662 128.191 109.659 128.163 109.665 128.136C109.67 128.109 109.683 128.084 109.703 128.065C109.722 128.046 109.747 128.032 109.774 128.027C109.801 128.022 109.829 128.025 109.854 128.035C109.88 128.045 109.901 128.063 109.916 128.086C109.932 128.109 109.94 128.136 109.94 128.163C109.941 128.182 109.938 128.2 109.932 128.218C109.925 128.235 109.915 128.251 109.902 128.264C109.888 128.277 109.873 128.288 109.855 128.294C109.838 128.301 109.819 128.303 109.801 128.302V128.302Z" fill="white"/>
<path d="M113.639 128.689C113.522 128.689 113.409 128.654 113.312 128.59C113.215 128.525 113.14 128.433 113.095 128.326C113.051 128.218 113.039 128.1 113.062 127.986C113.084 127.872 113.14 127.767 113.222 127.684C113.305 127.602 113.41 127.546 113.524 127.523C113.638 127.501 113.756 127.513 113.864 127.557C113.971 127.602 114.063 127.677 114.128 127.774C114.192 127.87 114.227 127.984 114.227 128.101C114.229 128.178 114.215 128.256 114.186 128.328C114.157 128.4 114.114 128.466 114.059 128.521C114.004 128.576 113.938 128.619 113.866 128.648C113.794 128.677 113.716 128.691 113.639 128.689V128.689Z" fill="black"/>
<path d="M113.886 128.302C113.859 128.302 113.832 128.294 113.809 128.279C113.787 128.264 113.769 128.242 113.758 128.217C113.748 128.191 113.745 128.163 113.75 128.136C113.756 128.109 113.769 128.084 113.788 128.065C113.808 128.046 113.833 128.032 113.86 128.027C113.886 128.022 113.914 128.025 113.94 128.035C113.965 128.045 113.987 128.063 114.002 128.086C114.017 128.109 114.025 128.136 114.025 128.163C114.026 128.182 114.023 128.2 114.016 128.217C114.01 128.235 114 128.25 113.986 128.263C113.973 128.276 113.958 128.287 113.941 128.293C113.924 128.3 113.905 128.303 113.886 128.302V128.302Z" fill="white"/>
<path opacity="0.2" d="M112.173 130.233C112.149 130.046 112.055 129.875 111.909 129.755C111.763 129.635 111.577 129.575 111.389 129.588C111.304 129.588 111.25 129.672 111.25 129.784C111.25 129.895 111.332 129.923 111.446 129.923C111.543 129.916 111.638 129.947 111.712 130.01C111.785 130.074 111.831 130.164 111.838 130.26C111.845 130.357 111.814 130.453 111.751 130.526C111.687 130.6 111.597 130.645 111.501 130.653L110.716 130.71C110.632 130.71 110.577 130.791 110.577 130.906C110.577 131.02 110.662 131.045 110.773 131.045L111.558 130.988C111.65 130.983 111.739 130.96 111.821 130.918C111.903 130.877 111.976 130.819 112.034 130.748C112.092 130.677 112.134 130.594 112.158 130.505C112.182 130.417 112.187 130.324 112.173 130.233V130.233Z" fill="black"/>
<path d="M110.327 125.769C110.28 125.881 109.755 125.851 109.144 125.93C108.534 126.009 108.055 126.161 107.96 126.066C107.921 126.02 108.003 125.914 108.197 125.794C108.468 125.647 108.764 125.555 109.071 125.521C109.382 125.48 109.697 125.497 110.002 125.57C110.228 125.636 110.346 125.717 110.327 125.769Z" fill="black"/>
<path d="M112.631 125.769C112.677 125.881 113.203 125.851 113.813 125.93C114.423 126.009 114.903 126.161 114.998 126.066C115.036 126.02 114.954 125.914 114.758 125.794C114.488 125.647 114.192 125.555 113.887 125.521C113.576 125.48 113.26 125.497 112.955 125.57C112.729 125.636 112.612 125.717 112.631 125.769Z" fill="black"/>
<path d="M289.576 50.1511H198.545C197.821 50.1511 197.234 50.7378 197.234 51.4613V191.006C197.234 191.73 197.821 192.317 198.545 192.317H289.576C290.301 192.317 290.886 191.73 290.886 191.006V51.4613C290.886 50.7378 290.301 50.1511 289.576 50.1511Z" fill="#FE6D73"/>
<g opacity="0.6">
<path opacity="0.6" d="M289.576 50.1511H198.545C197.821 50.1511 197.234 50.7378 197.234 51.4613V191.006C197.234 191.73 197.821 192.317 198.545 192.317H289.576C290.301 192.317 290.886 191.73 290.886 191.006V51.4613C290.886 50.7378 290.301 50.1511 289.576 50.1511Z" fill="white"/>
</g>
<path d="M275.037 150.248H213.087C209.492 150.248 206.577 153.162 206.577 156.757V157.378C206.577 160.974 209.492 163.888 213.087 163.888H275.037C278.632 163.888 281.547 160.974 281.547 157.378V156.757C281.547 153.162 278.632 150.248 275.037 150.248Z" fill="white"/>
<path d="M290.323 58.3064H197.798V119.488H290.323V58.3064Z" fill="white"/>
<path d="M227.003 83.2015L227.161 82.8501L227.37 83.1715C227.54 83.4286 227.779 83.6326 228.06 83.7598L228.411 83.9151L228.09 84.1276C227.831 84.2962 227.627 84.5353 227.501 84.8167L227.346 85.1653L227.133 84.8439C226.965 84.5865 226.725 84.3833 226.444 84.2583L226.096 84.1003L226.417 83.8906C226.674 83.7212 226.877 83.4823 227.003 83.2015V83.2015Z" fill="#FE6D73"/>
<path d="M216.47 80.5649L216.56 80.3606L216.682 80.5485C216.78 80.6981 216.919 80.8163 217.083 80.889L217.287 80.9789L217.099 81.1015C216.949 81.1998 216.831 81.3387 216.759 81.5019L216.669 81.7061L216.546 81.5182C216.448 81.3689 216.309 81.2507 216.146 81.1777L215.941 81.0878L216.129 80.9653C216.279 80.8672 216.397 80.7283 216.47 80.5649Z" fill="#FE6D73"/>
<path d="M262.39 102.769L262.483 102.565L262.603 102.75C262.701 102.9 262.84 103.018 263.003 103.091L263.207 103.183L263.022 103.306C262.872 103.404 262.752 103.543 262.679 103.706L262.589 103.91L262.466 103.723C262.368 103.573 262.23 103.455 262.066 103.382L261.862 103.289L262.05 103.167C262.2 103.07 262.317 102.932 262.39 102.769V102.769Z" fill="#FE6D73"/>
<path d="M278.629 93.5518L278.787 93.2004L278.997 93.5218C279.166 93.7801 279.406 93.9843 279.686 94.1102L280.038 94.2654L279.716 94.4779C279.46 94.6476 279.256 94.8865 279.128 95.167L278.973 95.5184L278.76 95.197C278.594 94.9382 278.354 94.7339 278.074 94.6086L277.722 94.4507L278.044 94.2409C278.3 94.0715 278.504 93.8326 278.629 93.5518Z" fill="#FE6D73"/>
<path d="M276.516 80.6684L276.788 80.0801L277.142 80.6248C277.426 81.0568 277.829 81.3987 278.3 81.6108L278.891 81.8832L278.346 82.2373C277.913 82.52 277.57 82.9221 277.36 83.3949L277.088 83.9833L276.734 83.4385C276.451 83.0057 276.047 82.6633 275.576 82.4525L274.985 82.1801L275.53 81.826C275.963 81.5417 276.303 81.1402 276.516 80.6684V80.6684Z" fill="#FE6D73"/>
<path d="M223.729 72.4426L224.001 71.8516L224.355 72.3963C224.639 72.8291 225.041 73.1723 225.513 73.3851L226.104 73.6574L225.559 74.0115C225.127 74.2959 224.785 74.6976 224.573 75.1691L224.301 75.7602L223.947 75.2154C223.663 74.7818 223.262 74.4386 222.789 74.2267L222.201 73.9543L222.745 73.6002C223.176 73.3153 223.517 72.9138 223.729 72.4426Z" fill="#FE6D73"/>
<path d="M275.037 167.018H213.087C209.492 167.018 206.577 169.933 206.577 173.528V174.149C206.577 177.744 209.492 180.659 213.087 180.659H275.037C278.632 180.659 281.547 177.744 281.547 174.149V173.528C281.547 169.933 278.632 167.018 275.037 167.018Z" fill="#FE6D73"/>
<path d="M198.626 50.1511H289.625C289.974 50.1511 290.306 50.2892 290.551 50.5349C290.797 50.7806 290.935 51.1137 290.935 51.4613V57.4699H197.316V51.4585C197.317 51.1115 197.455 50.779 197.701 50.5338C197.946 50.2889 198.279 50.1511 198.626 50.1511V50.1511Z" fill="#FE6D73"/>
<path d="M202.352 53.6703C202.353 53.8964 202.286 54.1173 202.161 54.3052C202.036 54.4931 201.858 54.64 201.65 54.7268C201.441 54.8135 201.212 54.8366 200.99 54.7928C200.768 54.7492 200.565 54.6405 200.405 54.4812C200.245 54.3215 200.136 54.1183 200.092 53.8966C200.048 53.6752 200.07 53.4456 200.156 53.2369C200.243 53.0283 200.389 52.8499 200.577 52.7243C200.765 52.5987 200.985 52.5317 201.211 52.5317C201.513 52.5326 201.803 52.6527 202.016 52.8659C202.23 53.0792 202.351 53.3685 202.352 53.6703V53.6703Z" fill="white"/>
<path d="M205.626 53.6703C205.627 53.8964 205.56 54.1173 205.435 54.3055C205.31 54.4937 205.132 54.6402 204.923 54.7271C204.714 54.8137 204.485 54.8366 204.263 54.7925C204.041 54.7486 203.838 54.64 203.678 54.4801C203.518 54.3205 203.41 54.1167 203.366 53.895C203.322 53.6736 203.344 53.4437 203.431 53.235C203.518 53.0264 203.665 52.8482 203.853 52.723C204.041 52.5979 204.262 52.5312 204.488 52.5317C204.789 52.5326 205.079 52.6527 205.292 52.8662C205.505 53.0795 205.626 53.3688 205.626 53.6703V53.6703Z" fill="white"/>
<path d="M208.9 53.6703C208.901 53.8964 208.834 54.1173 208.709 54.3055C208.584 54.4937 208.406 54.6402 208.197 54.7271C207.988 54.8137 207.759 54.8366 207.537 54.7925C207.315 54.7486 207.112 54.64 206.952 54.4801C206.792 54.3205 206.684 54.1167 206.64 53.895C206.596 53.6736 206.619 53.4437 206.705 53.235C206.792 53.0264 206.939 52.8482 207.127 52.723C207.315 52.5979 207.536 52.5312 207.762 52.5317C208.064 52.5326 208.353 52.6527 208.566 52.8662C208.779 53.0795 208.9 53.3688 208.9 53.6703V53.6703Z" fill="white"/>
<path d="M271.948 131.451H216.173C215.961 131.451 215.789 131.623 215.789 131.835V132.897C215.789 133.109 215.961 133.281 216.173 133.281H271.948C272.16 133.281 272.332 133.109 272.332 132.897V131.835C272.332 131.623 272.16 131.451 271.948 131.451Z" fill="#FE6D73"/>
<path d="M279.904 137.593H208.217C208.156 137.593 208.098 137.569 208.055 137.526C208.012 137.483 207.988 137.425 207.988 137.364C207.988 137.304 208.012 137.245 208.055 137.203C208.098 137.159 208.156 137.135 208.217 137.135H279.904C279.934 137.135 279.964 137.141 279.991 137.153C280.019 137.164 280.046 137.181 280.065 137.203C280.087 137.224 280.103 137.249 280.117 137.277C280.128 137.304 280.133 137.334 280.133 137.364C280.133 137.394 280.128 137.424 280.117 137.452C280.103 137.48 280.087 137.505 280.065 137.526C280.046 137.547 280.019 137.564 279.991 137.576C279.964 137.587 279.934 137.593 279.904 137.593V137.593Z" fill="#FE6D73"/>
<path d="M263.218 141.254H224.903C224.842 141.254 224.784 141.23 224.741 141.187C224.698 141.144 224.674 141.086 224.674 141.025C224.674 140.964 224.698 140.906 224.741 140.863C224.784 140.82 224.842 140.796 224.903 140.796H263.218C263.278 140.796 263.338 140.82 263.379 140.863C263.422 140.906 263.447 140.964 263.447 141.025C263.447 141.086 263.422 141.144 263.379 141.187C263.338 141.23 263.278 141.254 263.218 141.254Z" fill="#FE6D73"/>
<path fill-rule="evenodd" clip-rule="evenodd" d="M212.76 159.928H221.204V154.208H212.76V159.928ZM220.931 159.656H213.032V154.48H220.931V159.656Z" fill="#3F4249"/>
<path d="M216.982 157.787L212.812 154.45L212.98 154.238L216.982 157.438L220.983 154.238L221.152 154.45L216.982 157.787Z" fill="#3F4249"/>
<path d="M215.92 156.727L212.8 159.679L212.987 159.877L216.107 156.925L215.92 156.727Z" fill="#3F4249"/>
<path d="M218.161 156.731L217.974 156.928L221.093 159.881L221.281 159.684L218.161 156.731Z" fill="#3F4249"/>
<path d="M259.419 94.9466C266.127 94.9466 271.567 89.5077 271.567 82.7985C271.567 76.0893 266.127 70.6504 259.419 70.6504C252.71 70.6504 247.271 76.0893 247.271 82.7985C247.271 89.5077 252.71 94.9466 259.419 94.9466Z" fill="#FE6D73"/>
<path opacity="0.8" d="M259.419 94.9466C266.127 94.9466 271.567 89.5077 271.567 82.7985C271.567 76.0893 266.127 70.6504 259.419 70.6504C252.71 70.6504 247.271 76.0893 247.271 82.7985C247.271 89.5077 252.71 94.9466 259.419 94.9466Z" fill="white"/>
<path opacity="0.2" d="M227.128 108.62C231.712 108.62 235.427 104.904 235.427 100.321C235.427 95.737 231.712 92.0212 227.128 92.0212C222.544 92.0212 218.829 95.737 218.829 100.321C218.829 104.904 222.544 108.62 227.128 108.62Z" fill="black"/>
<path d="M252.86 80.5322V89.2483H250.408V80.5322C250.408 77.2201 247.892 74.5262 244.797 74.5262C241.703 74.5262 239.181 77.2092 239.181 80.5322V89.2483H236.729V80.5322C236.729 75.7873 240.352 71.9277 244.806 71.9277C249.259 71.9277 252.86 75.7873 252.86 80.5322Z" fill="#B2B6BB"/>
<path opacity="0.2" d="M252.86 80.5322V89.2483H250.408V80.5322C250.408 77.2201 247.892 74.5262 244.797 74.5262C241.703 74.5262 239.181 77.2092 239.181 80.5322V89.2483H236.729V80.5322C236.729 75.7873 240.352 71.9277 244.806 71.9277C249.259 71.9277 252.86 75.7873 252.86 80.5322Z" fill="black"/>
<path d="M252.01 80.5322V89.2483H249.558V80.5322C249.558 77.2201 247.042 74.5262 243.947 74.5262C240.853 74.5262 238.334 77.2201 238.334 80.5322V89.2483H235.882V80.5322C235.882 75.7873 239.505 71.9277 243.958 71.9277C248.412 71.9277 252.01 75.7873 252.01 80.5322Z" fill="#B2B6BB"/>
<path d="M255.164 84.2856H232.704V104.662H255.164V84.2856Z" fill="#FE6D73"/>
<path opacity="0.2" d="M255.167 84.2856H252.59V104.662H255.167V84.2856Z" fill="black"/>
<path d="M243.503 98.4332L244.225 101.846H241.169L241.888 98.4332C241.605 98.2575 241.387 97.9947 241.267 97.6841C241.147 97.3739 241.134 97.0329 241.224 96.7128C241.316 96.3928 241.507 96.1112 241.774 95.9107C242.041 95.7102 242.362 95.6018 242.697 95.6018C243.029 95.6018 243.354 95.7102 243.618 95.9107C243.885 96.1112 244.075 96.3928 244.168 96.7128C244.258 97.0329 244.244 97.3739 244.124 97.6841C244.005 97.9947 243.787 98.2575 243.503 98.4332V98.4332Z" fill="#263238"/>
<path d="M310.402 225.928C308.569 199.597 306.537 197.857 306.453 197.797L306.581 197.557C306.671 197.598 308.795 198.9 310.667 225.909L310.402 225.928Z" fill="#3F4249"/>
<path d="M312.304 225.928L312.031 225.912C313.238 206.676 311.925 196.184 311.911 196.081L312.184 196.045C312.184 196.152 313.513 206.668 312.306 225.928" fill="#3F4249"/>
<path d="M313.957 226.511C312.492 214.526 316.223 205.377 316.261 205.284L316.512 205.391C316.474 205.481 312.772 214.556 314.227 226.478L313.957 226.511Z" fill="#3F4249"/>
<path d="M315.485 227.974C314.872 223.693 314.905 219.345 315.583 215.074L315.855 215.123C315.185 219.362 315.153 223.677 315.76 227.925L315.485 227.974Z" fill="#3F4249"/>
<path d="M316.308 205.5L317.49 205.402C318.331 205.332 319.146 205.082 319.881 204.669C320.238 204.459 320.611 204.273 320.993 204.111C322.455 203.522 324.089 203.628 325.664 203.549C328.241 203.416 330.765 202.767 333.089 201.643C333.225 201.583 333.339 201.48 333.413 201.351C333.655 200.907 333.206 200.512 332.816 200.275C330.823 199.047 328.793 197.802 326.535 197.192C324.277 196.582 321.709 196.685 319.78 198.009C317.514 199.567 316.689 202.768 316.308 205.492" fill="#FE6D73"/>
<g opacity="0.3">
<path opacity="0.3" d="M333.44 201.212C333.37 201.188 333.301 201.157 333.239 201.12L332.678 200.825C332.193 200.569 331.493 200.194 330.608 199.769C329.578 199.263 328.505 198.849 327.402 198.532C326.051 198.147 324.64 198.033 323.245 198.197C321.848 198.354 320.532 198.923 319.459 199.831C318.62 200.611 317.947 201.554 317.484 202.601C317.07 203.489 316.814 204.236 316.626 204.759C316.539 205.007 316.471 205.205 316.417 205.355C316.395 205.427 316.368 205.496 316.335 205.562C316.343 205.489 316.362 205.416 316.387 205.347C316.433 205.192 316.493 204.99 316.569 204.74C316.798 203.998 317.07 203.27 317.386 202.561C317.844 201.49 318.517 200.526 319.364 199.728C320.456 198.796 321.802 198.214 323.229 198.055C324.643 197.888 326.075 198.007 327.443 198.407C328.551 198.732 329.63 199.159 330.659 199.682C331.542 200.12 332.234 200.515 332.71 200.787L333.255 201.106C333.321 201.141 333.38 201.181 333.44 201.226" fill="black"/>
</g>
<g opacity="0.3">
<path opacity="0.3" d="M330.599 202.74C330.575 202.776 329.028 201.774 327.143 200.504C325.258 199.235 323.752 198.175 323.776 198.137C323.801 198.099 325.345 199.104 327.23 200.374C329.115 201.643 330.624 202.705 330.599 202.74Z" fill="black"/>
</g>
<g opacity="0.3">
<path opacity="0.3" d="M328.949 198.099C328.586 198.563 328.205 198.816 327.821 198.849C327.44 199.042 327.053 199.021 326.672 198.789C327.048 198.548 327.426 198.408 327.807 198.369C328.186 198.176 328.567 198.085 328.949 198.099" fill="black"/>
</g>
<g opacity="0.3">
<path opacity="0.3" d="M322.175 197.173C322.049 197.463 321.878 197.732 321.668 197.968C321.488 198.24 321.273 198.486 321.025 198.698C321.15 198.408 321.319 198.14 321.532 197.906C321.712 197.632 321.927 197.385 322.175 197.173" fill="black"/>
</g>
<g opacity="0.3">
<path opacity="0.3" d="M323.561 203.65C323.3 203.543 323.049 203.408 322.818 203.247C322.371 202.974 321.766 202.58 321.121 202.111C320.475 201.643 319.906 201.199 319.486 200.875C319.255 200.713 319.04 200.531 318.844 200.33C319.094 200.462 319.331 200.617 319.552 200.793L321.202 201.991C321.845 202.457 322.436 202.868 322.867 203.162C323.106 203.309 323.335 203.474 323.55 203.658" fill="black"/>
</g>
<path d="M319.516 243.088H307.804L305.625 227.018H321.695L319.516 243.088Z" fill="#61656D"/>
<path d="M323.057 229.469H304.263L303.991 225.928H323.33L323.057 229.469Z" fill="#61656D"/>
<g opacity="0.2">
<path opacity="0.2" d="M305.957 229.469H321.363L319.516 243.088L317.667 242.963L318.699 230.559L306.077 230.346L305.957 229.469Z" fill="black"/>
</g>
<g opacity="0.2">
<path opacity="0.2" d="M319.034 225.952L318.489 229.469H323.057L323.329 225.928L319.034 225.952Z" fill="black"/>
</g>
<g opacity="0.2">
<path opacity="0.2" d="M320.608 233.514H306.674V234.514H320.608V233.514Z" fill="white"/>
</g>
<g opacity="0.2">
<path opacity="0.2" d="M320.608 234.603H306.674V235.603H320.608V234.603Z" fill="white"/>
</g>
<path d="M306.774 197.682C305.647 196.827 304.454 196.661 303.04 196.715C301.624 196.811 300.24 197.168 298.954 197.77C296.745 198.739 294.667 200.164 293.346 202.185C292.025 204.206 291.565 206.878 292.553 209.079C292.63 209.31 292.79 209.504 293.003 209.623C293.248 209.694 293.509 209.674 293.741 209.569C296.255 208.752 298.788 207.935 301.095 206.635C303.402 205.336 305.51 203.566 306.753 201.231C307.071 200.68 307.273 200.069 307.346 199.436C307.382 199.121 307.346 198.801 307.248 198.499C307.15 198.197 306.987 197.919 306.772 197.685" fill="#FE6D73"/>
<g opacity="0.3">
<path opacity="0.3" d="M306.796 197.418C306.739 197.448 306.676 197.473 306.614 197.492L306.088 197.672L305.707 197.8C305.568 197.849 305.434 197.911 305.26 197.974C304.944 198.102 304.573 198.23 304.184 198.421L303.568 198.693C303.356 198.791 303.141 198.911 302.915 199.028C302.46 199.251 301.999 199.537 301.506 199.826C300.461 200.486 299.466 201.224 298.532 202.035C297.609 202.858 296.748 203.752 295.961 204.707C295.612 205.156 295.269 205.576 294.988 206.001C294.847 206.211 294.7 206.407 294.574 206.606C294.449 206.804 294.332 206.998 294.218 207.18C293.981 207.543 293.806 207.891 293.637 208.191C293.556 208.343 293.477 208.48 293.409 208.61L293.234 208.973C293.134 209.18 293.052 209.343 292.986 209.474C292.962 209.533 292.929 209.59 292.891 209.643C292.907 209.579 292.929 209.518 292.959 209.46C293.016 209.327 293.087 209.158 293.18 208.948L293.341 208.578C293.406 208.444 293.482 208.305 293.561 208.15C293.722 207.848 293.891 207.491 294.122 207.123L294.471 206.54C294.596 206.339 294.743 206.14 294.882 205.927C295.155 205.497 295.501 205.069 295.849 204.614C297.413 202.669 299.3 201.01 301.433 199.712C301.929 199.423 302.394 199.14 302.855 198.919C303.084 198.807 303.301 198.687 303.517 198.589L304.14 198.317C304.535 198.135 304.908 198.012 305.23 197.892C305.393 197.832 305.543 197.775 305.682 197.729L306.069 197.614L306.614 197.462C306.676 197.441 306.739 197.426 306.804 197.418" fill="black"/>
</g>
<g opacity="0.3">
<path opacity="0.3" d="M297.988 202.187C296.176 202.826 294.332 203.365 292.461 203.803C293.357 203.46 294.272 203.165 295.201 202.92C296.729 202.473 297.977 202.144 297.988 202.187" fill="black"/>
</g>
<g opacity="0.3">
<path opacity="0.3" d="M298.094 208.237C297.914 207.956 297.844 207.67 297.874 207.385C297.874 206.856 297.814 206.126 297.874 205.32C297.934 204.514 298.114 203.784 298.274 203.258C298.304 202.972 298.434 202.687 298.674 202.408C298.764 202.693 298.764 202.979 298.674 203.263C298.604 203.844 298.524 204.546 298.444 205.323C298.364 206.099 298.304 206.804 298.254 207.385C298.274 207.67 298.214 207.955 298.064 208.237" fill="black"/>
</g>
<g opacity="0.3">
<path opacity="0.3" d="M303.56 205.598C303.47 205.598 303.189 204.116 302.925 202.283C302.661 200.45 302.526 198.962 302.616 198.96C302.706 198.957 302.987 200.439 303.251 202.272C303.515 204.105 303.65 205.595 303.56 205.598Z" fill="black"/>
</g>
<g opacity="0.3">
<path opacity="0.3" d="M296.606 198.916C296.898 198.787 297.192 198.753 297.486 198.816C298.031 198.816 298.777 198.886 299.603 198.986C300.428 199.086 301.177 199.216 301.716 199.326C302.01 199.334 302.305 199.437 302.593 199.636C302.302 199.771 302.008 199.804 301.714 199.736C301.169 199.736 300.422 199.666 299.597 199.566C298.772 199.466 298.023 199.346 297.481 199.226C297.187 199.218 296.895 199.115 296.606 198.916" fill="black"/>
</g>
<path d="M304.508 191.954L303.054 194.588C303.021 194.648 302.975 194.716 302.907 194.724C302.838 194.732 302.773 194.656 302.729 194.594L298.889 188.697L299.774 188.193L304.508 191.954Z" fill="#FE6D73"/>
<g opacity="0.2">
<path opacity="0.2" d="M304.508 191.954L303.054 194.588C303.021 194.648 302.975 194.716 302.907 194.724C302.838 194.732 302.773 194.656 302.729 194.594L298.889 188.697L299.774 188.193L304.508 191.954Z" fill="black"/>
</g>
<path d="M312.304 196.699L299.194 188.963C299.05 188.901 298.938 188.786 298.875 188.642C298.824 188.449 298.968 188.261 299.11 188.116C300.011 187.181 301.104 186.451 302.31 185.976C303.52 185.501 304.816 185.293 306.113 185.365C307.409 185.457 308.665 185.864 309.771 186.55C310.874 187.236 311.794 188.181 312.451 189.304C313.717 191.562 313.758 194.553 312.309 196.699" fill="#FE6D73"/>
<g opacity="0.3">
<path opacity="0.3" d="M301.084 186.496C301.139 186.479 301.199 186.472 301.256 186.474C301.368 186.474 301.528 186.447 301.752 186.449C302.359 186.44 302.969 186.489 303.569 186.594C305.568 186.93 307.428 187.831 308.932 189.192C310.435 190.552 311.519 192.314 312.053 194.269C312.217 194.857 312.326 195.459 312.377 196.067C312.391 196.193 312.399 196.321 312.399 196.448C312.388 196.55 312.353 196.648 312.298 196.734C312.336 196.516 312.345 196.293 312.317 196.073C312.056 193.776 311.062 191.626 309.482 189.938C307.902 188.251 305.824 187.116 303.55 186.703C302.956 186.59 302.354 186.525 301.752 186.509C301.321 186.509 301.084 186.509 301.084 186.509" fill="black"/>
</g>
<g opacity="0.3">
<path opacity="0.3" d="M310.528 191.36C310.318 191.485 310.097 191.586 309.866 191.66C309.449 191.826 308.863 192.036 308.212 192.243C307.561 192.45 306.959 192.616 306.524 192.722C306.292 192.794 306.052 192.84 305.81 192.859C306.028 192.754 306.259 192.672 306.494 192.613L308.163 192.093L309.828 191.548C310.054 191.458 310.288 191.392 310.528 191.352" fill="black"/>
</g>
<g opacity="0.3">
<path opacity="0.3" d="M308.635 185.814C309.065 186.293 309.255 186.785 309.205 187.277C309.345 187.768 309.245 188.262 308.915 188.746C308.745 188.746 308.705 188.089 308.635 187.28C308.495 186.792 308.495 186.302 308.635 185.814Z" fill="black"/>
</g>
<g opacity="0.3">
<path opacity="0.3" d="M299.08 188.816C299.387 188.679 299.706 188.567 300.033 188.481C300.627 188.299 301.457 188.065 302.381 187.844C303.304 187.623 304.151 187.449 304.764 187.343C305.094 187.268 305.426 187.222 305.764 187.207C305.445 187.312 305.118 187.393 304.786 187.452C304.179 187.585 303.342 187.773 302.419 187.996C301.496 188.22 300.665 188.432 300.063 188.588C299.741 188.689 299.412 188.765 299.08 188.816Z" fill="black"/>
</g>
<path d="M317.778 211.345C316.648 211.048 315.302 212.146 315.071 213.29C314.839 214.434 315.267 215.602 315.768 216.656C316.882 218.988 318.416 221.15 320.437 222.76C322.458 224.37 324.988 225.402 327.57 225.389C327.094 223.171 327.698 220.856 327.432 218.606C327.197 216.623 326.298 214.778 324.879 213.373C323.46 211.967 321.605 211.085 319.62 210.871C318.898 210.792 318.064 210.68 317.778 211.345Z" fill="#FE6D73"/>
<g opacity="0.3">
<path opacity="0.3" d="M327.571 225.383C327.513 225.364 327.462 225.339 327.41 225.307C327.263 225.228 327.121 225.137 326.988 225.035C326.514 224.624 326.135 224.115 325.874 223.545C325.694 223.196 325.492 222.817 325.296 222.395C325.1 221.973 324.904 221.526 324.689 221.055C324.471 220.562 324.223 220.083 323.945 219.62C323.637 219.13 323.294 218.664 322.918 218.225C322.145 217.315 321.317 216.531 320.598 215.774C319.947 215.118 319.356 214.407 318.827 213.649C318.473 213.136 318.184 212.582 317.964 211.998C317.904 211.841 317.855 211.68 317.814 211.516C317.795 211.46 317.784 211.401 317.779 211.342C317.779 211.342 317.855 211.574 318.021 211.977C318.261 212.544 318.563 213.084 318.92 213.586C319.456 214.329 320.05 215.027 320.701 215.673C321.423 216.414 322.256 217.198 323.038 218.124C323.422 218.569 323.768 219.044 324.076 219.543C324.357 220.012 324.604 220.498 324.822 220.998C325.029 221.472 325.228 221.92 325.416 222.343C325.604 222.763 325.8 223.161 325.974 223.496C326.22 224.061 326.579 224.57 327.029 224.991C327.358 225.263 327.573 225.38 327.573 225.397" fill="black"/>
</g>
<g opacity="0.3">
<path opacity="0.3" d="M321.736 223.547C321.739 223.291 321.774 223.036 321.84 222.788C321.927 222.322 322.074 221.684 322.267 220.99C322.461 220.295 322.673 219.674 322.842 219.23C322.918 218.986 323.022 218.751 323.15 218.53C323.106 218.782 323.038 219.03 322.945 219.268C322.807 219.718 322.616 220.339 322.42 221.031C322.224 221.723 322.063 222.354 321.949 222.812C321.9 223.063 321.829 223.309 321.736 223.547" fill="black"/>
</g>
<g opacity="0.3">
<path opacity="0.3" d="M327.358 218.108C327.088 218.07 326.821 218.009 326.563 217.926C326.075 217.797 325.405 217.623 324.656 217.454C323.907 217.285 323.226 217.157 322.733 217.062C322.463 217.027 322.197 216.969 321.938 216.888C322.213 216.879 322.485 216.901 322.755 216.953C323.256 217.018 323.945 217.133 324.694 217.302C325.443 217.471 326.116 217.664 326.601 217.819C326.865 217.887 327.124 217.984 327.366 218.108" fill="black"/>
</g>
<g opacity="0.3">
<path opacity="0.3" d="M317.55 219.688C317.56 219.392 317.601 219.097 317.669 218.808C317.77 218.263 317.928 217.528 318.138 216.719C318.348 215.91 318.574 215.188 318.751 214.668C318.832 214.386 318.939 214.112 319.075 213.851C319.023 214.143 318.952 214.431 318.857 214.712C318.707 215.237 318.5 215.962 318.29 216.768C318.081 217.574 317.898 218.302 317.778 218.846C317.727 219.137 317.65 219.423 317.55 219.702" fill="black"/>
</g>
<g opacity="0.3">
<path opacity="0.3" d="M324.768 213.689C324.768 213.749 323.354 213.58 321.622 213.31C320.573 213.186 319.527 212.983 318.492 212.701C319.544 212.749 320.595 212.876 321.638 213.08C322.687 213.204 323.733 213.408 324.768 213.689" fill="black"/>
</g>
<path d="M312.214 200.186C312.118 199.159 311.081 198.382 310.035 198.371C308.989 198.361 308.041 198.979 307.409 199.796C306.777 200.613 306.431 201.61 306.145 202.602C305.451 205.023 305.056 207.567 305.366 210.067C305.677 212.568 306.679 215.03 308.474 216.798C308.765 217.07 309.144 217.373 309.544 217.285C309.76 217.22 309.953 217.1 310.108 216.937C311.865 215.329 313.26 213.363 314.194 211.172C315.131 208.981 315.586 206.615 315.531 204.233C315.501 203.282 315.379 202.294 314.85 201.509C314.322 200.725 313.096 199.875 312.2 200.194" fill="#FE6D73"/>
<g opacity="0.3">
<path opacity="0.3" d="M309.049 217.141C309.035 217.084 309.03 217.025 309.03 216.967C309.03 216.833 309.03 216.667 309.008 216.463C308.989 216.024 308.983 215.39 309.008 214.605C309.032 213.821 309.076 212.889 309.171 211.857C309.267 210.825 309.419 209.678 309.632 208.515C309.844 207.352 310.108 206.224 310.378 205.219C310.648 204.214 310.923 203.312 311.195 202.585C311.467 201.858 311.685 201.251 311.857 200.845C311.939 200.657 312.004 200.501 312.056 200.379C312.08 200.325 312.105 200.272 312.135 200.221C312.127 200.28 312.11 200.338 312.086 200.393L311.906 200.869C311.751 201.281 311.538 201.877 311.293 202.623C311.048 203.37 310.776 204.258 310.509 205.26C310.242 206.262 309.994 207.368 309.779 208.545C309.564 209.722 309.416 210.844 309.307 211.873C309.199 212.903 309.139 213.832 309.111 214.611C309.084 215.39 309.068 216.027 309.068 216.463C309.068 216.67 309.068 216.836 309.068 216.97C309.076 217.028 309.076 217.086 309.068 217.144" fill="black"/>
</g>
<g opacity="0.3">
<path opacity="0.3" d="M309.74 208.558C309.588 208.769 309.414 208.962 309.217 209.133C308.88 209.471 308.4 209.926 307.856 210.408C307.311 210.89 306.793 211.307 306.415 211.598C306.219 211.769 306.006 211.918 305.777 212.042C305.949 211.848 306.14 211.671 306.344 211.514L307.752 210.291L309.149 209.051C309.335 208.869 309.533 208.704 309.749 208.558" fill="black"/>
</g>
<g opacity="0.3">
<path opacity="0.3" d="M313.889 211.9C313.687 211.657 313.508 211.4 313.344 211.13L312.048 209.239L310.727 207.368C310.528 207.12 310.353 206.856 310.198 206.578C310.424 206.801 310.631 207.043 310.817 207.303C311.179 207.763 311.666 208.414 312.178 209.149C312.691 209.885 313.132 210.568 313.437 211.07C313.617 211.327 313.772 211.601 313.9 211.887" fill="black"/>
</g>
<g opacity="0.3">
<path opacity="0.3" d="M311.715 201.392C311.74 201.427 310.353 202.356 308.637 203.462C306.922 204.568 305.5 205.44 305.475 205.404C305.451 205.369 306.837 204.44 308.553 203.331C310.269 202.223 311.694 201.354 311.715 201.392Z" fill="black"/>
</g>
<g opacity="0.3">
<path opacity="0.3" d="M315.602 205.587C314.178 204.339 312.824 203.015 311.544 201.621C312.968 202.866 314.325 204.19 315.602 205.587Z" fill="black"/>
</g>
<path d="M137.404 70.2012H102.436V97.6651H137.404V70.2012Z" fill="white"/>
<path d="M133.887 73.8589H105.955V94.004H133.887V73.8589Z" fill="#DDDDDD"/>
<path d="M138.191 70.2065H137.393V97.646H138.191V70.2065Z" fill="#DADDDF"/>
<path d="M120.438 84.9583C121.299 84.9583 122.142 84.7028 122.859 84.2239C123.575 83.7451 124.134 83.0644 124.464 82.268C124.794 81.4718 124.88 80.5953 124.712 79.7501C124.544 78.9047 124.129 78.1281 123.519 77.5185C122.91 76.9092 122.133 76.4941 121.288 76.326C120.443 76.1577 119.566 76.2441 118.77 76.5739C117.973 76.9038 117.293 77.4624 116.814 78.179C116.335 78.8957 116.08 79.7384 116.08 80.6002C116.08 81.7562 116.539 82.8645 117.356 83.6819C118.173 84.499 119.282 84.9583 120.438 84.9583Z" fill="#FE6D73"/>
<g opacity="0.2">
<path opacity="0.2" d="M108.967 92.231L116.074 87.6795L109.038 83.1526L108.967 92.231Z" fill="black"/>
</g>
<g opacity="0.2">
<path opacity="0.2" d="M130.823 81.6057H121.396V91.0327H130.823V81.6057Z" fill="black"/>
</g>
<path d="M174.243 59.2485H148.421V94.9737H174.243V59.2485Z" fill="white"/>
<path d="M170.797 62.5552H151.87V91.667H170.797V62.5552Z" fill="#DDDDDD"/>
<path d="M175.019 59.2322H174.268V94.9574H175.019V59.2322Z" fill="#DADDDF"/>
<path d="M165.778 72.8621H156.912V86.9304H165.778V72.8621Z" fill="#B1B5BA"/>
<path d="M161.346 71.0998C162.504 71.0984 163.614 70.6397 164.436 69.8234C165.257 69.0073 165.723 67.8996 165.731 66.7417H156.982C156.982 67.8977 157.441 69.006 158.259 69.8234C159.076 70.6408 160.185 71.0998 161.34 71.0998" fill="#FE6D73"/>
<path d="M71.3955 119.714C77.9844 119.714 83.3257 114.373 83.3257 107.784C83.3257 101.195 77.9844 95.8535 71.3955 95.8535C64.8067 95.8535 59.4653 101.195 59.4653 107.784C59.4653 114.373 64.8067 119.714 71.3955 119.714Z" fill="white"/>
<path fill-rule="evenodd" clip-rule="evenodd" d="M64.6994 117.805C66.6815 119.13 69.0117 119.837 71.3956 119.837C74.5911 119.833 77.6546 118.562 79.9142 116.302C82.1739 114.043 83.4448 110.979 83.4483 107.784C83.4483 105.4 82.7415 103.07 81.4172 101.088C80.0926 99.1055 78.2102 97.5608 76.008 96.6483C73.8056 95.7362 71.3822 95.4975 69.0441 95.9625C66.7063 96.4277 64.5586 97.5755 62.8731 99.2613C61.1873 100.947 60.0395 103.094 59.5743 105.432C59.1094 107.77 59.348 110.194 60.2602 112.396C61.1726 114.598 62.7173 116.481 64.6994 117.805ZM64.834 97.9639C66.7763 96.6661 69.0596 95.9734 71.3956 95.9734C74.5268 95.9769 77.5287 97.2225 79.7429 99.4364C81.9568 101.651 83.2024 104.652 83.2059 107.784C83.2059 110.12 82.5132 112.403 81.2156 114.345C79.9177 116.287 78.0732 117.801 75.9151 118.695C73.7571 119.589 71.3825 119.823 69.0915 119.367C66.8005 118.912 64.6961 117.787 63.0444 116.135C61.3927 114.483 60.2678 112.379 59.8121 110.088C59.3564 107.797 59.5904 105.422 60.4843 103.264C61.378 101.106 62.8919 99.2616 64.834 97.9639Z" fill="#FE6D73"/>
<path fill-rule="evenodd" clip-rule="evenodd" d="M85.1688 116.736C85.5665 116.47 86.0341 116.328 86.5124 116.328C87.1536 116.329 87.7678 116.585 88.2211 117.038C88.6746 117.491 88.9298 118.106 88.9312 118.747C88.9312 119.225 88.7892 119.693 88.5237 120.091C88.2578 120.488 87.88 120.798 87.438 120.981C86.9962 121.164 86.5097 121.212 86.0407 121.119C85.5714 121.026 85.1405 120.795 84.8022 120.457C84.4639 120.119 84.2334 119.688 84.1403 119.219C84.0469 118.75 84.0948 118.263 84.2778 117.821C84.4609 117.379 84.7708 117.001 85.1688 116.736ZM85.2982 120.552C85.6583 120.789 86.081 120.915 86.5124 120.912C87.088 120.909 87.6387 120.677 88.0446 120.269C88.4501 119.861 88.6778 119.309 88.6778 118.733C88.6778 118.302 88.5498 117.88 88.3096 117.521C88.0696 117.163 87.7286 116.883 87.3296 116.719C86.9305 116.554 86.4917 116.512 86.0687 116.597C85.6457 116.682 85.2573 116.891 84.9533 117.197C84.6491 117.503 84.4426 117.893 84.3601 118.316C84.2776 118.74 84.3225 119.179 84.4897 119.577C84.6567 119.974 84.9381 120.314 85.2982 120.552Z" fill="#FE6D73"/>
<path fill-rule="evenodd" clip-rule="evenodd" d="M90.9341 120.684C91.1975 120.508 91.5072 120.414 91.824 120.414C92.2486 120.415 92.6556 120.584 92.9557 120.884C93.2559 121.184 93.4248 121.591 93.4256 122.015C93.4256 122.332 93.3316 122.642 93.1556 122.905C92.9797 123.169 92.7296 123.374 92.4368 123.495C92.1443 123.616 91.8223 123.648 91.5116 123.586C91.2008 123.524 90.9156 123.372 90.6914 123.148C90.4675 122.924 90.315 122.639 90.2532 122.328C90.1913 122.017 90.2232 121.695 90.3444 121.403C90.4656 121.11 90.6707 120.86 90.9341 120.684ZM91.0673 123.15C91.2915 123.3 91.5546 123.38 91.824 123.38C92.1852 123.38 92.5316 123.236 92.7871 122.981C93.0423 122.726 93.1859 122.379 93.1859 122.018C93.1859 121.749 93.1061 121.486 92.9563 121.261C92.8067 121.038 92.594 120.863 92.3453 120.76C92.0964 120.657 91.8226 120.63 91.5584 120.682C91.2942 120.735 91.0515 120.865 90.8611 121.055C90.6705 121.246 90.5408 121.488 90.4882 121.753C90.4357 122.017 90.4626 122.291 90.5659 122.539C90.6688 122.788 90.8434 123.001 91.0673 123.15Z" fill="#FE6D73"/>
<path d="M70.6138 111.344C70.5103 111.295 70.4226 111.218 70.361 111.122C70.2992 111.025 70.2659 110.914 70.2651 110.799V107.743C70.2654 107.649 70.2875 107.555 70.3297 107.471C70.3719 107.386 70.4332 107.312 70.5086 107.256C70.5841 107.199 70.6718 107.16 70.7647 107.142C70.8576 107.125 70.9532 107.129 71.0441 107.155C71.2955 107.22 71.5573 107.234 71.8141 107.194C72.0707 107.155 72.3167 107.064 72.5368 106.926C72.7402 106.81 72.9176 106.653 73.0581 106.466C73.1986 106.278 73.2992 106.064 73.3539 105.836C73.3942 105.605 73.3871 105.367 73.3332 105.138C73.2793 104.91 73.1799 104.694 73.0407 104.505C72.8974 104.289 72.7125 104.104 72.497 103.961C72.2813 103.818 72.0391 103.719 71.785 103.671C70.8017 103.513 69.704 104.216 69.3853 105.221C69.329 105.366 69.2192 105.484 69.0786 105.551C68.9381 105.619 68.7771 105.63 68.6287 105.583C68.4802 105.535 68.3552 105.433 68.2792 105.297C68.2032 105.161 68.182 105.002 68.2196 104.85C68.718 103.282 70.3986 102.211 71.9757 102.462C72.394 102.534 72.7936 102.691 73.1496 102.922C73.5059 103.154 73.8118 103.454 74.0485 103.807C74.2814 104.133 74.4461 104.503 74.5328 104.894C74.6194 105.286 74.6259 105.69 74.5524 106.084C74.4641 106.476 74.2963 106.846 74.0594 107.17C73.8221 107.494 73.5209 107.766 73.1741 107.969C72.6689 108.28 72.0868 108.443 71.4936 108.44V110.791C71.4936 110.871 71.4778 110.951 71.447 111.025C71.4159 111.099 71.371 111.167 71.3138 111.223C71.2569 111.28 71.1893 111.325 71.1149 111.355C71.0406 111.386 70.9611 111.401 70.8807 111.401C70.7884 111.404 70.6968 111.384 70.6138 111.344Z" fill="#FE6D73"/>
<path d="M71.4552 112.619C71.4579 112.718 71.4312 112.815 71.3781 112.9C71.3253 112.984 71.2487 113.05 71.158 113.09C71.0673 113.13 70.9665 113.143 70.869 113.126C70.7712 113.109 70.6805 113.064 70.6086 112.995C70.5367 112.927 70.4869 112.838 70.4651 112.742C70.4436 112.645 70.4512 112.544 70.4869 112.451C70.5228 112.359 70.5852 112.279 70.6664 112.222C70.7478 112.165 70.844 112.133 70.9431 112.131C71.0758 112.128 71.2041 112.178 71.2999 112.269C71.3958 112.361 71.4517 112.486 71.4552 112.619V112.619Z" fill="#FE6D73"/>
</svg>
