<?xml version="1.0" encoding="UTF-8"?>
<svg width="315px" height="233px" viewBox="0 0 315 233" version="1.1" xmlns="http://www.w3.org/2000/svg" xmlns:xlink="http://www.w3.org/1999/xlink">
    <title>onboarding/illustrations</title>
    <g id="Page-1" stroke="none" stroke-width="1" fill="none" fill-rule="evenodd">
        <g id="app-assets" transform="translate(-508.000000, -2205.000000)" fill-rule="nonzero">
            <g id="project-is-done" transform="translate(508.000000, 2205.000000)">
                <path d="M305.267071,232.371582 L314.962862,91.4846977 C315.233694,87.6659644 314.01495,83.9013976 311.57746,80.9493271 L248.988151,5.3871575 C245.873581,1.64967384 241.134018,-0.354484068 236.286123,0.0517641555 L53.6369215,15.1641981 C47.7869471,15.651696 42.7494691,19.5245957 40.7994776,25.0766547 L0.851735586,138.636575 C0.0392391379,140.965731 -0.204509796,143.457387 0.174655213,145.894877 L13.6891795,232.154916 L305.267071,232.371582 Z" id="Path" fill="#F4F4F4"></path>
                <polygon id="Path" fill="#B2B6BB" points="75.6014088 141.019898 48.2202785 141.019898 48.2202785 158.028157 75.6014088 158.028157"></polygon>
                <polygon id="Path" fill="#61656D" points="75.6014088 141.019898 69.7785176 141.019898 69.7785176 158.028157 75.6014088 158.028157"></polygon>
                <polygon id="Path" fill="#3F4249" points="34.9492323 142.428496 30.5346683 120.653591 30.6700844 120.626508 35.0846484 142.401413"></polygon>
                <polygon id="Path" fill="#3F4249" points="36.1836853 113.296436 35.6038337 141.592708 35.7392497 141.595416 36.3191014 113.299144"></polygon>
                <polygon id="Path" fill="#3F4249" points="42.660907 118.520788 35.9150198 126.997834 36.021186 127.082063 42.7670732 118.605017"></polygon>
                <path d="M38.3890715,147.844868 L37.7119911,146.842789 C37.0349107,145.84071 36.6828289,144.649049 36.6828289,143.430304 L36.6828289,141.019898 L34.0828403,141.019898 L34.0828403,143.430304 C34.0828403,144.649049 33.7307585,145.84071 33.0536781,146.842789 L32.3765978,147.844868 C30.9682706,149.957359 30.5349391,152.584431 31.1578531,155.049003 L31.9161831,158.028157 L38.8494861,158.028157 L39.6078161,155.049003 C40.2307301,152.584431 39.7703154,149.957359 38.3890715,147.844868 Z" id="Path" fill="#868A91"></path>
                <path d="M38.3890715,147.844868 L37.7119911,146.842789 C37.0349107,145.84071 36.6828289,144.649049 36.6828289,143.430304 L36.6828289,141.019898 L35.9244989,141.019898 L35.9244989,143.213638 C35.9244989,144.567799 36.3307471,145.894877 37.0619939,147.032372 C38.199489,149.117779 38.199489,151.501102 37.7932407,153.451093 C37.5494918,154.615672 37.0890772,155.726084 36.4661632,156.728163 L35.9515821,157.567742 C35.7619996,157.865658 35.437001,158.05524 35.0849193,158.05524 L38.8765693,158.05524 L39.6348994,155.076086 C40.2307301,152.584431 39.7703154,149.957359 38.3890715,147.844868 Z" id="Path" fill="#61656D"></path>
                <polygon id="Path" fill="#3F4249" points="41.2997046 127.204479 33.274948 133.863158 33.3616143 133.967158 41.3861 127.308479"></polygon>
                <polygon id="Path" fill="#3F4249" points="34.2992352 139.178239 27.2034329 132.461602 27.2846825 132.380352 34.407568 139.070177"></polygon>
                <path d="M38.6869868,123.605661 L39.7973986,118.730683 C40.2036469,116.997357 42.2619712,116.26611 43.6702984,117.376522 C45.0515423,118.486934 44.8077934,120.680674 43.2098837,121.439004 L38.6869868,123.605661 Z" id="Path" fill="#FE6D73"></path>
                <path d="M38.6869868,123.605661 L39.7973986,118.730683 C40.2036469,116.997357 42.2619712,116.26611 43.6702984,117.376522 C45.0515423,118.486934 44.8077934,120.680674 43.2098837,121.439004 L38.6869868,123.605661 Z" id="Path" fill="#FFFFFF" opacity="0.3"></path>
                <path d="M44.5637736,119.29943 C44.5637736,120.166093 44.0762758,121.032756 43.1825297,121.439004 L38.6596328,123.605661 L43.6429443,117.376522 C44.2929415,117.86402 44.5908569,118.595267 44.5637736,119.29943 Z" id="Path" fill="#FE6D73"></path>
                <path d="M36.1138106,121.438733 L32.9179912,114.830429 C31.7804962,112.474189 33.4867387,109.738785 36.1138106,109.738785 C38.7137992,109.738785 40.447125,112.474189 39.3096299,114.830429 L36.1138106,121.438733 Z" id="Path" fill="#FE6D73"></path>
                <path d="M36.1138106,121.438733 L32.9179912,114.830429 C31.7804962,112.474189 33.4867387,109.738785 36.1138106,109.738785 C38.7137992,109.738785 40.447125,112.474189 39.3096299,114.830429 L36.1138106,121.438733 Z" id="Path" fill="#FFFFFF" opacity="0.3"></path>
                <path d="M36.2765807,109.765868 L36.1140814,121.438733 L39.3099008,114.8307 C40.4203126,112.528627 38.7953197,109.847117 36.2765807,109.765868 Z" id="Path" fill="#FFFFFF" opacity="0.3"></path>
                <path d="M32.5661803,130.240778 L27.9078673,124.715802 C26.2557912,122.738728 27.2307869,119.705408 29.7224427,119.082494 C32.2140985,118.45958 34.5161717,120.65332 34.0015907,123.172059 L32.5661803,130.240778 Z" id="Path" fill="#FE6D73"></path>
                <path d="M34.0286739,123.172059 C34.543255,120.65332 32.2411817,118.45958 29.7495259,119.082494 L32.5932635,130.213695 L34.0286739,123.172059 Z" id="Path" fill="#FFFFFF" opacity="0.3"></path>
                <path d="M31.9161831,136.822 L29.8036923,131.540773 C29.0453623,129.644948 26.5807898,129.211616 25.226629,130.701193 C23.8453851,132.19077 24.5224654,134.601176 26.4724569,135.197007 L31.9161831,136.822 Z" id="Path" fill="#FE6D73"></path>
                <path d="M31.9161831,136.822 L29.8036923,131.540773 C29.0453623,129.644948 26.5807898,129.211616 25.226629,130.701193 C23.8453851,132.19077 24.5224654,134.601176 26.4724569,135.197007 L31.9161831,136.822 Z" id="Path" fill="#FFFFFF" opacity="0.3"></path>
                <path d="M25.3076078,130.59286 L31.9159123,136.822 L29.8034215,131.540773 C29.0721747,129.699114 26.6888518,129.238699 25.3076078,130.59286 Z" id="Path" fill="#FFFFFF" opacity="0.3"></path>
                <path d="M35.437001,132.19077 L37.7390743,126.611628 C38.5515708,124.634553 41.1786426,124.174138 42.614053,125.772048 C44.0494634,127.369958 43.3182166,129.91578 41.232809,130.51161 L35.437001,132.19077 Z" id="Path" fill="#FE6D73"></path>
                <path d="M35.437001,132.19077 L37.7390743,126.611628 C38.5515708,124.634553 41.1786426,124.174138 42.614053,125.772048 C44.0494634,127.369958 43.3182166,129.91578 41.232809,130.51161 L35.437001,132.19077 Z" id="Path" fill="#FFFFFF" opacity="0.3"></path>
                <polygon id="Path" fill="#3F4249" points="35.7078332 139.042823 35.6536668 138.934761 46.6223688 132.922017 46.6765352 133.03062"></polygon>
                <path d="M37.4682422,137.986578 L41.4494748,132.542852 C42.8578019,130.59286 45.8369556,130.809526 46.9473674,132.922017 C48.0848624,135.034507 46.5952856,137.607413 44.2119627,137.715746 L37.4682422,137.986578 Z" id="Path" fill="#FE6D73"></path>
                <path d="M37.4682422,137.986578 L41.4494748,132.542852 C42.8578019,130.59286 45.8369556,130.809526 46.9473674,132.922017 C48.0848624,135.034507 46.5952856,137.607413 44.2119627,137.715746 L37.4682422,137.986578 Z" id="Path" fill="#FFFFFF" opacity="0.3"></path>
                <path d="M47.0557002,135.792837 C46.5682024,136.849083 45.5390402,137.66185 44.2119627,137.716016 L37.4682422,137.986849 L46.9473674,132.922017 C47.4619485,133.897012 47.4348653,134.926174 47.0557002,135.792837 Z" id="Path" fill="#FE6D73"></path>
                <path d="M37.7390743,126.611628 L35.437001,132.19077 L42.614053,125.772048 C41.1786426,124.201221 38.578654,124.634553 37.7390743,126.611628 Z" id="Path" fill="#FFFFFF" opacity="0.3"></path>
                <path d="M76.7391746,159.842732 L94.9120119,159.842732 C95.4265929,159.842732 95.8328412,159.436484 95.8328412,158.921903 C95.8328412,158.407322 95.4265929,158.001074 94.9120119,158.001074 L76.7391746,158.001074 L76.7391746,159.842732 Z" id="Path" fill="#B2B6BB"></path>
                <polygon id="Path" fill="#B2B6BB" points="92.5555013 158.948986 74.2201648 158.948986 74.2201648 215.417489 92.5555013 215.417489"></polygon>
                <polygon id="Path" fill="#DADDDF" points="74.7889123 158.948986 18.6995742 158.948986 18.6995742 215.417489 74.7889123 215.417489"></polygon>
                <path d="M71.9451748,211.111258 L21.3266461,211.111258 L21.3266461,166.803118 L71.9451748,166.857285 L71.9451748,211.111258 Z M21.7328943,210.70501 L71.5389265,210.70501 L71.5389265,167.263533 L21.7328943,167.263533 L21.7328943,210.70501 Z" id="Shape" fill="#B2B6BB"></path>
                <path d="M16.6141667,159.842732 L76.765987,159.842732 C77.2805681,159.842732 77.6868163,159.436484 77.6868163,158.921903 C77.6868163,158.407322 77.2805681,158.001074 76.765987,158.001074 L16.6141667,158.001074 C16.0995856,158.001074 15.6933374,158.407322 15.6933374,158.921903 C15.7204206,159.436484 16.1266688,159.842732 16.6141667,159.842732 Z" id="Path" fill="#DADDDF"></path>
                <polygon id="Path" fill="#B2B6BB" points="71.9451748 188.686356 21.3266461 188.686356 21.3266461 189.092604 71.9451748 189.092604"></polygon>
                <path d="M44.4557116,173.926004 C45.2335415,173.926004 45.8640388,173.295507 45.8640388,172.517677 C45.8640388,171.739847 45.2335415,171.10935 44.4557116,171.10935 C43.6781525,171.10935 43.0473844,171.739847 43.0473844,172.517677 C43.0473844,173.295507 43.6781525,173.926004 44.4557116,173.926004 Z" id="Path" fill="#B2B6BB"></path>
                <path d="M44.9702927,172.517677 C44.9702927,171.894763 44.5640445,171.380182 44.0223802,171.190599 C44.1577963,171.136433 44.3202955,171.10935 44.4827948,171.10935 C45.2682081,171.10935 45.891122,171.732264 45.891122,172.517677 C45.891122,173.30309 45.2682081,173.926004 44.4827948,173.926004 C44.3202955,173.926004 44.1848795,173.898921 44.0223802,173.844754 C44.5640445,173.655172 44.9702927,173.140591 44.9702927,172.517677 Z" id="Path" fill="#000000" opacity="0.15"></path>
                <path d="M44.4557116,195.727992 C45.2335415,195.727992 45.8640388,195.097495 45.8640388,194.319665 C45.8640388,193.541835 45.2335415,192.911338 44.4557116,192.911338 C43.6781525,192.911338 43.0473844,193.541835 43.0473844,194.319665 C43.0473844,195.097495 43.6781525,195.727992 44.4557116,195.727992 Z" id="Path" fill="#B2B6BB"></path>
                <path d="M44.9702927,194.319665 C44.9702927,193.696751 44.5640445,193.18217 44.0223802,192.992587 C44.1577963,192.938421 44.3202955,192.911338 44.4827948,192.911338 C45.2682081,192.911338 45.891122,193.534252 45.891122,194.319665 C45.891122,195.105078 45.2682081,195.727992 44.4827948,195.727992 C44.3202955,195.727992 44.1848795,195.700909 44.0223802,195.646742 C44.5640445,195.45716 44.9702927,194.942579 44.9702927,194.319665 Z" id="Path" fill="#000000" opacity="0.15"></path>
                <polygon id="Path" fill="#B2B6BB" points="77.6868163 161.738557 74.7889123 159.842732 18.6995742 159.842732 18.6995742 160.709395"></polygon>
                <path d="M88.9534337,215.417489 L90.3617609,231.044504 C90.4700938,231.613252 90.0367623,232.154916 89.4680148,232.154916 C89.0888498,232.154916 88.736768,231.911167 88.6013519,231.532002 L84.5117865,215.417489 L88.9534337,215.417489 Z" id="Path" fill="#DADDDF"></path>
                <path d="M88.4391235,224.517449 L86.7328809,224.111201 L84.5391405,215.444572 L88.9807878,215.444572 L90.389115,231.071587 C90.4703646,231.504919 90.2266157,231.93825 89.8474507,232.10075 L88.4391235,224.517449 Z" id="Path" fill="#B2B6BB"></path>
                <path d="M73.001691,215.417489 L74.4100182,231.044504 C74.518351,231.613252 74.0850196,232.154916 73.5162721,232.154916 C73.1371071,232.154916 72.7850253,231.911167 72.6496092,231.532002 L68.5600437,215.417489 L73.001691,215.417489 L73.001691,215.417489 Z" id="Path" fill="#DADDDF"></path>
                <path d="M71.5118433,217.150815 L68.9660211,216.663317 L68.5326897,215.417489 L72.9743369,215.417489 L74.3826641,231.044504 C74.4639138,231.477836 74.2201648,231.911167 73.8409998,232.073666 L71.5118433,217.150815 Z" id="Path" fill="#B2B6BB"></path>
                <path d="M37.8474072,215.417489 L36.43908,231.044504 C36.3307471,231.613252 36.7640786,232.154916 37.3328261,232.154916 C37.7119911,232.154916 38.0640729,231.911167 38.199489,231.532002 L42.2890544,215.417489 L37.8474072,215.417489 L37.8474072,215.417489 Z" id="Path" fill="#DADDDF"></path>
                <path d="M38.6328204,223.732036 L37.1161604,223.352871 L37.8474072,215.417489 L42.2890544,215.417489 L38.199489,231.532002 C38.0640729,231.911167 37.7119911,232.154916 37.3328261,232.154916 C37.3057429,232.154916 37.3057429,232.154916 37.2786597,232.154916 L38.6328204,223.732036 Z" id="Path" fill="#B2B6BB"></path>
                <path d="M21.4620621,215.417489 L20.053735,231.044504 C19.9454021,231.613252 20.3787335,232.154916 20.9474811,232.154916 C21.3266461,232.154916 21.6787279,231.911167 21.8141439,231.532002 L25.9037094,215.417489 L21.4620621,215.417489 L21.4620621,215.417489 Z" id="Path" fill="#DADDDF"></path>
                <path d="M23.1956587,216.77165 L21.2456673,216.419568 L21.462333,215.417489 L25.9039802,215.417489 L21.8144148,231.532002 C21.6789987,231.911167 21.3269169,232.154916 20.9477519,232.154916 C20.9206687,232.154916 20.9206687,232.154916 20.8935855,232.154916 L23.1956587,216.77165 Z" id="Path" fill="#B2B6BB"></path>
                <path d="M60.0824558,215.986237 C60.4074544,217.177898 60.4616208,217.61123 60.4345376,218.775808 L60.4616208,226.62994 C60.4074544,227.984101 60.0282894,229.338262 59.351209,230.529923 L59.1887097,230.800755 C58.7824615,231.504919 58.0512147,231.93825 57.2387182,231.93825 L54.9908114,231.93825 C53.9616492,231.93825 53.0679031,231.234087 52.797071,230.232008 C52.4991556,229.06743 52.4720724,227.848685 52.6887381,226.684107 L54.5845632,218.28831 C54.7199792,217.584146 54.9095617,216.77165 55.2616435,216.01332 L60.0824558,215.986237 Z" id="Path" fill="#FE6D73"></path>
                <path d="M90.5242602,197.542567 L90.9846749,212.194587 C90.9846749,213.575831 91.3367567,215.038324 91.878421,215.769571 L98.432559,227.171605 L96.9158989,229.257012 L90.9846749,226.304942 L85.7034479,216.77165 C85.7305312,215.146657 85.5409487,214.171661 85.2701165,211.977921 L82.6430447,195.809242 L90.5242602,197.542567 Z" id="Path" fill="#FC9D9D"></path>
                <path d="M90.9573208,217.232065 C90.3614901,216.338319 89.5760769,214.252911 89.4135776,213.277915 L88.709414,208.050855 C88.6552475,207.644607 88.3573322,207.346691 87.951084,207.292525 L84.3490164,206.805027 L84.2948499,206.019614 L90.7948215,206.019614 L90.984404,212.248753 C91.0114872,213.250832 91.2010697,214.848742 91.8781501,215.823737 L98.4322881,227.225771 L97.5114588,228.769514 L90.9573208,217.232065 Z" id="Path" fill="#000000" opacity="0.15"></path>
                <path d="M101.520045,229.094513 L98.4054757,227.198688 C96.1575689,227.577853 93.8825789,226.71119 92.4200853,224.950781 L85.6763647,216.77165 C84.4576201,219.371639 84.0242886,222.269543 84.4305368,225.140363 L85.4055326,231.911167 L86.1909458,231.911167 L86.4076115,224.950781 C86.4346948,224.4362 87.0576087,224.219534 87.3826073,224.625782 L91.4992559,229.66326 C92.6638342,231.098671 94.4242432,231.93825 96.2659018,231.93825 L102.684624,231.93825 C103.199205,231.93825 103.524203,231.423669 103.334621,230.963255 C102.982539,230.123675 102.332542,229.446595 101.520045,229.094513 Z" id="Path" fill="#FE6D73"></path>
                <path d="M60.3803712,212.438336 C60.0553726,215.25499 59.8928733,218.098728 59.9470397,220.942465 L60.0012062,224.327867 C59.9470397,225.817444 58.7282951,227.009105 57.2387182,227.009105 L56.7783036,227.009105 C55.0991443,227.009105 53.7991499,225.519528 54.0428989,223.867452 L54.8283121,219.859136 C55.2345603,217.827895 55.3699764,215.742488 55.2616435,213.65708 L54.5033135,199.980057 L61.5720326,200.08839 L60.3803712,212.438336 Z" id="Path" fill="#FC9D9D"></path>
                <path d="M82.5888782,102.561733 L87.5180233,114.072099 L88.0867709,120.355405 C88.7909345,128.290787 89.2513491,136.226169 89.4680148,144.188634 L91.1200909,205.99253 L83.9972054,205.99253 L70.7535133,119.407492 C70.6722637,118.811662 70.1576826,118.405413 69.5618519,118.405413 C68.9389379,118.405413 68.4243568,118.892911 68.3701904,119.515825 L61.4910538,205.99253 L54.4765011,205.938364 L51.3890146,141.96781 C50.8202671,130.159529 51.9306789,118.324164 54.6931669,106.840881 L55.7494122,102.507566 L82.5888782,102.561733 Z" id="Path" fill="#3F4249"></path>
                <path d="M60.9762019,205.99253 C60.9762019,205.99253 60.1366222,214.767492 60.0553726,215.93207 L60.0553726,215.959154 C59.9470397,217.61123 59.9199565,219.263306 59.9470397,220.915382 L60.0012062,224.300784 C59.9470397,225.736194 58.8095447,226.900772 57.3741343,226.954939 C58.6741286,225.95286 58.5657958,224.327867 58.592879,223.109122 L58.8095447,208.240437 C58.8095447,207.752939 58.4845461,207.346691 57.9970482,207.238358 L54.8553953,206.669611 L54.8283121,205.965447 L60.9762019,205.99253 Z" id="Path" fill="#000000" opacity="0.15"></path>
                <path d="M91.0930077,205.99253 L88.2492702,205.99253 L83.7263733,118.405413 C77.7409828,118.405413 75.4389095,114.207515 75.3847431,110.822113 C75.3305766,108.032542 75.8993241,105.270054 75.8993241,102.561733 L55.6952458,102.507566 C55.6952458,102.507566 55.6952458,102.507566 55.6952458,102.480483 L75.8993241,102.534649 L82.4805454,102.561733 L82.561795,102.561733 L87.4909401,114.072099 L88.0596876,120.355405 C88.7638512,128.290787 89.2242659,136.226169 89.4409316,144.188634 L91.0930077,205.99253 Z" id="Path" fill="#000000" opacity="0.2"></path>
                <path d="M64.144938,104.999222 L75.7636372,105.026305 C76.0886358,78.3222553 77.0636316,63.9410682 78.5261252,57.9556777 L76.8198826,57.4681798 L63.8199395,57.3598469 L61.5449494,57.8473448 C64.0636884,71.4972851 64.1991045,98.2825847 64.144938,104.999222 Z" id="Path" fill="#FFFFFF"></path>
                <path d="M62.0327181,58.7952573 C64.3618746,72.743113 64.1993753,98.445084 64.1452089,104.999222 L66.555615,104.999222 C67.69311,87.4492987 66.2847828,71.8493669 62.0327181,58.7952573 Z" id="Path" fill="#000000" opacity="0.2"></path>
                <path d="M55.8033078,103.184647 C55.6137253,104.159642 55.0991443,105.242971 54.4491471,106.380466 C53.3116521,110.090866 52.3637395,113.855433 51.659576,117.674167 L58.2678804,117.349168 C62.3574459,117.349168 65.7970141,114.207515 66.1490959,110.11795 C66.3657617,107.545044 66.3928449,107.490878 66.5283123,104.972139 C66.5553442,104.999222 55.8574743,102.967981 55.8033078,103.184647 Z" id="Path" fill="#000000" opacity="0.2"></path>
                <polygon id="Path" fill="#000000" points="82.8865228 105.026305 56.3178889 105.026305 56.3178889 107.436711 82.8865228 107.436711"></polygon>
                <path d="M69.6701847,33.2016192 C72.1531739,33.2016192 74.1659984,31.1887947 74.1659984,28.7058055 C74.1659984,26.2228164 72.1531739,24.2099919 69.6701847,24.2099919 C67.1871956,24.2099919 65.174371,26.2228164 65.174371,28.7058055 C65.174371,31.1887947 67.1871956,33.2016192 69.6701847,33.2016192 Z" id="Path" fill="#21252B"></path>
                <path d="M65.3097871,29.8433006 C65.6347857,31.0891285 66.5014486,32.1995403 67.7743597,32.795371 C70.0222665,33.8516164 72.7035048,32.8766206 73.7597502,30.6016306 C73.8409998,30.4662145 73.8951662,30.3037152 73.9493327,30.1412159 C72.1889237,29.0578873 68.3701904,28.0828916 65.3097871,29.8433006 Z" id="Path" fill="#FE6D73"></path>
                <path d="M73.5701677,49.3973818 C73.3535019,54.2452772 72.4868391,56.8723491 75.1951606,57.0077651 C79.5013917,57.1973476 83.1576257,53.4327808 83.3742915,48.5848853 C83.5909572,43.7369898 80.2597217,39.6745076 75.9534906,39.4849251 C74.7889123,43.628657 73.7597502,44.5765695 73.5701677,49.3973818 Z" id="Path" fill="#21252B"></path>
                <path d="M72.2504026,50.0831288 C72.6279426,45.7766267 69.3462695,41.9711642 64.9208721,41.5833326 C60.495204,41.1952301 56.601721,44.3715496 56.2239102,48.6780516 C55.8463702,52.9842827 59.1280433,56.7897453 63.5534406,57.1778477 C67.9791088,57.5659502 71.8728626,54.3893599 72.2504026,50.0831288 Z" id="Path" fill="#21252B"></path>
                <path d="M62.8722978,57.5765127 L63.657711,58.2265098 C67.4493611,61.4223292 73.0014201,61.395246 76.765987,58.1723434 L77.4159842,57.6035959 L75.1139109,56.9806819 C74.7076627,56.8723491 74.4097473,56.5202673 74.3555809,56.1140191 L74.0034991,53.4327808 L73.732667,51.4557061 L72.7847544,44.3057373 L72.7576712,43.9536556 L66.2847828,45.5515652 L65.3368703,56.2494351 C65.3097871,56.7098498 64.9577053,57.0890148 64.5243739,57.1973476 L62.8722978,57.5765127 Z" id="Path" fill="#FC9D9D"></path>
                <path d="M69.8868504,52.9452829 C66.9618632,52.9181997 64.5785403,50.6432096 64.416041,47.7453056 L63.7389606,36.3703554 L76.2784892,36.451605 L75.4389095,47.7994721 C75.249327,50.7244593 72.8118376,52.9723661 69.8868504,52.9452829 Z" id="Path" fill="#FC9D9D"></path>
                <path d="M69.8868504,52.9452829 C66.9618632,52.9181997 64.5785403,50.6432096 64.416041,47.7453056 L63.7389606,36.3703554 L76.2784892,36.451605 L75.4389095,47.7994721 C75.249327,50.7244593 72.8118376,52.9723661 69.8868504,52.9452829 Z" id="Path" fill="#FC9D9D"></path>
                <path d="M67.5035275,44.3057373 C67.8623801,44.3057373 68.1535247,44.0145928 68.1535247,43.6557402 C68.1535247,43.2968876 67.8623801,43.005743 67.5035275,43.005743 C67.1444041,43.005743 66.8535304,43.2968876 66.8535304,43.6557402 C66.8535304,44.0145928 67.1444041,44.3057373 67.5035275,44.3057373 Z" id="Path" fill="#21252B"></path>
                <path d="M67.7743597,43.6557402 C67.8491093,43.6557402 67.9097757,43.5950738 67.9097757,43.5203241 C67.9097757,43.4455744 67.8491093,43.384908 67.7743597,43.384908 C67.69961,43.384908 67.6389436,43.4455744 67.6389436,43.5203241 C67.6389436,43.5950738 67.69961,43.6557402 67.7743597,43.6557402 Z" id="Path" fill="#FFFFFF"></path>
                <path d="M72.5680887,44.3057373 C72.9269413,44.3057373 73.2180859,44.0145928 73.2180859,43.6557402 C73.2180859,43.2968876 72.9269413,43.005743 72.5680887,43.005743 C72.2092361,43.005743 71.9180916,43.2968876 71.9180916,43.6557402 C71.9180916,44.0145928 72.2092361,44.3057373 72.5680887,44.3057373 Z" id="Path" fill="#21252B"></path>
                <path d="M72.8660041,43.628657 C72.9407537,43.628657 73.0014201,43.5679906 73.0014201,43.4932409 C73.0014201,43.4184912 72.9407537,43.3578248 72.8660041,43.3578248 C72.7912544,43.3578248 72.730588,43.4184912 72.730588,43.4932409 C72.730588,43.5679906 72.7912544,43.628657 72.8660041,43.628657 Z" id="Path" fill="#FFFFFF"></path>
                <g id="Group" opacity="0.3" transform="translate(69.372269, 45.876564)" fill="#000000">
                    <path d="M0.758330018,1.57082647 L0.189582504,1.57082647 C0.0812496448,1.57082647 0,1.48957682 0,1.38124396 C0,1.2729111 0.0812496448,1.19166146 0.189582504,1.19166146 L0.758330018,1.19166146 C0.974995737,1.19166146 1.16457824,1.02916217 1.16457824,0.785413233 C1.16457824,0.568747513 1.00207895,0.379165009 0.758330018,0.379165009 C0.649997158,0.379165009 0.568747513,0.297915364 0.568747513,0.189582504 C0.568747513,0.0812496448 0.649997158,0 0.758330018,0 C1.19166146,0 1.54374325,0.352081794 1.54374325,0.785413233 C1.54374325,1.21874467 1.19166146,1.57082647 0.758330018,1.57082647 Z" id="Path"></path>
                </g>
                <path d="M59.4868959,43.0599095 C60.4618916,42.3828291 60.1098098,41.109918 60.1098098,41.109918 C59.9473106,40.5682537 59.8118945,39.972423 59.8118945,39.349509 C59.757728,37.9140986 60.4348084,36.9391029 60.8681399,36.4786882 C61.0848056,36.2349393 61.2202217,35.9099407 61.2743881,35.5578589 C61.8702188,29.4099691 70.9160126,28.001642 75.3847431,31.7120424 C78.1201478,33.9870325 78.7430617,36.5057714 78.4993128,38.8890944 C78.4993128,38.8890944 78.3368135,39.9453397 79.3118092,40.4599208 L78.1201478,40.9474187 C77.6597331,42.7078277 76.8201535,43.5203241 76.3597388,44.7390688 C75.3847431,44.0890716 75.628492,41.2995005 75.628492,41.2995005 C72.9472537,41.0015851 72.5951719,38.6182622 72.5951719,38.6182622 C70.1305994,43.7911563 63.8743767,42.6536612 63.8743767,42.6536612 L63.8202103,43.9807388 C63.8202103,43.9807388 61.3014713,43.4661577 60.7868902,42.5453284 L59.7848113,43.249492 L59.4868959,43.0599095 Z" id="Path" fill="#21252B"></path>
                <path d="M75.6011379,46.0390631 C75.6011379,46.0390631 77.7136287,45.8494806 77.8219616,43.7099066 C77.9302944,41.5703326 75.3032226,41.6244991 75.2761394,43.764073 L75.3844722,46.0932295 L75.6011379,46.0390631 Z" id="Path" fill="#FC9D9D"></path>
                <path d="M76.0347402,43.2765752 C76.1159899,43.005743 76.2784892,42.8432437 76.4409884,42.7619941 C76.6305709,42.6807444 76.8201535,42.7078277 77.0639024,42.8161605 C77.145152,42.8432437 77.1722352,42.9515766 77.145152,43.0328262 C77.1180688,43.0869927 77.0909856,43.1140759 77.0639024,43.1140759 C77.0368192,43.1411591 76.9826527,43.1411591 76.9555695,43.1140759 C76.7930702,43.0328262 76.6847374,43.005743 76.5764045,43.0599095 C76.4951549,43.1140759 76.4139052,43.1953255 76.3326556,43.384908 C76.2784892,43.5474073 76.2514059,43.7911563 76.2514059,43.9536556 C76.2514059,44.0349052 76.1701563,44.1161548 76.0889067,44.1161548 C76.007657,44.1161548 75.9264074,44.0349052 75.9264074,43.9265723 C75.9264074,43.7369898 75.9534906,43.4661577 76.0347402,43.2765752 Z" id="Path" fill="#000000" opacity="0.3"></path>
                <path d="M76.1568855,45.6360649 C76.3364472,45.6322732 76.4775508,45.4351074 76.472405,45.1956918 C76.4672592,44.956547 76.317489,44.7656103 76.1381981,44.7696728 C75.9586364,44.7734645 75.817262,44.9706303 75.8226786,45.2097751 C75.8278245,45.4491907 75.9773238,45.6398565 76.1568855,45.6360649 Z" id="Path" fill="#FE6D73"></path>
                <path d="M76.0344694,45.5515652 C76.2240519,45.5515652 76.3865512,45.3348995 76.359468,45.0911506 C76.359468,45.0099009 76.3323848,44.9286513 76.3053015,44.8474016 C76.3865512,44.9286513 76.4407176,45.0369841 76.4407176,45.1994834 C76.4407176,45.4432324 76.3053015,45.6328149 76.115719,45.6328149 C76.0344694,45.6328149 75.980303,45.6057317 75.9261365,45.5515652 C75.980303,45.5515652 76.0073862,45.5515652 76.0344694,45.5515652 Z" id="Path" fill="#000000" opacity="0.15"></path>
                <path d="M64.2264585,46.0390631 C64.2264585,46.0390631 62.1139677,45.8494806 62.0056349,43.7099066 C61.897302,41.5703326 64.5243739,41.6244991 64.5514571,43.764073 L64.4431242,46.0932295 L64.2264585,46.0390631 Z" id="Path" fill="#FC9D9D"></path>
                <path d="M63.8199395,43.2765752 C63.7116066,43.005743 63.5761905,42.8432437 63.386608,42.7619941 C63.1970255,42.6807444 62.9803598,42.7078277 62.7366109,42.8161605 C62.6553612,42.8432437 62.628278,42.9515766 62.6553612,43.0328262 C62.6824444,43.0869927 62.7095276,43.1140759 62.7366109,43.1140759 C62.7636941,43.1411591 62.8178605,43.1411591 62.8449437,43.1140759 C63.007443,43.0328262 63.1428591,43.005743 63.2241087,43.0599095 C63.3324416,43.1140759 63.4136912,43.1953255 63.4678577,43.384908 C63.5220241,43.5474073 63.5491073,43.7911563 63.5761905,43.9536556 C63.5761905,44.0349052 63.6574402,44.1161548 63.7386898,44.1161548 C63.8199395,44.1161548 63.9011891,44.0349052 63.9011891,43.9265723 C63.9553555,43.7369898 63.9011891,43.4661577 63.8199395,43.2765752 Z" id="Path" fill="#000000" opacity="0.3"></path>
                <path d="M64.009522,45.1908168 C64.0149386,44.951672 63.8735642,44.7545062 63.6940025,44.7504437 C63.5147116,44.7466521 63.3649414,44.9375887 63.3597956,45.1767335 C63.3546498,45.4161492 63.4957534,45.6130441 63.6753151,45.6171066 C63.8548768,45.6208983 64.0043762,45.4302324 64.009522,45.1908168 Z" id="Path" fill="#FE6D73"></path>
                <path d="M63.7931271,45.5515652 C63.6035446,45.5515652 63.4410453,45.3348995 63.4681285,45.0911506 C63.4681285,45.0099009 63.4952117,44.9286513 63.5222949,44.8474016 C63.4410453,44.9286513 63.3868788,45.0369841 63.3868788,45.1994834 C63.3868788,45.4432324 63.5222949,45.6328149 63.7118774,45.6328149 C63.7931271,45.6328149 63.8472935,45.6057317 63.9014599,45.5515652 C63.8202103,45.5515652 63.8202103,45.5515652 63.7931271,45.5515652 Z" id="Path" fill="#000000" opacity="0.15"></path>
                <path d="M71.6743426,48.5036357 C71.7555923,48.5036357 71.8097587,48.5848853 71.7826755,48.6661349 C71.4576769,49.2890489 70.834763,49.7223803 70.1035162,49.7223803 C69.3722693,49.7223803 68.7493554,49.2890489 68.4243568,48.6661349 C68.3972736,48.5848853 68.4243568,48.5036357 68.5326897,48.5036357 L71.6743426,48.5036357 Z" id="Path" fill="#FFFFFF"></path>
                <path d="M72.7847544,41.7328319 C71.972258,41.8140816 71.2680944,42.247413 70.834763,42.8974102 C70.1035162,42.6536612 69.4806022,42.8161605 69.2097701,42.9244934 C68.695189,42.1119969 67.7743597,41.5974159 66.7451975,41.7057487 C65.3097871,41.8411648 64.2264585,43.1140759 64.3618746,44.5494863 C64.4972907,45.9848967 65.7702018,47.0682253 67.2056122,46.9328092 C68.6410225,46.7973931 69.7243511,45.524482 69.5889351,44.0890716 C69.5618519,43.7911563 69.4806022,43.4932409 69.3722693,43.249492 C69.6160183,43.1682423 70.1035162,43.0328262 70.6722637,43.2224087 C70.4555979,43.628657 70.3743483,44.1161548 70.4014315,44.6036527 C70.5368476,46.0390631 71.8097587,47.1223917 73.2451691,46.9869756 C74.6805795,46.8515595 75.7639081,45.5786484 75.628492,44.1432381 C75.5201591,42.6536612 74.2201648,41.5974159 72.7847544,41.7328319 Z M67.2056122,46.5807274 C65.9597843,46.6890603 64.8222892,45.768231 64.7139564,44.4953198 C64.6056235,43.249492 65.5264528,42.1119969 66.7993639,42.0036641 C68.0451918,41.8953312 69.1826868,42.8161605 69.2910197,44.0890716 C69.3993526,45.3619827 68.45144,46.4723945 67.2056122,46.5807274 Z M73.2451691,46.6078106 C71.9993412,46.7161435 70.8618462,45.7953142 70.7535133,44.5224031 C70.6451805,43.2765752 71.5660098,42.1390802 72.8389209,42.0307473 C74.0847487,41.9224144 75.2222438,42.8432437 75.3305766,44.1161548 C75.4118263,45.3890659 74.490997,46.4994778 73.2451691,46.6078106 Z" id="Shape" fill="#FFFFFF"></path>
                <path d="M67.6118604,52.9181997 C68.3701904,53.2431983 69.1014372,53.3515311 69.7785176,53.3515311 C70.0493497,53.3515311 70.2930987,53.3244479 70.5097644,53.2973647 C70.9430958,53.459864 71.5118433,53.6223633 72.0535076,53.6223633 C72.730588,53.6223633 73.3805852,53.5952801 73.9493327,53.4056976 L73.6785005,51.4286229 C73.2722523,51.8077879 72.7847544,52.1327865 72.2701733,52.3765354 C71.8639251,52.5661179 70.970179,52.8640333 69.9139336,52.8911165 C69.8868504,52.8911165 69.8597672,52.8911165 69.832684,52.8911165 C69.8056008,52.8911165 69.7785176,52.8911165 69.7514344,52.8911165 C69.1285204,52.8911165 68.4243568,52.7827836 67.7472765,52.4848683 C67.6389436,52.4307018 67.5306107,52.4848683 67.4764443,52.5932011 C67.4764443,52.7557004 67.5306107,52.8640333 67.6118604,52.9181997 Z" id="Path" fill="#000000" opacity="0.15"></path>
                <path d="M47.1095958,66.8389722 L52.8783206,73.2306109 L54.7199792,88.8847091 C55.2616435,93.5971885 55.0991443,98.3909176 54.2053982,103.049231 C53.5012346,106.732548 52.553322,111.499194 51.5241599,116.509588 C51.4699935,116.834587 51.7137424,117.132502 52.038741,117.132502 L56.2095561,117.132502 C60.5699537,117.132502 64.2261877,113.801267 64.6053527,109.440869 C66.2574288,90.0492874 65.1741002,71.8764501 61.8157816,57.7660952 L52.553322,59.5806706 C49.1679202,60.4202502 47.2720951,63.4806535 47.1095958,66.8389722 Z" id="Path" fill="#FE6D73"></path>
                <path d="M78.1740434,57.8473448 C76.8198826,63.3452374 74.8698911,85.5805569 75.2490562,110.172116 C75.3032226,114.045016 78.4719587,117.159585 82.3448585,117.186669 L86.9219218,117.186669 C87.5990022,117.186669 88.1406665,116.590838 88.0594168,115.913758 L86.4344239,102.128401 C85.7573435,96.2784268 85.6760939,90.3742859 86.2448414,84.5243115 L87.707335,69.2493783 L89.1156622,67.0014715 C89.1427454,63.5077367 87.4906693,60.5827495 84.1594339,59.5265041 L78.1740434,57.8473448 Z" id="Path" fill="#FE6D73"></path>
                <path d="M70.7532425,85.4180576 L72.2428193,82.7368193 C72.4053186,82.438904 72.5136514,82.1139054 72.5136514,81.7618236 L72.5949011,80.0014146 C72.5949011,79.920165 72.6761507,79.8389153 72.7574004,79.8659985 L72.8657332,79.8659985 C73.5157304,79.920165 74.0573947,80.4076628 74.1928108,81.05766 L74.219894,81.1389096 C74.3823933,81.9784893 74.4365597,82.818069 74.4365597,83.6847318 L74.4365597,83.9826472 L79.1490391,84.7409772 C79.4740377,84.7951437 79.6907034,85.0659758 79.6636202,85.3909744 L79.6636202,85.4180576 C79.636537,85.7972226 79.2844552,86.0680548 78.9052902,85.9868051 C78.7157077,85.9597219 78.5802916,85.9326387 78.5802916,85.9326387 L78.8511237,85.9868051 C79.2844552,86.0680548 79.5823705,86.4472198 79.5282041,86.8805512 C79.5011209,87.3409659 79.0948727,87.6659644 78.634458,87.6659644 L78.4177923,87.6659644 L78.634458,87.6659644 C79.0948727,87.6930477 79.4198713,88.0722127 79.392788,88.5326273 C79.3657048,88.9117923 79.0677895,89.2097077 78.6886245,89.2638741 L78.3094594,89.2909573 L78.5802916,89.2638741 C78.9594566,89.2367909 79.3115384,89.5617895 79.2844552,89.9409545 C79.257372,90.2117866 79.0677895,90.4284524 78.8240405,90.509702 C77.2802973,90.9159502 75.6553044,91.0513663 74.0573947,90.888867 L71.0240746,90.6180349 L60.6241201,92.2430278 L60.5970369,86.3659701 L70.7532425,85.4180576 Z" id="Path" fill="#FC9D9D"></path>
                <path d="M47.2991784,65.3764786 L50.3866649,64.2660667 C52.6074885,67.9764672 53.9616492,70.9285376 53.8262331,75.2347688 L54.5033135,77.0493442 L53.0679031,86.7451351 L63.630357,86.0138883 L63.2782752,91.890946 L46.5137651,95.1409318 C44.3200247,95.5742632 42.3700332,93.6513549 42.7491982,91.4576145 L47.2991784,65.3764786 Z" id="Path" fill="#FE6D73"></path>
                <path d="M46.1619542,93.7326046 C44.6723773,94.0305199 43.3182166,93.2451067 42.6953026,92.026362 C42.6953026,93.9763535 44.4827948,95.5200968 46.4869527,95.1409318 L63.2514628,91.890946 L63.3056292,91.1055327 L46.1619542,93.7326046 Z" id="Path" fill="#000000" opacity="0.15"></path>
                <path d="M53.5015054,83.7930647 L51.6327636,86.2576373 C51.4431811,86.5284694 51.6327636,86.9076344 51.9848454,86.8805512 L53.068174,86.7722183 L53.5015054,83.7930647 Z" id="Path" fill="#000000" opacity="0.15"></path>
                <path d="M79.1219559,84.713894 L77.9302944,84.5243115 C77.9302944,84.5784779 77.9573776,84.6055612 77.9844609,84.6597276 L78.1198769,84.9034765 C78.2282098,85.093059 78.2011266,85.336808 78.0927937,85.4993072 C77.9844609,85.6618065 77.9573776,85.8784723 78.0386273,86.0409715 L78.1740434,86.3388869 C78.255293,86.5284694 78.2282098,86.7180519 78.1198769,86.8805512 L78.0115441,87.0430505 C77.876128,87.232633 77.876128,87.5034652 78.0115441,87.6930477 L78.0927937,87.8013805 C78.2282098,87.990963 78.2282098,88.2617952 78.0927937,88.4513777 L78.0386273,88.5597105 C77.9032112,88.749293 77.9032112,88.993042 78.0115441,89.1826245 L78.1469602,89.3992902 C78.255293,89.5888727 78.255293,89.8055384 78.1469602,89.9951209 L77.7948784,90.6722013 C78.1469602,90.6180349 78.4990419,90.5367852 78.8511237,90.4555356 C79.1219559,90.4013691 79.3115384,90.1576202 79.3115384,89.8867881 C79.3386216,89.4805398 79.013623,89.1555413 78.6073748,89.2097077 L78.7157077,89.2097077 C79.0948727,89.1826245 79.392788,88.8576259 79.4198713,88.4784609 C79.4469545,88.0451295 79.1219559,87.6388812 78.6615412,87.611798 C79.1219559,87.6388812 79.5011209,87.2867994 79.5552873,86.8263848 C79.5823705,86.3930533 79.2844552,86.0138883 78.878207,85.9326387 C78.9052902,85.9326387 78.9052902,85.9326387 78.9323734,85.9326387 C79.3115384,86.0138883 79.6636202,85.7430562 79.6907034,85.3638912 L79.6907034,85.336808 C79.6636202,85.0659758 79.4469545,84.7680604 79.1219559,84.713894 Z M78.5532084,85.9055555 C78.5532084,85.9055555 78.5802916,85.9055555 78.6073748,85.9055555 L78.5532084,85.9055555 Z" id="Shape" fill="#000000" opacity="0.15"></path>
                <path d="M71.0243455,90.5909517 L70.834763,90.5638684 C70.1035162,90.4826188 69.3451861,90.4826188 68.6139393,90.5638684 L63.3327124,91.1055327 L63.278546,91.8096963" id="Path" fill="#000000" opacity="0.15"></path>
                <path d="M64.9306221,85.5263905 L54.3952515,86.2847205 L54.4494179,86.6909687 L64.9577053,85.9326387 C65.0660382,85.9326387 65.1472878,85.8243058 65.1472878,85.715973 C65.1472878,85.6076401 65.038955,85.5263905 64.9306221,85.5263905 Z" id="Path" fill="#000000" opacity="0.2"></path>
                <path d="M69.561581,118.405413 C69.2365824,118.405413 68.9657503,118.513746 68.7490846,118.730412 C68.5324189,118.919994 68.3970028,119.190827 68.3699196,119.515825 L61.4636998,206.019614 L58.972044,205.99253 L63.1970255,124.472054 C63.386608,121.059568 66.1761792,118.405413 69.561581,118.405413 Z" id="Path" fill="#000000" opacity="0.2"></path>
                <path d="M88.0596876,115.886674 L86.4346948,102.101318 C85.7576144,96.2513436 85.6763647,90.3472027 86.2451122,84.4972283 L86.5701108,80.9764104 L84.7555354,78.4305882 C84.4576201,78.0243399 83.8076229,78.159756 83.7263733,78.6743371 L82.8597104,84.4159787 C81.9388811,90.4826188 81.6138825,96.6034254 81.8305482,102.724232 L83.4013747,117.186669 L86.9221926,117.186669 C87.599273,117.159585 88.1409373,116.563755 88.0596876,115.886674 Z" id="Path" fill="#000000" opacity="0.2"></path>
                <path d="M88.0865,62.5869074 L95.4260513,79.5139167 L106.530169,68.7618804 L109.536406,73.2306109 L95.5073009,90.7805342 C94.1531402,92.4867767 91.4719019,92.2159445 90.4969062,90.2659531 L83.9427681,77.2660099" id="Path" fill="#FE6D73"></path>
                <path d="M108.940846,73.9347745 L95.7784039,90.3742859 C94.5054928,92.1617781 92.7450838,92.2430278 91.3096734,91.2409488 C92.3117524,91.2138656 93.2867481,90.9159502 94.0450781,90.0222041 L108.832513,72.3910312 L108.940846,73.9347745 Z" id="Path" fill="#000000" opacity="0.15"></path>
                <path d="M94.505222,80.6243286 L95.4260513,79.5139167 L90.5239894,68.2472993 L93.3406437,80.3264132 C93.4489766,80.8951607 94.1531402,81.05766 94.505222,80.6243286 Z" id="Path" fill="#000000" opacity="0.15"></path>
                <polygon id="Path" fill="#DADDDF" points="278.535938 141.696978 263.396421 141.696978 263.396421 173.655172 278.535938 173.655172"></polygon>
                <polygon id="Path" fill="#B2B6BB" points="272.550548 141.696978 279.023436 141.696978 279.023436 144.784465 278.535938 144.784465 278.535938 173.655172 273.525543 173.655172 273.525543 144.784465 272.550548 144.784465"></polygon>
                <polygon id="Path" fill="#DADDDF" points="272.415132 141.696978 263.396421 141.696978 263.396421 144.784465 272.415132 144.784465"></polygon>
                <polygon id="Path" fill="#B2B6BB" points="275.313036 144.784465 263.396421 144.784465 263.396421 145.190713 275.313036 145.190713"></polygon>
                <polygon id="Path" fill="#FFFFFF" points="284.412996 117.755416 281.813007 117.755416 221.579937 117.755416 221.579937 120.355405 281.813007 120.355405 281.813007 173.655172 221.579937 173.655172 221.579937 176.25516 281.813007 176.25516 281.813007 232.154916 284.412996 232.154916"></polygon>
                <polygon id="Path" fill="#DADDDF" points="295.977529 117.755416 284.412996 117.755416 284.412996 232.154916 295.977529 232.154916"></polygon>
                <path d="M312.931621,232.804913 L7.70378896,232.804913 C7.51420646,232.804913 7.37879038,232.669497 7.37879038,232.479915 C7.37879038,232.290332 7.51420646,232.154916 7.70378896,232.154916 L312.931621,232.154916 C313.121204,232.154916 313.25662,232.290332 313.25662,232.479915 C313.25662,232.642414 313.121204,232.804913 312.931621,232.804913 Z" id="Path" fill="#B2B6BB"></path>
                <path d="M263.748503,232.344499 L105.85336,232.344499 C103.713786,232.344499 102.007543,230.611173 102.007543,228.498682 L102.007543,70.603539 C102.007543,68.4639651 103.740869,66.7577225 105.85336,66.7577225 L263.748503,66.7577225 C265.888077,66.7577225 267.594319,68.4910483 267.594319,70.603539 L267.594319,228.498682 C267.594319,230.638256 265.888077,232.344499 263.748503,232.344499 Z" id="Path" fill="#FE6D73"></path>
                <path d="M263.748503,232.344499 L105.85336,232.344499 C103.713786,232.344499 102.007543,230.611173 102.007543,228.498682 L102.007543,70.603539 C102.007543,68.4639651 103.740869,66.7577225 105.85336,66.7577225 L263.748503,66.7577225 C265.888077,66.7577225 267.594319,68.4910483 267.594319,70.603539 L267.594319,228.498682 C267.594319,230.638256 265.888077,232.344499 263.748503,232.344499 Z" id="Path" fill="#FFFFFF" opacity="0.5"></path>
                <path d="M261.094348,232.344499 L103.199205,232.344499 C101.059631,232.344499 99.3533883,230.611173 99.3533883,228.498682 L99.3533883,70.603539 C99.3533883,68.4639651 101.086714,66.7577225 103.199205,66.7577225 L261.094348,66.7577225 C263.233922,66.7577225 264.940164,68.4910483 264.940164,70.603539 L264.940164,228.498682 C264.940164,230.638256 263.233922,232.344499 261.094348,232.344499 Z" id="Path" fill="#FE6D73"></path>
                <path d="M261.094348,232.344499 L103.199205,232.344499 C101.059631,232.344499 99.3533883,230.611173 99.3533883,228.498682 L99.3533883,70.603539 C99.3533883,68.4639651 101.086714,66.7577225 103.199205,66.7577225 L261.094348,66.7577225 C263.233922,66.7577225 264.940164,68.4910483 264.940164,70.603539 L264.940164,228.498682 C264.940164,230.638256 263.233922,232.344499 261.094348,232.344499 Z" id="Path" fill="#FFFFFF" opacity="0.7"></path>
                <path d="M184.692599,29.2745531 C184.692599,22.0433347 190.163408,16.0850274 197.205044,15.2996142 L197.205044,15.2183645 L198.748787,15.2183645 C206.52167,15.2183645 212.804976,21.5016704 212.804976,29.2745531 C212.804976,37.0474357 206.52167,43.3307416 198.748787,43.3307416 L197.205044,43.3307416 L197.205044,43.249492 C190.163408,42.4640787 184.692599,36.5057714 184.692599,29.2745531 Z" id="Path" fill="#B2B6BB"></path>
                <path d="M197.205044,43.3307416 C204.968177,43.3307416 211.261232,37.037415 211.261232,29.2745531 C211.261232,21.5114203 204.968177,15.2183645 197.205044,15.2183645 C189.442182,15.2183645 183.148855,21.5114203 183.148855,29.2745531 C183.148855,37.037415 189.442182,43.3307416 197.205044,43.3307416 Z" id="Path" fill="#868A91"></path>
                <path d="M197.205044,41.7869984 C204.115597,41.7869984 209.717489,36.1851062 209.717489,29.2745531 C209.717489,22.3642708 204.115597,16.7621078 197.205044,16.7621078 C190.294762,16.7621078 184.692599,22.3642708 184.692599,29.2745531 C184.692599,36.1851062 190.294762,41.7869984 197.205044,41.7869984 Z" id="Path" fill="#FFFFFF"></path>
                <path d="M197.205044,41.7869984 C204.115597,41.7869984 209.717489,36.1851062 209.717489,29.2745531 C209.717489,22.3642708 204.115597,16.7621078 197.205044,16.7621078 C190.294762,16.7621078 184.692599,22.3642708 184.692599,29.2745531 C184.692599,36.1851062 190.294762,41.7869984 197.205044,41.7869984 Z" id="Path" fill="#868A91"></path>
                <path d="M197.205044,41.7869984 C204.115597,41.7869984 209.717489,36.1851062 209.717489,29.2745531 C209.717489,22.3642708 204.115597,16.7621078 197.205044,16.7621078 C190.294762,16.7621078 184.692599,22.3642708 184.692599,29.2745531 C184.692599,36.1851062 190.294762,41.7869984 197.205044,41.7869984 Z" id="Path" fill="#FFFFFF" opacity="0.9"></path>
                <path d="M197.205044,16.7621078 C197.42171,16.7621078 197.665458,16.7621078 197.882124,16.789191 C191.27382,17.1412728 186.046759,22.584999 186.046759,29.2745531 C186.046759,35.9641071 191.300903,41.4078333 197.882124,41.7599151 C197.665458,41.7599151 197.448793,41.7869984 197.205044,41.7869984 C190.298824,41.7869984 184.692599,36.1807729 184.692599,29.2745531 C184.692599,22.3683333 190.298824,16.7621078 197.205044,16.7621078 Z" id="Path" fill="#B2B6BB"></path>
                <path d="M197.096711,30.2495488 L201.240443,21.9891682 C201.402942,21.6641697 201.267526,21.2850047 200.942527,21.1225054 C200.617529,20.9600061 200.238364,21.0954222 200.075865,21.4204207 L196.50088,28.516223 L191.734234,26.1870666 C191.409236,26.0245673 191.030071,26.1599833 190.867572,26.4849819 C190.705072,26.8099805 190.840488,27.1891455 191.165487,27.3516448 L197.096711,30.2495488 Z" id="Path" fill="#FE6D73"></path>
                <path d="M186.480091,35.7203582 C185.342596,33.8245332 184.692599,31.6307928 184.692599,29.2745531 C184.692599,22.3683333 190.298824,16.7621078 197.205044,16.7621078 C197.557126,16.7621078 197.882124,16.789191 198.234206,16.8162742 L186.480091,35.7203582 Z" id="Path" fill="#FFFFFF" opacity="0.5"></path>
                <path d="M200.102948,17.1141896 C200.698779,17.2496056 201.294609,17.4391881 201.863357,17.6829371 L188.91758,38.6724286 C188.402999,38.2390972 187.942584,37.7245161 187.509253,37.209935 L200.102948,17.1141896 Z" id="Path" fill="#FFFFFF" opacity="0.5"></path>
                <path d="M175.673888,141.669895 L122.401204,141.669895 C121.263709,141.669895 120.369963,140.749066 120.369963,139.638654 L120.369963,86.3659701 C120.369963,85.2284751 121.290792,84.334729 122.401204,84.334729 L175.673888,84.334729 C176.811383,84.334729 177.705129,85.2555583 177.705129,86.3659701 L177.705129,139.638654 C177.732212,140.776149 176.811383,141.669895 175.673888,141.669895 Z" id="Path" fill="#FE6D73"></path>
                <path d="M175.673888,141.669895 L122.401204,141.669895 C121.263709,141.669895 120.369963,140.749066 120.369963,139.638654 L120.369963,86.3659701 C120.369963,85.2284751 121.290792,84.334729 122.401204,84.334729 L175.673888,84.334729 C176.811383,84.334729 177.705129,85.2555583 177.705129,86.3659701 L177.705129,139.638654 C177.732212,140.776149 176.811383,141.669895 175.673888,141.669895 Z" id="Path" fill="#FFFFFF" opacity="0.5"></path>
                <path d="M173.019733,141.669895 L119.774132,141.669895 C118.636637,141.669895 117.742891,140.749066 117.742891,139.638654 L117.742891,86.3659701 C117.742891,85.2284751 118.663721,84.334729 119.774132,84.334729 L173.046816,84.334729 C174.184311,84.334729 175.078057,85.2555583 175.078057,86.3659701 L175.078057,139.638654 C175.078057,140.776149 174.157228,141.669895 173.019733,141.669895 Z" id="Path" fill="#FFFFFF"></path>
                <path d="M158.936461,123.551224 L133.857404,123.551224 C132.963658,123.551224 132.259494,122.819977 132.259494,121.953315 C132.259494,121.059568 132.990741,120.355405 133.857404,120.355405 L158.936461,120.355405 C159.830207,120.355405 160.534371,121.086652 160.534371,121.953315 C160.561454,122.847061 159.830207,123.551224 158.936461,123.551224 Z" id="Path" fill="#61656D"></path>
                <path d="M165.463516,129.807447 L127.330349,129.807447 C126.869935,129.807447 126.49077,129.428282 126.49077,128.967867 C126.49077,128.507453 126.869935,128.128288 127.330349,128.128288 L165.463516,128.128288 C165.923931,128.128288 166.303096,128.507453 166.303096,128.967867 C166.330179,129.428282 165.951014,129.807447 165.463516,129.807447 Z" id="Path" fill="#B2B6BB"></path>
                <path d="M157.771883,135.007424 L135.049066,135.007424 C134.588651,135.007424 134.209486,134.628259 134.209486,134.167844 C134.209486,133.70743 134.588651,133.328265 135.049066,133.328265 L157.771883,133.328265 C158.232298,133.328265 158.611463,133.70743 158.611463,134.167844 C158.611463,134.628259 158.232298,135.007424 157.771883,135.007424 Z" id="Path" fill="#B2B6BB"></path>
                <path d="M148.56359,90.9971999 L146.396933,90.9971999 L146.396933,91.2138656 C141.359455,92.2159445 137.540721,96.684675 137.540721,102.020068 C137.540721,107.355462 141.332371,111.824192 146.396933,112.826271 L146.396933,113.042937 L148.56359,113.042937 C154.657313,113.042937 159.586458,108.113792 159.586458,102.020068 C159.586458,95.926345 154.657313,90.9971999 148.56359,90.9971999 Z" id="Path" fill="#FE6D73"></path>
                <path d="M148.56359,90.9971999 L146.396933,90.9971999 L146.396933,91.2138656 C141.359455,92.2159445 137.540721,96.684675 137.540721,102.020068 C137.540721,107.355462 141.332371,111.824192 146.396933,112.826271 L146.396933,113.042937 L148.56359,113.042937 C154.657313,113.042937 159.586458,108.113792 159.586458,102.020068 C159.586458,95.926345 154.657313,90.9971999 148.56359,90.9971999 Z" id="Path" fill="#000000" opacity="0.2"></path>
                <path d="M146.396933,113.015854 C152.484698,113.015854 157.419801,108.08075 157.419801,101.992985 C157.419801,95.9052201 152.484698,90.9701167 146.396933,90.9701167 C140.309168,90.9701167 135.374064,95.9052201 135.374064,101.992985 C135.374064,108.08075 140.309168,113.015854 146.396933,113.015854 Z" id="Path" fill="#FE6D73"></path>
                <path d="M144.365421,106.597132 L140.65502,102.886731 C140.465438,102.697149 140.465438,102.37215 140.65502,102.155484 L141.630016,101.180489 C141.819598,100.990906 142.144597,100.990906 142.361263,101.180489 L144.744586,103.563812 L150.486227,97.7950868 C150.67581,97.6055043 151.000808,97.6055043 151.217474,97.7950868 L152.19247,98.7700826 C152.382052,98.9596651 152.382052,99.2846636 152.19247,99.5013294 L145.096667,106.597132 C144.880002,106.813797 144.555003,106.813797 144.365421,106.597132 Z" id="Path" fill="#FFFFFF"></path>
                <path d="M247.173575,141.669895 L193.900892,141.669895 C192.763397,141.669895 191.86965,140.749066 191.86965,139.638654 L191.86965,86.3659701 C191.86965,85.2284751 192.79048,84.334729 193.900892,84.334729 L247.173575,84.334729 C248.31107,84.334729 249.204816,85.2555583 249.204816,86.3659701 L249.204816,139.638654 C249.2319,140.776149 248.31107,141.669895 247.173575,141.669895 Z" id="Path" fill="#FE6D73"></path>
                <path d="M247.173575,141.669895 L193.900892,141.669895 C192.763397,141.669895 191.86965,140.749066 191.86965,139.638654 L191.86965,86.3659701 C191.86965,85.2284751 192.79048,84.334729 193.900892,84.334729 L247.173575,84.334729 C248.31107,84.334729 249.204816,85.2555583 249.204816,86.3659701 L249.204816,139.638654 C249.2319,140.776149 248.31107,141.669895 247.173575,141.669895 Z" id="Path" fill="#FFFFFF" opacity="0.5"></path>
                <path d="M244.546503,141.669895 L191.27382,141.669895 C190.136325,141.669895 189.242579,140.749066 189.242579,139.638654 L189.242579,86.3659701 C189.242579,85.2284751 190.163408,84.334729 191.27382,84.334729 L244.546503,84.334729 C245.683999,84.334729 246.577745,85.2555583 246.577745,86.3659701 L246.577745,139.638654 C246.577745,140.776149 245.656915,141.669895 244.546503,141.669895 Z" id="Path" fill="#FFFFFF"></path>
                <path d="M230.436149,123.551224 L205.357091,123.551224 C204.463345,123.551224 203.759182,122.819977 203.759182,121.953315 C203.759182,121.059568 204.490429,120.355405 205.357091,120.355405 L230.436149,120.355405 C231.329895,120.355405 232.034058,121.086652 232.034058,121.953315 C232.061141,122.847061 231.329895,123.551224 230.436149,123.551224 Z" id="Path" fill="#61656D"></path>
                <path d="M236.963203,129.807447 L198.830037,129.807447 C198.369622,129.807447 197.990457,129.428282 197.990457,128.967867 C197.990457,128.507453 198.369622,128.128288 198.830037,128.128288 L236.963203,128.128288 C237.423618,128.128288 237.802783,128.507453 237.802783,128.967867 C237.829866,129.428282 237.450701,129.807447 236.963203,129.807447 Z" id="Path" fill="#B2B6BB"></path>
                <path d="M229.27157,135.007424 L206.548753,135.007424 C206.088338,135.007424 205.709173,134.628259 205.709173,134.167844 C205.709173,133.70743 206.088338,133.328265 206.548753,133.328265 L229.27157,133.328265 C229.731985,133.328265 230.11115,133.70743 230.11115,134.167844 C230.11115,134.628259 229.731985,135.007424 229.27157,135.007424 Z" id="Path" fill="#B2B6BB"></path>
                <path d="M220.063277,90.9971999 L217.89662,90.9971999 L217.89662,91.2138656 C212.859142,92.2159445 209.040409,96.684675 209.040409,102.020068 C209.040409,107.355462 212.832059,111.824192 217.89662,112.826271 L217.89662,113.042937 L220.063277,113.042937 C226.157001,113.042937 231.086146,108.113792 231.086146,102.020068 C231.086146,95.926345 226.157001,90.9971999 220.063277,90.9971999 Z" id="Path" fill="#FE6D73"></path>
                <path d="M220.063277,90.9971999 L217.89662,90.9971999 L217.89662,91.2138656 C212.859142,92.2159445 209.040409,96.684675 209.040409,102.020068 C209.040409,107.355462 212.832059,111.824192 217.89662,112.826271 L217.89662,113.042937 L220.063277,113.042937 C226.157001,113.042937 231.086146,108.113792 231.086146,102.020068 C231.086146,95.926345 226.157001,90.9971999 220.063277,90.9971999 Z" id="Path" fill="#000000" opacity="0.2"></path>
                <path d="M228.784072,103.757998 C229.759068,97.7487745 225.677628,92.0867576 219.670571,91.111491 C213.660805,90.1362245 207.997976,94.2171233 207.022709,100.226347 C206.047443,106.235571 210.128341,111.897588 216.138919,112.872854 C222.145976,113.848121 227.809077,109.767222 228.784072,103.757998 Z" id="Path" fill="#FE6D73"></path>
                <path d="M215.865379,106.597132 L212.154978,102.886731 C211.965396,102.697149 211.965396,102.37215 212.154978,102.155484 L213.129974,101.180489 C213.319557,100.990906 213.644555,100.990906 213.861221,101.180489 L216.244544,103.563812 L221.986185,97.7950868 C222.175768,97.6055043 222.500767,97.6055043 222.717432,97.7950868 L223.692428,98.7700826 C223.882011,98.9596651 223.882011,99.2846636 223.692428,99.5013294 L216.596626,106.597132 C216.37996,106.813797 216.054961,106.813797 215.865379,106.597132 Z" id="Path" fill="#FFFFFF"></path>
                <path d="M175.673888,216.907066 L122.401204,216.907066 C121.263709,216.907066 120.369963,215.986237 120.369963,214.875825 L120.369963,161.603141 C120.369963,160.465646 121.290792,159.5719 122.401204,159.5719 L175.673888,159.5719 C176.811383,159.5719 177.705129,160.492729 177.705129,161.603141 L177.705129,214.875825 C177.732212,215.986237 176.811383,216.907066 175.673888,216.907066 Z" id="Path" fill="#FE6D73"></path>
                <path d="M175.673888,216.907066 L122.401204,216.907066 C121.263709,216.907066 120.369963,215.986237 120.369963,214.875825 L120.369963,161.603141 C120.369963,160.465646 121.290792,159.5719 122.401204,159.5719 L175.673888,159.5719 C176.811383,159.5719 177.705129,160.492729 177.705129,161.603141 L177.705129,214.875825 C177.732212,215.986237 176.811383,216.907066 175.673888,216.907066 Z" id="Path" fill="#FFFFFF" opacity="0.5"></path>
                <path d="M173.019733,216.907066 L119.774132,216.907066 C118.636637,216.907066 117.742891,215.986237 117.742891,214.875825 L117.742891,161.603141 C117.742891,160.465646 118.663721,159.5719 119.774132,159.5719 L173.046816,159.5719 C174.184311,159.5719 175.078057,160.492729 175.078057,161.603141 L175.078057,214.875825 C175.078057,215.986237 174.157228,216.907066 173.019733,216.907066 Z" id="Path" fill="#FFFFFF"></path>
                <path d="M158.936461,198.788395 L133.857404,198.788395 C132.963658,198.788395 132.259494,198.057148 132.259494,197.190486 C132.259494,196.29674 132.990741,195.592576 133.857404,195.592576 L158.936461,195.592576 C159.830207,195.592576 160.534371,196.323823 160.534371,197.190486 C160.561454,198.084232 159.830207,198.788395 158.936461,198.788395 Z" id="Path" fill="#61656D"></path>
                <path d="M165.463516,205.044889 L127.330349,205.044889 C126.869935,205.044889 126.49077,204.665724 126.49077,204.205309 C126.49077,203.744894 126.869935,203.365729 127.330349,203.365729 L165.463516,203.365729 C165.923931,203.365729 166.303096,203.744894 166.303096,204.205309 C166.330179,204.665724 165.951014,205.044889 165.463516,205.044889 Z" id="Path" fill="#B2B6BB"></path>
                <path d="M157.771883,210.244595 L135.049066,210.244595 C134.588651,210.244595 134.209486,209.86543 134.209486,209.405016 C134.209486,208.944601 134.588651,208.565436 135.049066,208.565436 L157.771883,208.565436 C158.232298,208.565436 158.611463,208.944601 158.611463,209.405016 C158.611463,209.86543 158.232298,210.244595 157.771883,210.244595 Z" id="Path" fill="#B2B6BB"></path>
                <path d="M148.56359,166.234371 L146.396933,166.234371 L146.396933,166.451037 C141.359455,167.453116 137.540721,171.921846 137.540721,177.25751 C137.540721,182.592904 141.332371,187.061363 146.396933,188.063442 L146.396933,188.280379 L148.56359,188.280379 C154.657313,188.280379 159.586458,183.351234 159.586458,177.25751 C159.586458,171.163787 154.657313,166.234371 148.56359,166.234371 Z" id="Path" fill="#FE6D73"></path>
                <path d="M148.56359,166.234371 L146.396933,166.234371 L146.396933,166.451037 C141.359455,167.453116 137.540721,171.921846 137.540721,177.25751 C137.540721,182.592904 141.332371,187.061363 146.396933,188.063442 L146.396933,188.280379 L148.56359,188.280379 C154.657313,188.280379 159.586458,183.351234 159.586458,177.25751 C159.586458,171.163787 154.657313,166.234371 148.56359,166.234371 Z" id="Path" fill="#000000" opacity="0.2"></path>
                <path d="M146.396933,188.253025 C152.484698,188.253025 157.419801,183.317921 157.419801,177.230156 C157.419801,171.142391 152.484698,166.207288 146.396933,166.207288 C140.309168,166.207288 135.374064,171.142391 135.374064,177.230156 C135.374064,183.317921 140.309168,188.253025 146.396933,188.253025 Z" id="Path" fill="#FE6D73"></path>
                <path d="M144.365421,181.834303 L140.65502,178.123902 C140.465438,177.93432 140.465438,177.609321 140.65502,177.392655 L141.630016,176.41766 C141.819598,176.228077 142.144597,176.228077 142.361263,176.41766 L144.744586,178.800983 L150.486227,173.032258 C150.67581,172.842675 151.000808,172.842675 151.217474,173.032258 L152.19247,174.007254 C152.382052,174.196836 152.382052,174.521835 152.19247,174.7385 L145.096667,181.834303 C144.880002,182.050968 144.555003,182.050968 144.365421,181.834303 Z" id="Path" fill="#FFFFFF"></path>
                <path d="M247.173575,216.907066 L193.900892,216.907066 C192.763397,216.907066 191.86965,215.986237 191.86965,214.875825 L191.86965,161.603141 C191.86965,160.465646 192.79048,159.5719 193.900892,159.5719 L247.173575,159.5719 C248.31107,159.5719 249.204816,160.492729 249.204816,161.603141 L249.204816,214.875825 C249.2319,215.986237 248.31107,216.907066 247.173575,216.907066 Z" id="Path" fill="#FE6D73"></path>
                <path d="M247.173575,216.907066 L193.900892,216.907066 C192.763397,216.907066 191.86965,215.986237 191.86965,214.875825 L191.86965,161.603141 C191.86965,160.465646 192.79048,159.5719 193.900892,159.5719 L247.173575,159.5719 C248.31107,159.5719 249.204816,160.492729 249.204816,161.603141 L249.204816,214.875825 C249.2319,215.986237 248.31107,216.907066 247.173575,216.907066 Z" id="Path" fill="#FFFFFF" opacity="0.5"></path>
                <path d="M244.546503,216.907066 L191.27382,216.907066 C190.136325,216.907066 189.242579,215.986237 189.242579,214.875825 L189.242579,161.603141 C189.242579,160.465646 190.163408,159.5719 191.27382,159.5719 L244.546503,159.5719 C245.683999,159.5719 246.577745,160.492729 246.577745,161.603141 L246.577745,214.875825 C246.577745,215.986237 245.656915,216.907066 244.546503,216.907066 Z" id="Path" fill="#FFFFFF"></path>
                <path d="M230.436149,198.788395 L205.357091,198.788395 C204.463345,198.788395 203.759182,198.057148 203.759182,197.190486 C203.759182,196.29674 204.490429,195.592576 205.357091,195.592576 L230.436149,195.592576 C231.329895,195.592576 232.034058,196.323823 232.034058,197.190486 C232.061141,198.084232 231.329895,198.788395 230.436149,198.788395 Z" id="Path" fill="#61656D"></path>
                <path d="M236.963203,205.044889 L198.830037,205.044889 C198.369622,205.044889 197.990457,204.665724 197.990457,204.205309 C197.990457,203.744894 198.369622,203.365729 198.830037,203.365729 L236.963203,203.365729 C237.423618,203.365729 237.802783,203.744894 237.802783,204.205309 C237.829866,204.665724 237.450701,205.044889 236.963203,205.044889 Z" id="Path" fill="#B2B6BB"></path>
                <path d="M229.27157,210.244595 L206.548753,210.244595 C206.088338,210.244595 205.709173,209.86543 205.709173,209.405016 C205.709173,208.944601 206.088338,208.565436 206.548753,208.565436 L229.27157,208.565436 C229.731985,208.565436 230.11115,208.944601 230.11115,209.405016 C230.11115,209.86543 229.731985,210.244595 229.27157,210.244595 Z" id="Path" fill="#B2B6BB"></path>
                <path d="M220.063277,166.234371 L217.89662,166.234371 L217.89662,166.451037 C212.859142,167.453116 209.040409,171.921846 209.040409,177.25751 C209.040409,182.592904 212.832059,187.061363 217.89662,188.063442 L217.89662,188.280379 L220.063277,188.280379 C226.157001,188.280379 231.086146,183.351234 231.086146,177.25751 C231.086146,171.163787 226.157001,166.234371 220.063277,166.234371 Z" id="Path" fill="#FE6D73"></path>
                <path d="M220.063277,166.234371 L217.89662,166.234371 L217.89662,166.451037 C212.859142,167.453116 209.040409,171.921846 209.040409,177.25751 C209.040409,182.592904 212.832059,187.061363 217.89662,188.063442 L217.89662,188.280379 L220.063277,188.280379 C226.157001,188.280379 231.086146,183.351234 231.086146,177.25751 C231.086146,171.163787 226.157001,166.234371 220.063277,166.234371 Z" id="Path" fill="#000000" opacity="0.2"></path>
                <path d="M228.784072,178.996794 C229.759068,172.987571 225.680336,167.325554 219.670571,166.350287 C213.660805,165.375021 207.999059,169.455649 207.023793,175.464872 C206.048526,181.474096 210.129154,187.136113 216.138919,188.111379 C222.148685,189.086646 227.809077,185.006018 228.784072,178.996794 Z" id="Path" fill="#FE6D73"></path>
                <path d="M215.865379,181.834574 L212.154978,178.124173 C211.965396,177.934591 211.965396,177.609592 212.154978,177.392926 L213.129974,176.417931 C213.319557,176.228348 213.644555,176.228348 213.861221,176.417931 L216.244544,178.801253 L221.986185,173.032529 C222.175768,172.842946 222.500767,172.842946 222.717432,173.032529 L223.692428,174.007524 C223.882011,174.197107 223.882011,174.522106 223.692428,174.738771 L216.596626,181.834574 C216.37996,182.051239 216.054961,182.051239 215.865379,181.834574 Z" id="Path" fill="#FFFFFF"></path>
                <path d="M207.713331,227.55077 C205.709173,227.55077 204.08418,229.175762 204.08418,231.17992 C204.08418,231.613252 204.436262,231.965334 204.869594,231.965334 L210.692485,231.965334 C211.342482,231.965334 211.938313,231.586169 212.209145,230.963255 L219.792445,213.954996 L211.288316,204.096705 C211.423732,204.584203 207.713331,227.55077 207.713331,227.55077 Z" id="Path" fill="#3F4249"></path>
                <path d="M249.719398,213.548747 L235.311127,213.548747 L241.106935,219.100806 C241.946515,219.913303 242.32568,221.077881 242.109014,222.242459 L241.079852,227.55077 C239.156944,227.55077 237.6132,229.094513 237.6132,231.017421 L237.6132,231.17992 C237.6132,231.613252 237.965282,231.965334 238.398614,231.965334 L243.679841,231.965334 C244.302755,231.965334 244.898585,231.613252 245.169417,231.044504 L250.125646,220.996632 C250.775643,219.669554 250.938142,218.125811 250.558977,216.6904 L249.719398,213.548747 Z" id="Path" fill="#3F4249"></path>
                <path d="M257.546447,202.173797 C260.579767,201.252968 266.213075,198.002982 268.813064,194.671747 C269.002647,194.400914 269.002647,194.048833 268.813064,193.778001 C268.596398,193.507168 268.217233,193.453002 267.919318,193.615501 C245.061085,206.507112 221.60702,191.232178 221.60702,191.232178 C221.282022,189.417603 220.17161,187.87386 218.5737,186.95303 C215.377881,185.138455 211.450815,185.138455 208.227912,186.925947 C207.1175,187.548861 205.790423,187.684277 204.571678,187.250946 L200.996694,185.978035 C200.37378,185.761369 199.6967,186.167617 199.642533,186.844698 L199.5342,187.900943 C199.182118,191.042596 200.29253,194.184249 202.513354,196.432156 L217.842454,211.977921 C219.575779,213.73833 220.361193,216.202902 220.009111,218.640392 L218.65495,227.577853 C216.650792,227.577853 215.025799,229.202846 215.025799,231.207004 C215.025799,231.640335 215.377881,231.992417 215.811212,231.992417 L221.634104,231.992417 C222.284101,231.992417 222.879932,231.613252 223.150764,230.990338 L230.86948,213.575831 L246.171496,213.575831 L251.967304,219.12789 C252.806884,219.940386 253.186049,221.104964 252.969383,222.269543 L251.940221,227.577853 C250.017313,227.577853 248.47357,229.121596 248.47357,231.044504 C248.47357,231.586169 248.906901,231.992417 249.421482,231.992417 L254.513127,231.992417 C255.136041,231.992417 255.731871,231.640335 256.002703,231.071587 L260.958932,221.023715 C261.608929,219.696637 261.771428,218.152894 261.392263,216.717484 L257.546447,202.173797 Z" id="Path" fill="#868A91"></path>
                <path d="M211.525835,189.280562 C211.938313,188.868084 212.041229,188.302045 211.756855,188.016588 C211.470315,187.731131 210.904276,187.834047 210.491798,188.246525 C210.079321,188.659002 209.976405,189.22477 210.262133,189.510228 C210.54759,189.795955 211.113358,189.693039 211.525835,189.280562 Z" id="Path" fill="#3F4249"></path>
                <path d="M254.133962,209.702931 C254.133962,212.790417 256.625617,215.282073 259.713104,215.282073 C260.119352,215.282073 260.5256,215.227907 260.931849,215.146657 L258.142277,204.367538 C255.813121,205.017535 254.133962,207.157109 254.133962,209.702931 Z" id="Path" fill="#3F4249"></path>
                <path d="M229.813235,215.796654 L228.811156,215.390406 C227.456995,214.848742 225.940335,215.17374 224.911173,216.202902 C224.071593,217.069565 223.719511,218.28831 223.96326,219.479971 L224.152843,220.292468 C224.288259,220.942465 224.261176,221.619545 224.04451,222.269543 L223.96326,222.486208 C223.421596,224.057035 223.719511,225.790361 224.80284,227.090355 L229.813235,215.796654 Z" id="Path" fill="#3F4249"></path>
                <path d="M223.042431,192.125924 L224.017427,198.111315 C224.559091,201.469634 227.565328,203.663374 230.598648,202.932127 L233.415302,202.255047 C234.038216,202.092548 234.715296,202.092548 235.33821,202.20088 L241.377767,203.365459 C244.329838,203.934206 247.281908,202.471713 248.852735,199.682141 L249.340233,198.815478 C237.071536,199.16756 226.752831,194.184249 223.042431,192.125924 Z" id="Path" fill="#3F4249"></path>
                <path d="M261.28393,196.621738 C261.852678,197.05507 262.556841,197.298818 263.342255,197.298818 C265.102664,197.298818 266.565157,195.971741 266.75474,194.265498 C264.913081,195.213411 263.098506,195.998824 261.28393,196.621738 Z" id="Path" fill="#3F4249"></path>
                <path d="M207.28,194.102999 C206.467503,192.992587 206.142505,191.611343 206.305004,190.257183 L206.657086,187.494695 C205.952922,187.603028 205.221675,187.548861 204.544595,187.305112 L200.969611,186.032201 C200.346697,185.815535 199.669616,186.221784 199.61545,186.898864 L199.507117,187.955109 C199.155035,191.096762 200.265447,194.238415 202.486271,196.486322 L206.982084,201.036302 L207.632082,199.844641 C208.63416,198.002982 208.498744,195.782158 207.28,194.102999 Z" id="Path" fill="#B2B6BB"></path>
                <path d="M220.902857,192.288424 L223.692428,199.302976 C224.396592,200.955052 223.719511,203.148793 222.229934,204.123789 C220.469525,205.288367 218.086203,205.369617 215.757046,203.12171 C212.58831,200.08839 213.915387,193.344669 215.54038,190.771764" id="Path" fill="#3F4249"></path>
                <polygon id="Path" fill="#3F4249" points="246.090247 213.575831 243.029843 210.244595 245.602749 215.850821"></polygon>
                <path d="M203.163351,186.790531 L201.023777,186.032201 C200.37378,185.788452 199.669616,186.248867 199.588367,186.925947 L199.425867,188.442607 C199.6967,188.496774 199.967532,188.55094 200.238364,188.55094 C201.511275,188.523857 202.621687,187.819693 203.163351,186.790531 Z" id="Path" fill="#3F4249"></path>
                <path d="M220.632025,191.611343 L223.557012,198.869645 C223.990343,199.92589 223.611178,201.144635 222.636183,201.740466 C221.200772,202.634212 218.871616,203.257126 216.352877,200.84672 C213.671638,198.273814 214.050803,192.803005 215.784129,190.338432" id="Path" fill="#868A91"></path>
                <path d="M220.009111,202.715461 C218.871616,202.715461 217.571621,202.255047 216.217461,200.955052 C214.94455,199.736308 214.240386,197.8134 214.213303,195.511326 C214.18622,193.480085 214.727884,191.448844 215.62163,190.175933 C215.675796,190.094683 215.784129,190.0676 215.865379,190.121767 C215.946629,190.175933 215.973712,190.284266 215.919545,190.365515 C214.294552,192.640505 213.807055,198.084232 216.46121,200.657137 C218.898699,202.986294 221.092439,202.417546 222.52785,201.5238 C223.421596,200.955052 223.773678,199.871724 223.367429,198.896728 L220.442442,191.638427 C220.415359,191.557177 220.442442,191.448844 220.550775,191.394678 C220.632025,191.367594 220.740358,191.394678 220.794524,191.50301 L223.719511,198.761312 C224.207009,199.898807 223.773678,201.198801 222.744515,201.848799 C221.986185,202.336296 221.065356,202.715461 220.009111,202.715461 Z" id="Path" fill="#3F4249"></path>
                <path d="M230.815314,213.575831 C230.815314,213.575831 234.065299,209.730014 243.056927,210.217512 L244.573587,213.575831 L230.815314,213.575831 Z" id="Path" fill="#B2B6BB"></path>
                <path d="M257.329781,201.252968 L257.546447,202.20088 C257.546447,202.20088 259.84852,201.469634 261.906844,200.223806 L257.329781,201.252968 Z" id="Path" fill="#3F4249"></path>
                <path d="M202.675853,192.207174 C201.944606,192.207174 201.321692,191.990508 200.834195,191.58426 C199.290451,190.284266 199.5342,187.440528 199.5342,187.305112 C199.5342,187.196779 199.642533,187.142613 199.723783,187.142613 C199.832116,187.142613 199.886282,187.250946 199.886282,187.332195 C199.886282,187.359279 199.642533,190.121767 201.05086,191.286345 C201.727941,191.855092 202.675853,191.963425 203.894598,191.638427 C204.002931,191.611343 204.08418,191.66551 204.111264,191.773843 C204.138347,191.882175 204.08418,191.963425 203.975848,191.990508 C203.542516,192.153008 203.082101,192.207174 202.675853,192.207174 Z" id="Path" fill="#3F4249"></path>
                <path d="M108.236683,65.7285604 C108.236683,66.2973079 108.697097,66.7577225 109.265845,66.7577225 L111.324169,66.7577225 L111.757501,71.0910369 C111.784584,71.4160355 112.082499,71.6868676 112.407498,71.6868676 C112.75958,71.6868676 113.030412,71.4160355 113.057495,71.0639537 L113.328327,66.9202218 C113.328327,66.8660554 113.382494,66.8118889 113.463743,66.8118889 C113.51791,66.8118889 113.572076,66.8660554 113.599159,66.9202218 L113.869991,71.0639537 C113.897075,71.4160355 114.19499,71.6868676 114.547072,71.6868676 C114.899154,71.6868676 115.224152,71.3889523 115.224152,71.0368705 C115.278319,69.6827097 115.440818,66.8389722 115.440818,66.8389722 L115.251235,70.9556208 C115.224152,71.3618691 115.549151,71.6868676 115.955399,71.6868676 C116.307481,71.6868676 116.578313,71.4431187 116.632479,71.0910369 L117.255393,66.8660554 L116.794979,70.0077083 C116.740812,70.3327069 117.011644,70.6577055 117.336643,70.6577055 C117.580392,70.6577055 117.797058,70.4952062 117.878307,70.2785405 L118.799137,67.5160525 C118.934553,66.8389722 118.690804,66.1348086 118.176223,65.7014771 C116.090815,63.8869017 113.111661,63.5348199 110.674172,64.8618975 L108.399182,65.5660611 C108.317932,65.5389778 108.236683,65.6473107 108.236683,65.7285604 Z" id="Path" fill="#FC9D9D"></path>
                <g id="Group" opacity="0.15" transform="translate(115.119069, 66.828139)" fill="#000000">
                    <polygon id="Path" points="0.250669523 0 0 3.81629582 0.749330477 3.82902493 1 0.0124582789"></polygon>
                </g>
                <g id="Group" opacity="0.15" transform="translate(116.780083, 67.042638)" fill="#000000">
                    <polygon id="Path" points="0.403673644 0 0 3.07692405 0.595899188 3.10834058 1 0.0314165293"></polygon>
                </g>
                <path d="M111.323898,66.7577225 L109.536406,66.7577225 L110.619735,65.7285604 C110.836401,65.5118946 111.215566,65.6473107 111.242649,65.9723093 L111.323898,66.7577225 Z" id="Path" fill="#000000" opacity="0.2"></path>
                <path d="M53.826504,81.3826586 L54.6660836,76.4535135 C54.6931669,76.2910142 54.9369158,76.2910142 54.963999,76.4535135 L56.3181598,86.1493044 L54.3952515,86.2847205 L53.826504,81.3826586 Z" id="Path" fill="#000000" opacity="0.15"></path>
            </g>
        </g>
    </g>
</svg>