<?xml version="1.0" encoding="UTF-8"?>
<svg width="46.875px" height="46.7469533px" viewBox="0 0 46.875 46.7469533" version="1.1" xmlns="http://www.w3.org/2000/svg" xmlns:xlink="http://www.w3.org/1999/xlink">
    <g id="assets" stroke="none" stroke-width="1" fill="none" fill-rule="evenodd">
        <g id="admin-assets" transform="translate(-84.5625, -459.5625)" fill="#FFFFFF">
            <path d="M127.543761,484.279966 C127.325092,485.313803 126.846888,486.257305 126.177977,487.043079 C124.97494,488.457616 123.153894,489.361686 121.118482,489.361686 L118.121643,489.361686 L114.417178,489.361686 L114.361256,489.305047 L101.638314,489.305047 L101.638314,476.663837 L101.638314,469.881518 C101.638314,466.263087 104.494631,463.322887 107.999785,463.322887 C111.505656,463.322887 114.361256,466.263087 114.361256,469.881518 L114.361256,472.935713 L114.361256,476.663837 L118.065004,476.663837 L118.065004,476.639461 L118.065004,476.639461 L118.121643,476.638744 L121.118482,476.638744 C123.832126,476.638744 126.164355,478.245422 127.160911,480.527465 C127.493574,481.288146 127.677113,482.124106 127.677113,483.000215 C127.677113,483.43827 127.631228,483.866287 127.543761,484.279966 M121.118482,472.935713 L118.065004,472.935713 L118.065004,469.881518 C118.065004,464.199713 113.541068,459.5625 107.999785,459.5625 C102.458501,459.5625 97.9352826,464.199713 97.9352826,469.881518 L97.9352826,476.663837 L97.9352826,493.064717 L114.361256,493.064717 L118.065004,493.064717 L121.118482,493.064717 C126.801004,493.064717 131.4375,488.541499 131.4375,483.000215 C131.4375,477.458932 126.801004,472.935713 121.118482,472.935713 M84.5625,482.87224 C84.5625,488.413524 89.1989964,492.936742 94.8815185,492.936742 L95.9182239,492.936742 L95.9182239,489.233711 L94.8815185,489.233711 C91.2630869,489.233711 88.3228871,486.377394 88.3228871,482.87224 C88.3228871,479.366369 91.2630869,476.510769 94.8815185,476.510769 L95.9182239,476.510769 L95.9182239,472.807738 L94.8815185,472.807738 C89.1989964,472.807738 84.5625,477.330957 84.5625,482.87224 M114.361256,495.990435 C114.361256,499.608866 111.505656,502.549783 107.999785,502.549783 C104.494631,502.549783 101.638314,499.608866 101.638314,495.990435 L101.638314,495.081346 L97.9352826,495.081346 L97.9352826,495.990435 C97.9352826,501.672957 102.458501,506.309453 107.999785,506.309453 C113.541068,506.309453 118.065004,501.672957 118.065004,495.990435 L118.065004,495.081346 L114.361256,495.081346 L114.361256,495.990435 Z" id="logo-icon"></path>
        </g>
    </g>
</svg>