<?xml version="1.0" encoding="UTF-8"?>
<svg width="160px" height="159.562934px" viewBox="0 0 160 159.562934" version="1.1" xmlns="http://www.w3.org/2000/svg" xmlns:xlink="http://www.w3.org/1999/xlink">
    <title>favicon</title>
    <g id="assets" stroke="none" stroke-width="1" fill="none" fill-rule="evenodd">
        <g id="admin-assets" transform="translate(-63, -118)" fill="#FE6D73">
            <g id="favicon" transform="translate(63, 118)">
                <path d="M146.70937,84.368949 C145.96298,87.8977813 144.330712,91.1182691 142.047494,93.8003775 C137.941127,98.628662 131.725292,101.714555 124.77775,101.714555 L114.548541,101.714555 L101.903967,101.714555 L101.713087,101.521228 L58.2854451,101.521228 L58.2854451,58.3725647 L58.2854451,35.2222498 C58.2854451,22.8713365 68.0350069,12.8354547 79.9992658,12.8354547 C91.965972,12.8354547 101.713087,22.8713365 101.713087,35.2222498 L101.713087,45.647233 L101.713087,58.3725647 L114.355214,58.3725647 L114.355214,58.2893606 L114.355214,58.2893606 L114.548541,58.2869134 L124.77775,58.2869134 C134.040323,58.2869134 142.000997,63.7710419 145.402576,71.5604132 C146.538067,74.1568703 147.164545,77.0102812 147.164545,80.0007342 C147.164545,81.4959606 147.007926,82.9569266 146.70937,84.368949 M124.77775,45.647233 L114.355214,45.647233 L114.355214,35.2222498 C114.355214,15.8283549 98.9135136,0 79.9992658,0 C61.0850181,0 45.6457647,15.8283549 45.6457647,35.2222498 L45.6457647,58.3725647 L45.6457647,114.354235 L101.713087,114.354235 L114.355214,114.354235 L124.77775,114.354235 C144.174092,114.354235 160,98.9149819 160,80.0007342 C160,61.0864864 144.174092,45.647233 124.77775,45.647233 M0,79.5639127 C0,98.4781605 15.8259077,113.917414 35.2222498,113.917414 L38.7608708,113.917414 L38.7608708,101.277733 L35.2222498,101.277733 C22.8713365,101.277733 12.8354547,91.5281716 12.8354547,79.5639127 C12.8354547,67.5972065 22.8713365,57.8500919 35.2222498,57.8500919 L38.7608708,57.8500919 L38.7608708,45.2104115 L35.2222498,45.2104115 C15.8259077,45.2104115 0,60.6496649 0,79.5639127 M101.713087,124.340684 C101.713087,136.691597 91.965972,146.729926 79.9992658,146.729926 C68.0350069,146.729926 58.2854451,136.691597 58.2854451,124.340684 L58.2854451,121.237661 L45.6457647,121.237661 L45.6457647,124.340684 C45.6457647,143.737026 61.0850181,159.562934 79.9992658,159.562934 C98.9135136,159.562934 114.355214,143.737026 114.355214,124.340684 L114.355214,121.237661 L101.713087,121.237661 L101.713087,124.340684 Z" id="logo-icon"></path>
            </g>
        </g>
    </g>
</svg>